<svg xmlns="http://www.w3.org/2000/svg" width="109" height="36" viewBox="0 0 109 36">
    <path fill="#D77628" fill-rule="evenodd" d="M2 0h105a2 2 0 0 1 2 2v32a2 2 0 0 1-2 2H2a2 2 0 0 1-2-2V2a2 2 0 0 1 2-2zm16.816 17.528h-1.44v-2.544h1.44v2.544zm1.464-.672h.936v2.388h1.476v-6.06h-1.476v2.4h-.936v-1.8H15.9v4.932h4.38v-1.86zm-1.272 4.188H23.4v1.62h-4.392v-1.62zm-1.56 2.856h7.488v-4.104h-7.488V23.9zm5.988-10.92v6.36h1.5v-6.36h-1.5zm7.272 7.212h-2.172v-2.448h2.172v2.448zm3.54-7.224v3.888h-1.98v-3.012h-1.56v2.664h-2.172v-2.664h-1.572v7.608h5.304v-3.324h1.98v5.928h1.584V12.968h-1.584zm10.128 4.464c-1.788-.516-2.58-1.8-2.58-3.108v-1.02h-1.608v1.02c0 1.344-.804 2.736-2.652 3.288l.768 1.248c1.308-.396 2.208-1.236 2.712-2.28.492.96 1.344 1.716 2.604 2.088l.756-1.236zm.828 5.208h-4.2v-.996h4.2v.996zm0-2.208h-4.2V19.4h-1.572v4.5h7.344v-4.5h-1.572v1.032zm-.024-7.452v5.94h1.596v-5.94H45.18zm15.36.012h-1.596v8.052h1.596v-8.052zm-2.412 5.124c-1.8-.576-2.568-1.992-2.568-3.444v-1.08h-1.608v1.08c0 1.464-.792 3.012-2.628 3.636l.804 1.26c1.284-.444 2.148-1.344 2.652-2.46.48 1.032 1.32 1.848 2.544 2.268l.804-1.26zm-3.36 4.464v-2.304h-1.584v3.564h7.632v-1.26h-6.048zm13.572-6.648v1.272h1.716v2.448h1.584V12.98h-1.584v2.952H68.34zm.696 2.16c-1.764-.468-2.556-1.584-2.58-2.724h2.184V14.12h-2.184v-1.176h-1.584v1.176h-2.16v1.248h2.16c-.024 1.236-.792 2.484-2.544 2.988l.744 1.224c1.284-.372 2.148-1.152 2.64-2.16.504.876 1.368 1.56 2.604 1.884l.72-1.212zm-1.128 4.728c-1.464 0-2.208-.276-2.208-.876s.744-.888 2.208-.888c1.44 0 2.196.288 2.196.888 0 .6-.756.876-2.196.876zm0-2.976c-2.352 0-3.792.768-3.792 2.1 0 1.32 1.44 2.088 3.792 2.088 2.34 0 3.78-.768 3.78-2.088 0-1.332-1.44-2.1-3.78-2.1zm8.724.636c-.744 0-1.296-.504-1.296-1.344 0-.84.552-1.356 1.296-1.356s1.284.516 1.284 1.344c0 .852-.54 1.356-1.284 1.356zm0-3.984c-1.608 0-2.808 1.092-2.808 2.628 0 1.56 1.2 2.652 2.808 2.652 1.596 0 2.784-1.092 2.784-2.652 0-1.536-1.188-2.628-2.784-2.628zm.78-3.324h-1.584v1.44H73.38v1.26h6.432v-1.26h-2.4v-1.44zM83.7 17.3h-1.584v-4.32h-1.584v11.052h1.584v-5.424H83.7V17.3zm1.392-3.18v1.26h3.684c-.228 2.448-1.452 4.176-4.272 5.532l.828 1.248c3.924-1.896 5.064-4.656 5.064-8.04h-5.304zm6.996-1.152V24.02h1.596V12.968h-1.596z"/>
</svg>
