<svg xmlns="http://www.w3.org/2000/svg" xmlns:xlink="http://www.w3.org/1999/xlink" width="327" height="362" viewBox="0 0 327 362">
    <defs>
        <path id="a" d="M27 46c7.91 0 19-11.09 19-19S34.91 8 27 8 8 19.09 8 27s11.09 19 19 19z"/>
        <path id="d" d="M59.449 7V4a4 4 0 0 1 4-4h185a4 4 0 0 1 4 4v73a4 4 0 0 1-4 4h-185a4 4 0 0 1-4-4V15.294l-6.602-4.66A2 2 0 0 1 54 7h5.449z"/>
        <filter id="c" width="103.5%" height="108.6%" x="-1.7%" y="-3.1%" filterUnits="objectBoundingBox">
            <feOffset dy="1" in="SourceAlpha" result="shadowOffsetOuter1"/>
            <feGaussianBlur in="shadowOffsetOuter1" result="shadowBlurOuter1" stdDeviation="1"/>
            <feColorMatrix in="shadowBlurOuter1" values="0 0 0 0 0.712921304 0 0 0 0 0.756056398 0 0 0 0 0.81213202 0 0 0 1 0"/>
        </filter>
        <path id="f" d="M170 8h5a2 2 0 0 1 1.153 3.634L170 15.977V77a4 4 0 0 1-4 4H4a4 4 0 0 1-4-4V4a4 4 0 0 1 4-4h162a4 4 0 0 1 4 4v4z"/>
        <filter id="e" width="104%" height="108.6%" x="-2%" y="-3.1%" filterUnits="objectBoundingBox">
            <feOffset dy="1" in="SourceAlpha" result="shadowOffsetOuter1"/>
            <feGaussianBlur in="shadowOffsetOuter1" result="shadowBlurOuter1" stdDeviation="1"/>
            <feColorMatrix in="shadowBlurOuter1" values="0 0 0 0 0.712921304 0 0 0 0 0.756056398 0 0 0 0 0.81213202 0 0 0 1 0"/>
        </filter>
    </defs>
    <g fill="none" fill-rule="evenodd">
        <path d="M0 0h327v362H0z"/>
        <path fill="#1C2633" fill-rule="nonzero" d="M60.95 130.91v-2.044h-3.556v2.044h3.556zm1.12-4.802v5.712h-5.81v-5.712h1.134v1.862h3.556v-1.862h1.12zm2.282 10.836v-1.582H58.71v1.582h5.642zm0-2.492v-1.484h1.134v4.9h-7.91v-4.9h1.134v1.484h5.642zm2.996-6.09v.966h-1.862v3.052h-1.148v-6.902h1.148v2.884h1.862zm6.154 3.164v-4.032H70.03v4.032h3.472zm4.004-2.898h-2.884v1.75h2.884v-1.75zm-2.884 2.688v1.12h-5.726v-5.852h5.726v1.106h2.884v-2.198h1.162v9.156h-1.162v-3.332h-2.884zm-2.884 5.502h7.224v.938H70.59v-3.92h1.148v2.982zm16.024-5.572v-2.002h-1.414v2.002h1.414zm.98-4.844v5.768h-3.36v-5.768h.966v1.946h1.414v-1.946h.98zm-5.096 4.844v-2.002h-1.442v2.002h1.442zm.952-4.844v5.768h-3.36v-5.768h.966v1.946h1.442v-1.946h.952zm2.268 10.724c1.904 0 3.052-.532 3.052-1.414 0-.882-1.148-1.4-3.052-1.4-1.904 0-3.066.518-3.066 1.4 0 .882 1.162 1.414 3.066 1.414zm0-3.71c2.604 0 4.2.84 4.2 2.296 0 1.47-1.596 2.31-4.2 2.31-2.618 0-4.214-.84-4.214-2.31 0-1.456 1.596-2.296 4.214-2.296zm4.102-4.704h1.554v.952h-1.554v3.514h-1.12v-7.686h1.12v3.22z"/>
        <g transform="translate(0 114)">
            <mask id="b" fill="#fff">
                <use xlink:href="#a"/>
            </mask>
            <use fill="#FFF9ED" transform="rotate(45 27 27)" xlink:href="#a"/>
            <g mask="url(#b)">
                <path fill="#1C2633" d="M33.416 24.867v.627c0 .237.163.33.422.33s.422-.093.422-.33v-.627a.034.034 0 0 0-.033-.035h-.778a.034.034 0 0 0-.033.035zm.422 1.552c-.682 0-1.285-.251-1.285-.925v-2.468c0-.163.19-.294.425-.297h.015c.231.002.418.13.423.29v1.184c0 .019.015.035.033.035h.778a.034.034 0 0 0 .033-.035v-1.177c0-.163.19-.294.425-.297h.015c.231.002.418.13.423.29v2.475c0 .674-.603.925-1.285.925zm2.547-1.552v.627c0 .237.164.33.422.33.26 0 .422-.093.422-.33v-.627a.034.034 0 0 0-.033-.035h-.777a.034.034 0 0 0-.034.035zm.422 1.552c-.682 0-1.285-.251-1.285-.925v-2.469c0-.162.19-.293.424-.296h.015c.235.003.424.134.424.297v1.177c0 .019.015.035.034.035h.777a.034.034 0 0 0 .033-.035v-1.177c0-.163.19-.294.425-.297h.014c.235.003.424.134.424.297v2.468c0 .674-.602.925-1.285.925zm3.553-2.107a.31.31 0 0 1 .296.262c.029.186-.108.36-.281.36h-.656a.034.034 0 0 0-.034.035v1.516c0 .038-.03.069-.066.069h-.817a.067.067 0 0 1-.066-.069v-3.779l.001-.01c0-.179.213-.325.475-.325.258 0 .467.142.473.318v1.589c0 .019.015.034.034.034h.64zm-3.753 4.735c1.264 0 2.03-.308 2.03-.795 0-.505-.766-.813-2.03-.813-1.255 0-2 .317-2 .813 0 .487.745.795 2 .795zm0-2.252c1.963 0 3.066.597 3.066 1.456 0 .843-1.103 1.432-3.066 1.432-1.943 0-3.046-.589-3.046-1.432 0-.859 1.103-1.456 3.046-1.456zm-7.192-4.424c.258 0 .467.142.473.318v6.638c0 .038-.03.068-.065.068h-5.336a.405.405 0 0 1-.396-.413v-1.653c0-.038.03-.069.066-.07l.818.002c.036 0 .065.03.065.068v1.299a.17.17 0 0 0 .166.173h3.668c.036 0 .065-.03.065-.068v-2.939a.033.033 0 0 0-.032-.034h-.658c-.156 0-.284-.14-.284-.304a.32.32 0 0 1 .3-.303h.642a.033.033 0 0 0 .032-.034v-.8a.033.033 0 0 0-.032-.035h-.658c-.157 0-.284-.14-.284-.304 0-.164.158-.304.3-.304h.642a.033.033 0 0 0 .032-.034v-.936l.001-.01c0-.179.213-.325.475-.325zm-2.327 4.218h-3.55a.404.404 0 0 1-.396-.408v-2.778l.001-.008c0-.18.213-.326.475-.326.258 0 .468.142.473.318v2.437a.17.17 0 0 0 .166.171h1.882c.036 0 .065-.03.065-.068V23.84l-.001-.004a.17.17 0 0 0-.166-.173h-1.325c-.136 0-.252-.134-.252-.298 0-.162.106-.296.25-.296h2.145c.227 0 .296.177.297.413l.001.004v3.035c0 .038-.03.068-.065.068zM14.24 25.35c0 .248.15.33.38.33h1.98c.036 0 .065-.03.065-.068v-.745a.033.033 0 0 0-.033-.034h-2.36a.033.033 0 0 0-.032.034v.482zm3.31.933h-3.196c-.735 0-1.063-.327-1.063-.992v-2.236c0-.18.212-.325.474-.325s.475.145.475.325v1.15c0 .018.014.034.032.034h2.36a.033.033 0 0 0 .033-.034v-1.15c0-.18.212-.325.474-.325s.475.145.475.325v3.161a.066.066 0 0 1-.065.067zm1.229 2.557v-.419a.033.033 0 0 0-.033-.034h-3.56a.033.033 0 0 0-.032.034v.314a.17.17 0 0 0 .165.173h3.395c.036 0 .065-.03.065-.068zm1.623-4.526a.31.31 0 0 1 .296.26c.03.187-.108.362-.28.362h-.658a.034.034 0 0 0-.032.034v4.48a.066.066 0 0 1-.065.066h-5.062a.405.405 0 0 1-.396-.412v-2.067c0-.038.029-.068.065-.068h.819c.036 0 .065.03.065.068v.771c0 .019.014.034.032.034h3.56a.033.033 0 0 0 .033-.034v-5.11c0-.18.218-.326.48-.326.243 0 .442.127.469.29v1.618c0 .019.015.034.032.034h.642zm-3.398 7.98c.134 0 .26-.06.26-.192 0-.13-.126-.191-.26-.191h-.19v.383h.19zm-.19-.859v.292h.133c.103 0 .195-.042.195-.145 0-.104-.092-.147-.195-.147h-.133zm.47.346c.134.035.263.16.263.32 0 .247-.237.378-.49.378h-.51v-1.233h.446c.211 0 .42.116.42.324 0 .082-.045.176-.128.211zm1.108.515a.42.42 0 0 0 .415-.432.415.415 0 0 0-.83 0c0 .267.207.432.415.432zm0-1.077c.337 0 .664.245.664.642 0 .398-.327.644-.664.644-.336 0-.663-.246-.663-.644 0-.397.327-.642.663-.642zm1.5 1.075c.133 0 .26-.06.26-.192 0-.13-.127-.191-.26-.191h-.19v.383h.19zm-.19-.859v.292h.132c.104 0 .196-.042.196-.145 0-.104-.092-.147-.196-.147h-.133zm.47.346c.133.035.262.16.262.32 0 .247-.237.378-.49.378h-.51v-1.233h.446c.212 0 .421.116.421.324 0 .082-.046.176-.129.211zm2.893-.535h.175l.11 1.233h-.236l-.045-.506c-.006-.076-.014-.168-.016-.254h-.004a3.255 3.255 0 0 1-.122.26l-.261.508h-.095l-.265-.508a4.707 4.707 0 0 1-.12-.258h-.005a4.04 4.04 0 0 1-.015.252l-.045.506h-.224l.107-1.233h.183l.302.576c.045.085.103.201.14.29h.004c.035-.087.09-.2.136-.29l.296-.576zm1.289.323l.226-.323h.247l-.47.673v.56h-.238v-.556l-.47-.677h.265l.228.323c.033.046.072.108.103.16h.004c.031-.052.074-.118.105-.16zm1.054.394v.313h.511v.203h-.755v-1.233h.693v.203h-.45v.31h.374v.204h-.373zm1.452.333a.42.42 0 0 0 .414-.432.415.415 0 0 0-.83 0c.001.267.207.432.416.432zm0-1.077c.336 0 .663.245.663.642 0 .398-.327.644-.663.644-.337 0-.664-.246-.664-.644 0-.397.327-.642.664-.642zm1.943.55v-.523h.239v1.253h-.105l-.535-.58c-.088-.095-.183-.207-.26-.298l-.005.002c.004.1.004.199.004.284v.572h-.24v-1.233h.19l.478.52c.066.071.167.184.234.267l.004-.002c-.004-.086-.004-.178-.004-.261zm2.395.525c.133 0 .26-.06.26-.192 0-.13-.127-.191-.26-.191h-.19v.383h.19zm-.19-.859v.292h.132c.104 0 .196-.042.196-.145 0-.104-.092-.147-.196-.147h-.133zm.47.346c.133.035.262.16.262.32 0 .247-.237.378-.49.378h-.51v-1.233h.446c.212 0 .421.116.421.324 0 .082-.046.176-.129.211zm.944.513c.133 0 .26-.06.26-.192 0-.13-.127-.191-.26-.191h-.19v.383h.19zm-.19-.859v.292h.133c.103 0 .195-.042.195-.145 0-.104-.092-.147-.195-.147h-.133zm.47.346c.134.035.263.16.263.32 0 .247-.237.378-.49.378h-.51v-1.233h.446c.211 0 .42.116.42.324 0 .082-.046.176-.128.211zm.799.21h.3l-.104-.266a2.293 2.293 0 0 1-.044-.133h-.004c-.012.046-.031.096-.045.133l-.103.265zm.087-.759h.139l.508 1.247h-.246l-.118-.297h-.438l-.119.297h-.235l.51-1.247zm1.885.538v-.524h.24v1.253h-.106l-.535-.58c-.088-.095-.183-.207-.26-.298l-.005.002c.004.1.004.199.004.284v.572h-.24v-1.233h.19l.478.52c.066.071.168.184.234.267l.004-.002c-.004-.086-.004-.178-.004-.261zm1.281.245v-.191h.479v.55c-.111.09-.263.13-.458.13-.338 0-.684-.222-.684-.641 0-.426.356-.644.675-.644.171 0 .315.042.403.098l-.045.207a.63.63 0 0 0-.331-.093c-.235 0-.457.155-.457.44 0 .274.212.429.451.429a.397.397 0 0 0 .216-.05v-.235h-.249z"/>
            </g>
        </g>
        <g transform="matrix(-1 0 0 1 369.449 13)">
            <use fill="#000" filter="url(#c)" xlink:href="#d"/>
            <use fill="#D77628" xlink:href="#d"/>
        </g>
        <path fill="#FFF" fill-rule="nonzero" stroke="#FFF" stroke-width=".1" d="M133.067 33.123c0 1.339 1.365 2.21 3.224 2.21 1.859 0 3.211-.871 3.211-2.21s-1.352-2.21-3.211-2.21c-1.859 0-3.224.871-3.224 2.21zm3.757 5.46h4.771v.884H131v-.884h4.745v-2.431c-2.171-.156-3.705-1.313-3.705-3.029 0-1.859 1.781-3.055 4.251-3.055 2.457 0 4.225 1.196 4.225 3.055 0 1.716-1.521 2.873-3.692 3.029v2.431zm6.75-1.456l-.156-5.512-.039-1.352h1.209l-.039 1.352-.156 5.512h-.819zm.403 3.042c-.468 0-.858-.364-.858-.897s.39-.923.858-.923c.481 0 .858.39.858.923s-.377.897-.858.897zm8.989-9.867v2.093c0 2.119 1.326 4.238 3.016 5.044l-.624.845c-1.326-.663-2.392-2.054-2.925-3.692-.507 1.729-1.586 3.198-2.899 3.9l-.65-.845c1.69-.845 3.016-3.094 3.016-5.252v-2.093h1.066zm4.459-1.001h1.066v11.674h-1.066v-6.851h-2.704v-.871h2.704v-3.952zm8.284.936c-1.911 0-3.003.442-3.003 1.222s1.092 1.222 3.003 1.222 3.003-.442 3.003-1.222-1.092-1.222-3.003-1.222zm0 3.237c-2.561 0-4.095-.702-4.095-2.015 0-1.313 1.534-2.028 4.095-2.028 2.574 0 4.095.715 4.095 2.028 0 1.313-1.521 2.015-4.095 2.015zm5.265 1.625h-4.732v1.092h3.393v2.626h-6.851V40h7.202v.832h-8.242v-2.795h6.838v-1.04h-6.864v-.806h3.458v-1.092h-4.732v-.858h10.53v.858zm9.506-5.798h1.066v11.687h-1.066V29.301zm-5.083.897c1.729 0 2.964 1.586 2.964 4.069 0 2.483-1.235 4.069-2.964 4.069-1.729 0-2.964-1.586-2.964-4.069 0-2.483 1.235-4.069 2.964-4.069zm0 .962c-1.144 0-1.95 1.222-1.95 3.107 0 1.898.806 3.12 1.95 3.12 1.131 0 1.937-1.222 1.937-3.12 0-1.885-.806-3.107-1.937-3.107zm17.595-.429v.858h-6.877v-.858h2.899v-1.417h1.066v1.417h2.912zm-5.213 3.666c0 .819.702 1.339 1.768 1.339 1.053 0 1.781-.52 1.781-1.339 0-.806-.728-1.326-1.781-1.326-1.066 0-1.768.52-1.768 1.326zm4.563 0c0 1.313-1.144 2.171-2.795 2.171s-2.782-.858-2.782-2.171c0-1.3 1.131-2.158 2.782-2.158s2.795.858 2.795 2.158zm-3.406 2.964v2.47h6.708v.871h-7.774v-3.341h1.066zm6.188-4.212h1.729v.897h-1.729v4.004h-1.066v-8.736h1.066v3.835zm11.859-.299v.845h-7.904v-3.952h1.053v3.107h6.851zm-6.942 4.446v2.535h7.02v.871h-8.086v-3.406h1.066zm-2.405-2.223h10.543v.858h-4.654v2.392h-1.066v-2.392h-4.823v-.858zm14.199 2.34c.91 0 1.508-1.183 1.508-3.094 0-1.872-.598-3.055-1.508-3.055-.936 0-1.521 1.183-1.521 3.055 0 1.911.585 3.094 1.521 3.094zm3.939-3.575v-4.277h1.014V40.39h-1.014v-5.681h-1.469c-.091 2.288-1.04 3.692-2.47 3.692-1.521 0-2.496-1.56-2.496-4.082 0-2.483.975-4.043 2.496-4.043 1.404 0 2.34 1.365 2.47 3.562h1.469zm2.314-4.537h1.014v11.661h-1.014V29.301zm7.481 3.783v2.145h5.954v-2.145h-5.954zm3.51 5.512h4.758v.871h-10.569v-.871H228v-2.509h-3.484v-5.954h1.053v2.08h5.954v-2.08h1.04v5.954h-3.484v2.509zm14.225-9.295h1.066v11.687h-1.066V29.301zm-5.083.897c1.729 0 2.964 1.586 2.964 4.069 0 2.483-1.235 4.069-2.964 4.069-1.729 0-2.964-1.586-2.964-4.069 0-2.483 1.235-4.069 2.964-4.069zm0 .962c-1.144 0-1.95 1.222-1.95 3.107 0 1.898.806 3.12 1.95 3.12 1.131 0 1.937-1.222 1.937-3.12 0-1.885-.806-3.107-1.937-3.107zm17.514 1.651v.871h-7.93V29.73h1.066v3.081h6.864zm-6.942 4.459v2.535h7.007v.871h-8.073V37.27h1.066zm-2.418-2.028h10.569v.858h-10.569v-.858zM132.43 53.631v2.574c1.326 0 2.587-.052 4.082-.312l.091.871c-1.625.273-2.951.338-4.433.338h-.767v-4.316h3.12v-2.327h-3.159v-.871h4.186v4.043h-3.12zm5.109-1.144v-3.9h1.001v10.764h-1.001v-5.98h-1.443v-.884h1.443zm2.353-4.186h1.027v11.661h-1.027V48.301zm12.73 5.863l-.481.884c-1.768-.403-3.588-1.651-4.329-3.367-.741 1.703-2.561 2.951-4.316 3.367l-.481-.884c2.041-.403 4.238-2.158 4.238-4.147v-.897h1.118v.897c0 1.989 2.21 3.757 4.251 4.147zm-10.049 3.354h10.569v.884h-10.569v-.884zm17.371.117h4.771v.884H154.12v-.884h4.758V55.23h-3.393v-5.98h7.904v.871h-6.825v1.638h6.565v.845h-6.565v1.755h6.942v.871h-3.562v2.405zm12.613-4.212l.104.871c-1.846.312-3.38.377-5.538.377h-.923v-3.302h4.173V49.9h-4.199v-.871h5.252v3.159h-4.173V53.8c2.041 0 3.536-.065 5.304-.377zm-1.534 5.707c1.742 0 2.782-.481 2.782-1.3 0-.819-1.04-1.3-2.782-1.3s-2.795.481-2.795 1.3c0 .819 1.053 1.3 2.795 1.3zm0-3.432c2.366 0 3.835.78 3.835 2.132s-1.469 2.119-3.835 2.119c-2.379 0-3.835-.767-3.835-2.119 0-1.352 1.456-2.132 3.835-2.132zm3.718-4.472h1.729v.884h-1.729v3.224h-1.066v-7.02h1.066v2.912zm10.988-2.925h1.066v11.687h-1.066V48.301zm-5.083.897c1.729 0 2.964 1.586 2.964 4.069 0 2.483-1.235 4.069-2.964 4.069-1.729 0-2.964-1.586-2.964-4.069 0-2.483 1.235-4.069 2.964-4.069zm0 .962c-1.144 0-1.95 1.222-1.95 3.107 0 1.898.806 3.12 1.95 3.12 1.131 0 1.937-1.222 1.937-3.12 0-1.885-.806-3.107-1.937-3.107zm11.589 2.314l-.351-.806c2.028-.169 3.887-1.014 4.017-2.171H192.3v-.832h8.606v.832h-3.601c.13 1.157 1.976 2.002 4.004 2.171l-.338.806c-1.963-.182-3.731-.936-4.368-2.145-.624 1.196-2.405 1.963-4.368 2.145zm4.355 6.825c1.547 0 2.418-.273 2.418-.793 0-.546-.871-.806-2.418-.806-1.547 0-2.405.26-2.405.806 0 .52.858.793 2.405.793zm0-2.353c2.249 0 3.51.533 3.51 1.56 0 1.001-1.261 1.521-3.51 1.521-2.249 0-3.497-.52-3.497-1.521 0-1.027 1.248-1.56 3.497-1.56zm.546-2.483v1.092h3.757v.819H192.3v-.819h3.77v-1.092h1.066zm-.013-1.326h4.758v.858h-10.556v-.858h4.732v-1.378h1.066v1.378zm11.027-3.835c-1.911 0-3.003.442-3.003 1.222s1.092 1.222 3.003 1.222 3.003-.442 3.003-1.222-1.092-1.222-3.003-1.222zm0 3.237c-2.561 0-4.095-.702-4.095-2.015 0-1.313 1.534-2.028 4.095-2.028s4.095.715 4.095 2.028c0 1.313-1.534 2.015-4.095 2.015zm-2.925 5.278V59h7.202v.832h-8.242v-2.795h6.838v-1.04h-6.877v-.806h7.93v2.626h-6.851zm-2.353-4.485h10.556v.858h-10.556v-.858zm22.613 2.86v-3.731h-2.509v-.871h2.509v-3.276h1.079v7.878h-1.079zm-7.774-6.968h5.226c0 3.003-1.989 5.148-5.317 6.227l-.468-.845c2.756-.871 4.433-2.457 4.641-4.511h-4.082v-.871zm5.616 5.954v.533c0 1.677 1.807 2.964 3.861 3.354l-.429.832c-1.716-.338-3.276-1.261-3.965-2.6-.689 1.365-2.262 2.288-4.004 2.626l-.429-.845c2.08-.364 3.9-1.664 3.9-3.367v-.533h1.066zm8.222-6.058h5.421c0 2.925-2.041 4.836-5.473 5.629l-.429-.858c2.938-.637 4.563-2.106 4.719-3.913h-4.238v-.858zm2.249 8.684V59h6.604v.806h-7.67v-4.745h7.41v.793h-6.344v1.157h6.201v.793h-6.201zm6.279-6.799h1.729v.884h-1.729v2.639h-1.066v-6.227h1.066v2.704zm5.619 5.382c1.118 0 1.911-1.222 1.911-3.12 0-1.885-.793-3.107-1.911-3.107-1.131 0-1.924 1.222-1.924 3.107 0 1.898.793 3.12 1.924 3.12zm0-7.189c1.716 0 2.925 1.586 2.925 4.069 0 2.483-1.209 4.069-2.925 4.069-1.716 0-2.938-1.586-2.938-4.069 0-2.483 1.222-4.069 2.938-4.069zm7.787 3.757v.897h-1.924v6.11h-1.066V48.314h1.066v4.641h1.924zm4.319 1.885v2.743h3.25V54.84a7.181 7.181 0 0 1-1.638.182 6.951 6.951 0 0 1-1.612-.182zm1.612-4.966c-1.872 0-3.211.858-3.211 2.158 0 1.3 1.339 2.158 3.211 2.158 1.872 0 3.224-.858 3.224-2.158 0-1.3-1.352-2.158-3.224-2.158zm2.704 7.709h2.613v.884h-10.595v-.884h2.6v-3.146c-.975-.507-1.56-1.352-1.56-2.405 0-1.82 1.768-2.99 4.238-2.99 2.483 0 4.238 1.17 4.238 2.99 0 1.053-.572 1.885-1.534 2.392v3.159zm4.709 1.586c-.468 0-.858-.364-.858-.897s.39-.923.858-.923c.468 0 .858.39.858.923s-.39.897-.858.897zm-134.774 13.8l-.403-.845c2.028-.299 4.043-1.638 4.043-3.172v-.065h-3.679v-.858h8.515v.858h-3.653v.065c0 1.534 2.015 2.873 4.069 3.172l-.416.845c-1.807-.312-3.536-1.287-4.238-2.665-.715 1.378-2.431 2.353-4.238 2.665zm9.503.975l.013.871h-4.771v4.147h-1.066v-4.147h-4.706v-.871h10.53zm9.545-3.64h-2.691v1.651h2.691v-1.651zm-3.744 2.782V70.98h-3.146v2.106h3.146zm1.053-.26v1.118h-5.252v-5.863h1.053v2.054h3.146v-2.054h1.053v1.365h2.691v-2.132h1.079v8.619h-1.079v-3.107h-2.691zm-2.665 5.005h6.708v.871h-7.774v-3.614h1.066v2.743zm12.33-7.033c0 1.105.858 1.833 2.054 1.833 1.183 0 2.041-.728 2.041-1.833 0-1.092-.858-1.846-2.041-1.846-1.196 0-2.054.754-2.054 1.846zm2.587 2.704v1.976c1.066-.052 2.145-.117 3.146-.26l.091.78c-2.47.416-5.187.455-7.241.455l-.143-.897c.923 0 1.989-.013 3.081-.039v-2.015c-1.521-.182-2.561-1.248-2.561-2.704 0-1.638 1.287-2.743 3.094-2.743 1.781 0 3.081 1.105 3.081 2.743 0 1.456-1.053 2.509-2.548 2.704zm6.799-1.391v.897h-1.846v5.954h-1.066V67.288h1.066v4.823h1.846zm10.312-4.797v8.515h-1.066v-8.515h1.066zm-8.255 3.666c0 1.157.858 1.963 1.989 1.963 1.157 0 2.015-.806 2.015-1.963 0-1.131-.858-1.937-2.015-1.937-1.131 0-1.989.806-1.989 1.937zm5.044 0c0 1.69-1.313 2.886-3.055 2.886-1.729 0-3.029-1.196-3.029-2.886 0-1.677 1.3-2.86 3.029-2.86 1.742 0 3.055 1.183 3.055 2.86zm-3.224 6.851h6.786v.871h-7.852v-3.744h1.066v2.873zm13.276-2.548v-3.068h-3.328v3.068h3.328zm0-3.913v-3.081h1.04v7.865h-5.421v-7.865h1.053v3.081h3.328zm6.045.52v.897h-1.924v6.162h-1.066V67.314h1.066v4.576h1.924zm6.477 4.719h4.771v.884h-10.595v-.884h4.745v-2.99h-3.393v-5.382h7.904v.871h-6.838v3.653h6.955v.858h-3.549v2.99zm9.314-3.146l-.39-.858c2.106-.286 4.069-1.56 4.069-3.003h-3.705v-.858h3.718v-1.43h1.066v1.43h3.718v.858h-3.718c0 1.43 1.976 2.717 4.056 3.003l-.377.858c-1.807-.273-3.471-1.17-4.212-2.431-.741 1.261-2.418 2.158-4.225 2.431zm9.503.884v.871h-4.745v3.757h-1.066v-3.757h-4.732v-.871h10.543zm7.179-3.458h2.353v-3.575h1.079v8.697h-1.079v-4.238h-2.353v-.884zm.715 2.639l-.52.845c-1.339-.442-2.379-1.365-2.912-2.548-.494 1.287-1.534 2.275-2.899 2.756l-.533-.832c1.729-.585 2.886-2.041 2.886-3.666v-.364h-2.587v-.858h2.587v-1.482h1.066v1.482h2.574v.858h-2.574v.364c0 1.547 1.183 2.899 2.912 3.445zm-3.666 4.303h6.708v.871h-7.787v-3.471h1.079v2.6zm11.472-9.282h5.33c0 3.315-1.521 6.318-5.291 8.203l-.585-.832c2.977-1.495 4.576-3.731 4.823-6.487h-4.277v-.884zm10.218 3.484v.884h-1.872v6.045h-1.066V67.301h1.066v4.732h1.872zm10.065-1.482v.858h-7.917v-3.861h1.066v3.003h6.851zm-4.082 7.54c1.82 0 2.912-.481 2.912-1.287 0-.832-1.079-1.3-2.912-1.3s-2.912.468-2.912 1.3c0 .806 1.079 1.287 2.912 1.287zm0-3.419c2.483 0 3.991.767 3.991 2.132 0 1.352-1.508 2.119-3.991 2.119s-3.991-.767-3.991-2.119c0-1.365 1.508-2.132 3.991-2.132zm-5.252-1.911h10.543v.871h-10.543v-.871zm18.463-4.394v.819h-6.877v-.819h2.899v-1.183h1.066v1.183h2.912zm-5.213 3.25c0 .702.689 1.118 1.768 1.118 1.079 0 1.781-.416 1.781-1.118 0-.702-.702-1.118-1.781-1.118s-1.768.416-1.768 1.118zm4.563 0c0 1.183-1.105 1.911-2.795 1.911-1.677 0-2.782-.728-2.782-1.911s1.105-1.911 2.782-1.911c1.69 0 2.795.728 2.795 1.911zm-3.549 5.278v1.118h6.76v.819h-7.8v-2.717h6.318v-1.014h-6.357v-.793h7.41v2.587h-6.331zm6.331-6.825h1.729v.884h-1.729v2.756h-1.066v-6.448h1.066v2.808zm2.85-1.508h3.159c0 2.808-.585 5.538-2.704 7.774l-.832-.598c1.729-1.794 2.405-3.952 2.522-6.292h-2.145v-.884zm3.549 0h2.795c0 2.808-.403 6.019-2.548 8.554l-.858-.585c1.794-2.067 2.314-4.615 2.405-7.085h-1.794v-.884zm7.007 3.549v.884h-1.729v5.967h-1.066V67.301h1.066v4.81h1.729zm4.319 1.729v2.743h3.25V73.84a7.181 7.181 0 0 1-1.638.182 6.951 6.951 0 0 1-1.612-.182zm1.612-4.966c-1.872 0-3.211.858-3.211 2.158 0 1.3 1.339 2.158 3.211 2.158 1.872 0 3.224-.858 3.224-2.158 0-1.3-1.352-2.158-3.224-2.158zm2.704 7.709h2.613v.884h-10.595v-.884h2.6v-3.146c-.975-.507-1.56-1.352-1.56-2.405 0-1.82 1.768-2.99 4.238-2.99 2.483 0 4.238 1.17 4.238 2.99 0 1.053-.572 1.885-1.534 2.392v3.159zm5.216-1.456c-.299-2.262 2.002-3.094 2.002-4.641 0-.78-.481-1.404-1.404-1.404-.65 0-1.222.312-1.677.832l-.676-.624c.598-.689 1.43-1.196 2.483-1.196 1.469 0 2.431.897 2.431 2.314 0 1.911-2.34 2.678-2.106 4.719h-1.053zm.559 3.042c-.468 0-.858-.364-.858-.897s.39-.923.858-.923c.481 0 .871.39.871.923s-.39.897-.871.897z"/>
        <path fill="#1C2633" fill-rule="nonzero" d="M67.539 84.181c0 1.133 1.155 1.87 2.728 1.87 1.573 0 2.717-.737 2.717-1.87s-1.144-1.87-2.717-1.87c-1.573 0-2.728.737-2.728 1.87zm3.179 4.62h4.037v.748H65.79v-.748h4.015v-2.057c-1.837-.132-3.135-1.111-3.135-2.563 0-1.573 1.507-2.585 3.597-2.585 2.079 0 3.575 1.012 3.575 2.585 0 1.452-1.287 2.431-3.124 2.563v2.057zm13.296-6.721v.726h-7.931v-.726h3.542v-1.188h.913v1.188h3.476zm-1.672 2.937c0-.605-.814-.957-2.255-.957-1.441 0-2.277.352-2.277.957s.836.957 2.277.957c1.441 0 2.255-.352 2.255-.957zm-5.467 0c0-1.056 1.199-1.65 3.212-1.65 1.991 0 3.19.594 3.19 1.65s-1.199 1.639-3.19 1.639c-2.013 0-3.212-.583-3.212-1.639zm7.689 2.332v.737h-4.026v2.739h-.913v-2.739h-4.004v-.737h8.943zM87.99 90v-.836h1.793v-6.017h-1.43v-.638c.715-.132 1.232-.319 1.672-.572h.77v7.227h1.617V90H87.99zm5.321 0v-.594c2.53-2.211 3.696-3.817 3.696-5.203 0-.924-.484-1.595-1.485-1.595-.66 0-1.232.407-1.672.935l-.583-.572c.66-.715 1.353-1.188 2.376-1.188 1.441 0 2.343.946 2.343 2.387 0 1.606-1.265 3.245-3.157 5.038.418-.033.913-.077 1.32-.077h2.233V90h-5.071zm6.85-4.29c-.396 0-.726-.319-.726-.759 0-.462.33-.781.726-.781.396 0 .726.319.726.781 0 .44-.33.759-.726.759zm0 4.433c-.396 0-.726-.308-.726-.759s.33-.781.726-.781c.396 0 .726.33.726.781s-.33.759-.726.759zm2.494-3.168h2.464V84.5c0-.396.044-1.045.066-1.463h-.044c-.198.396-.418.792-.649 1.188l-1.837 2.75zm4.488 0v.803h-1.067V90h-.957v-2.222h-3.509v-.66l3.355-5.181h1.111v5.038h1.067zm2.923 3.168c-1.254 0-2.024-.528-2.563-1.067l.495-.66c.462.462 1.045.891 1.98.891.946 0 1.716-.726 1.716-1.903 0-1.155-.66-1.837-1.672-1.837-.539 0-.88.165-1.342.473l-.539-.33.253-3.773h3.927v.858h-3.047l-.198 2.332a2.315 2.315 0 0 1 1.199-.319c1.342 0 2.431.792 2.431 2.563 0 1.771-1.276 2.772-2.64 2.772z" opacity=".7"/>
        <g>
            <g transform="matrix(-1 0 0 1 231 147)">
                <use fill="#000" filter="url(#e)" xlink:href="#f"/>
                <use fill="#FFF9ED" xlink:href="#f"/>
            </g>
            <path fill="#1C2633" fill-rule="nonzero" d="M77.314 164.549v6.539c1.248-.013 2.418-.091 3.77-.364l.143.897c-1.521.312-2.821.39-4.225.39h-.741v-7.462h1.053zm4.784 2.665v-3.627h1.014v10.79h-1.014v-6.279h-2.6v-.884h2.6zm2.483-3.926h1.014v11.674h-1.014v-11.674zm6.433 6.175l-.39-.858c2.106-.286 4.069-1.56 4.069-3.003h-3.705v-.858h3.718v-1.43h1.066v1.43h3.718v.858h-3.718c0 1.43 1.976 2.717 4.056 3.003l-.377.858c-1.807-.273-3.471-1.17-4.212-2.431-.741 1.261-2.418 2.158-4.225 2.431zm9.503.884v.871h-4.745v3.757h-1.066v-3.757h-4.732v-.871h10.543zm7.279-3.458h2.353v-3.575h1.079v8.697h-1.079v-4.238h-2.353v-.884zm.715 2.639l-.52.845c-1.339-.442-2.379-1.365-2.912-2.548-.494 1.287-1.534 2.275-2.899 2.756l-.533-.832c1.729-.585 2.886-2.041 2.886-3.666v-.364h-2.587v-.858h2.587v-1.482h1.066v1.482h2.574v.858h-2.574v.364c0 1.547 1.183 2.899 2.912 3.445zm-3.666 4.303h6.708v.871h-7.787v-3.471h1.079v2.6zm11.672-9.282h5.33c0 3.315-1.521 6.318-5.291 8.203l-.585-.832c2.977-1.495 4.576-3.731 4.823-6.487h-4.277v-.884zm10.218 3.484v.884h-1.872v6.045h-1.066v-11.661h1.066v4.732h1.872zm10.165-1.482v.858h-7.917v-3.861h1.066v3.003h6.851zm-4.082 7.54c1.82 0 2.912-.481 2.912-1.287 0-.832-1.079-1.3-2.912-1.3s-2.912.468-2.912 1.3c0 .806 1.079 1.287 2.912 1.287zm0-3.419c2.483 0 3.991.767 3.991 2.132 0 1.352-1.508 2.119-3.991 2.119s-3.991-.767-3.991-2.119c0-1.365 1.508-2.132 3.991-2.132zm-5.252-1.911h10.543v.871h-10.543v-.871zm18.563-4.264v.858h-6.877v-.858h2.899v-1.313h1.066v1.313h2.912zm-5.213 3.445c0 .767.702 1.235 1.768 1.235s1.781-.468 1.781-1.235c0-.754-.715-1.235-1.781-1.235-1.066 0-1.768.481-1.768 1.235zm4.563 0c0 1.248-1.131 2.041-2.795 2.041s-2.782-.793-2.782-2.041c0-1.235 1.118-2.028 2.782-2.028s2.795.793 2.795 2.028zm1.729 6.006v-1.287h-5.226v1.287h5.226zm0-2.119v-1.235h1.053v4.212h-7.332v-4.212h1.053v1.235h5.226zm2.782-5.564v.897h-1.729v2.912h-1.066v-6.773h1.066v2.964h1.729zm2.677-1.833v6.604c1.755 0 3.562-.156 5.499-.546l.117.91c-2.028.416-3.861.546-5.72.546h-.962v-7.514h1.066zm6.695-1.131h1.066v11.648h-1.066v-11.648zm4.731 2.002v5.863c2.067 0 3.562-.091 5.252-.39l.117.884c-1.781.338-3.315.416-5.512.416h-.923v-7.657h5.421v.884h-4.355zm9.334 2.6v.884h-1.924v6.201h-1.066v-11.687h1.066v4.602h1.924zm1.767 3.224l-.156-5.512-.039-1.352h1.209l-.039 1.352-.156 5.512h-.819zm.403 3.042c-.468 0-.858-.364-.858-.897s.39-.923.858-.923c.481 0 .858.39.858.923s-.377.897-.858.897zm-98.868 13.8l-.403-.845c2.028-.299 4.043-1.638 4.043-3.172v-.065H76.69v-.858h8.515v.858h-3.653v.065c0 1.534 2.015 2.873 4.069 3.172l-.416.845c-1.807-.312-3.536-1.287-4.238-2.665-.715 1.378-2.431 2.353-4.238 2.665zm9.503.975l.013.871h-4.771v4.147h-1.066v-4.147h-4.706v-.871h10.53zm9.645-3.64h-2.691v1.651h2.691v-1.651zm-3.744 2.782v-2.106h-3.146v2.106h3.146zm1.053-.26v1.118h-5.252v-5.863h1.053v2.054h3.146v-2.054h1.053v1.365h2.691v-2.132h1.079v8.619h-1.079v-3.107h-2.691zm-2.665 5.005h6.708v.871h-7.774v-3.614h1.066v2.743zm13.753-9.802c2.418 0 4.238 1.287 4.238 3.224 0 1.95-1.82 3.224-4.238 3.224s-4.238-1.274-4.238-3.224c0-1.937 1.82-3.224 4.238-3.224zm0 .871c-1.833 0-3.224.949-3.224 2.353 0 1.417 1.391 2.353 3.224 2.353 1.846 0 3.224-.936 3.224-2.353 0-1.404-1.378-2.353-3.224-2.353zm-5.278 7.631h10.595v.884H98.996v-.884zm17.484.117h4.771v.871h-10.595v-.871h4.745v-2.197h-3.419v-3.601h6.916v-1.82h-6.942v-.871h7.982v3.549h-6.903v1.885h7.176v.858h-3.731v2.197zm16.573-5.161v-1.508h-5.668v1.508h5.668zm1.053-3.809v4.654h-7.774v-4.654h1.053v1.482h5.668v-1.482h1.053zm-6.786 7.852v2.301h7.007v.871h-8.06v-3.172h1.053zm-2.405-2.067h10.595v.858h-4.68v2.262h-1.066v-2.262h-4.849v-.858zm15.508-4.732c-1.144 0-1.95.611-1.95 1.521 0 .91.806 1.521 1.95 1.521 1.131 0 1.937-.611 1.937-1.521 0-.91-.806-1.521-1.937-1.521zm0 3.913c-1.742 0-2.977-.975-2.977-2.392 0-1.43 1.235-2.405 2.977-2.405 1.729 0 2.964.975 2.964 2.405 0 1.417-1.235 2.392-2.964 2.392zm3.835.572l.091.793a29.232 29.232 0 0 1-3.341.39v4.199h-1.066v-4.134a71.982 71.982 0 0 1-3.224.065l-.143-.897c2.171 0 5.122-.026 7.683-.416zm.845-5.902h1.066v11.661h-1.066v-11.661zm3.847 1.248h5.46c0 3.367-1.547 6.331-5.421 8.229l-.572-.871c3.133-1.495 4.693-3.731 4.914-6.5h-4.381v-.858zm7.813-1.261h1.066v11.661h-1.066v-11.661zm6.68 4.173l-.351-.806c2.028-.169 3.887-1.014 4.017-2.171h-3.601v-.832h8.606v.832h-3.601c.13 1.157 1.976 2.002 4.004 2.171l-.338.806c-1.963-.182-3.731-.936-4.368-2.145-.624 1.196-2.405 1.963-4.368 2.145zm4.355 6.825c1.547 0 2.418-.273 2.418-.793 0-.546-.871-.806-2.418-.806-1.547 0-2.405.26-2.405.806 0 .52.858.793 2.405.793zm0-2.353c2.249 0 3.51.533 3.51 1.56 0 1.001-1.261 1.521-3.51 1.521-2.249 0-3.497-.52-3.497-1.521 0-1.027 1.248-1.56 3.497-1.56zm.546-2.483v1.092h3.757v.819h-8.593v-.819h3.77v-1.092h1.066zm-.013-1.326h4.758v.858h-10.556v-.858h4.732v-1.378h1.066v1.378zm11.127-3.575c-1.833 0-3.003.546-3.003 1.469s1.17 1.456 3.003 1.456c1.833 0 3.003-.533 3.003-1.456 0-.923-1.17-1.469-3.003-1.469zm0 3.783c-2.496 0-4.095-.858-4.095-2.314s1.599-2.327 4.095-2.327c2.496 0 4.095.871 4.095 2.327s-1.599 2.314-4.095 2.314zm-2.847 2.977v2.509h6.955v.871h-8.021v-3.38h1.066zm-2.431-1.885h10.543v.858H174.18v-.858zm23.19-1.482l-1.04-.117c.286-1.313.286-2.275.286-3.12h-6.89v-.858h7.943v.819c0 .871 0 1.924-.299 3.276zm-3.133 2.587v.52c0 1.534 1.794 2.717 3.926 3.016l-.403.832c-1.781-.299-3.367-1.118-4.056-2.379-.715 1.261-2.301 2.08-4.082 2.379l-.403-.832c2.145-.299 3.939-1.482 3.939-3.016v-.52h1.079zm-.377-1.781h5.135v.858h-10.504v-.858h4.303v-2.34h1.066v2.34zm15.56-2.392v.858h-7.891v-3.536h7.774v.858h-6.708v1.82h6.825zm-6.955 6.422v1.196h7.202v.832h-8.242v-2.821h6.838v-1.118h-6.877v-.832h7.93v2.743h-6.851zm-2.34-4.628h10.556v.871h-10.556v-.871zM81.877 204.525h2.34v-3.211h1.079v8.541h-1.079v-4.459h-2.34v-.871zm.689 2.743l-.533.832a4.81 4.81 0 0 1-2.808-2.639 4.977 4.977 0 0 1-2.938 2.899l-.559-.832c1.729-.624 2.938-2.171 2.938-3.822v-.585h-2.6v-.871h6.227v.871h-2.561v.572c0 1.521 1.144 2.977 2.834 3.575zm-3.653 4.563h6.708v.871h-7.787v-3.601h1.079v2.73zm15.183-6.357l.13.845c-1.638.338-3.055.416-5.46.416h-.897v-4.758h5.148v.858h-4.095v3.042c2.262 0 3.614-.091 5.174-.403zm-4.03 5.161v1.313h6.76v.858h-7.8v-2.977h6.318v-1.222h-6.357v-.845h7.41v2.873h-6.331zm6.331-6.877h1.729v.871h-1.729v2.535h-1.066v-5.863h1.066v2.457zm5.498 5.616c.897 0 1.547-.741 1.547-1.781 0-1.014-.65-1.755-1.547-1.755-.91 0-1.547.741-1.547 1.755 0 1.04.637 1.781 1.547 1.781zm0-4.433c1.443 0 2.496 1.092 2.496 2.652 0 1.586-1.053 2.665-2.496 2.665s-2.496-1.079-2.496-2.665c0-1.56 1.053-2.652 2.496-2.652zm.52-3.302v1.651h2.366v.871h-5.785v-.871h2.366v-1.651h1.053zm5.447-.351h1.027v11.661h-1.027v-5.863h-1.495v5.304h-1.001v-10.829h1.001v4.654h1.495v-4.927zm12.154 5.603v.871h-8.008v-5.395h7.891v.884h-6.838v3.64h6.955zm-9.36 3.614h10.582v.884h-10.582v-.884zm13.415-3.952v2.717c1.911 0 3.627-.091 5.668-.416l.104.871c-2.106.351-3.874.429-5.876.429h-.962v-4.472h4.29v-2.431h-4.329v-.871h5.408v4.173h-4.303zm6.76-5.265h1.066v11.687h-1.066v-11.687zm12.999.026v6.721h-1.027v-6.721h1.027zm-3.341 4.16h-2.288c-.754 1.17-1.963 2.106-3.549 2.795l-.559-.793c2.379-.949 3.718-2.483 3.926-4.446H134.6v-.858h4.511c0 .884-.156 1.703-.468 2.444h1.846v-3.055h1.001v6.292h-1.001v-2.379zm1.859 2.964v.754c0 1.209.871 2.431 2.34 2.938l-.52.78c-1.157-.403-1.963-1.222-2.353-2.21-.351.949-1.053 1.859-2.145 2.314-1.118-.442-1.807-1.3-2.145-2.275a4.166 4.166 0 0 1-2.327 2.171l-.533-.78c1.469-.533 2.353-1.794 2.353-2.938v-.754h1.027v.754c0 1.053.533 2.145 1.612 2.782 1.105-.689 1.651-1.885 1.651-2.782v-.754h1.04zm13.246-3.497l-.39.858c-1.807-.286-3.536-1.196-4.277-2.496-.728 1.3-2.47 2.21-4.29 2.496l-.39-.858c2.093-.26 4.134-1.508 4.134-2.99v-.52h1.092v.52c0 1.443 2.054 2.73 4.121 2.99zm-1.833 7.007v-1.482h-5.733v1.482h5.733zm0-2.301v-1.365h1.053v4.524h-7.839v-4.524h1.053v1.365h5.733zm-8.125-3.029h10.556v.858h-10.556v-.858zm13.467-4.186v6.604c1.755 0 3.562-.156 5.499-.546l.117.91c-2.028.416-3.861.546-5.72.546h-.962v-7.514h1.066zm6.695-1.131h1.066v11.648h-1.066v-11.648zm4.731 2.002v5.863c2.067 0 3.562-.091 5.252-.39l.117.884c-1.781.338-3.315.416-5.512.416h-.923v-7.657h5.421v.884h-4.355zm9.334 2.6v.884h-1.924v6.201h-1.066v-11.687h1.066v4.602h1.924zm1.767 3.224l-.156-5.512-.039-1.352h1.209l-.039 1.352-.156 5.512h-.819zm.403 3.042c-.468 0-.858-.364-.858-.897s.39-.923.858-.923c.481 0 .858.39.858.923s-.377.897-.858.897z" opacity=".9"/>
            <path fill="#1C2633" fill-rule="nonzero" d="M237.321 218.181c0 1.133 1.155 1.87 2.728 1.87 1.573 0 2.717-.737 2.717-1.87s-1.144-1.87-2.717-1.87c-1.573 0-2.728.737-2.728 1.87zm3.179 4.62h4.037v.748h-8.965v-.748h4.015v-2.057c-1.837-.132-3.135-1.111-3.135-2.563 0-1.573 1.507-2.585 3.597-2.585 2.079 0 3.575 1.012 3.575 2.585 0 1.452-1.287 2.431-3.124 2.563v2.057zm13.296-6.721v.726h-7.931v-.726h3.542v-1.188h.913v1.188h3.476zm-1.672 2.937c0-.605-.814-.957-2.255-.957-1.441 0-2.277.352-2.277.957s.836.957 2.277.957c1.441 0 2.255-.352 2.255-.957zm-5.467 0c0-1.056 1.199-1.65 3.212-1.65 1.991 0 3.19.594 3.19 1.65s-1.199 1.639-3.19 1.639c-2.013 0-3.212-.583-3.212-1.639zm7.689 2.332v.737h-4.026v2.739h-.913v-2.739h-4.004v-.737h8.943zm5.362 2.794c-1.265 0-2.057-.528-2.585-1.1l.506-.66c.473.495 1.089.924 2.002.924.957 0 1.639-.572 1.639-1.496 0-.968-.649-1.617-2.508-1.617v-.77c1.661 0 2.233-.671 2.233-1.54 0-.781-.528-1.276-1.364-1.298-.649.022-1.221.352-1.672.803l-.539-.638c.605-.561 1.32-.968 2.255-.968 1.353 0 2.343.726 2.343 2.024 0 .979-.583 1.628-1.441 1.947v.044c.957.22 1.716.946 1.716 2.046 0 1.441-1.155 2.299-2.585 2.299zm4.43-4.433c-.396 0-.726-.319-.726-.759 0-.462.33-.781.726-.781.396 0 .726.319.726.781 0 .44-.33.759-.726.759zm0 4.433c-.396 0-.726-.308-.726-.759s.33-.781.726-.781c.396 0 .726.33.726.781s-.33.759-.726.759zm2.197-.143v-.836h1.793v-6.017h-1.43v-.638c.715-.132 1.232-.319 1.672-.572h.77v7.227h1.617V224h-4.422zm7.741.143c-1.265 0-2.057-.528-2.585-1.1l.506-.66c.473.495 1.089.924 2.002.924.957 0 1.639-.572 1.639-1.496 0-.968-.649-1.617-2.508-1.617v-.77c1.661 0 2.233-.671 2.233-1.54 0-.781-.528-1.276-1.364-1.298-.649.022-1.221.352-1.672.803l-.539-.638c.605-.561 1.32-.968 2.255-.968 1.353 0 2.343.726 2.343 2.024 0 .979-.583 1.628-1.441 1.947v.044c.957.22 1.716.946 1.716 2.046 0 1.441-1.155 2.299-2.585 2.299z" opacity=".7"/>
        </g>
    </g>
</svg>
