<svg xmlns="http://www.w3.org/2000/svg" width="27" height="27" viewBox="0 0 27 27">
    <g fill="#FFF9ED" fill-rule="evenodd" opacity=".8">
        <path fill-rule="nonzero" d="M7.2 0H18c3.976 0 7.2 3.224 7.2 7.2V18c0 3.976-3.224 7.2-7.2 7.2H7.2C3.224 25.2 0 21.976 0 18V7.2C0 3.224 3.224 0 7.2 0zm0 .9C3.72.9.9 3.72.9 7.2V18c0 3.48 2.82 6.3 6.3 6.3H18c3.48 0 6.3-2.82 6.3-6.3V7.2c0-3.48-2.82-6.3-6.3-6.3H7.2z" opacity=".5" transform="translate(.9 .9)"/>
        <path d="M9.5 10.312v8.091H6.996v-8.09H9.5zm6.42-.204c2.172 0 3.04 1.183 3.04 3.643v4.652h-2.486v-4.3c0-1.291-.468-1.798-1.357-1.798-1.044 0-1.498.665-1.498 1.831v4.267h-2.501v-8.09h2.397v1.109c.012.016.026.016.043 0 .365-.58 1.08-1.314 2.362-1.314zM8.253 6.264c.805 0 1.457.652 1.457 1.457s-.652 1.457-1.457 1.457c-.804 0-1.457-.652-1.457-1.457s.653-1.457 1.457-1.457z" transform="translate(.9 .9)"/>
    </g>
</svg>
