<svg xmlns="http://www.w3.org/2000/svg" xmlns:xlink="http://www.w3.org/1999/xlink" width="327" height="362" viewBox="0 0 327 362">
    <defs>
        <path id="a" d="M27 46c7.91 0 19-11.09 19-19S34.91 8 27 8 8 19.09 8 27s11.09 19 19 19z"/>
        <path id="d" d="M61 52.977l-6.153-4.343A2 2 0 0 1 56 45h5v-4a4 4 0 0 1 4-4h152a4 4 0 0 1 4 4v54a4 4 0 0 1-4 4H65a4 4 0 0 1-4-4V52.977z"/>
        <filter id="c" width="104.2%" height="111.3%" x="-2.1%" y="-4%" filterUnits="objectBoundingBox">
            <feOffset dy="1" in="SourceAlpha" result="shadowOffsetOuter1"/>
            <feGaussianBlur in="shadowOffsetOuter1" result="shadowBlurOuter1" stdDeviation="1"/>
            <feColorMatrix in="shadowBlurOuter1" values="0 0 0 0 0.712921304 0 0 0 0 0.756056398 0 0 0 0 0.81213202 0 0 0 1 0"/>
        </filter>
        <path id="f" d="M54.449 7V4a4 4 0 0 1 4-4h177a4 4 0 0 1 4 4v35a4 4 0 0 1-4 4h-177a4 4 0 0 1-4-4V15.294l-6.602-4.66A2 2 0 0 1 49 7h5.449z"/>
        <filter id="e" width="103.6%" height="116.3%" x="-1.8%" y="-5.8%" filterUnits="objectBoundingBox">
            <feOffset dy="1" in="SourceAlpha" result="shadowOffsetOuter1"/>
            <feGaussianBlur in="shadowOffsetOuter1" result="shadowBlurOuter1" stdDeviation="1"/>
            <feColorMatrix in="shadowBlurOuter1" values="0 0 0 0 0.712921304 0 0 0 0 0.756056398 0 0 0 0 0.81213202 0 0 0 1 0"/>
        </filter>
        <path id="h" d="M195 8h5a2 2 0 0 1 1.153 3.634L195 15.977V174a4 4 0 0 1-4 4H4a4 4 0 0 1-4-4V4a4 4 0 0 1 4-4h187a4 4 0 0 1 4 4v4z"/>
        <filter id="g" width="103.5%" height="103.9%" x="-1.7%" y="-1.4%" filterUnits="objectBoundingBox">
            <feOffset dy="1" in="SourceAlpha" result="shadowOffsetOuter1"/>
            <feGaussianBlur in="shadowOffsetOuter1" result="shadowBlurOuter1" stdDeviation="1"/>
            <feColorMatrix in="shadowBlurOuter1" values="0 0 0 0 0.712921304 0 0 0 0 0.756056398 0 0 0 0 0.81213202 0 0 0 1 0"/>
        </filter>
    </defs>
    <g fill="none" fill-rule="evenodd">
        <path d="M0 0h327v362H0z"/>
        <path fill="#1C2633" fill-rule="nonzero" d="M60.95 20.91v-2.044h-3.556v2.044h3.556zm1.12-4.802v5.712h-5.81v-5.712h1.134v1.862h3.556v-1.862h1.12zm2.282 10.836v-1.582H58.71v1.582h5.642zm0-2.492v-1.484h1.134v4.9h-7.91v-4.9h1.134v1.484h5.642zm2.996-6.09v.966h-1.862v3.052h-1.148v-6.902h1.148v2.884h1.862zm6.154 3.164v-4.032H70.03v4.032h3.472zm4.004-2.898h-2.884v1.75h2.884v-1.75zm-2.884 2.688v1.12h-5.726v-5.852h5.726v1.106h2.884v-2.198h1.162v9.156h-1.162v-3.332h-2.884zm-2.884 5.502h7.224v.938H70.59v-3.92h1.148v2.982zm16.024-5.572v-2.002h-1.414v2.002h1.414zm.98-4.844v5.768h-3.36v-5.768h.966v1.946h1.414v-1.946h.98zm-5.096 4.844v-2.002h-1.442v2.002h1.442zm.952-4.844v5.768h-3.36v-5.768h.966v1.946h1.442v-1.946h.952zm2.268 10.724c1.904 0 3.052-.532 3.052-1.414 0-.882-1.148-1.4-3.052-1.4-1.904 0-3.066.518-3.066 1.4 0 .882 1.162 1.414 3.066 1.414zm0-3.71c2.604 0 4.2.84 4.2 2.296 0 1.47-1.596 2.31-4.2 2.31-2.618 0-4.214-.84-4.214-2.31 0-1.456 1.596-2.296 4.214-2.296zm4.102-4.704h1.554v.952h-1.554v3.514h-1.12v-7.686h1.12v3.22z"/>
        <g transform="translate(0 4)">
            <mask id="b" fill="#fff">
                <use xlink:href="#a"/>
            </mask>
            <use fill="#FFF9ED" transform="rotate(45 27 27)" xlink:href="#a"/>
            <g mask="url(#b)">
                <path fill="#1C2633" d="M33.416 24.867v.627c0 .237.163.33.422.33s.422-.093.422-.33v-.627a.034.034 0 0 0-.033-.035h-.778a.034.034 0 0 0-.033.035zm.422 1.552c-.682 0-1.285-.251-1.285-.925v-2.468c0-.163.19-.294.425-.297h.015c.231.002.418.13.423.29v1.184c0 .019.015.035.033.035h.778a.034.034 0 0 0 .033-.035v-1.177c0-.163.19-.294.425-.297h.015c.231.002.418.13.423.29v2.475c0 .674-.603.925-1.285.925zm2.547-1.552v.627c0 .237.164.33.422.33.26 0 .422-.093.422-.33v-.627a.034.034 0 0 0-.033-.035h-.777a.034.034 0 0 0-.034.035zm.422 1.552c-.682 0-1.285-.251-1.285-.925v-2.469c0-.162.19-.293.424-.296h.015c.235.003.424.134.424.297v1.177c0 .019.015.035.034.035h.777a.034.034 0 0 0 .033-.035v-1.177c0-.163.19-.294.425-.297h.014c.235.003.424.134.424.297v2.468c0 .674-.602.925-1.285.925zm3.553-2.107a.31.31 0 0 1 .296.262c.029.186-.108.36-.281.36h-.656a.034.034 0 0 0-.034.035v1.516c0 .038-.03.069-.066.069h-.817a.067.067 0 0 1-.066-.069v-3.779l.001-.01c0-.179.213-.325.475-.325.258 0 .467.142.473.318v1.589c0 .019.015.034.034.034h.64zm-3.753 4.735c1.264 0 2.03-.308 2.03-.795 0-.505-.766-.813-2.03-.813-1.255 0-2 .317-2 .813 0 .487.745.795 2 .795zm0-2.252c1.963 0 3.066.597 3.066 1.456 0 .843-1.103 1.432-3.066 1.432-1.943 0-3.046-.589-3.046-1.432 0-.859 1.103-1.456 3.046-1.456zm-7.192-4.424c.258 0 .467.142.473.318v6.638c0 .038-.03.068-.065.068h-5.336a.405.405 0 0 1-.396-.413v-1.653c0-.038.03-.069.066-.07l.818.002c.036 0 .065.03.065.068v1.299a.17.17 0 0 0 .166.173h3.668c.036 0 .065-.03.065-.068v-2.939a.033.033 0 0 0-.032-.034h-.658c-.156 0-.284-.14-.284-.304a.32.32 0 0 1 .3-.303h.642a.033.033 0 0 0 .032-.034v-.8a.033.033 0 0 0-.032-.035h-.658c-.157 0-.284-.14-.284-.304 0-.164.158-.304.3-.304h.642a.033.033 0 0 0 .032-.034v-.936l.001-.01c0-.179.213-.325.475-.325zm-2.327 4.218h-3.55a.404.404 0 0 1-.396-.408v-2.778l.001-.008c0-.18.213-.326.475-.326.258 0 .468.142.473.318v2.437a.17.17 0 0 0 .166.171h1.882c.036 0 .065-.03.065-.068V23.84l-.001-.004a.17.17 0 0 0-.166-.173h-1.325c-.136 0-.252-.134-.252-.298 0-.162.106-.296.25-.296h2.145c.227 0 .296.177.297.413l.001.004v3.035c0 .038-.03.068-.065.068zM14.24 25.35c0 .248.15.33.38.33h1.98c.036 0 .065-.03.065-.068v-.745a.033.033 0 0 0-.033-.034h-2.36a.033.033 0 0 0-.032.034v.482zm3.31.933h-3.196c-.735 0-1.063-.327-1.063-.992v-2.236c0-.18.212-.325.474-.325s.475.145.475.325v1.15c0 .018.014.034.032.034h2.36a.033.033 0 0 0 .033-.034v-1.15c0-.18.212-.325.474-.325s.475.145.475.325v3.161a.066.066 0 0 1-.065.067zm1.229 2.557v-.419a.033.033 0 0 0-.033-.034h-3.56a.033.033 0 0 0-.032.034v.314a.17.17 0 0 0 .165.173h3.395c.036 0 .065-.03.065-.068zm1.623-4.526a.31.31 0 0 1 .296.26c.03.187-.108.362-.28.362h-.658a.034.034 0 0 0-.032.034v4.48a.066.066 0 0 1-.065.066h-5.062a.405.405 0 0 1-.396-.412v-2.067c0-.038.029-.068.065-.068h.819c.036 0 .065.03.065.068v.771c0 .019.014.034.032.034h3.56a.033.033 0 0 0 .033-.034v-5.11c0-.18.218-.326.48-.326.243 0 .442.127.469.29v1.618c0 .019.015.034.032.034h.642zm-3.398 7.98c.134 0 .26-.06.26-.192 0-.13-.126-.191-.26-.191h-.19v.383h.19zm-.19-.859v.292h.133c.103 0 .195-.042.195-.145 0-.104-.092-.147-.195-.147h-.133zm.47.346c.134.035.263.16.263.32 0 .247-.237.378-.49.378h-.51v-1.233h.446c.211 0 .42.116.42.324 0 .082-.045.176-.128.211zm1.108.515a.42.42 0 0 0 .415-.432.415.415 0 0 0-.83 0c0 .267.207.432.415.432zm0-1.077c.337 0 .664.245.664.642 0 .398-.327.644-.664.644-.336 0-.663-.246-.663-.644 0-.397.327-.642.663-.642zm1.5 1.075c.133 0 .26-.06.26-.192 0-.13-.127-.191-.26-.191h-.19v.383h.19zm-.19-.859v.292h.132c.104 0 .196-.042.196-.145 0-.104-.092-.147-.196-.147h-.133zm.47.346c.133.035.262.16.262.32 0 .247-.237.378-.49.378h-.51v-1.233h.446c.212 0 .421.116.421.324 0 .082-.046.176-.129.211zm2.893-.535h.175l.11 1.233h-.236l-.045-.506c-.006-.076-.014-.168-.016-.254h-.004a3.255 3.255 0 0 1-.122.26l-.261.508h-.095l-.265-.508a4.707 4.707 0 0 1-.12-.258h-.005a4.04 4.04 0 0 1-.015.252l-.045.506h-.224l.107-1.233h.183l.302.576c.045.085.103.201.14.29h.004c.035-.087.09-.2.136-.29l.296-.576zm1.289.323l.226-.323h.247l-.47.673v.56h-.238v-.556l-.47-.677h.265l.228.323c.033.046.072.108.103.16h.004c.031-.052.074-.118.105-.16zm1.054.394v.313h.511v.203h-.755v-1.233h.693v.203h-.45v.31h.374v.204h-.373zm1.452.333a.42.42 0 0 0 .414-.432.415.415 0 0 0-.83 0c.001.267.207.432.416.432zm0-1.077c.336 0 .663.245.663.642 0 .398-.327.644-.663.644-.337 0-.664-.246-.664-.644 0-.397.327-.642.664-.642zm1.943.55v-.523h.239v1.253h-.105l-.535-.58c-.088-.095-.183-.207-.26-.298l-.005.002c.004.1.004.199.004.284v.572h-.24v-1.233h.19l.478.52c.066.071.167.184.234.267l.004-.002c-.004-.086-.004-.178-.004-.261zm2.395.525c.133 0 .26-.06.26-.192 0-.13-.127-.191-.26-.191h-.19v.383h.19zm-.19-.859v.292h.132c.104 0 .196-.042.196-.145 0-.104-.092-.147-.196-.147h-.133zm.47.346c.133.035.262.16.262.32 0 .247-.237.378-.49.378h-.51v-1.233h.446c.212 0 .421.116.421.324 0 .082-.046.176-.129.211zm.944.513c.133 0 .26-.06.26-.192 0-.13-.127-.191-.26-.191h-.19v.383h.19zm-.19-.859v.292h.133c.103 0 .195-.042.195-.145 0-.104-.092-.147-.195-.147h-.133zm.47.346c.134.035.263.16.263.32 0 .247-.237.378-.49.378h-.51v-1.233h.446c.211 0 .42.116.42.324 0 .082-.046.176-.128.211zm.799.21h.3l-.104-.266a2.293 2.293 0 0 1-.044-.133h-.004c-.012.046-.031.096-.045.133l-.103.265zm.087-.759h.139l.508 1.247h-.246l-.118-.297h-.438l-.119.297h-.235l.51-1.247zm1.885.538v-.524h.24v1.253h-.106l-.535-.58c-.088-.095-.183-.207-.26-.298l-.005.002c.004.1.004.199.004.284v.572h-.24v-1.233h.19l.478.52c.066.071.168.184.234.267l.004-.002c-.004-.086-.004-.178-.004-.261zm1.281.245v-.191h.479v.55c-.111.09-.263.13-.458.13-.338 0-.684-.222-.684-.641 0-.426.356-.644.675-.644.171 0 .315.042.403.098l-.045.207a.63.63 0 0 0-.331-.093c-.235 0-.457.155-.457.44 0 .274.212.429.451.429a.397.397 0 0 0 .216-.05v-.235h-.249z"/>
            </g>
        </g>
        <g>
            <use fill="#000" filter="url(#c)" xlink:href="#d"/>
            <use fill="#FFF9ED" xlink:href="#d"/>
        </g>
        <path fill="#1C2633" fill-rule="nonzero" d="M228.321 89.181c0 1.133 1.155 1.87 2.728 1.87 1.573 0 2.717-.737 2.717-1.87s-1.144-1.87-2.717-1.87c-1.573 0-2.728.737-2.728 1.87zm3.179 4.62h4.037v.748h-8.965v-.748h4.015v-2.057c-1.837-.132-3.135-1.111-3.135-2.563 0-1.573 1.507-2.585 3.597-2.585 2.079 0 3.575 1.012 3.575 2.585 0 1.452-1.287 2.431-3.124 2.563v2.057zm13.296-6.721v.726h-7.931v-.726h3.542v-1.188h.913v1.188h3.476zm-1.672 2.937c0-.605-.814-.957-2.255-.957-1.441 0-2.277.352-2.277.957s.836.957 2.277.957c1.441 0 2.255-.352 2.255-.957zm-5.467 0c0-1.056 1.199-1.65 3.212-1.65 1.991 0 3.19.594 3.19 1.65s-1.199 1.639-3.19 1.639c-2.013 0-3.212-.583-3.212-1.639zm7.689 2.332v.737h-4.026v2.739h-.913v-2.739h-4.004v-.737h8.943zm5.362 2.794c-1.265 0-2.057-.528-2.585-1.1l.506-.66c.473.495 1.089.924 2.002.924.957 0 1.639-.572 1.639-1.496 0-.968-.649-1.617-2.508-1.617v-.77c1.661 0 2.233-.671 2.233-1.54 0-.781-.528-1.276-1.364-1.298-.649.022-1.221.352-1.672.803l-.539-.638c.605-.561 1.32-.968 2.255-.968 1.353 0 2.343.726 2.343 2.024 0 .979-.583 1.628-1.441 1.947v.044c.957.22 1.716.946 1.716 2.046 0 1.441-1.155 2.299-2.585 2.299zm4.43-4.433c-.396 0-.726-.319-.726-.759 0-.462.33-.781.726-.781.396 0 .726.319.726.781 0 .44-.33.759-.726.759zm0 4.433c-.396 0-.726-.308-.726-.759s.33-.781.726-.781c.396 0 .726.33.726.781s-.33.759-.726.759zm2.197-.143v-.836h1.793v-6.017h-1.43v-.638c.715-.132 1.232-.319 1.672-.572h.77v7.227h1.617V95h-4.422zm7.741.143c-1.265 0-2.057-.528-2.585-1.1l.506-.66c.473.495 1.089.924 2.002.924.957 0 1.639-.572 1.639-1.496 0-.968-.649-1.617-2.508-1.617v-.77c1.661 0 2.233-.671 2.233-1.54 0-.781-.528-1.276-1.364-1.298-.649.022-1.221.352-1.672.803l-.539-.638c.605-.561 1.32-.968 2.255-.968 1.353 0 2.343.726 2.343 2.024 0 .979-.583 1.628-1.441 1.947v.044c.957.22 1.716.946 1.716 2.046 0 1.441-1.155 2.299-2.585 2.299z" opacity=".7"/>
        <path fill="#1C2633" fill-rule="nonzero" d="M85.621 54.315v.819h-9.386v-.819h4.199v-1.183H81.5v1.183h4.121zm-8.801 8.229v-.832h8.021v3.25h-1.066v-2.418H76.82zm1.469-5.252c0 .611.962.936 2.678.936s2.652-.325 2.652-.936c0-.598-.936-.936-2.652-.936-1.716 0-2.678.338-2.678.936zm3.211 2.639h4.719v.845h-10.53v-.845h4.745v-.949c-2.067-.078-3.237-.663-3.237-1.69 0-1.105 1.365-1.703 3.77-1.703 2.379 0 3.757.598 3.757 1.703 0 1.027-1.183 1.599-3.224 1.69v.949zm9.983-5.616v2.093c0 2.132 1.391 4.277 3.12 5.057l-.637.858c-1.326-.65-2.444-2.028-3.003-3.692-.533 1.755-1.651 3.211-3.016 3.913l-.65-.871c1.716-.819 3.133-3.055 3.133-5.265v-2.093h1.053zm4.342-1.014h1.066v11.687h-1.066V53.301zm11.685 6.292h2.652v-2.808h-2.691c.104.455.169.949.169 1.482 0 .481-.052.923-.13 1.326zm-2.769 1.794c1.105 0 1.898-1.222 1.898-3.12 0-1.885-.793-3.107-1.898-3.107-1.118 0-1.898 1.222-1.898 3.107 0 1.898.78 3.12 1.898 3.12zm5.421-8.086h1.066v11.687h-1.066v-4.524h-2.912c-.481 1.183-1.391 1.872-2.509 1.872-1.703 0-2.912-1.586-2.912-4.069 0-2.483 1.209-4.069 2.912-4.069 1.079 0 1.937.624 2.431 1.716h2.99v-2.613zm7.045 2.08v1.482c0 1.859 1.326 3.926 3.016 4.719l-.611.858c-1.3-.65-2.392-2.015-2.925-3.575-.533 1.703-1.664 3.185-2.977 3.861l-.624-.845c1.664-.832 3.068-3.042 3.068-5.018v-1.482h-2.665v-.884h6.305v.884h-2.587zm6.968 2.626v.897h-1.924v6.058h-1.066V53.314h1.066v4.693h1.924zm10.334-4.693v8.606h-1.066v-8.606h1.066zm-2.392 6.149l-.507.832c-1.352-.429-2.418-1.352-2.951-2.548-.507 1.287-1.573 2.301-2.951 2.769l-.52-.832c1.742-.572 2.925-2.041 2.925-3.666v-.299h-2.652v-.858h2.652v-1.495h1.066v1.495h2.626v.858h-2.639v.299c0 1.534 1.222 2.912 2.951 3.445zm-4.043 4.368h6.786v.871h-7.852v-3.575h1.066v2.704zm19.083-4.758v.871h-4.758v5.031h-1.079v-5.031h-4.706v-.871h7.735c.364-1.677.364-2.912.364-4.004v-.156h-6.786v-.858h7.826v1.014c0 1.092 0 2.327-.325 4.004h1.729zm9.216-1.586v-1.508h-5.668v1.508h5.668zm1.053-3.809v4.654h-7.774v-4.654h1.053v1.482h5.668v-1.482h1.053zm-6.786 7.852v2.301h7.007v.871h-8.06V61.53h1.053zm-2.405-2.067h10.595v.858h-4.68v2.262h-1.066v-2.262h-4.849v-.858zm20.162-6.162h1.066v11.687h-1.066V53.301zm-5.083.897c1.729 0 2.964 1.586 2.964 4.069 0 2.483-1.235 4.069-2.964 4.069-1.729 0-2.964-1.586-2.964-4.069 0-2.483 1.235-4.069 2.964-4.069zm0 .962c-1.144 0-1.95 1.222-1.95 3.107 0 1.898.806 3.12 1.95 3.12 1.131 0 1.937-1.222 1.937-3.12 0-1.885-.806-3.107-1.937-3.107zM81.513 79.685v.351c0 1.547 1.781 2.704 3.9 3.016l-.403.832c-1.781-.299-3.354-1.118-4.043-2.379-.702 1.261-2.288 2.08-4.069 2.379l-.403-.832c2.119-.312 3.926-1.469 3.926-3.016v-.351h1.092zm-3.432-6.058v2.236h5.746v-2.236h-5.746zm3.419 4.446h4.732v.858H75.676v-.858h4.758v-1.352h-3.393v-3.939h7.839v3.939H81.5v1.352zm17.808-.182v.871H91.3v-5.395h7.891v.884h-6.838v3.64h6.955zm-9.36 3.614h10.582v.884H89.948v-.884zm15.807-8.19v2.093c0 2.132 1.391 4.277 3.12 5.057l-.637.858c-1.326-.65-2.444-2.028-3.003-3.692-.533 1.755-1.651 3.211-3.016 3.913l-.65-.871c1.716-.819 3.133-3.055 3.133-5.265v-2.093h1.053zm4.342-1.014h1.066v11.687h-1.066V72.301zm12.531 3.51v.871h-7.93V72.73h1.066v3.081h6.864zm-6.942 4.459v2.535h7.007v.871h-8.073V80.27h1.066zm-2.418-2.028h10.569v.858h-10.569v-.858zm19.55-5.681c2.522 0 4.095.819 4.095 2.21 0 1.378-1.573 2.197-4.095 2.197s-4.095-.819-4.095-2.197c0-1.391 1.573-2.21 4.095-2.21zm0 .845c-1.846 0-3.003.507-3.003 1.365s1.157 1.365 3.003 1.365 3.003-.507 3.003-1.365-1.157-1.365-3.003-1.365zm-3.965 6.565h7.956v3.835h-7.956v-3.835zm6.916.845h-5.876v2.132h5.876v-2.132zm-8.216-2.847h10.543v.858h-10.543v-.858zm18.693-.182l-.533.845c-1.339-.481-2.392-1.482-2.912-2.769a5.034 5.034 0 0 1-2.938 2.977l-.546-.845c1.755-.637 2.938-2.262 2.938-4.004v-1.144h1.066v1.144c0 1.677 1.196 3.198 2.925 3.796zm-5.265 2.99v-.858h7.8v4.056h-1.066v-3.198h-6.734zm6.734-8.463h1.066v7.007h-1.066v-7.007zm11.634-.013h1.066v11.687h-1.066V72.301zm-5.083.897c1.729 0 2.964 1.586 2.964 4.069 0 2.483-1.235 4.069-2.964 4.069-1.729 0-2.964-1.586-2.964-4.069 0-2.483 1.235-4.069 2.964-4.069zm0 .962c-1.144 0-1.95 1.222-1.95 3.107 0 1.898.806 3.12 1.95 3.12 1.131 0 1.937-1.222 1.937-3.12 0-1.885-.806-3.107-1.937-3.107zm20.447-1.846v6.656h-1.066v-6.656h1.066zm-6.266 1.56c-1.157 0-1.989.767-1.989 1.833 0 1.079.832 1.833 1.989 1.833s2.015-.754 2.015-1.833c0-1.066-.858-1.833-2.015-1.833zm0 4.55c-1.755 0-3.029-1.105-3.029-2.717s1.274-2.717 3.029-2.717c1.768 0 3.055 1.105 3.055 2.717s-1.287 2.717-3.055 2.717zm4.966 1.053v.624c0 1.209.858 2.405 2.34 2.899l-.533.806c-1.144-.416-1.95-1.222-2.34-2.197-.364.949-1.079 1.833-2.158 2.301-1.118-.442-1.82-1.287-2.171-2.262a4.095 4.095 0 0 1-2.301 2.158l-.533-.806c1.469-.52 2.34-1.781 2.34-2.899v-.624h1.027v.624c0 1.027.533 2.132 1.612 2.769 1.118-.689 1.677-1.859 1.677-2.769v-.624h1.04zm4.913-6.045v6.682c1.677 0 3.406-.143 5.291-.52l.13.884c-1.989.403-3.77.533-5.551.533h-.923v-7.579h1.053zm9.321 3.523v.884h-1.872v6.123h-1.066V72.301h1.066v4.654h1.872zm4.471 1.885v2.743h3.25V78.84a7.181 7.181 0 0 1-1.638.182 6.951 6.951 0 0 1-1.612-.182zm1.612-4.966c-1.872 0-3.211.858-3.211 2.158 0 1.3 1.339 2.158 3.211 2.158 1.872 0 3.224-.858 3.224-2.158 0-1.3-1.352-2.158-3.224-2.158zm2.704 7.709h2.613v.884h-10.595v-.884h2.6v-3.146c-.975-.507-1.56-1.352-1.56-2.405 0-1.82 1.768-2.99 4.238-2.99 2.483 0 4.238 1.17 4.238 2.99 0 1.053-.572 1.885-1.534 2.392v3.159zm5.316-1.456c-.299-2.262 2.002-3.094 2.002-4.641 0-.78-.481-1.404-1.404-1.404-.65 0-1.222.312-1.677.832l-.676-.624c.598-.689 1.43-1.196 2.483-1.196 1.469 0 2.431.897 2.431 2.314 0 1.911-2.34 2.678-2.106 4.719h-1.053zm.559 3.042c-.468 0-.858-.364-.858-.897s.39-.923.858-.923c.481 0 .871.39.871.923s-.39.897-.871.897z" opacity=".9"/>
        <g>
            <g transform="matrix(-1 0 0 1 364.449 117)">
                <use fill="#000" filter="url(#e)" xlink:href="#f"/>
                <use fill="#D77628" xlink:href="#f"/>
            </g>
            <path fill="#FFF" fill-rule="nonzero" stroke="#FFF" stroke-width=".1" d="M143.602 134.315v2.093c0 2.054 1.326 4.173 2.964 4.992l-.663.845c-1.235-.663-2.288-2.028-2.821-3.627-.507 1.703-1.586 3.159-2.899 3.861l-.637-.858c1.677-.858 3.003-3.094 3.003-5.213v-2.093h1.053zm6.981 3.718v.884h-1.924v6.045h-1.066v-11.648h1.066v4.719h1.924zm4.9-3.718v2.093c0 2.132 1.391 4.277 3.12 5.057l-.637.858c-1.326-.65-2.444-2.028-3.003-3.692-.533 1.755-1.651 3.211-3.016 3.913l-.65-.871c1.716-.819 3.133-3.055 3.133-5.265v-2.093h1.053zm4.342-1.014h1.066v11.687h-1.066v-11.687zm3.86 1.144h5.356v7.579h-5.356v-7.579zm4.316.858h-3.276v5.876h3.276v-5.876zm3.484-2.002h1.066v11.687h-1.066v-11.687zm4.185 7.826l-.156-5.512-.039-1.352h1.209l-.039 1.352-.156 5.512h-.819zm.403 3.042c-.468 0-.858-.364-.858-.897s.39-.923.858-.923c.481 0 .858.39.858.923s-.377.897-.858.897zm3.496-3.042l-.156-5.512-.039-1.352h1.209l-.039 1.352-.156 5.512h-.819zm.403 3.042c-.468 0-.858-.364-.858-.897s.39-.923.858-.923c.481 0 .858.39.858.923s-.377.897-.858.897zm10.931-3.484v.351c0 1.547 1.781 2.704 3.9 3.016l-.403.832c-1.781-.299-3.354-1.118-4.043-2.379-.702 1.261-2.288 2.08-4.069 2.379l-.403-.832c2.119-.312 3.926-1.469 3.926-3.016v-.351h1.092zm-3.432-6.058v2.236h5.746v-2.236h-5.746zm3.419 4.446h4.732v.858h-10.556v-.858h4.758v-1.352h-3.393v-3.939h7.839v3.939h-3.38v1.352zm7.656 2.613v-.858h7.8v4.147h-1.079v-3.289h-6.721zm3.003-3.146v-3.51h-3.224v3.51h3.224zm3.718-5.226h1.079v6.864h-1.079v-3.081h-2.678v2.288h-5.317v-5.213h5.317v2.054h2.678v-2.912zm6.252 8.073c1.105 0 1.885-1.222 1.885-3.12 0-1.885-.78-3.107-1.885-3.107-1.118 0-1.898 1.222-1.898 3.107 0 1.898.78 3.12 1.898 3.12zm5.421-8.086h1.066v11.687h-1.066v-6.37h-2.535c-.104 2.288-1.261 3.718-2.886 3.718-1.703 0-2.912-1.586-2.912-4.069 0-2.483 1.209-4.069 2.912-4.069 1.573 0 2.717 1.365 2.886 3.549h2.535v-4.446zm6.772 6.539v2.743h3.25v-2.743a7.181 7.181 0 0 1-1.638.182 6.951 6.951 0 0 1-1.612-.182zm1.612-4.966c-1.872 0-3.211.858-3.211 2.158 0 1.3 1.339 2.158 3.211 2.158 1.872 0 3.224-.858 3.224-2.158 0-1.3-1.352-2.158-3.224-2.158zm2.704 7.709h2.613v.884h-10.595v-.884h2.6v-3.146c-.975-.507-1.56-1.352-1.56-2.405 0-1.82 1.768-2.99 4.238-2.99 2.483 0 4.238 1.17 4.238 2.99 0 1.053-.572 1.885-1.534 2.392v3.159zm4.692-1.456l-.156-5.512-.039-1.352h1.209l-.039 1.352-.156 5.512h-.819zm.403 3.042c-.468 0-.858-.364-.858-.897s.39-.923.858-.923c.481 0 .858.39.858.923s-.377.897-.858.897zm7.161-7.046c0 1.339 1.365 2.21 3.224 2.21 1.859 0 3.211-.871 3.211-2.21s-1.352-2.21-3.211-2.21c-1.859 0-3.224.871-3.224 2.21zm3.757 5.46h4.771v.884h-10.595v-.884h4.745v-2.431c-2.171-.156-3.705-1.313-3.705-3.029 0-1.859 1.781-3.055 4.251-3.055 2.457 0 4.225 1.196 4.225 3.055 0 1.716-1.521 2.873-3.692 3.029v2.431zm14.325-9.282h1.066v11.687h-1.066v-11.687zm-5.083.897c1.729 0 2.964 1.586 2.964 4.069 0 2.483-1.235 4.069-2.964 4.069-1.729 0-2.964-1.586-2.964-4.069 0-2.483 1.235-4.069 2.964-4.069zm0 .962c-1.144 0-1.95 1.222-1.95 3.107 0 1.898.806 3.12 1.95 3.12 1.131 0 1.937-1.222 1.937-3.12 0-1.885-.806-3.107-1.937-3.107zm17.51 2.483v.858h-7.8v-4.511h7.657v.871h-6.565v2.782h6.708zm1.326 2.379v.871h-4.784v4.017h-1.066v-4.017h-4.719v-.871h10.569zm4.744-.182v2.743h3.25v-2.743a7.181 7.181 0 0 1-1.638.182 6.951 6.951 0 0 1-1.612-.182zm1.612-4.966c-1.872 0-3.211.858-3.211 2.158 0 1.3 1.339 2.158 3.211 2.158 1.872 0 3.224-.858 3.224-2.158 0-1.3-1.352-2.158-3.224-2.158zm2.704 7.709h2.613v.884h-10.595v-.884h2.6v-3.146c-.975-.507-1.56-1.352-1.56-2.405 0-1.82 1.768-2.99 4.238-2.99 2.483 0 4.238 1.17 4.238 2.99 0 1.053-.572 1.885-1.534 2.392v3.159zm4.692-1.456l-.156-5.512-.039-1.352h1.209l-.039 1.352-.156 5.512h-.819zm.403 3.042c-.468 0-.858-.364-.858-.897s.39-.923.858-.923c.481 0 .858.39.858.923s-.377.897-.858.897z"/>
            <path fill="#1C2633" fill-rule="nonzero" d="M80.344 150.181c0 1.133 1.155 1.87 2.728 1.87 1.573 0 2.717-.737 2.717-1.87s-1.144-1.87-2.717-1.87c-1.573 0-2.728.737-2.728 1.87zm3.179 4.62h4.037v.748h-8.965v-.748h4.015v-2.057c-1.837-.132-3.135-1.111-3.135-2.563 0-1.573 1.507-2.585 3.597-2.585 2.079 0 3.575 1.012 3.575 2.585 0 1.452-1.287 2.431-3.124 2.563v2.057zm13.296-6.721v.726h-7.931v-.726h3.542v-1.188h.913v1.188h3.476zm-1.672 2.937c0-.605-.814-.957-2.255-.957-1.441 0-2.277.352-2.277.957s.836.957 2.277.957c1.441 0 2.255-.352 2.255-.957zm-5.467 0c0-1.056 1.199-1.65 3.212-1.65 1.991 0 3.19.594 3.19 1.65s-1.199 1.639-3.19 1.639c-2.013 0-3.212-.583-3.212-1.639zm7.689 2.332v.737h-4.026v2.739h-.913v-2.739h-4.004v-.737h8.943zm5.362 2.794c-1.265 0-2.057-.528-2.585-1.1l.506-.66c.473.495 1.089.924 2.002.924.957 0 1.639-.572 1.639-1.496 0-.968-.649-1.617-2.508-1.617v-.77c1.661 0 2.233-.671 2.233-1.54 0-.781-.528-1.276-1.364-1.298-.649.022-1.221.352-1.672.803l-.539-.638c.605-.561 1.32-.968 2.255-.968 1.353 0 2.343.726 2.343 2.024 0 .979-.583 1.628-1.441 1.947v.044c.957.22 1.716.946 1.716 2.046 0 1.441-1.155 2.299-2.585 2.299zm4.43-4.433c-.396 0-.726-.319-.726-.759 0-.462.33-.781.726-.781.396 0 .726.319.726.781 0 .44-.33.759-.726.759zm0 4.433c-.396 0-.726-.308-.726-.759s.33-.781.726-.781c.396 0 .726.33.726.781s-.33.759-.726.759zm2.197-.143v-.836h1.793v-6.017h-1.43v-.638c.715-.132 1.232-.319 1.672-.572h.77v7.227h1.617V156h-4.422zm6.102-3.025h2.464V150.5c0-.396.044-1.045.066-1.463h-.044c-.198.396-.418.792-.649 1.188l-1.837 2.75zm4.488 0v.803h-1.067V156h-.957v-2.222h-3.509v-.66l3.355-5.181h1.111v5.038h1.067z" opacity=".7"/>
        </g>
        <g>
            <g transform="matrix(-1 0 0 1 256 180)">
                <use fill="#000" filter="url(#g)" xlink:href="#h"/>
                <use fill="#FFF9ED" xlink:href="#h"/>
            </g>
            <path fill="#1C2633" fill-rule="nonzero" d="M76.365 209.21v-12.493h2.587v.663h-1.69v11.154h1.69v.676h-2.587zm7.071-6.37v2.743h3.25v-2.743a7.181 7.181 0 0 1-1.638.182 6.951 6.951 0 0 1-1.612-.182zm1.612-4.966c-1.872 0-3.211.858-3.211 2.158 0 1.3 1.339 2.158 3.211 2.158 1.872 0 3.224-.858 3.224-2.158 0-1.3-1.352-2.158-3.224-2.158zm2.704 7.709h2.613v.884H79.77v-.884h2.6v-3.146c-.975-.507-1.56-1.352-1.56-2.405 0-1.82 1.768-2.99 4.238-2.99 2.483 0 4.238 1.17 4.238 2.99 0 1.053-.572 1.885-1.534 2.392v3.159zm9.892-5.967h2.327v-3.315h1.079v7.072h-1.079V200.5h-2.327v-.884zm.702 2.444l-.494.819c-1.339-.416-2.405-1.287-2.938-2.418-.494 1.274-1.547 2.262-2.925 2.717l-.52-.819c1.716-.585 2.886-2.002 2.886-3.575v-.221h-2.587v-.858h2.587v-1.456h1.066v1.456h2.574v.858h-2.574v.221c0 1.456 1.209 2.756 2.925 3.276zm-1.157 5.057c1.781 0 2.834-.494 2.834-1.313 0-.806-1.053-1.3-2.834-1.3-1.755 0-2.808.494-2.808 1.3 0 .819 1.053 1.313 2.808 1.313zm0-3.445c2.418 0 3.9.78 3.9 2.132 0 1.365-1.482 2.145-3.9 2.145-2.392 0-3.874-.78-3.874-2.145 0-1.352 1.482-2.132 3.874-2.132zm9.827-6.357v2.093c0 2.054 1.326 4.173 2.964 4.992l-.663.845c-1.235-.663-2.288-2.028-2.821-3.627-.507 1.703-1.586 3.159-2.899 3.861l-.637-.858c1.677-.858 3.003-3.094 3.003-5.213v-2.093h1.053zm6.981 3.718v.884h-1.924v6.045h-1.066v-11.648h1.066v4.719h1.924zm7.682-3.419v.858h-6.877v-.858h2.899v-1.417h1.066v1.417h2.912zm-5.213 3.497c0 .767.715 1.261 1.768 1.261 1.066 0 1.781-.494 1.781-1.261 0-.754-.715-1.248-1.781-1.248-1.053 0-1.768.494-1.768 1.248zm4.563 0c0 1.261-1.131 2.067-2.795 2.067s-2.782-.806-2.782-2.067c0-1.248 1.118-2.054 2.782-2.054s2.795.806 2.795 2.054zm-.871 6.019c1.703 0 2.743-.442 2.743-1.196s-1.04-1.196-2.743-1.196c-1.703 0-2.743.442-2.743 1.196s1.04 1.196 2.743 1.196zm0-3.211c2.34 0 3.796.728 3.796 2.015 0 1.274-1.456 2.015-3.796 2.015-2.353 0-3.796-.741-3.796-2.015 0-1.287 1.443-2.015 3.796-2.015zm3.653-4.381h1.729v.884h-1.729v3.38h-1.066v-7.501h1.066v3.237zm2.365 9.672v-.676h1.69V197.38h-1.69v-.663h2.587v12.493h-2.587zm-40.919 6.091v8.554h-1.066v-8.554h1.066zm-2.548 5.811l-.559.845c-1.326-.507-2.353-1.56-2.873-2.886a5.231 5.231 0 0 1-2.912 3.12l-.559-.871c1.755-.676 2.925-2.366 2.925-4.186v-1.183h1.066v1.183c0 1.755 1.183 3.341 2.912 3.978zm-3.887 4.719h6.786v.871h-7.852v-3.64h1.066v2.769zm12.44-9.516v2.093c0 2.054 1.326 4.173 2.964 4.992l-.663.845c-1.235-.663-2.288-2.028-2.821-3.627-.507 1.703-1.586 3.159-2.899 3.861l-.637-.858c1.677-.858 3.003-3.094 3.003-5.213v-2.093h1.053zm6.981 3.718v.884h-1.924v6.045h-1.066v-11.648h1.066v4.719h1.924zm6.044 6.097c1.82 0 2.899-.455 2.899-1.274s-1.079-1.274-2.899-1.274c-1.846 0-2.925.455-2.925 1.274s1.079 1.274 2.925 1.274zm0-3.38c2.47 0 3.978.754 3.978 2.106 0 1.352-1.508 2.106-3.978 2.106-2.496 0-4.004-.754-4.004-2.106 0-1.352 1.508-2.106 4.004-2.106zm.533-1.69h4.745v.858H99.009v-.858h4.745v-1.352h-3.419v-3.874h7.917v.858h-6.851v2.158h6.929v.858h-3.51v1.352zm8.488 2.353c.91 0 1.508-1.183 1.508-3.094 0-1.872-.598-3.055-1.508-3.055-.936 0-1.521 1.183-1.521 3.055 0 1.911.585 3.094 1.521 3.094zm3.939-3.575v-4.277h1.014v10.829h-1.014v-5.681h-1.469c-.091 2.288-1.04 3.692-2.47 3.692-1.521 0-2.496-1.56-2.496-4.082 0-2.483.975-4.043 2.496-4.043 1.404 0 2.34 1.365 2.47 3.562h1.469zm2.314-4.537h1.014v11.661h-1.014v-11.661zm9.202 1.43c-1.144 0-1.95.611-1.95 1.521 0 .91.806 1.521 1.95 1.521 1.131 0 1.937-.611 1.937-1.521 0-.91-.806-1.521-1.937-1.521zm0 3.913c-1.742 0-2.977-.975-2.977-2.392 0-1.43 1.235-2.405 2.977-2.405 1.729 0 2.964.975 2.964 2.405 0 1.417-1.235 2.392-2.964 2.392zm3.835.572l.091.793a29.232 29.232 0 0 1-3.341.39v4.199h-1.066v-4.134a71.982 71.982 0 0 1-3.224.065l-.143-.897c2.171 0 5.122-.026 7.683-.416zm.845-5.902h1.066v11.661h-1.066v-11.661zm7.448 2.86v.897c0 1.95 1.326 3.848 3.068 4.602l-.598.832c-1.339-.611-2.444-1.872-2.977-3.406-.52 1.625-1.625 2.951-2.964 3.601l-.598-.806c1.729-.819 3.016-2.782 3.016-4.823v-.897h-2.704v-.858h2.691v-1.807h1.079v1.807h2.652v.858h-2.665zm4.186-2.886h1.079v11.661h-1.079v-11.661zm10.1 1.443v.858H148.3v-.858h2.899v-1.417h1.066v1.417h2.912zm-5.213 3.666c0 .819.702 1.339 1.768 1.339 1.053 0 1.781-.52 1.781-1.339 0-.806-.728-1.326-1.781-1.326-1.066 0-1.768.52-1.768 1.326zm4.563 0c0 1.313-1.144 2.171-2.795 2.171s-2.782-.858-2.782-2.171c0-1.3 1.131-2.158 2.782-2.158s2.795.858 2.795 2.158zm-3.406 2.964v2.47h6.708v.871h-7.774v-3.341h1.066zm6.188-4.212h1.729v.897h-1.729v4.004h-1.066v-8.736h1.066v3.835zm2.898 9.321l-.286-.702c.806-.351 1.287-.975 1.3-1.768-.052.013-.091.013-.143.013-.455 0-.871-.286-.871-.832 0-.507.416-.832.897-.832.624 0 1.001.533 1.001 1.404 0 1.248-.728 2.223-1.898 2.717zm7.98-4.953v2.431h5.863v-2.431h-5.863zm-1.04 3.289v-4.147h7.956v4.147h-7.956zm7.605-6.591h1.677v.858h-10.595v-.858h7.839c.338-1.456.338-2.522.338-3.432h-6.825v-.858h7.878v.858c0 .91 0 1.976-.312 3.432zm6.408 1.625v2.743h3.25v-2.743a7.181 7.181 0 0 1-1.638.182 6.951 6.951 0 0 1-1.612-.182zm1.612-4.966c-1.872 0-3.211.858-3.211 2.158 0 1.3 1.339 2.158 3.211 2.158 1.872 0 3.224-.858 3.224-2.158 0-1.3-1.352-2.158-3.224-2.158zm2.704 7.709h2.613v.884h-10.595v-.884h2.6v-3.146c-.975-.507-1.56-1.352-1.56-2.405 0-1.82 1.768-2.99 4.238-2.99 2.483 0 4.238 1.17 4.238 2.99 0 1.053-.572 1.885-1.534 2.392v3.159zm13.259-9.282v5.98h-1.066v-5.98h1.066zm-8.268 3.016c0 1.001.845 1.716 1.976 1.716 1.144 0 1.976-.715 1.976-1.716 0-1.014-.832-1.729-1.976-1.729-1.131 0-1.976.715-1.976 1.729zm4.992 0c0 1.534-1.274 2.574-3.016 2.574s-3.003-1.04-3.003-2.574c0-1.547 1.261-2.6 3.003-2.6 1.742 0 3.016 1.053 3.016 2.6zm-3.198 7.644h6.864v.845h-7.917v-2.925h6.474v-1.183h-6.5v-.845h7.553v2.821h-6.474v1.287zm12.349-9.802c1.82 0 3.12 1.105 3.12 2.743 0 1.625-1.3 2.743-3.12 2.743-1.807 0-3.12-1.118-3.12-2.743 0-1.638 1.313-2.743 3.12-2.743zm0 .91c-1.209 0-2.08.741-2.08 1.833 0 1.079.871 1.833 2.08 1.833s2.08-.754 2.08-1.833c0-1.092-.871-1.833-2.08-1.833zm4.654-1.768h1.066v11.687h-1.066v-11.687zm-8.229 9.126l-.13-.897c2.119 0 5.044-.013 7.592-.403l.091.793c-2.626.494-5.447.507-7.553.507zm15.546-6.838v5.681c1.651-.013 2.691-.065 3.913-.325l.104.871c-1.326.286-2.457.338-4.316.338h-.754v-7.423h4.381v.858h-3.328zm5.057 2.158v-4.16h1.001v10.79h-1.001v-5.746h-2.509v-.884h2.509zm2.34-4.446h1.014v11.661h-1.014v-11.661zm11.257 0h1.066v11.687h-1.066v-11.687zm-5.083.897c1.729 0 2.964 1.586 2.964 4.069 0 2.483-1.235 4.069-2.964 4.069-1.729 0-2.964-1.586-2.964-4.069 0-2.483 1.235-4.069 2.964-4.069zm0 .962c-1.144 0-1.95 1.222-1.95 3.107 0 1.898.806 3.12 1.95 3.12 1.131 0 1.937-1.222 1.937-3.12 0-1.885-.806-3.107-1.937-3.107zM85.049 240.593v.858h-8.008v-6.136h7.891v.858H78.12v1.729h6.552v.845H78.12v1.846h6.929zm-9.373 2.99h10.582v.871H75.676v-.871zm18.315-7.215v1.352c0 1.937 1.365 4.056 3.055 4.862l-.637.832c-1.3-.663-2.418-2.054-2.951-3.666-.507 1.716-1.638 3.211-2.964 3.913l-.624-.845c1.664-.819 3.055-3.029 3.055-5.096v-1.352h-2.639v-.871h6.357v.871h-2.652zm4.511-2.067h1.066v11.674h-1.066v-6.565H95.98v-.871h2.522v-4.238zm9.632 5.2l.143.884c-1.664.338-3.12.429-5.109.429h-.871v-5.811h1.066v4.914c1.846-.013 3.211-.104 4.771-.416zm-4.719 3.289v-.871h7.8v4.056h-1.066v-3.185h-6.734zm6.734-8.489h1.066v7.059h-1.066v-2.691h-3.276v-.819h3.276v-1.3h-3.276v-.832h3.276v-1.417zm10.165 5.486l-.533.845c-1.339-.481-2.392-1.482-2.912-2.769a5.034 5.034 0 0 1-2.938 2.977l-.546-.845c1.755-.637 2.938-2.262 2.938-4.004v-1.144h1.066v1.144c0 1.677 1.196 3.198 2.925 3.796zm-5.265 2.99v-.858h7.8v4.056h-1.066v-3.198h-6.734zm6.734-8.463h1.066v7.007h-1.066v-7.007zm7.071 1.001v2.093c0 2.054 1.326 4.173 2.964 4.992l-.663.845c-1.235-.663-2.288-2.028-2.821-3.627-.507 1.703-1.586 3.159-2.899 3.861l-.637-.858c1.677-.858 3.003-3.094 3.003-5.213v-2.093h1.053zm6.981 3.718v.884h-1.924v6.045h-1.066v-11.648h1.066v4.719h1.924zm1.052 8.437l-.286-.702c.806-.351 1.287-.975 1.3-1.768-.052.013-.091.013-.143.013-.455 0-.871-.286-.871-.832 0-.507.416-.832.897-.832.624 0 1.001.533 1.001 1.404 0 1.248-.728 2.223-1.898 2.717zm6.095-2.47v-.988h2.119v-7.111h-1.69v-.754c.845-.156 1.456-.377 1.976-.676h.91v8.541h1.911V245h-5.226zm16.028-10.686v8.515h-1.066v-8.515h1.066zm-8.255 3.666c0 1.157.858 1.963 1.989 1.963 1.157 0 2.015-.806 2.015-1.963 0-1.131-.858-1.937-2.015-1.937-1.131 0-1.989.806-1.989 1.937zm5.044 0c0 1.69-1.313 2.886-3.055 2.886-1.729 0-3.029-1.196-3.029-2.886 0-1.677 1.3-2.86 3.029-2.86 1.742 0 3.055 1.183 3.055 2.86zm-3.224 6.851h6.786v.871h-7.852v-3.744h1.066v2.873zm15.287-5.798l.117.871c-1.599.325-2.99.403-5.447.403h-.91v-5.109h5.148v.858h-4.095v3.38c2.314 0 3.653-.078 5.187-.403zm-1.417 6.058c1.716 0 2.782-.52 2.782-1.378 0-.858-1.066-1.378-2.782-1.378-1.729 0-2.795.52-2.795 1.378 0 .858 1.066 1.378 2.795 1.378zm0-3.614c2.353 0 3.835.832 3.835 2.236 0 1.404-1.482 2.236-3.835 2.236-2.366 0-3.848-.832-3.848-2.236 0-1.404 1.482-2.236 3.848-2.236zm3.718-4.147h1.716v.884h-1.716v3.029h-1.079v-6.942h1.079v3.029zm7.915 7.839c-1.482 0-2.392-.624-3.029-1.261l.585-.78c.546.546 1.235 1.053 2.34 1.053 1.118 0 2.028-.858 2.028-2.249 0-1.365-.78-2.171-1.976-2.171-.637 0-1.04.195-1.586.559l-.637-.39.299-4.459h4.641v1.014h-3.601l-.234 2.756a2.736 2.736 0 0 1 1.417-.377c1.586 0 2.873.936 2.873 3.029s-1.508 3.276-3.12 3.276zm9.008-5.278v-3.692h-3.276v3.692h3.276zm1.04-4.55v5.395h-5.356v-5.395h5.356zm-2.977 6.695v2.795h6.708v.871h-7.774v-3.666h1.066zm6.188-4.186h1.729v.897h-1.729v4.082h-1.066v-8.541h1.066v3.562zm8.722 3.341h2.366v-6.89h1.066v8.879h-1.066v-1.196h-2.366v-.793zm-2.379-5.629c-1.105 0-1.859.494-1.859 1.235 0 .754.754 1.248 1.859 1.248s1.859-.494 1.859-1.248c0-.741-.754-1.235-1.859-1.235zm0 3.276c-1.703 0-2.873-.793-2.873-2.041 0-1.222 1.17-2.028 2.873-2.028 1.703 0 2.873.806 2.873 2.028 0 1.248-1.17 2.041-2.873 2.041zm-.416 3.926v-2.249a72.54 72.54 0 0 1-3.237.065l-.143-.884c2.158 0 5.044-.026 7.514-.338l.091.767a36.098 36.098 0 0 1-3.159.338v2.301h-1.066zm-.65 2.067h7.176v.871h-8.242v-3.393h1.066v2.522zm20.083-10.53h1.066v11.687h-1.066v-11.687zm-5.083.897c1.729 0 2.964 1.586 2.964 4.069 0 2.483-1.235 4.069-2.964 4.069-1.729 0-2.964-1.586-2.964-4.069 0-2.483 1.235-4.069 2.964-4.069zm0 .962c-1.144 0-1.95 1.222-1.95 3.107 0 1.898.806 3.12 1.95 3.12 1.131 0 1.937-1.222 1.937-3.12 0-1.885-.806-3.107-1.937-3.107zm9.905-.442v6.292a20.272 20.272 0 0 0 3.744-.364l.104.923c-1.573.299-2.912.364-4.173.364h-.741v-7.215h1.066zm7.228-1.417h1.027v11.648h-1.027v-6.019h-1.651v5.434h-1.001v-10.803h1.001v4.485h1.651v-4.745zM78.328 261.413c.91 0 1.508-1.183 1.508-3.094 0-1.872-.598-3.055-1.508-3.055-.936 0-1.521 1.183-1.521 3.055 0 1.911.585 3.094 1.521 3.094zm3.939-3.575v-4.277h1.014v10.829h-1.014v-5.681h-1.469c-.091 2.288-1.04 3.692-2.47 3.692-1.521 0-2.496-1.56-2.496-4.082 0-2.483.975-4.043 2.496-4.043 1.404 0 2.34 1.365 2.47 3.562h1.469zm2.314-4.537h1.014v11.661h-1.014v-11.661zm3.054 13.169l-.286-.702c.806-.351 1.287-.975 1.3-1.768-.052.013-.091.013-.143.013-.455 0-.871-.286-.871-.832 0-.507.416-.832.897-.832.624 0 1.001.533 1.001 1.404 0 1.248-.728 2.223-1.898 2.717zm12.556-11.739v.858h-6.877v-.858h2.899v-1.417h1.066v1.417h2.912zm-5.213 3.666c0 .819.702 1.339 1.768 1.339 1.053 0 1.781-.52 1.781-1.339 0-.806-.728-1.326-1.781-1.326-1.066 0-1.768.52-1.768 1.326zm4.563 0c0 1.313-1.144 2.171-2.795 2.171s-2.782-.858-2.782-2.171c0-1.3 1.131-2.158 2.782-2.158s2.795.858 2.795 2.158zm-3.406 2.964v2.47h6.708v.871h-7.774v-3.341h1.066zm6.188-4.212h1.729v.897h-1.729v4.004h-1.066v-8.736h1.066v3.835zm9.645 1.638l-.533.845c-1.339-.481-2.392-1.482-2.912-2.769a5.034 5.034 0 0 1-2.938 2.977l-.546-.845c1.755-.637 2.938-2.262 2.938-4.004v-1.144h1.066v1.144c0 1.677 1.196 3.198 2.925 3.796zm-5.265 2.99v-.858h7.8v4.056h-1.066v-3.198h-6.734zm6.734-8.463h1.066v7.007h-1.066v-7.007zm3.444 13.156l-.286-.702c.806-.351 1.287-.975 1.3-1.768-.052.013-.091.013-.143.013-.455 0-.871-.286-.871-.832 0-.507.416-.832.897-.832.624 0 1.001.533 1.001 1.404 0 1.248-.728 2.223-1.898 2.717zm9.553-12.155v2.093c0 2.054 1.326 4.173 2.964 4.992l-.663.845c-1.235-.663-2.288-2.028-2.821-3.627-.507 1.703-1.586 3.159-2.899 3.861l-.637-.858c1.677-.858 3.003-3.094 3.003-5.213v-2.093h1.053zm6.981 3.718v.884h-1.924v6.045h-1.066v-11.648h1.066v4.719h1.924zm4.9-3.718v2.093c0 2.132 1.391 4.277 3.12 5.057l-.637.858c-1.326-.65-2.444-2.028-3.003-3.692-.533 1.755-1.651 3.211-3.016 3.913l-.65-.871c1.716-.819 3.133-3.055 3.133-5.265v-2.093h1.053zm4.342-1.014h1.066v11.687h-1.066v-11.687zm3.86 1.144h5.356v7.579h-5.356v-7.579zm4.316.858h-3.276v5.876h3.276v-5.876zm3.484-2.002h1.066v11.687h-1.066v-11.687zm3.47 13.169l-.286-.702c.806-.351 1.287-.975 1.3-1.768-.052.013-.091.013-.143.013-.455 0-.871-.286-.871-.832 0-.507.416-.832.897-.832.624 0 1.001.533 1.001 1.404 0 1.248-.728 2.223-1.898 2.717zm7.694-9.347c0 1.339 1.365 2.21 3.224 2.21 1.859 0 3.211-.871 3.211-2.21s-1.352-2.21-3.211-2.21c-1.859 0-3.224.871-3.224 2.21zm3.757 5.46h4.771v.884h-10.595v-.884h4.745v-2.431c-2.171-.156-3.705-1.313-3.705-3.029 0-1.859 1.781-3.055 4.251-3.055 2.457 0 4.225 1.196 4.225 3.055 0 1.716-1.521 2.873-3.692 3.029v2.431zm14.325-9.282h1.066v11.687h-1.066v-11.687zm-5.083.897c1.729 0 2.964 1.586 2.964 4.069 0 2.483-1.235 4.069-2.964 4.069-1.729 0-2.964-1.586-2.964-4.069 0-2.483 1.235-4.069 2.964-4.069zm0 .962c-1.144 0-1.95 1.222-1.95 3.107 0 1.898.806 3.12 1.95 3.12 1.131 0 1.937-1.222 1.937-3.12 0-1.885-.806-3.107-1.937-3.107zm16.431.182v-.949h-6.838v-.754h7.891v2.431h-6.812v1.001h7.02v.767h-8.073v-2.496h6.812zm-5.824 7.618v1.079h7.28v.767h-8.333v-2.587h6.916v-.975h-6.942v-.767h7.995v2.483h-6.916zm-2.34-4.238h10.569v.806h-10.569v-.806zm17.691-3.185v1.053c0 2.028.871 4.056 2.483 4.966l-.65.78c-1.131-.676-1.937-1.924-2.34-3.406-.403 1.599-1.248 2.964-2.405 3.692l-.65-.793c1.625-.975 2.535-3.094 2.535-5.239v-1.053h-2.21v-.871h5.317v.871h-2.08zm3.12 1.95v-3.926h1.014v10.79h-1.014v-5.993h-1.924v-.871h1.924zm2.34-4.199h1.027v11.661h-1.027v-11.661zm4.484 3.497c0 1.092.871 1.846 2.067 1.846 1.222 0 2.093-.754 2.093-1.846 0-1.079-.871-1.82-2.093-1.82-1.196 0-2.067.741-2.067 1.82zm2.6 2.717v1.976c1.131-.065 2.288-.156 3.367-.325l.091.793c-2.626.494-5.447.507-7.553.507l-.13-.897c.936 0 2.015 0 3.159-.039v-2.015c-1.508-.195-2.574-1.248-2.574-2.717 0-1.625 1.313-2.73 3.107-2.73 1.833 0 3.133 1.105 3.133 2.73 0 1.469-1.053 2.535-2.6 2.717zm4.134-6.214h1.066v11.7h-1.066v-11.7zm10.139 1.443v.858h-6.877v-.858h2.899v-1.417h1.066v1.417h2.912zm-5.213 3.666c0 .819.702 1.339 1.768 1.339 1.053 0 1.781-.52 1.781-1.339 0-.806-.728-1.326-1.781-1.326-1.066 0-1.768.52-1.768 1.326zm4.563 0c0 1.313-1.144 2.171-2.795 2.171s-2.782-.858-2.782-2.171c0-1.3 1.131-2.158 2.782-2.158s2.795.858 2.795 2.158zm-3.406 2.964v2.47h6.708v.871h-7.774v-3.341h1.066zm6.188-4.212h1.729v.897h-1.729v4.004h-1.066v-8.736h1.066v3.835zM80.369 277.501v-3.458H77.21v3.458h3.159zm1.053-4.303v5.161H76.17v-5.161h5.252zm.325 6.279v.364c0 1.651 1.807 2.886 3.887 3.237l-.429.832c-1.729-.325-3.289-1.196-3.978-2.522-.702 1.326-2.275 2.197-4.004 2.522l-.429-.832c2.08-.351 3.9-1.586 3.9-3.237v-.364h1.053zm2.99-3.991h1.729v.884h-1.729v3.679h-1.066v-7.748h1.066v3.185zm9.749 2.132l-.52.819c-1.339-.429-2.418-1.365-2.951-2.574-.507 1.287-1.586 2.301-2.977 2.782l-.546-.845c1.768-.559 2.964-2.015 2.964-3.614v-.26h-2.665v-.871h6.396v.871h-2.639v.26c0 1.534 1.222 2.899 2.938 3.432zm1.378 5.317v-1.508h-5.408v1.508h5.408zm0-2.34v-1.417h1.053v4.628h-7.514v-4.628h1.053v1.417h5.408zm-.013-8.294h1.066v6.318h-1.066v-6.318zm8.423 1.001c-1.911 0-3.003.442-3.003 1.222s1.092 1.222 3.003 1.222 3.003-.442 3.003-1.222-1.092-1.222-3.003-1.222zm0 3.237c-2.561 0-4.095-.702-4.095-2.015 0-1.313 1.534-2.028 4.095-2.028s4.095.715 4.095 2.028c0 1.313-1.534 2.015-4.095 2.015zm-2.925 5.278V283h7.202v.832h-8.242v-2.795h6.838v-1.04h-6.877v-.806h7.93v2.626h-6.851zm-2.353-4.485h10.556v.858H98.996v-.858zm17.938 1.508v2.743h3.25v-2.743a7.181 7.181 0 0 1-1.638.182 6.951 6.951 0 0 1-1.612-.182zm1.612-4.966c-1.872 0-3.211.858-3.211 2.158 0 1.3 1.339 2.158 3.211 2.158 1.872 0 3.224-.858 3.224-2.158 0-1.3-1.352-2.158-3.224-2.158zm2.704 7.709h2.613v.884h-10.595v-.884h2.6v-3.146c-.975-.507-1.56-1.352-1.56-2.405 0-1.82 1.768-2.99 4.238-2.99 2.483 0 4.238 1.17 4.238 2.99 0 1.053-.572 1.885-1.534 2.392v3.159zm9.892-5.967h2.327v-3.315h1.079v7.072h-1.079V276.5h-2.327v-.884zm.702 2.444l-.494.819c-1.339-.416-2.405-1.287-2.938-2.418-.494 1.274-1.547 2.262-2.925 2.717l-.52-.819c1.716-.585 2.886-2.002 2.886-3.575v-.221h-2.587v-.858h2.587v-1.456h1.066v1.456h2.574v.858h-2.574v.221c0 1.456 1.209 2.756 2.925 3.276zm-1.157 5.057c1.781 0 2.834-.494 2.834-1.313 0-.806-1.053-1.3-2.834-1.3-1.755 0-2.808.494-2.808 1.3 0 .819 1.053 1.313 2.808 1.313zm0-3.445c2.418 0 3.9.78 3.9 2.132 0 1.365-1.482 2.145-3.9 2.145-2.392 0-3.874-.78-3.874-2.145 0-1.352 1.482-2.132 3.874-2.132zm9.333.806c1.066 0 1.833-.754 1.833-1.794 0-1.053-.767-1.807-1.833-1.807-1.053 0-1.82.754-1.82 1.807 0 1.04.767 1.794 1.82 1.794zm0-4.485c1.664 0 2.847 1.118 2.847 2.691 0 1.586-1.183 2.678-2.847 2.678-1.638 0-2.821-1.092-2.821-2.678 0-1.573 1.183-2.691 2.821-2.691zm.52-3.549v1.729h2.873v.858h-6.877v-.858h2.938v-1.729h1.066zm6.955 4.654v.897h-1.911v5.967h-1.066v-11.648h1.066v4.784h1.911zm9.294 2.041v-2.275h-2.301v-.871h2.301v-1.43h-2.301v-.871h2.301v-1.391h1.079v6.838h-1.079zm-1.755-1.274l-.598.832c-1.248-.507-2.223-1.521-2.73-2.795a5.071 5.071 0 0 1-2.847 3.003l-.585-.858c1.768-.676 2.886-2.275 2.886-4.121v-1.209h1.053v1.209c0 1.69 1.144 3.289 2.821 3.939zm1.573 1.69v.533c0 1.209.845 2.431 2.34 2.938l-.533.793c-1.131-.429-1.95-1.222-2.34-2.21-.364.949-1.066 1.846-2.158 2.314-1.118-.442-1.82-1.3-2.171-2.275-.416.936-1.222 1.742-2.314 2.171l-.533-.793c1.482-.546 2.353-1.807 2.353-2.938v-.533h1.027v.533c0 1.04.533 2.158 1.625 2.795 1.105-.702 1.651-1.885 1.651-2.795v-.533h1.053zm13.259-3.614l-.39.858c-1.807-.286-3.536-1.196-4.277-2.496-.728 1.3-2.47 2.21-4.29 2.496l-.39-.858c2.093-.26 4.134-1.508 4.134-2.99v-.52h1.092v.52c0 1.443 2.054 2.73 4.121 2.99zm-1.833 7.007v-1.482H162.3v1.482h5.733zm0-2.301v-1.365h1.053v4.524h-7.839v-4.524h1.053v1.365h5.733zm-8.125-3.029h10.556v.858h-10.556v-.858zm13.467-4.186v6.604c1.755 0 3.562-.156 5.499-.546l.117.91c-2.028.416-3.861.546-5.72.546h-.962v-7.514h1.066zm6.695-1.131h1.066v11.648h-1.066v-11.648zm4.731 2.002v5.863c2.067 0 3.562-.091 5.252-.39l.117.884c-1.781.338-3.315.416-5.512.416h-.923v-7.657h5.421v.884h-4.355zm9.334 2.6v.884h-1.924v6.201h-1.066v-11.687h1.066v4.602h1.924zm1.884 6.266c-.468 0-.858-.364-.858-.897s.39-.923.858-.923c.468 0 .858.39.858.923s-.39.897-.858.897zM79.342 316.84v2.743h3.25v-2.743a7.181 7.181 0 0 1-1.638.182 6.951 6.951 0 0 1-1.612-.182zm1.612-4.966c-1.872 0-3.211.858-3.211 2.158 0 1.3 1.339 2.158 3.211 2.158 1.872 0 3.224-.858 3.224-2.158 0-1.3-1.352-2.158-3.224-2.158zm2.704 7.709h2.613v.884H75.676v-.884h2.6v-3.146c-.975-.507-1.56-1.352-1.56-2.405 0-1.82 1.768-2.99 4.238-2.99 2.483 0 4.238 1.17 4.238 2.99 0 1.053-.572 1.885-1.534 2.392v3.159zm9.892-5.967h2.327v-3.315h1.079v7.072h-1.079V314.5H93.55v-.884zm.702 2.444l-.494.819c-1.339-.416-2.405-1.287-2.938-2.418-.494 1.274-1.547 2.262-2.925 2.717l-.52-.819c1.716-.585 2.886-2.002 2.886-3.575v-.221h-2.587v-.858h2.587v-1.456h1.066v1.456h2.574v.858h-2.574v.221c0 1.456 1.209 2.756 2.925 3.276zm-1.157 5.057c1.781 0 2.834-.494 2.834-1.313 0-.806-1.053-1.3-2.834-1.3-1.755 0-2.808.494-2.808 1.3 0 .819 1.053 1.313 2.808 1.313zm0-3.445c2.418 0 3.9.78 3.9 2.132 0 1.365-1.482 2.145-3.9 2.145-2.392 0-3.874-.78-3.874-2.145 0-1.352 1.482-2.132 3.874-2.132zm9.827-6.357v2.093c0 2.054 1.326 4.173 2.964 4.992l-.663.845c-1.235-.663-2.288-2.028-2.821-3.627-.507 1.703-1.586 3.159-2.899 3.861l-.637-.858c1.677-.858 3.003-3.094 3.003-5.213v-2.093h1.053zm6.981 3.718v.884h-1.924v6.045h-1.066v-11.648h1.066v4.719h1.924zm7.682-3.419v.858h-6.877v-.858h2.899v-1.417h1.066v1.417h2.912zm-5.213 3.497c0 .767.715 1.261 1.768 1.261 1.066 0 1.781-.494 1.781-1.261 0-.754-.715-1.248-1.781-1.248-1.053 0-1.768.494-1.768 1.248zm4.563 0c0 1.261-1.131 2.067-2.795 2.067s-2.782-.806-2.782-2.067c0-1.248 1.118-2.054 2.782-2.054s2.795.806 2.795 2.054zm-.871 6.019c1.703 0 2.743-.442 2.743-1.196s-1.04-1.196-2.743-1.196c-1.703 0-2.743.442-2.743 1.196s1.04 1.196 2.743 1.196zm0-3.211c2.34 0 3.796.728 3.796 2.015 0 1.274-1.456 2.015-3.796 2.015-2.353 0-3.796-.741-3.796-2.015 0-1.287 1.443-2.015 3.796-2.015zm3.653-4.381h1.729v.884h-1.729v3.38h-1.066v-7.501h1.066v3.237zm7.877-2.236c-1.911 0-3.003.442-3.003 1.222s1.092 1.222 3.003 1.222 3.003-.442 3.003-1.222-1.092-1.222-3.003-1.222zm0 3.237c-2.561 0-4.095-.702-4.095-2.015 0-1.313 1.534-2.028 4.095-2.028s4.095.715 4.095 2.028c0 1.313-1.534 2.015-4.095 2.015zm-2.925 5.278V321h7.202v.832h-8.242v-2.795h6.838v-1.04h-6.877v-.806h7.93v2.626h-6.851zm-2.353-4.485h10.556v.858h-10.556v-.858zm17.704-2.795v1.053c0 2.028.871 4.056 2.483 4.966l-.65.78c-1.131-.676-1.937-1.924-2.34-3.406-.403 1.599-1.248 2.964-2.405 3.692l-.65-.793c1.625-.975 2.535-3.094 2.535-5.239v-1.053h-2.21v-.871h5.317v.871h-2.08zm3.12 1.95v-3.926h1.014v10.79h-1.014v-5.993h-1.924v-.871h1.924zm2.34-4.199h1.027v11.661h-1.027v-11.661zm4.484 3.497c0 1.092.871 1.846 2.067 1.846 1.222 0 2.093-.754 2.093-1.846 0-1.079-.871-1.82-2.093-1.82-1.196 0-2.067.741-2.067 1.82zm2.6 2.717v1.976c1.131-.065 2.288-.156 3.367-.325l.091.793c-2.626.494-5.447.507-7.553.507l-.13-.897c.936 0 2.015 0 3.159-.039v-2.015c-1.508-.195-2.574-1.248-2.574-2.717 0-1.625 1.313-2.73 3.107-2.73 1.833 0 3.133 1.105 3.133 2.73 0 1.469-1.053 2.535-2.6 2.717zm4.134-6.214h1.066v11.7h-1.066v-11.7zm6.642 8.19c1.066 0 1.833-.754 1.833-1.794 0-1.053-.767-1.807-1.833-1.807-1.053 0-1.82.754-1.82 1.807 0 1.04.767 1.794 1.82 1.794zm0-4.485c1.664 0 2.847 1.118 2.847 2.691 0 1.586-1.183 2.678-2.847 2.678-1.638 0-2.821-1.092-2.821-2.678 0-1.573 1.183-2.691 2.821-2.691zm.52-3.549v1.729h2.873v.858h-6.877v-.858h2.938v-1.729h1.066zm6.955 4.654v.897h-1.911v5.967h-1.066v-11.648h1.066v4.784h1.911zm8.995-2.47v-.286h-7.111v-.871h8.177v1.157c0 1.443 0 3.042-.442 5.395l-1.066-.117c.442-2.236.442-3.874.442-5.278zm-3.055 6.825h5.382v.871h-10.543v-.871h4.095v-4.173h1.066v4.173zm10.749-7.163v5.915c2.067 0 3.432-.078 5.005-.377l.13.884c-1.69.312-3.094.39-5.304.39h-.897v-7.696h5.304v.884h-4.238zm6.89-1.989h1.066v11.687h-1.066v-6.578h-3.341v-.884h3.341v-4.225zm-109.124 19v6.058h-1.066v-6.058h1.066zm-6.877 1.625v3.107a47.276 47.276 0 0 0 1.898-.078v-3.029h-1.898zm4.641 2.808l.052.78c-2.314.351-5.031.429-7.085.442l-.104-.884c.455 0 .949 0 1.456-.013v-3.133h-1.144v-.845h6.253v.845h-1.144v2.977a34.87 34.87 0 0 0 1.716-.169zm-4.29 6.253h6.968v.845h-8.021v-2.912h6.526v-1.17h-6.565v-.832h7.618v2.795h-6.526v1.274zm12.258-4.147v2.743h3.25v-2.743a7.181 7.181 0 0 1-1.638.182 6.951 6.951 0 0 1-1.612-.182zm1.612-4.966c-1.872 0-3.211.858-3.211 2.158 0 1.3 1.339 2.158 3.211 2.158 1.872 0 3.224-.858 3.224-2.158 0-1.3-1.352-2.158-3.224-2.158zm2.704 7.709h2.613v.884H87.336v-.884h2.6v-3.146c-.975-.507-1.56-1.352-1.56-2.405 0-1.82 1.768-2.99 4.238-2.99 2.483 0 4.238 1.17 4.238 2.99 0 1.053-.572 1.885-1.534 2.392v3.159zm7.11-1.105c1.066 0 1.833-.754 1.833-1.794 0-1.053-.767-1.807-1.833-1.807-1.053 0-1.82.754-1.82 1.807 0 1.04.767 1.794 1.82 1.794zm0-4.485c1.664 0 2.847 1.118 2.847 2.691 0 1.586-1.183 2.678-2.847 2.678-1.638 0-2.821-1.092-2.821-2.678 0-1.573 1.183-2.691 2.821-2.691zm.52-3.549v1.729h2.873v.858h-6.877v-.858h2.938v-1.729h1.066zm6.955 4.654v.897h-1.911v5.967h-1.066v-11.648h1.066v4.784h1.911zm10.334-4.797v8.554h-1.066v-8.554h1.066zm-2.548 5.811l-.559.845c-1.326-.507-2.353-1.56-2.873-2.886a5.231 5.231 0 0 1-2.912 3.12l-.559-.871c1.755-.676 2.925-2.366 2.925-4.186v-1.183h1.066v1.183c0 1.755 1.183 3.341 2.912 3.978zm-3.887 4.719h6.786v.871h-7.852v-3.64h1.066v2.769zm19.303-5.889v-1.716h-5.785v1.716h5.785zm1.066-4.173v5.044h-7.904v-5.044h1.053v1.599h5.785v-1.599h1.066zm1.339 6.448v.858h-4.784v3.9h-1.066v-3.9h-4.732v-.858h10.582zm9.203-2.73v-1.508h-5.668v1.508h5.668zm1.053-3.809v4.654h-7.774v-4.654h1.053v1.482h5.668v-1.482h1.053zm-6.786 7.852v2.301h7.007v.871h-8.06v-3.172h1.053zm-2.405-2.067h10.595v.858h-4.68v2.262h-1.066v-2.262h-4.849v-.858zm23.866-6.149v6.656h-1.066v-6.656h1.066zm-6.266 1.56c-1.157 0-1.989.767-1.989 1.833 0 1.079.832 1.833 1.989 1.833s2.015-.754 2.015-1.833c0-1.066-.858-1.833-2.015-1.833zm0 4.55c-1.755 0-3.029-1.105-3.029-2.717s1.274-2.717 3.029-2.717c1.768 0 3.055 1.105 3.055 2.717s-1.287 2.717-3.055 2.717zm4.966 1.053v.624c0 1.209.858 2.405 2.34 2.899l-.533.806c-1.144-.416-1.95-1.222-2.34-2.197-.364.949-1.079 1.833-2.158 2.301-1.118-.442-1.82-1.287-2.171-2.262a4.095 4.095 0 0 1-2.301 2.158l-.533-.806c1.469-.52 2.34-1.781 2.34-2.899v-.624h1.027v.624c0 1.027.533 2.132 1.612 2.769 1.118-.689 1.677-1.859 1.677-2.769v-.624h1.04zm8.657-6.448c2.418 0 4.238 1.287 4.238 3.224 0 1.95-1.82 3.224-4.238 3.224s-4.238-1.274-4.238-3.224c0-1.937 1.82-3.224 4.238-3.224zm0 .871c-1.833 0-3.224.949-3.224 2.353 0 1.417 1.391 2.353 3.224 2.353 1.846 0 3.224-.936 3.224-2.353 0-1.404-1.378-2.353-3.224-2.353zm-5.278 7.631h10.595v.884H162.52v-.884zm21.241-9.23v8.554h-1.066v-8.554h1.066zm-2.548 5.811l-.559.845c-1.326-.507-2.353-1.56-2.873-2.886a5.231 5.231 0 0 1-2.912 3.12l-.559-.871c1.755-.676 2.925-2.366 2.925-4.186v-1.183h1.066v1.183c0 1.755 1.183 3.341 2.912 3.978zm-3.887 4.719h6.786v.871h-7.852v-3.64h1.066v2.769zm9.151-9.282h5.33c0 3.315-1.521 6.318-5.291 8.203l-.585-.832c2.977-1.495 4.576-3.731 4.823-6.487h-4.277v-.884zm10.218 3.484v.884h-1.872v6.045h-1.066v-11.661h1.066v4.732h1.872zm4.471 1.807v2.743h3.25v-2.743a7.181 7.181 0 0 1-1.638.182 6.951 6.951 0 0 1-1.612-.182zm1.612-4.966c-1.872 0-3.211.858-3.211 2.158 0 1.3 1.339 2.158 3.211 2.158 1.872 0 3.224-.858 3.224-2.158 0-1.3-1.352-2.158-3.224-2.158zm2.704 7.709h2.613v.884H197.5v-.884h2.6v-3.146c-.975-.507-1.56-1.352-1.56-2.405 0-1.82 1.768-2.99 4.238-2.99 2.483 0 4.238 1.17 4.238 2.99 0 1.053-.572 1.885-1.534 2.392v3.159zm5.316-1.456c-.299-2.262 2.002-3.094 2.002-4.641 0-.78-.481-1.404-1.404-1.404-.65 0-1.222.312-1.677.832l-.676-.624c.598-.689 1.43-1.196 2.483-1.196 1.469 0 2.431.897 2.431 2.314 0 1.911-2.34 2.678-2.106 4.719h-1.053zm.559 3.042c-.468 0-.858-.364-.858-.897s.39-.923.858-.923c.481 0 .871.39.871.923s-.39.897-.871.897z" opacity=".9"/>
            <text fill="#1C2633" font-family="NotoSansCJKkr-Regular, Noto Sans CJK KR" font-size="11" letter-spacing="-.3" opacity=".7" transform="translate(54 180)">
                <tspan x="207" y="175">오후 3:14</tspan>
            </text>
        </g>
    </g>
</svg>
