<svg xmlns="http://www.w3.org/2000/svg" width="120" height="32" viewBox="0 0 120 32">
    <path fill="#BFD4D2" fill-rule="evenodd" d="M93.012 10.652v1.3c0 .493.354.687.916.687s.917-.194.917-.686v-1.3a.072.072 0 0 0-.073-.073h-1.688a.072.072 0 0 0-.072.072zm.916 3.22c-1.481 0-2.79-.521-2.79-1.92V6.835h.002c0-.337.411-.61.921-.616h.032c.503.006.908.272.919.603v2.454c0 .04.033.072.072.072h1.688c.04 0 .073-.032.073-.072V6.834h.002c0-.337.41-.61.92-.616h.033c.502.006.907.271.918.601v5.134c0 1.398-1.308 1.918-2.79 1.918zm5.532-3.22v1.3c0 .493.354.687.916.687s.916-.194.916-.686v-1.3a.072.072 0 0 0-.072-.073h-1.688a.072.072 0 0 0-.072.072zm.916 3.22c-1.482 0-2.79-.521-2.79-1.92V6.834c0-.337.411-.61.92-.615h.033c.51.006.92.279.92.616v2.441c0 .04.033.072.073.072h1.688c.04 0 .072-.032.072-.072V6.834c0-.337.411-.61.921-.616h.033c.51.006.92.279.92.616v5.119c0 1.398-1.308 1.918-2.79 1.918zm7.713-4.37c.308 0 .594.24.643.542.063.386-.234.748-.61.748h-1.424a.073.073 0 0 0-.073.072v3.144a.143.143 0 0 1-.143.143h-1.774a.143.143 0 0 1-.143-.143V6.171l.002-.02c0-.372.461-.674 1.03-.674.56 0 1.015.294 1.028.66V9.43c0 .04.032.072.073.072h1.391zm-8.149 9.82c2.747 0 4.408-.64 4.408-1.65 0-1.046-1.661-1.685-4.408-1.685-2.724 0-4.341.656-4.341 1.685 0 1.01 1.617 1.65 4.341 1.65zm0-4.67c4.263 0 6.657 1.238 6.657 3.02 0 1.747-2.394 2.97-6.657 2.97-4.218 0-6.613-1.223-6.613-2.97 0-1.782 2.395-3.02 6.613-3.02zM84.324 5.476c.56 0 1.015.294 1.027.66v13.766a.141.141 0 0 1-.14.141H73.624a.859.859 0 0 1-.86-.857v-3.43c0-.078.063-.141.142-.142.444-.002 1.777.003 1.777.003.078 0 .141.063.141.14v2.695a.36.36 0 0 0 .36.358h7.965a.141.141 0 0 0 .141-.14v-6.096a.07.07 0 0 0-.07-.07h-1.427a.63.63 0 0 1-.618-.63c0-.34.343-.63.651-.63h1.393a.07.07 0 0 0 .071-.07v-1.66a.07.07 0 0 0-.07-.071h-1.427a.629.629 0 0 1-.618-.63c0-.342.343-.63.651-.63h1.393a.07.07 0 0 0 .071-.072V6.17c0-.007.003-.01.003-.018 0-.373.46-.675 1.03-.675zM11.896 14.88v-.33H8.663v-.593h4.005v1.28c0 .272-.023.549-.09.75h-.756a2.49 2.49 0 0 0 .068-.57c-.406.06-.92.07-1.507.07h-1.64v-.562h1.652c.553 0 1.083 0 1.5-.045zm-.936.809v.569h2.036v.592h-4.66v-.592h1.85v-.57h.774zm-1.525 1.452v.789h3.324v.603H8.88a.218.218 0 0 1-.218-.218v-1.174h.772zm8.81-3.366c.224 0 .386.122.386.254v4.483h-.773V14.03c0-.14.163-.254.387-.254zm7.983 2.813v-.602h2.02v.602h-2.02zm-4.105.915c.17-.226.204-.733.204-1.416 0-.678-.034-1.185-.204-1.411a.472.472 0 0 0-.384-.171.46.46 0 0 0-.377.17c-.17.227-.21.734-.21 1.412 0 .683.04 1.19.21 1.416.084.11.22.17.377.17.158 0 .3-.06.384-.17zm2.108-3.728c.224 0 .386.122.386.254v4.483h-.773v-2.24h-.75c-.011.719-.097 1.271-.39 1.608-.215.251-.558.387-.965.387-.4 0-.744-.136-.964-.387-.316-.367-.384-.985-.384-1.793 0-.804.068-1.421.384-1.788.22-.252.564-.392.964-.392.407 0 .75.14.966.392.259.3.355.773.383 1.376h.756V14.03c0-.14.163-.254.387-.254zm9.13 0c.225 0 .387.122.387.254v4.483h-.773V14.03c0-.14.163-.254.387-.254zm-17.278 1.816c.548.432.989 1.395 1.147 2.68h-.718c-.171-.914-.367-1.514-.678-1.714-.317.966-.75 1.715-.75 1.715h-.818s1.125-2.007 1.125-3.506v-.682c0-.14.163-.253.387-.253s.386.121.386.253v.682c0 .273-.032.55-.081.825zm13.412-1.31c0-.173.095-.298.197-.298h2.663v.597h-1.101v.175c0 .273-.032.55-.081.825.548.432.989 1.394 1.147 2.68h-.718c-.171-.914-.367-1.514-.678-1.714-.317.966-.75 1.715-.75 1.715h-.818s1.125-2.008 1.125-3.506v-.175h-.789c-.108 0-.197-.125-.197-.299zM18.361 21.37c.224 0 .386.122.386.253v4.495h-.772v-4.495c0-.14.163-.253.386-.253zm-2 3.784v-1.341a.06.06 0 0 0-.06-.06h-.896a.06.06 0 0 0-.06.06v1.341c0 .034.027.06.06.06h.896a.06.06 0 0 0 .06-.06zm.384-3.702c.222 0 .383.121.383.252v4.049a.06.06 0 0 1-.06.06h-2.271a.219.219 0 0 1-.22-.219v-3.89h-.005c0-.14.163-.254.387-.254s.386.122.386.254v1.392c0 .033.027.06.06.06h.896a.06.06 0 0 0 .06-.06v-1.392c0-.14.161-.252.384-.252zm3.482 4.466v-.598h4.604v.598h-4.604zm-7.956-4.548c.223 0 .386.122.386.253v4.495h-.773V23.59h-.894c-.11 0-.198-.123-.198-.297s.095-.3.198-.3h.894v-1.37c0-.14.163-.253.387-.253zm-2.19 1.816c.55.432.99 1.395 1.147 2.68h-.717c-.171-.914-.367-1.515-.678-1.714-.318.966-.75 1.715-.75 1.715h-.818S9.39 23.858 9.39 22.36v-.682c0-.14.163-.254.387-.254s.386.122.386.254v.682c0 .272-.032.55-.082.825zm12.33.04a7.762 7.762 0 0 1-1.27 1.646h-.914c1.537-1.625 1.86-2.751 1.989-3.226.043-.163.26-.237.457-.172s.35.202.307.382c-.034.139-.104.389-.238.71.76.352 1.534 1.172 1.972 2.306h-.719c-.478-.777-.92-1.406-1.583-1.646zm-9.846-16.94v.968h.717v.603h-.717V9.06h-.773V6.285c0-.14.163-.254.387-.254s.386.122.386.254zM9.191 8.012h1.067v-1.21H9.19v1.21zm1.823-1.799V8.6h-2.36a.217.217 0 0 1-.218-.217V6.213h2.578zm4.646 4.018h2.358v-.344H15.66v.344zm2.745-4.2c.224 0 .386.122.386.253v4.535h-3.686a.217.217 0 0 1-.218-.217V8.925h.773v.457h2.358V6.284c0-.14.163-.253.387-.253zM15.073 8.65h-.802c.738-.81 1.054-1.46 1.19-1.848H14.7c-.107 0-.194-.124-.194-.294 0-.17.094-.294.194-.294h2.603v.588h-1.08a4.46 4.46 0 0 1-.128.314c.518.196 1.12.686 1.444 1.534h-.698a1.96 1.96 0 0 0-1.047-.974 6.69 6.69 0 0 1-.72.974zm-4.179.73c.81.156 1.53.748 1.938 1.44h-.783c-.516-.58-.997-.804-1.625-.908-.517.488-1.036.908-1.036.908h-.886s1.086-.933 1.808-1.9c.092-.124.305-.17.467-.114.182.064.307.21.239.358a1.98 1.98 0 0 1-.122.216zm68.377 4.846H71.564a.858.858 0 0 1-.86-.847v-5.76c.001-.008.003-.01.003-.02 0-.372.46-.674 1.03-.674.561 0 1.015.294 1.028.66v5.055a.359.359 0 0 0 .359.353h4.087a.141.141 0 0 0 .141-.14v-4.33l-.002-.007a.36.36 0 0 0-.36-.359h-2.877c-.296 0-.547-.277-.547-.617 0-.337.23-.615.541-.615h4.659c.493 0 .643.366.645.857l.002.006v6.296a.141.141 0 0 1-.142.142zM51.376 11.65c0 .515.327.686.826.686H56.5a.142.142 0 0 0 .142-.141V10.65a.07.07 0 0 0-.071-.07h-5.124a.07.07 0 0 0-.071.07v1.001zm7.186 1.937h-6.938c-1.597 0-2.309-.68-2.309-2.059V6.893c0-.373.462-.675 1.03-.675.57 0 1.03.302 1.03.675v2.384c0 .039.033.07.072.07h5.124c.04 0 .07-.031.07-.07V6.893c0-.373.462-.675 1.03-.675h.001c.569 0 1.03.302 1.03.675v6.555a.14.14 0 0 1-.14.14zm2.67 5.301v-.867a.071.071 0 0 0-.07-.071h-7.73a.07.07 0 0 0-.071.07v.651c0 .198.16.359.36.359h7.37a.141.141 0 0 0 .141-.142zm3.525-9.385c.308 0 .593.237.643.54.063.386-.234.75-.61.75h-1.426a.07.07 0 0 0-.072.07v9.29a.14.14 0 0 1-.14.14H52.16a.859.859 0 0 1-.86-.856V15.15a.14.14 0 0 1 .14-.14h1.78a.14.14 0 0 1 .14.14v1.6c0 .04.032.071.071.071h7.73a.07.07 0 0 0 .071-.07V6.152c0-.373.473-.676 1.042-.676.53 0 .96.262 1.018.599v3.357c0 .039.033.07.072.07h1.393zm-7.53 16.27c.245 0 .477-.125.477-.398 0-.269-.232-.397-.477-.397h-.35v.794h.35zm-.35-1.781v.605h.244c.19 0 .36-.088.36-.3 0-.217-.17-.305-.36-.305h-.245zm.865.717a.703.703 0 0 1 .482.662c0 .513-.435.786-.9.786h-.938v-2.559h.82c.388 0 .773.241.773.674 0 .169-.085.365-.237.437zm2.651 1.067c.444 0 .9-.337.9-.894 0-.554-.452-.89-.9-.89-.452 0-.9.332-.9.89 0 .553.448.894.9.894zm0-2.233c.731 0 1.441.509 1.441 1.33 0 .827-.71 1.336-1.44 1.336-.732 0-1.442-.51-1.442-1.335 0-.822.71-1.331 1.441-1.331zm3.103 2.23c.245 0 .478-.125.478-.398 0-.269-.233-.397-.478-.397h-.35v.794h.35zm-.35-1.781v.605h.245c.19 0 .36-.088.36-.3 0-.217-.17-.305-.36-.305h-.245zm.866.717a.703.703 0 0 1 .482.662c0 .513-.436.786-.9.786h-.939v-2.559h.82c.389 0 .774.241.774.674 0 .169-.085.365-.237.437zm6.527-1.11h.38l.24 2.558h-.515l-.097-1.05c-.013-.157-.03-.35-.034-.526h-.008a6.62 6.62 0 0 1-.266.538l-.567 1.054h-.207l-.575-1.054a9.568 9.568 0 0 1-.262-.534h-.008c-.004.18-.02.377-.034.521l-.097 1.051h-.486l.232-2.559h.398l.654 1.195c.098.177.225.418.305.602h.009c.075-.18.194-.413.295-.602l.643-1.195zm2.798.67l.491-.67h.536l-1.018 1.395v1.163h-.52v-1.155L71.808 23.6h.575l.494.67c.072.097.156.225.224.333h.008c.068-.108.16-.245.228-.333zm2.288.817v.65h1.112v.421h-1.64V23.6h1.504v.422h-.976v.641h.812v.425h-.812zm3.153.69c.444 0 .9-.337.9-.894 0-.554-.452-.89-.9-.89-.452 0-.9.332-.9.89 0 .553.448.894.9.894zm0-2.233c.731 0 1.441.509 1.441 1.33 0 .827-.71 1.336-1.44 1.336-.732 0-1.442-.51-1.442-1.335 0-.822.71-1.331 1.441-1.331zm4.22 1.142V23.6h.519v2.6h-.228l-1.162-1.204c-.19-.196-.398-.429-.566-.617l-.009.003c.009.209.009.413.009.59v1.187h-.52v-2.559h.41l1.04 1.079c.143.149.362.381.506.554l.009-.004c-.009-.177-.009-.37-.009-.542zm5.047 1.087c.245 0 .478-.124.478-.397 0-.269-.233-.397-.478-.397h-.35v.794h.35zm-.35-1.78v.605h.245c.19 0 .36-.088.36-.3 0-.217-.17-.305-.36-.305h-.245zm.866.717a.703.703 0 0 1 .482.662c0 .513-.436.786-.9.786h-.939v-2.559h.82c.39 0 .774.241.774.674 0 .169-.085.365-.237.437zm2.143 1.063c.245 0 .478-.124.478-.397 0-.269-.233-.397-.478-.397h-.35v.794h.35zm-.35-1.78v.605h.245c.19 0 .36-.088.36-.3 0-.217-.17-.305-.36-.305h-.245zm.866.717a.703.703 0 0 1 .482.662c0 .513-.436.786-.9.786h-.939v-2.559h.82c.389 0 .774.241.774.674 0 .169-.085.365-.237.437zm1.978.434h.651l-.224-.55a4.609 4.609 0 0 1-.097-.277h-.008c-.026.096-.068.2-.098.277l-.224.55zm.19-1.573h.301l1.103 2.587h-.532L94 25.541h-.95l-.258.617h-.511l1.106-2.587zm4.092 1.115V23.6H98v2.6h-.228l-1.162-1.204c-.19-.196-.397-.429-.566-.617l-.009.003c.009.209.009.413.009.59v1.187h-.52v-2.559h.41l1.04 1.079c.143.149.363.381.506.554l.009-.004c-.009-.177-.009-.37-.009-.542zm2.783.51v-.398h1.04v1.143c-.242.185-.571.27-.994.27-.735 0-1.487-.462-1.487-1.332 0-.883.773-1.335 1.466-1.335.372 0 .685.087.875.203l-.097.43a1.416 1.416 0 0 0-.72-.193c-.51 0-.992.321-.992.91 0 .57.46.891.98.891.203 0 .36-.036.47-.104v-.485h-.541zm18.775 4.544V1.92c0-.823-.672-1.493-1.498-1.493H1.926C1.1.427.428 1.097.428 1.92v27.82c0 .824.672 1.494 1.498 1.494H117.54c.826 0 1.498-.67 1.498-1.494zM117.54 0c1.062 0 1.926.861 1.926 1.92v27.82c0 1.059-.864 1.92-1.926 1.92H1.926A1.925 1.925 0 0 1 0 29.74V1.92C0 .861.864 0 1.926 0H117.54zM40.583 27.093V4.877h.214v22.216h-.214z"/>
</svg>
