<svg xmlns="http://www.w3.org/2000/svg" width="156" height="63" viewBox="0 0 156 63">
    <path fill="#D5E3E2" fill-rule="evenodd" d="M113.154 13.822v3.475c0 1.314.944 1.833 2.439 1.833 1.496 0 2.441-.519 2.441-1.833v-3.475a.194.194 0 0 0-.192-.192h-4.496a.192.192 0 0 0-.192.192zm2.439 8.6c-3.944 0-7.429-1.392-7.429-5.125V3.626l.008.002c0-.904 1.091-1.631 2.449-1.649h.089c1.337.015 2.413.727 2.444 1.611v6.557c0 .106.086.193.192.193h4.496a.194.194 0 0 0 .192-.193V3.626l.005.002c0-.904 1.092-1.631 2.452-1.649h.086c1.337.015 2.41.725 2.444 1.609v13.709c0 3.733-3.483 5.126-7.428 5.126zm14.725-8.6v3.475c0 1.314.945 1.833 2.44 1.833 1.496 0 2.44-.519 2.44-1.833v-3.475a.192.192 0 0 0-.192-.192h-4.495a.192.192 0 0 0-.193.192zm2.44 8.6c-3.947 0-7.43-1.392-7.43-5.125V3.626c.003-.902 1.095-1.629 2.452-1.647h.087c1.357.018 2.451.745 2.451 1.649v6.52c0 .105.086.192.193.192h4.495a.192.192 0 0 0 .193-.193V3.628c0-.904 1.091-1.631 2.449-1.649h.086c1.357.018 2.451.745 2.451 1.649v13.669c0 3.733-3.482 5.126-7.428 5.126zm11.53.742a.377.377 0 0 1-.38-.378V1.854c0-.02.008-.028.008-.05 0-.996 1.226-1.804 2.743-1.804 1.492 0 2.7.785 2.735 1.763v8.796c0 .106.084.195.193.195h3.703c.82 0 1.58.635 1.712 1.446.17 1.028-.623 1.996-1.624 1.996h-3.791a.19.19 0 0 0-.193.192v8.398a.38.38 0 0 1-.382.378h-4.723zm-12.691 13.81c7.312 0 11.734-1.704 11.734-4.404 0-2.796-4.422-4.5-11.734-4.5-7.254 0-11.557 1.752-11.557 4.5 0 2.7 4.303 4.405 11.557 4.405zm0-12.473c11.346 0 17.723 3.308 17.723 8.067 0 4.67-6.377 7.932-17.723 7.932-11.23 0-17.605-3.262-17.605-7.932 0-4.76 6.375-8.067 17.605-8.067zm-43.084-9.094a.187.187 0 0 0 .188-.187v-4.435a.187.187 0 0 0-.188-.187h-3.799c-.906 0-1.643-.773-1.643-1.684 0-.915.911-1.685 1.732-1.685h3.71a.19.19 0 0 0 .188-.19V1.85c.002-.015.007-.023.007-.045C88.708.807 89.937 0 91.451 0c1.495 0 2.703.785 2.736 1.76v36.767c0 .208-.17.375-.378.375H62.97a2.289 2.289 0 0 1-2.29-2.29v-9.155c0-.208.168-.38.378-.383 1.183-.005 4.73.008 4.73.008.209 0 .378.17.378.377v7.196c0 .529.428.96.958.96h21.2a.38.38 0 0 0 .378-.38V18.958a.187.187 0 0 0-.188-.187h-3.799c-.904 0-1.643-.773-1.643-1.682 0-.91.911-1.682 1.732-1.682h3.71zm-31.032 7.957a2.29 2.29 0 0 1-2.287-2.264V5.716c.002-.017.007-.025.007-.048 0-.995 1.226-1.8 2.74-1.8h.003c1.492 0 2.703.782 2.735 1.76v13.499c.008.522.431.945.955.945h10.883a.374.374 0 0 0 .375-.375V8.133c-.003-.008-.005-.01-.005-.018a.96.96 0 0 0-.96-.957s-7.661.002-7.659 0c-.787 0-1.459-.74-1.459-1.652 0-.899.613-1.638 1.444-1.638h12.4c1.312 0 1.715.977 1.717 2.287 0 .01.005.01.005.017v16.815c0 .21-.167.377-.375.377H57.48zM5.486 13.817v2.674c0 1.376.871 1.832 2.198 1.832h11.443a.377.377 0 0 0 .377-.378v-4.128a.19.19 0 0 0-.19-.187H5.674a.187.187 0 0 0-.188.187zm.66 7.846C1.895 21.663 0 19.85 0 16.167V3.783c0-.993 1.228-1.801 2.743-1.804 1.514.003 2.743.81 2.743 1.804v6.367c0 .106.083.19.187.19h13.641a.19.19 0 0 0 .19-.19V3.783c0-.993 1.228-1.801 2.743-1.804 1.514.003 2.74.81 2.74 1.804v17.505a.372.372 0 0 1-.372.375H6.147zm25.58 14.159v-2.32a.187.187 0 0 0-.188-.187h-20.58a.187.187 0 0 0-.188.187v1.74c0 .527.428.955.957.955h19.62a.376.376 0 0 0 .378-.375zm11.092-23.625c.17 1.031-.623 2.004-1.62 2.004h-3.8a.187.187 0 0 0-.187.187v24.807a.372.372 0 0 1-.375.373H7.574a2.289 2.289 0 0 1-2.29-2.282v-11.45c0-.208.167-.378.375-.378h4.736c.205 0 .375.17.375.378v4.272c0 .104.083.188.187.188h20.58a.187.187 0 0 0 .188-.188V1.806C31.725.813 32.984 0 34.498 0c1.409 0 2.556.704 2.713 1.6v8.966c0 .104.083.19.187.19h3.71c.821 0 1.581.633 1.71 1.441zM135.84 50.88c.555 0 .957.302.957.63V62.68h-1.916V51.51c0-.346.404-.63.959-.63zm-123.11.629v2.407h1.776v1.497H12.73v2.998h-1.917v-6.902c0-.349.404-.63.958-.63.556 0 .957.304.957.63h.002zm-8.36 4.293h2.642v-3.01H4.371v3.01zm-1.873 1.46v-5.93h6.388v5.93H2.497zm17.9 4.055h5.842v-.854h-5.843v.854zm6.8-10.437c.556 0 .958.302.958.628v11.27h-9.672v-4.707h1.915v1.137h5.84v-7.7c0-.347.405-.628.96-.628zm19.835 2.745v-.82h-8.01v-1.473h9.924v3.184c0 .671-.055 1.36-.224 1.86H46.85c.113-.389.154-.931.168-1.418-1.006.15-2.277.173-3.732.173h-4.067v-1.396h4.096c1.369 0 2.684 0 3.718-.11zm2.725 3.423v1.474H38.21v-1.474h4.588v-1.414h1.916v1.414h5.043zm-10.735 2.198h1.915v1.96h8.233v1.499H39.022v-3.46zm23.74-8.366c.555 0 .958.302.958.63v11.143h-1.917V51.509c0-.348.404-.63.96-.63zm19.779 6.99v-1.496h5.004v1.497h-5.004zm48.343 2.416V56.95a.149.149 0 0 0-.15-.146h-2.218a.149.149 0 0 0-.15.146v3.336c0 .083.067.15.15.15h2.218a.15.15 0 0 0 .15-.15zm.95-9.201c.551 0 .95.3.95.625v10.063a.149.149 0 0 1-.148.148h-5.469a.7.7 0 0 1-.701-.7V51.71h-.014c0-.348.404-.63.959-.63.555 0 .955.302.955.63v3.459c0 .083.067.15.15.15h2.218a.15.15 0 0 0 .15-.15v-3.46c0-.344.399-.624.95-.624zm8.628 11.098v-1.485h11.407v1.485h-11.407zm-68.091-2.038c.42-.563.504-1.822.504-3.52 0-1.685-.084-2.945-.504-3.507-.208-.276-.558-.427-.951-.427-.391 0-.725.151-.937.427-.418.562-.515 1.822-.515 3.506 0 1.699.097 2.958.515 3.521.212.274.546.423.937.423.393 0 .743-.15.951-.423zm5.223-9.265c.555 0 .955.302.955.628v11.145h-1.914v-5.566h-1.858c-.029 1.784-.238 3.157-.965 3.995-.533.622-1.384.96-2.392.96-.99 0-1.845-.338-2.389-.96-.784-.911-.95-2.448-.95-4.458 0-1.996.166-3.532.95-4.443.544-.625 1.398-.973 2.389-.973 1.008 0 1.86.348 2.392.973.642.749.88 1.92.95 3.42h1.873v-4.093c0-.347.405-.628.959-.628zm22.622 0c.555 0 .957.302.957.63v11.143h-1.916V51.509c0-.348.404-.63.959-.63zm20.534 0c.555 0 .957.302.957.63V62.68h-1.916v-6.283h-2.214c-.272 0-.491-.305-.491-.738 0-.434.236-.747.49-.747h2.215v-3.404c0-.346.404-.63.959-.63zm-5.424 4.514c1.358 1.074 2.451 3.466 2.842 6.662h-1.778c-.424-2.272-.91-3.766-1.68-4.26-.786 2.4-1.86 4.26-1.86 4.26h-2.024s2.786-4.989 2.786-8.713v-1.695c0-.349.404-.63.959-.63.555 0 .956.302.956.63v1.695c0 .677-.078 1.368-.2 2.051zm-57.92-.001c1.36 1.075 2.45 3.467 2.842 6.662H58.47c-.425-2.273-.91-3.765-1.68-4.26a25.17 25.17 0 0 1-1.86 4.26h-2.025s2.787-4.988 2.787-8.712v-1.695c0-.349.403-.632.958-.632.555 0 .956.302.956.632v1.695a11.7 11.7 0 0 1-.2 2.05zm33.23-3.257c0-.43.236-.743.49-.743h6.595v1.487h-2.727v.435c0 .675-.078 1.367-.2 2.05 1.357 1.075 2.448 3.466 2.84 6.663h-1.777c-.424-2.274-.911-3.764-1.68-4.262-.788 2.401-1.86 4.262-1.86 4.262h-2.024s2.786-4.989 2.786-8.713v-.435h-1.953c-.27 0-.49-.313-.49-.744zm-71.693 5.25h-1.988c1.827-2.014 2.611-3.631 2.95-4.595h-1.888c-.265 0-.48-.307-.48-.73s.23-.73.48-.73h6.447v1.46h-2.673c-.084.23-.186.486-.32.782 1.284.487 2.777 1.705 3.578 3.814h-1.728c-.473-1.06-1.514-2.017-2.594-2.42a16.794 16.794 0 0 1-1.784 2.42zm126.446-5.82c.108-.404.647-.59 1.133-.428.489.163.869.503.76.948a11.66 11.66 0 0 1-.588 1.765c1.885.877 3.801 2.914 4.886 5.735h-1.782c-1.184-1.934-2.282-3.497-3.923-4.092-.685 1.207-1.67 2.605-3.147 4.092h-2.266c3.81-4.04 4.61-6.84 4.927-8.02zm-136.8 7.635c2.006.388 3.792 1.857 4.801 3.578H11.45c-1.277-1.442-2.352-2.009-3.91-2.27-.724.766-1.648 1.551-2.682 2.27H2.66c2.41-2.106 3.847-3.553 4.481-4.725.181-.335.756-.42 1.155-.28.453.16.763.52.593.888a4.55 4.55 0 0 1-.3.539z"/>
</svg>
