<svg xmlns="http://www.w3.org/2000/svg" width="96" height="36" viewBox="0 0 96 36">
    <path fill="#FFF9ED" fill-rule="evenodd" d="M69.998 9.382v2.053c0 .776.558 1.083 1.447 1.083.887 0 1.447-.307 1.447-1.083V9.382a.114.114 0 0 0-.115-.114h-2.665a.113.113 0 0 0-.114.114zm1.447 5.08c-2.34 0-4.406-.821-4.406-3.027V3.357h.002c0-.532.65-.963 1.455-.972h.051c.794.008 1.433.429 1.45.951V7.21c0 .062.051.113.115.113h2.665a.114.114 0 0 0 .115-.113V3.357h.002c0-.532.65-.963 1.455-.972h.051c.793.008 1.432.428 1.45.949v8.101c0 2.206-2.066 3.028-4.405 3.028zm8.733-5.08v2.053c0 .776.56 1.083 1.447 1.083.888 0 1.447-.307 1.447-1.083V9.382a.113.113 0 0 0-.114-.114h-2.665a.114.114 0 0 0-.115.114zm1.447 5.08c-2.339 0-4.406-.821-4.406-3.027v-8.08c.002-.53.65-.96 1.454-.97h.052c.804.01 1.453.44 1.453.973V7.21c0 .062.052.113.115.113h2.665a.114.114 0 0 0 .114-.113V3.358c0-.533.65-.964 1.455-.973h.05c.805.01 1.454.44 1.454.973v8.077c0 2.206-2.065 3.028-4.406 3.028zm12.18-6.894c.486 0 .937.377 1.014.855.1.609-.37 1.18-.963 1.18h-2.249a.114.114 0 0 0-.115.114v4.961c0 .124-.1.225-.226.225h-2.801a.225.225 0 0 1-.226-.225V2.31c.001-.01.004-.015.004-.029 0-.588.728-1.065 1.627-1.065.885 0 1.602.465 1.622 1.04v5.199c0 .063.052.114.115.114h2.197zM80.936 23.062c4.337 0 6.96-1.007 6.96-2.602 0-1.65-2.623-2.659-6.96-2.659-4.302 0-6.855 1.036-6.855 2.66 0 1.594 2.553 2.601 6.855 2.601zm0-7.37c6.731 0 10.512 1.954 10.512 4.767 0 2.758-3.78 4.686-10.512 4.686-6.66 0-10.442-1.928-10.442-4.686 0-2.813 3.782-4.766 10.442-4.766zM56.28 1.216c.886 0 1.602.464 1.622 1.04V23.98c0 .123-.1.223-.223.223H39.385c-.75 0-1.357-.606-1.357-1.354v-5.41c0-.124.1-.224.223-.225.701-.003 2.807.004 2.807.004.122 0 .223.1.223.222v4.251c0 .313.255.567.568.567h12.575c.124 0 .224-.1.224-.223v-9.618a.112.112 0 0 0-.111-.111h-2.254c-.537 0-.975-.456-.975-.994s.542-.993 1.028-.993h2.2c.062 0 .112-.05.112-.112v-2.62a.111.111 0 0 0-.111-.11h-2.254c-.538 0-.975-.457-.975-.997 0-.538.542-.994 1.028-.994h2.2c.062 0 .112-.05.112-.111V2.309c0-.01.004-.015.004-.029 0-.587.728-1.065 1.627-1.065zM48.301 15.02H36.13a1.354 1.354 0 0 1-1.356-1.336v-9.09c0-.011.004-.016.004-.029 0-.588.727-1.064 1.626-1.065.886 0 1.603.464 1.624 1.041v7.976a.566.566 0 0 0 .567.559h6.453a.223.223 0 0 0 .224-.223V6.02c-.002-.005-.005-.006-.005-.011a.567.567 0 0 0-.568-.566h-4.543c-.467 0-.864-.439-.864-.975 0-.532.362-.97.855-.97h7.355c.78 0 1.016.578 1.02 1.353l.002.01v9.935c0 .123-.1.222-.223.222zM4.254 10.96c0 .812.516 1.082 1.304 1.082h6.787c.123 0 .224-.1.224-.223V9.38a.112.112 0 0 0-.112-.11H4.365a.111.111 0 0 0-.111.11v1.58zM15.6 14.013H4.646C2.124 14.014 1 12.944 1 10.766V3.45c0-.588.729-1.065 1.626-1.065h.001c.898 0 1.627.477 1.627 1.065v3.763c0 .06.05.11.111.11h8.092c.062 0 .112-.05.112-.11V3.45c0-.588.727-1.065 1.626-1.065.899 0 1.626.477 1.626 1.065v10.345a.22.22 0 0 1-.22.22zm4.216 8.367v-1.37a.112.112 0 0 0-.112-.111H7.499c-.06 0-.112.05-.112.111v1.026c0 .313.255.566.568.566h11.638a.223.223 0 0 0 .224-.222zM25.382 7.57c.487 0 .937.375 1.015.853.1.609-.37 1.183-.962 1.183h-2.253a.112.112 0 0 0-.112.11v14.66a.22.22 0 0 1-.221.22H5.492c-.75 0-1.355-.604-1.358-1.35V16.48c0-.122.1-.222.222-.222h2.809c.123 0 .222.1.222.222v2.525c0 .062.051.111.112.111h12.206c.062 0 .112-.05.112-.11V2.28c0-.587.746-1.066 1.645-1.066.835 0 1.517.415 1.608.946v5.297c0 .062.05.112.112.112h2.2zm-11.89 26.115c.387 0 .754-.196.754-.627 0-.424-.367-.626-.754-.626h-.553v1.253h.553zm-.553-2.81v.956h.386c.3 0 .568-.14.568-.475 0-.342-.268-.48-.568-.48h-.386zm1.367 1.133c.387.115.76.525.76 1.044 0 .81-.686 1.24-1.42 1.24h-1.482v-4.037h1.295c.614 0 1.221.38 1.221 1.063 0 .267-.134.576-.374.69zm4.186 1.684c.7 0 1.422-.532 1.422-1.412 0-.873-.715-1.404-1.422-1.404-.714 0-1.422.525-1.422 1.404 0 .873.708 1.412 1.422 1.412zm0-3.525c1.154 0 2.275.803 2.275 2.1 0 1.304-1.12 2.108-2.275 2.108-1.155 0-2.275-.804-2.275-2.107 0-1.298 1.12-2.1 2.275-2.1zm4.9 3.518c.386 0 .753-.196.753-.627 0-.424-.367-.626-.753-.626h-.554v1.253h.554zm-.554-2.81v.956h.387c.3 0 .568-.14.568-.475 0-.342-.268-.48-.568-.48h-.387zm1.367 1.133c.388.115.762.525.762 1.044 0 .81-.688 1.24-1.421 1.24h-1.482v-4.037h1.295c.613 0 1.22.38 1.22 1.063 0 .267-.133.576-.374.69zm10.307-1.753h.6l.38 4.038h-.813l-.154-1.659c-.02-.246-.047-.55-.054-.828h-.013c-.113.272-.287.6-.42.848l-.894 1.664h-.327l-.908-1.664a15.094 15.094 0 0 1-.414-.842h-.012a12.63 12.63 0 0 1-.055.822l-.152 1.659h-.768l.367-4.038h.627l1.034 1.886c.154.279.354.658.48.95h.015c.119-.285.307-.652.466-.95l1.015-1.886zm4.42 1.057l.774-1.057h.847l-1.608 2.203v1.835h-.82V32.47l-1.609-2.215h.908l.78 1.057c.113.153.247.355.353.525h.014c.107-.17.253-.386.36-.525zm3.611 1.291v1.025H44.3v.665h-2.59v-4.038h2.375v.665h-1.54v1.012h1.28v.671h-1.28zm4.979 1.089c.7 0 1.422-.532 1.422-1.412 0-.873-.714-1.404-1.422-1.404-.714 0-1.421.525-1.421 1.404 0 .873.707 1.412 1.42 1.412zm0-3.525c1.154 0 2.276.803 2.276 2.1 0 1.304-1.122 2.108-2.276 2.108-1.154 0-2.275-.804-2.275-2.107 0-1.298 1.12-2.1 2.275-2.1zm6.662 1.803v-1.715h.82v4.101h-.359l-1.836-1.898c-.3-.31-.627-.677-.893-.975l-.014.006c.014.33.014.652.014.93v1.874h-.821v-4.038h.647l1.641 1.702c.227.235.574.602.801.874l.014-.006c-.014-.28-.014-.583-.014-.855zm7.971 1.715c.387 0 .754-.196.754-.627 0-.424-.367-.626-.754-.626h-.553v1.253h.553zm-.553-2.81v.956h.386c.3 0 .568-.14.568-.475 0-.342-.268-.48-.568-.48h-.386zm1.367 1.133c.387.115.76.525.76 1.044 0 .81-.686 1.24-1.42 1.24h-1.482v-4.037h1.295c.614 0 1.221.38 1.221 1.063 0 .267-.133.576-.374.69zm3.385 1.677c.386 0 .753-.196.753-.627 0-.424-.367-.626-.753-.626H65.8v1.253h.554zm-.554-2.81v.956h.387c.3 0 .567-.14.567-.475 0-.342-.267-.48-.567-.48H65.8zm1.367 1.133c.388.115.761.525.761 1.044 0 .81-.687 1.24-1.42 1.24h-1.483v-4.037h1.295c.614 0 1.222.38 1.222 1.063 0 .267-.134.576-.375.69zm3.125.684h1.028l-.354-.867a7.27 7.27 0 0 1-.153-.437h-.014c-.04.152-.106.316-.154.437l-.353.867zm.3-2.481h.474l1.742 4.082h-.84l-.408-.974h-1.501l-.407.974h-.808l1.748-4.082zm6.461 1.76v-1.716h.82v4.101h-.359l-1.836-1.898c-.3-.31-.627-.677-.893-.975l-.014.006c.014.33.014.652.014.93v1.874h-.821v-4.038h.647l1.641 1.702c.227.235.574.602.801.874l.014-.006c-.014-.28-.014-.583-.014-.855zm4.393.803v-.627h1.642v1.804c-.38.291-.901.424-1.569.424-1.16 0-2.348-.728-2.348-2.1 0-1.394 1.22-2.108 2.316-2.108.587 0 1.08.139 1.381.322l-.154.677a2.237 2.237 0 0 0-1.135-.303c-.807 0-1.567.506-1.567 1.436 0 .9.727 1.405 1.548 1.405.32 0 .567-.057.74-.164v-.766h-.854z"/>
</svg>
