<svg xmlns="http://www.w3.org/2000/svg" xmlns:xlink="http://www.w3.org/1999/xlink" width="135" height="135" viewBox="0 0 135 135">
    <defs>
        <path id="a" d="M0 121h121V0H0z"/>
    </defs>
    <g fill="none" fill-rule="evenodd" opacity=".1" transform="rotate(-21 82.674 45.077)">
        <path fill="#BFD4D2" d="M77.696 37.72a.09.09 0 0 1 .092-.09h2.17c.05 0 .094.04.094.09v1.6c0 .603-.456.842-1.18.842-.72 0-1.176-.24-1.176-.843v-1.6zm1.177 3.958c1.904 0 3.586-.64 3.586-2.359v-6.311c-.015-.408-.534-.733-1.18-.741h-.042c-.656.008-1.182.343-1.182.758l-.003-.002v3.003c0 .05-.044.089-.094.089h-2.17a.09.09 0 0 1-.092-.089V33.01c-.015-.408-.534-.734-1.18-.742h-.042c-.655.008-1.182.343-1.182.758-.002 0-.003 0-.003-.002v6.296c0 1.718 1.68 2.359 3.584 2.359zM85.763 37.72a.09.09 0 0 1 .092-.09h2.168c.053 0 .095.04.095.09v1.6c0 .603-.455.842-1.178.842-.722 0-1.177-.24-1.177-.843v-1.6zm1.177 3.958c1.904 0 3.586-.64 3.586-2.359v-6.294c0-.415-.529-.75-1.185-.758H89.3c-.655.008-1.182.343-1.182.758v3.001c0 .05-.042.089-.095.089h-2.168a.09.09 0 0 1-.092-.089v-3.001c0-.415-.528-.75-1.182-.758h-.043c-.654.008-1.181.343-1.182.756v6.296c0 1.718 1.68 2.359 3.584 2.359zM92.488 42.126h2.095c.093 0 .17-.082.17-.184v-4.06c0-.052.036-.094.084-.094h1.682c.443 0 .794-.467.719-.965-.057-.392-.394-.7-.758-.7h-1.643c-.048 0-.085-.042-.085-.094v-4.256c-.016-.472-.552-.85-1.214-.85-.67 0-1.216.39-1.216.872 0 .01-.002.014-.003.022v10.125c0 .102.076.184.17.184M81.265 46.19c0-1.23 2.02-2.016 5.424-2.016 3.432 0 5.507.765 5.507 2.016 0 1.21-2.075 1.975-5.507 1.975-3.404 0-5.424-.765-5.424-1.975m13.742 0c0-2.133-2.992-3.616-8.317-3.616-5.272 0-8.264 1.483-8.264 3.615 0 2.093 2.992 3.555 8.264 3.555 5.325 0 8.317-1.462 8.317-3.555M66.36 38.2h-1.738c-.382 0-.81.364-.81.794 0 .429.345.794.769.794h1.78c.047 0 .087.04.087.088v7.688c0 .1-.08.179-.176.179h-9.926a.45.45 0 0 1-.448-.454v-3.397c0-.099-.08-.178-.177-.178 0 0-1.662-.007-2.215-.003a.177.177 0 0 0-.176.179v4.326c0 .596.48 1.08 1.072 1.08h14.436a.175.175 0 0 0 .177-.177V31.753c-.016-.46-.58-.83-1.281-.83-.71 0-1.284.38-1.284.852l-.002.023v2.449c0 .05-.04.088-.088.088h-1.738c-.382 0-.81.366-.81.797 0 .43.345.796.769.796h1.78c.047 0 .087.039.087.088v2.096c0 .048-.04.088-.088.088"/>
        <path fill="#BFD4D2" d="M51.746 42.126h9.917a.177.177 0 0 0 .181-.174v-7.73l-.002-.006c-.002-.604-.195-1.053-.829-1.053H55.02c-.401 0-.697.34-.697.754 0 .418.322.758.703.758h3.703c.255 0 .464.197.464.44l.002.01v5.314a.178.178 0 0 1-.182.173h-5.26a.452.452 0 0 1-.46-.433v-6.207c-.017-.449-.601-.809-1.323-.809h-.001c-.732 0-1.324.37-1.324.829 0 .009-.003.013-.004.02v7.074c.007.575.5 1.04 1.105 1.04M27.656 37.927c0-.05.038-.09.087-.09h6.36c.047 0 .087.04.087.09V39.9c0 .1-.078.18-.176.18H28.68c-.618 0-1.024-.218-1.024-.876v-1.277zm.307 3.75h8.61c.097 0 .175-.08.175-.177v-8.37c0-.478-.573-.862-1.28-.863-.705.001-1.278.385-1.278.863v3.044a.09.09 0 0 1-.087.09h-6.36a.088.088 0 0 1-.087-.09V33.13c0-.478-.575-.862-1.28-.863-.705.001-1.28.385-1.28.863v5.92c0 1.76.884 2.628 2.867 2.628z"/>
        <path fill="#BFD4D2" d="M39.958 46.48v1.075a.178.178 0 0 1-.18.176h-9.366a.45.45 0 0 1-.456-.446v-.805c0-.049.039-.087.09-.087h9.822c.05 0 .09.038.09.087m-10.002-1.577V42.92a.177.177 0 0 0-.18-.174h-2.26a.176.176 0 0 0-.179.174v5.316a1.08 1.08 0 0 0 1.092 1.061h13.969a.176.176 0 0 0 .177-.172v-11.52a.09.09 0 0 1 .09-.088h1.813a.8.8 0 0 0 .774-.93c-.062-.375-.424-.67-.816-.67h-1.772a.089.089 0 0 1-.089-.087v-4.163c-.075-.418-.622-.744-1.294-.744-.723 0-1.323.377-1.323.838v13.143c0 .05-.04.087-.09.087h-9.822a.088.088 0 0 1-.09-.087M31.4 86.775v-.282h-1.404v.282c0 .99-1.104 1.649-3.107 1.873v.982c1.754-.117 3.015-.6 3.81-1.215.794.616 2.055 1.098 3.808 1.215v-.982c-2.003-.224-3.107-.883-3.107-1.873"/>
        <mask id="b" fill="#fff">
            <use xlink:href="#a"/>
        </mask>
        <path fill="#BFD4D2" d="M27.753 84.493h1.853V82.22h-1.853v2.274zm-1.312 1.103h4.481v-4.481h-4.481v4.481zM34.11 81.115h-1.395v5.378h1.395v-2.234h1.294v-1.116H34.11zM44.367 85.596h1.792v-4.481h-1.792zM39.96 88.916h4.332v-.754h-4.331v.754zm5.751-2.872h-1.419V87h-4.331v-.955h-1.42v4.034h7.17v-4.034zM42.574 85.504v-1.119c-1.1-.221-1.781-.803-1.808-2.19h1.645v-1.08h-4.603v1.08h1.646c-.028 1.407-.698 2.071-1.81 2.284v1.117c1.054-.147 1.993-.674 2.49-1.348.498.665 1.397 1.108 2.44 1.256M61.396 87.389v-6.274h-1.245v2.106h-1.444v1.168h1.444v3z" mask="url(#b)"/>
        <path fill="#BFD4D2" d="M58.707 82.346v-.783h-4.7v1.016h3.257c0 .262-.032.515-.084.74-.39.08-.99.113-1.792.113h-1.38v1.008h1.328c.505 0 .927-.016 1.265-.051-.569.572-1.497.93-2.823 1.077v1.027c3.264-.304 4.93-1.565 4.93-4.147M61.396 88.196h-5.782v-1.703h-1.388v2.688h7.17zM71.704 89.63h1.792v-8.515h-1.792zM70.36 87.598c-1.066-.432-1.99-1.189-1.99-3.51v-2.973h-1.39v2.972c0 2.322-.924 3.08-1.999 3.511v1.135c1.117-.289 2.213-.946 2.69-1.756.487.801 1.572 1.467 2.688 1.756v-1.135zM79.755 87.766c-.151.203-.406.314-.69.314-.285 0-.53-.111-.682-.314-.305-.417-.377-1.353-.377-2.617 0-1.252.072-2.188.377-2.605.153-.205.397-.317.682-.317.284 0 .539.112.69.317.305.417.367 1.353.367 2.605 0 1.264-.062 2.2-.367 2.617zm3.104-3.377h-1.364c-.051-1.114-.224-1.986-.691-2.542-.387-.463-1.008-.723-1.739-.723-.722 0-1.344.26-1.74.723-.569.678-.692 1.819-.692 3.302 0 1.494.123 2.636.692 3.312.396.464 1.018.714 1.74.714.731 0 1.352-.25 1.739-.714.529-.62.682-1.642.702-2.968h1.353v4.137h1.393v-8.515h-1.393v3.274zM93.663 89.63h1.793v-8.515h-1.793zM91.23 84.059v-1.865h1.903v-1.08H87.94v1.08h1.872v1.865c0 2.337-.9 3.099-1.975 3.532v1.142c1.137-.29 2.172-.987 2.69-1.767.516.78 1.55 1.478 2.688 1.767v-1.142c-1.074-.433-1.986-1.195-1.986-3.532M49.1 97.532v-2.973h-1.391v2.973c0 2.323-.923 3.08-1.998 3.51v1.136c1.115-.288 2.211-.945 2.689-1.756.487.8 1.572 1.468 2.689 1.756v-1.135c-1.065-.431-1.99-1.188-1.99-3.511" mask="url(#b)"/>
        <path fill="#BFD4D2" d="M52.058 97.09h-1.865v1.102h1.865v4.434h1.272V94.11h-1.272zM59.16 101.1h1.783v-2.636H59.16v2.635zm1.783-3.714H59.16V94.56h-1.348v7.619h4.482v-7.619h-1.35v2.827zM63.189 102.626h1.792V94.11H63.19zM69.015 99.489c1.879-.301 3.17-1.134 3.808-1.986.64.852 1.93 1.685 3.81 1.986v-1.065c-2.036-.434-3.15-1.533-3.15-3.305v-.56h-1.329v.56c0 1.772-1.104 2.871-3.14 3.305v1.065zM68.119 102.551h8.514v-.747H68.12zM27.785 64.981c0-.123-.147-.224-.33-.224H5.26c-.182 0-.33.1-.33.224s.148.225.33.225h22.197c.182 0 .33-.1.33-.225M113.052 64.757H90.856c-.182 0-.33.1-.33.224s.148.225.33.225h22.196c.182 0 .33-.1.33-.225 0-.123-.148-.224-.33-.224" mask="url(#b)"/>
        <path fill="#BFD4D2" d="M60.5 119.672c-32.627 0-59.172-26.543-59.172-59.173 0-32.628 26.545-59.171 59.172-59.171 32.627 0 59.172 26.543 59.172 59.171 0 32.63-26.545 59.173-59.172 59.173M60.5 0C27.14 0 0 27.14 0 60.5S27.14 121 60.5 121 121 93.86 121 60.5 93.86 0 60.5 0" mask="url(#b)"/>
        <path fill="#BFD4D2" d="M38.989 65.608c0-.33-.06-.606-.182-.832a1.585 1.585 0 0 0-.508-.561 3.155 3.155 0 0 0-.79-.375 9.747 9.747 0 0 0-1.035-.284 26.594 26.594 0 0 1-.658-.17 2.037 2.037 0 0 1-.392-.16.944.944 0 0 1-.304-.243.538.538 0 0 1-.11-.337c0-.21.107-.39.325-.54.216-.149.502-.223.856-.223.381 0 .658.07.831.205.173.138.32.33.443.575.095.17.184.295.265.371.082.075.203.114.358.114a.56.56 0 0 0 .432-.19.609.609 0 0 0 .173-.423c0-.173-.046-.348-.138-.527a1.69 1.69 0 0 0-.439-.518 2.304 2.304 0 0 0-.755-.395 3.503 3.503 0 0 0-1.078-.147c-.52 0-.973.074-1.358.223-.384.15-.679.362-.882.641a1.564 1.564 0 0 0-.304.954c0 .374.096.688.288.941.193.253.453.452.781.598a6.67 6.67 0 0 0 1.223.386c.362.079.652.154.868.225.218.07.395.173.532.307a.71.71 0 0 1 .206.526c0 .271-.129.5-.381.68-.256.182-.585.274-.992.274-.294 0-.533-.046-.714-.135a1.124 1.124 0 0 1-.423-.344 2.514 2.514 0 0 1-.279-.52 1.047 1.047 0 0 0-.258-.393.534.534 0 0 0-.366-.134.601.601 0 0 0-.441.17.556.556 0 0 0-.172.41c0 .276.095.558.286.85a2.2 2.2 0 0 0 .752.699c.433.242.986.364 1.653.364.557 0 1.039-.09 1.445-.266.407-.177.714-.422.926-.738.21-.314.316-.665.316-1.058M40.642 64.818c.04-.407.154-.714.342-.924a.935.935 0 0 1 .724-.312c.308 0 .556.104.745.31.189.204.297.514.325.926h-2.136zm3.023.553c.168-.09.254-.287.254-.59 0-.33-.083-.651-.248-.968a1.902 1.902 0 0 0-.74-.773c-.329-.2-.724-.3-1.184-.3-.355 0-.677.06-.967.176-.29.117-.535.284-.735.502-.197.22-.349.48-.453.787a3.1 3.1 0 0 0-.155.996c0 .76.21 1.36.63 1.804.42.442 1.01.665 1.766.665.331 0 .624-.045.88-.133.253-.09.465-.201.633-.335.168-.135.295-.276.377-.42a.804.804 0 0 0 .126-.385c0-.125-.037-.22-.112-.287a.417.417 0 0 0-.293-.104c-.113 0-.199.028-.26.082-.147.141-.266.253-.358.336-.092.082-.193.16-.302.233a1.34 1.34 0 0 1-.338.16c-.118.032-.247.05-.387.05-.21 0-.403-.053-.577-.159a1.138 1.138 0 0 1-.418-.473 1.648 1.648 0 0 1-.162-.728h2.304c.308 0 .548-.045.719-.136zM46.207 64.367c.1-.242.243-.42.427-.546a1.13 1.13 0 0 1 .64-.183c.374 0 .674.138.895.412.222.277.333.66.333 1.155 0 .488-.111.872-.333 1.148-.221.277-.521.415-.895.415-.248 0-.465-.064-.648-.189a1.206 1.206 0 0 1-.42-.543 2.165 2.165 0 0 1-.148-.831c0-.32.05-.599.149-.838m-1.222 1.834c.114.303.28.561.499.782.219.221.479.39.777.51.301.116.637.177 1.013.177.378 0 .718-.06 1.019-.178.304-.116.562-.283.78-.501a2.24 2.24 0 0 0 .5-.787c.114-.304.171-.637.171-1s-.055-.695-.17-.997a2.174 2.174 0 0 0-1.281-1.288 2.769 2.769 0 0 0-1.02-.178c-.37 0-.707.058-1.012.175a2.208 2.208 0 0 0-.78.5 2.208 2.208 0 0 0-.494.78 2.83 2.83 0 0 0-.172 1.009c0 .365.057.697.17.996M54.391 66.986c0 .215.057.383.169.505.111.118.253.18.424.18a.557.557 0 0 0 .423-.175c.11-.114.163-.287.163-.518v-3.514c0-.24-.056-.423-.17-.543a.597.597 0 0 0-.452-.18.602.602 0 0 0-.456.183c-.117.122-.175.301-.175.54v1.475c0 .58-.035.956-.107 1.128a1.075 1.075 0 0 1-.408.475 1.081 1.081 0 0 1-.6.183c-.218 0-.39-.056-.519-.163a.851.851 0 0 1-.264-.45 2.906 2.906 0 0 1-.074-.707v-1.94c0-.24-.058-.419-.174-.541a.61.61 0 0 0-.46-.183.594.594 0 0 0-.452.18c-.114.12-.17.303-.17.543v2.403c0 .482.077.853.234 1.111.131.213.318.378.56.5.24.122.515.183.817.183.253 0 .477-.03.673-.092.197-.061.376-.152.542-.277.167-.123.326-.279.476-.46v.154zM57.056 61.134c-.074.124-.111.306-.111.55v5.25c0 .234.037.417.115.544.076.126.175.192.298.192.125 0 .226-.063.305-.185.079-.123.118-.306.118-.551v-5.25c0-.247-.038-.428-.116-.553-.078-.122-.18-.183-.307-.183s-.228.061-.302.186M68.013 61.118a1.945 1.945 0 0 0-.682.45c-.18.186-.314.39-.405.62-.09.227-.134.446-.134.656 0 .172.047.31.143.41.096.101.217.15.363.15.165 0 .292-.054.377-.164.087-.109.164-.265.233-.469.069-.205.117-.328.146-.375.218-.349.517-.524.9-.524.181 0 .347.043.5.128a.923.923 0 0 1 .362.358c.088.153.134.328.134.522 0 .178-.042.363-.125.547-.082.188-.203.37-.362.548-.158.179-.359.356-.596.531-.135.093-.357.292-.669.59-.312.3-.66.66-1.05 1.08a1.603 1.603 0 0 0-.256.424c-.078.182-.118.328-.118.437 0 .17.06.319.183.443.123.128.293.19.511.19h3.216c.192 0 .336-.052.43-.156a.535.535 0 0 0 .142-.377.48.48 0 0 0-.18-.396c-.118-.099-.292-.147-.52-.147h-2.279c.073-.116.143-.213.214-.296.163-.207.464-.497.902-.87.439-.375.75-.649.936-.823.188-.175.37-.416.55-.724.178-.31.268-.651.268-1.029 0-.24-.042-.472-.128-.696a1.856 1.856 0 0 0-.362-.588 1.66 1.66 0 0 0-.538-.401c-.314-.146-.694-.219-1.139-.219-.37 0-.692.055-.967.17M78.927 61.099a1.945 1.945 0 0 0-.681.45c-.18.186-.314.391-.405.62-.09.227-.134.446-.134.657 0 .172.047.31.143.41.096.1.217.15.363.15.165 0 .291-.055.377-.164.087-.11.163-.265.232-.47.07-.205.118-.328.146-.374.219-.35.518-.524.9-.524.182 0 .348.042.501.128a.923.923 0 0 1 .362.357c.088.154.134.328.134.523 0 .177-.042.363-.125.547-.082.188-.203.37-.362.548-.158.178-.36.356-.597.53-.134.094-.356.292-.668.591-.312.3-.661.66-1.05 1.079a1.603 1.603 0 0 0-.257.424c-.078.183-.117.328-.117.437 0 .17.06.32.182.443.123.128.293.19.512.19h3.216c.192 0 .336-.051.43-.155a.535.535 0 0 0 .141-.378.48.48 0 0 0-.179-.396c-.119-.098-.293-.146-.52-.146h-2.28c.074-.116.144-.214.214-.296.164-.207.464-.498.903-.871.438-.375.75-.648.935-.823.188-.175.371-.416.55-.724.179-.31.269-.65.269-1.028 0-.24-.043-.472-.128-.696a1.856 1.856 0 0 0-.362-.588 1.66 1.66 0 0 0-.538-.402c-.315-.145-.694-.218-1.14-.218-.369 0-.692.054-.967.169M73.58 62.453c.15-.397.418-.596.804-.596.269 0 .479.089.63.266.15.18.26.44.324.79.064.347.096.795.096 1.343 0 .576-.031 1.043-.091 1.398-.063.354-.17.628-.32.82-.152.19-.362.286-.63.286a.76.76 0 0 1-.619-.276c-.15-.184-.258-.453-.323-.812a8.091 8.091 0 0 1-.097-1.38c0-.83.077-1.441.227-1.839m-1.167 3.765c.178.453.443.809.794 1.068.351.256.75.384 1.194.384.384 0 .735-.095 1.05-.287.314-.193.57-.464.77-.814.158-.287.265-.607.323-.961.059-.353.088-.774.088-1.263 0-.903-.111-1.6-.333-2.094a2.524 2.524 0 0 0-.47-.714 1.862 1.862 0 0 0-.645-.438c-.244-.1-.518-.15-.82-.15-.454 0-.846.112-1.175.336-.328.226-.577.553-.75.983a4.22 4.22 0 0 0-.219.933c-.046.362-.07.768-.07 1.22 0 .35.021.676.065.975.042.3.109.574.198.822M84.495 62.435c.15-.397.418-.597.803-.597.27 0 .48.09.63.266.151.18.26.441.324.79.064.347.096.796.096 1.344 0 .575-.03 1.042-.09 1.397-.063.354-.17.628-.32.82-.152.19-.362.287-.63.287a.76.76 0 0 1-.62-.277c-.15-.183-.258-.452-.322-.811a8.091 8.091 0 0 1-.097-1.381c0-.829.077-1.44.226-1.838m-1.166 3.764c.178.454.443.81.794 1.069.35.255.749.384 1.193.384.384 0 .735-.096 1.05-.287.315-.193.571-.464.77-.815.158-.287.266-.607.324-.96.058-.353.088-.774.088-1.263 0-.904-.111-1.6-.333-2.094a2.524 2.524 0 0 0-.47-.715 1.862 1.862 0 0 0-.645-.438c-.245-.1-.519-.15-.82-.15-.454 0-.846.112-1.175.337-.328.225-.578.553-.75.983a4.22 4.22 0 0 0-.22.932c-.045.362-.069.769-.069 1.22 0 .35.02.676.064.975.043.3.11.574.199.822M61.396 65.43l.897.896.896-.896-.896-.897z" mask="url(#b)"/>
    </g>
</svg>
