<svg xmlns="http://www.w3.org/2000/svg" width="463" height="269" viewBox="0 0 463 269">
    <g fill="none" fill-rule="evenodd">
        <path fill="#FFFBF4" d="M-729-440h1920v1459H-729z"/>
        <g>
            <rect width="462.68" height="269" fill="#EFF2EE" rx="2"/>
            <path fill="#E19D67" d="M431.704 20.444a3 3 0 0 1 3 3v3.525h4.227c1.893 0 2.549 1.455 1.145 2.889-.801.818-2.591 2.5-5.37 5.045l-.002 38.493a3 3 0 0 1-3 3H251.556a3 3 0 0 1-3-3V23.444a3 3 0 0 1 3-3h180.148z" opacity=".555"/>
            <path fill="#1C2633" fill-rule="nonzero" d="M270.982 38.535c-2.49-.42-4.518-2.294-4.518-4.253v-.95h-1.525v.95c0 1.945-2.028 3.833-4.532 4.253l.616 1.203c2.056-.406 3.846-1.665 4.686-3.343.81 1.678 2.601 2.937 4.672 3.343l.601-1.203zm-4.574 3.902v-2.951h-1.44v2.951h-4.939v1.19h11.443v-1.19h-5.064zm10.365-8.714h-1.399v2.28c0 2.154-.867 4.42-2.657 5.483l.88 1.091c1.218-.741 2.043-2.07 2.49-3.623.434 1.413 1.19 2.644 2.337 3.344l.81-1.12c-1.692-1.063-2.461-3.203-2.461-5.245v-2.21zm2.965 3.26h-1.86v1.174h1.86v6.449h1.357V32.8h-1.357v4.182zm2.574-4.421v12.631h1.371V32.562h-1.37zm8.113 2.448h2.812v-1.19h-7.078v1.19h2.812v1.203c0 2.168-1.301 4.518-3.26 5.427l.826 1.147c1.482-.713 2.615-2.21 3.175-3.972.587 1.636 1.72 3.007 3.19 3.65l.797-1.133c-1.973-.839-3.274-3.021-3.274-5.12V35.01zm4.28-2.448v12.631h1.455V32.562h-1.454zm4.323 14.352c1.44-.546 2.294-1.679 2.294-3.148 0-1.077-.462-1.734-1.245-1.734-.615 0-1.119.405-1.119 1.035 0 .671.504 1.035 1.077 1.035.056 0 .098 0 .154-.014-.014.825-.574 1.525-1.525 1.916l.364.91zm9.512-2.616c1.902 0 2.923-1.05 2.923-2.336 0-1.389-1.083-1.885-2.118-2.28l-.61-.226c-.648-.247-1.174-.513-1.174-1.047 0-.532.391-.951 1.23-.951.644 0 1.19.28 1.721.671l.755-.993c-.629-.49-1.468-.91-2.503-.91-1.693 0-2.728.966-2.728 2.253 0 1.236 1.06 1.79 2.042 2.178l.623.242c.665.269 1.238.579 1.238 1.147 0 .587-.434 1.035-1.357 1.035-.826 0-1.497-.336-2.182-.881l-.756 1.035c.742.615 1.833 1.063 2.896 1.063zm6.448 0c.923 0 1.749-.462 2.448-1.063h.042l.14.881h1.315v-4.63c0-2.042-.881-3.26-2.798-3.26-1.23 0-2.308.504-3.105 1.008l.601 1.091c.658-.42 1.413-.783 2.224-.783 1.134 0 1.455.783 1.47 1.678-3.204.35-4.603 1.203-4.603 2.854 0 1.357.937 2.224 2.266 2.224zm.49-1.273c-.686 0-1.203-.308-1.203-1.063 0-.867.77-1.44 3.05-1.72v1.888c-.63.573-1.176.895-1.847.895zm8.938 1.273c1.007 0 1.889-.336 2.602-.811l-.56-1.022c-.56.364-1.147.574-1.832.574-1.329 0-2.252-.881-2.378-2.35h4.994c.042-.182.07-.504.07-.811 0-2.182-1.091-3.651-3.134-3.651-1.804 0-3.51 1.552-3.51 4.056 0 2.532 1.664 4.015 3.748 4.015zm-2.182-4.714c.154-1.357 1.007-2.098 1.972-2.098 1.12 0 1.72.769 1.72 2.098h-3.692zm6.183 7.847c1.706 0 2.322-1.133 2.322-2.741v-8.267h-1.609v8.294c0 .91-.196 1.427-.923 1.427-.238 0-.476-.07-.686-.126l-.293 1.203c.28.112.671.21 1.189.21zm1.51-12.45c.588 0 1.036-.39 1.036-.95 0-.574-.448-.952-1.036-.952-.587 0-1.02.378-1.02.952 0 .56.433.95 1.02.95zm3.218 9.135h1.594v-7.693h-1.594v7.693zm.797-9.134c.587 0 1.035-.392 1.035-.951 0-.574-.448-.952-1.035-.952-.588 0-1.021.378-1.021.952 0 .56.433.95 1.021.95zm8.463 11.652a5.975 5.975 0 0 0 3.021-.783l-.406-.924a5.156 5.156 0 0 1-2.49.672c-2.615 0-4.657-1.65-4.657-4.728 0-3.637 2.685-6.001 5.455-6.001 2.937 0 4.336 1.902 4.336 4.364 0 1.93-1.063 3.106-2.042 3.106-.811 0-1.091-.532-.811-1.693l.657-3.231h-1.035l-.196.643h-.028c-.28-.531-.713-.77-1.245-.77-1.818 0-3.077 1.96-3.077 3.708 0 1.44.84 2.266 1.958 2.266.672 0 1.413-.448 1.903-1.063h.042c.111.783.81 1.189 1.678 1.189 1.497 0 3.287-1.427 3.287-4.21 0-3.162-2.056-5.344-5.301-5.344-3.623 0-6.728 2.811-6.728 7.078 0 3.777 2.573 5.72 5.679 5.72zm-.238-4.42c-.588 0-1.021-.392-1.021-1.301 0-1.12.713-2.546 1.846-2.546.392 0 .672.168.923.587l-.42 2.392c-.503.616-.922.868-1.328.868zm12.17 2.084c1.734 0 3.315-1.51 3.315-4.155 0-2.364-1.105-3.916-3.05-3.916-.811 0-1.636.433-2.294 1.007l.042-1.315v-2.951h-1.594v11.148h1.258l.154-.797h.042c.658.63 1.427.979 2.126.979zm-.308-1.329c-.476 0-1.091-.182-1.679-.7v-3.762c.644-.63 1.231-.937 1.833-.937 1.287 0 1.804.993 1.804 2.601 0 1.805-.84 2.798-1.958 2.798zm5.525 1.147h1.595v-5.455c.643-.7 1.217-1.05 1.734-1.05.881 0 1.287.532 1.287 1.861v4.644h1.609v-5.455c.643-.7 1.203-1.05 1.734-1.05.867 0 1.287.532 1.287 1.861v4.644h1.609v-4.84c0-1.958-.756-3.05-2.364-3.05-.965 0-1.749.602-2.504 1.414-.336-.882-.98-1.413-2.126-1.413-.951 0-1.72.573-2.378 1.273h-.042l-.126-1.077h-1.315v7.693zm14.995.182c.923 0 1.749-.462 2.448-1.063h.042l.14.881h1.315v-4.63c0-2.042-.881-3.26-2.798-3.26-1.23 0-2.308.504-3.105 1.008l.601 1.091c.658-.42 1.413-.783 2.224-.783 1.133 0 1.455.783 1.47 1.678-3.204.35-4.603 1.203-4.603 2.854 0 1.357.937 2.224 2.266 2.224zm.49-1.273c-.686 0-1.203-.308-1.203-1.063 0-.867.77-1.44 3.05-1.72v1.888c-.63.573-1.176.895-1.847.895zm5.735 1.091h1.594v-7.693h-1.594v7.693zm.797-9.134c.588 0 1.035-.392 1.035-.951 0-.574-.447-.952-1.035-.952-.587 0-1.021.378-1.021.952 0 .56.434.95 1.021.95zm4.812 9.316c.392 0 .671-.056.867-.126l-.21-1.217c-.14.028-.195.028-.265.028-.196 0-.392-.154-.392-.588v-9.427h-1.595v9.344c0 1.244.434 1.986 1.595 1.986zm3.441 0c.602 0 1.077-.462 1.077-1.12 0-.657-.475-1.146-1.077-1.146-.601 0-1.077.49-1.077 1.147s.476 1.119 1.077 1.119zm6.435 0c.88 0 1.79-.322 2.49-.951l-.658-1.063c-.462.391-1.035.699-1.679.699-1.287 0-2.168-1.077-2.168-2.7 0-1.636.923-2.727 2.21-2.727.532 0 .966.223 1.385.601l.797-1.049c-.559-.49-1.272-.881-2.252-.881-2.028 0-3.804 1.482-3.804 4.056 0 2.546 1.594 4.015 3.679 4.015zm7.175 0c1.903 0 3.623-1.469 3.623-4.015 0-2.574-1.72-4.056-3.623-4.056-1.902 0-3.623 1.482-3.623 4.056 0 2.546 1.721 4.015 3.623 4.015zm0-1.315c-1.203 0-1.958-1.077-1.958-2.7 0-1.636.755-2.727 1.958-2.727 1.217 0 1.973 1.09 1.973 2.727 0 1.623-.756 2.7-1.973 2.7zm5.512 1.133h1.594v-5.455c.644-.7 1.217-1.05 1.735-1.05.881 0 1.287.532 1.287 1.861v4.644h1.608v-5.455c.644-.7 1.203-1.05 1.735-1.05.867 0 1.287.532 1.287 1.861v4.644h1.608v-4.84c0-1.958-.755-3.05-2.364-3.05-.965 0-1.748.602-2.503 1.414-.336-.882-.98-1.413-2.127-1.413-.95 0-1.72.573-2.378 1.273h-.042l-.125-1.077h-1.315v7.693zm-145.084 11.45h2.084v-1.19h-5.707v1.19h2.224v.909c0 2.252-.839 4.532-2.63 5.651l.868 1.063c1.217-.77 2.028-2.126 2.476-3.72.447 1.468 1.23 2.713 2.42 3.412l.839-1.049c-1.763-1.02-2.574-3.203-2.574-5.357v-.91zm3.022 1.874h-1.86v1.175h1.86v6.407h1.356V53.244h-1.356v4.196zm2.545-4.448v12.631h1.371V52.992h-1.37zm10.715 5.371h-2.252v-3.329h2.252v3.33zm1.343-1.147h1.427v2.952h1.357v-6.91h-1.357v2.783h-1.427V53.93h-4.938v5.54h4.938v-2.253zm-1.735 4.798h5.582v2.322h-5.582v-2.322zm-1.412 3.47h8.406V60.88h-8.406v4.602zm7.036-12.464v7.274h1.37V53.02h-1.37zm8.518 8.379h-3.077v-3.092h3.077V61.4zm4.057-8.421v4.602h-2.644V54h-1.413v3.174h-3.077v-3.189h-1.427v8.589h5.917V58.74h2.644v6.924h1.455V52.992l-1.455-.014zm11.512 5.357c-1.944-.601-3.077-2.126-3.077-3.762v-1.161h-1.47v1.16c0 1.693-1.146 3.33-3.132 3.987l.713 1.133a5.078 5.078 0 0 0 3.175-2.895c.574 1.23 1.637 2.196 3.106 2.671l.685-1.133zm1.3 5.987h-5.399v-1.427h5.4v1.427zm0-2.546h-5.399v-1.398h-1.426v5.105h8.253v-5.105h-1.427v1.398zm-.013-8.77v6.784h1.44v-6.784h-1.44zm14.477 1.063h-2.867v-1.175h-1.455v1.175h-2.895v1.05h7.217v-1.05zm-5.259 3.33c0-.574.643-.924 1.65-.924 1.008 0 1.651.35 1.651.923 0 .56-.643.895-1.65.895-1.008 0-1.651-.335-1.651-.895zm5.61 2.321c-1.022.154-2.127.224-3.218.28v-.783c1.399-.168 2.266-.826 2.266-1.819 0-1.175-1.189-1.888-3.007-1.888-1.819 0-3.008.713-3.008 1.888 0 .993.867 1.665 2.294 1.819v.839l-1.139.02c-.741.008-1.444.008-2.078.008l.168 1.147.99-.007c2.057-.02 4.553-.09 6.843-.497l-.112-1.007zm-6.323 3.54h6.994v2.391h1.44v-3.539h-8.434v1.147zm10.169-6.52h-1.735v-3.72h-1.44v8.533h1.44V57.93h1.735v-1.19zm11.652-3.734h-1.44v9.176h1.44v-9.176zm-8.757 4c0-1.16.826-1.916 1.945-1.916 1.105 0 1.944.755 1.944 1.916 0 1.147-.84 1.917-1.944 1.917-1.12 0-1.945-.77-1.945-1.917zm5.288 0c0-1.846-1.44-3.16-3.343-3.16s-3.357 1.314-3.357 3.16c0 1.833 1.454 3.162 3.357 3.162 1.902 0 3.343-1.33 3.343-3.162zm-3.33 7.218V61.26h-1.454v4.14h8.617v-1.175h-7.162zm12.338-2.615c-.853 0-1.455-.686-1.455-1.735 0-1.05.602-1.748 1.455-1.748.853 0 1.455.699 1.455 1.748 0 1.05-.602 1.735-1.455 1.735zm0-4.672c-1.595 0-2.742 1.189-2.742 2.937 0 1.735 1.147 2.937 2.742 2.937s2.742-1.202 2.742-2.937c0-1.748-1.147-2.937-2.742-2.937zm.713-3.567h-1.426v1.692h-2.392v1.161h6.182v-1.16h-2.364V53.37zm5.596-.364v5.231h-1.343v-4.965h-1.343V65.05h1.343v-5.624h1.343v6.211h1.37V53.006h-1.37zm4.63 6.183c2.084-.308 3.79-1.343 4.56-2.742.77 1.399 2.49 2.434 4.574 2.742l.517-1.133c-2.405-.322-4.182-1.707-4.266-3.176h3.819v-1.16h-9.302v1.16h3.847c-.084 1.469-1.86 2.854-4.267 3.176l.518 1.133zm10.28.923h-11.427v1.16h4.951v4.38h1.441v-4.38h5.022l.014-1.16zm5.316-5.945h-1.398v2.28c0 2.154-.868 4.42-2.658 5.483l.881 1.091c1.217-.741 2.042-2.07 2.49-3.623.434 1.413 1.189 2.644 2.336 3.344l.811-1.12c-1.692-1.063-2.462-3.203-2.462-5.245v-2.21zm2.966 3.26h-1.86V58.6h1.86v6.449h1.357V53.244h-1.357v4.182zm2.574-4.421v12.631h1.37V53.006h-1.37zm7.567 7.162c.49.112 1.035.168 1.595.168s1.105-.056 1.594-.182v2.755h-3.189v-2.741zm1.595-5.302c1.902 0 3.231.84 3.231 2.168 0 1.343-1.329 2.183-3.231 2.183-1.917 0-3.245-.84-3.245-2.183 0-1.328 1.328-2.168 3.245-2.168zm3.035 8.043v-3.287c1.007-.573 1.609-1.469 1.609-2.588 0-2.014-1.959-3.3-4.644-3.3-2.7 0-4.644 1.286-4.644 3.3 0 1.12.601 2.029 1.608 2.588v3.287h-2.671v1.175h11.442V62.91h-2.7zm8.77-2.308c-1.272 0-1.888-1.287-2.769-1.287-.448 0-.84.294-1.189.938l-.867-.63c.63-1.063 1.37-1.482 2.084-1.482 1.259 0 1.888 1.286 2.77 1.286.447 0 .825-.293 1.175-.937l.88.644c-.643 1.035-1.384 1.468-2.083 1.468z"/>
            <g>
                <path fill="#FFFBF4" d="M31.274 103.296a3 3 0 0 0-3 3v3.627h-4.66c-2.088 0-2.81 1.478-1.263 2.934.884.83 2.858 2.54 5.922 5.125v122.194a3 3 0 0 0 3 3h199.219a3 3 0 0 0 3-3v-133.88a3 3 0 0 0-3-3H31.274z"/>
                <path fill="#1C2633" fill-rule="nonzero" d="M42.092 119.414c0-1.147.84-1.902 1.944-1.902 1.105 0 1.959.755 1.959 1.902 0 1.161-.854 1.917-1.959 1.917s-1.944-.756-1.944-1.917zm5.315 0c0-1.846-1.454-3.147-3.37-3.147-1.903 0-3.358 1.301-3.358 3.147 0 1.847 1.455 3.162 3.357 3.162 1.917 0 3.371-1.315 3.371-3.162zm-3.566 4.309h-1.455v4.084h8.504v-1.175h-7.05v-2.91zm6.546-4.56v-3.75h-1.44v9.261h1.44v-4.322h1.79v-1.19h-1.79zm12.03 3.93h1.44v-7.68h-1.44v1.33H59.1v1.105h3.316v1.09H59.1v1.12h3.316v3.035zm-1.833-2.308c-1.608.308-3.035.406-5.008.42v-5.078h-1.44v6.253h.979c2.266 0 3.86-.07 5.637-.434l-.168-1.16zm-.937 6.141c-1.79 0-2.812-.462-2.812-1.287s1.022-1.273 2.812-1.273c1.79 0 2.826.448 2.826 1.273s-1.036 1.287-2.826 1.287zm0-3.707c-2.63 0-4.252.895-4.252 2.42s1.622 2.42 4.252 2.42c2.644 0 4.266-.895 4.266-2.42s-1.622-2.42-4.266-2.42zm10.295.923c-1.021 0-1.762-.699-1.762-1.762 0-1.063.741-1.763 1.762-1.763s1.763.7 1.763 1.763-.742 1.762-1.763 1.762zm0-4.714c-1.818 0-3.133 1.231-3.133 2.952 0 1.734 1.315 2.951 3.133 2.951 1.805 0 3.133-1.217 3.133-2.951 0-1.72-1.328-2.952-3.133-2.952zm.7-3.832H69.2v1.762h-3.008v1.175h7.4v-1.175h-2.951v-1.762zm7.371 4.896H76.07v-5.078h-1.455v12.645h1.455v-6.364h1.944v-1.203zm4.994-3.917h-1.399v2.28c0 2.154-.867 4.42-2.658 5.483l.882 1.091c1.217-.741 2.042-2.07 2.49-3.623.433 1.413 1.189 2.644 2.336 3.344l.81-1.12c-1.692-1.063-2.461-3.203-2.461-5.245v-2.21zm2.965 3.26h-1.86v1.174h1.86v6.449h1.357v-11.806h-1.357v4.182zm2.574-4.421v12.631h1.371v-12.631h-1.37zm7.568 7.162c.49.112 1.035.168 1.594.168.56 0 1.105-.056 1.595-.182v2.755h-3.19v-2.741zm1.594-5.302c1.903 0 3.232.84 3.232 2.168 0 1.343-1.33 2.183-3.232 2.183-1.916 0-3.245-.84-3.245-2.183 0-1.328 1.329-2.168 3.245-2.168zm3.036 8.043v-3.287c1.007-.573 1.608-1.469 1.608-2.588 0-2.014-1.958-3.3-4.644-3.3-2.7 0-4.644 1.286-4.644 3.3 0 1.12.602 2.029 1.609 2.588v3.287H92v1.175h11.442v-1.175h-2.7zm18.226-3.93c-2.49-.42-4.518-2.294-4.518-4.253v-.95h-1.525v.95c0 1.945-2.028 3.833-4.532 4.253l.616 1.203c2.056-.406 3.846-1.665 4.686-3.343.81 1.678 2.601 2.937 4.672 3.343l.601-1.203zm-4.574 3.902v-2.951h-1.44v2.951h-4.939v1.19h11.443v-1.19h-5.064zm10.365-8.714h-1.399v2.28c0 2.154-.867 4.42-2.657 5.483l.88 1.091c1.218-.741 2.043-2.07 2.49-3.623.434 1.413 1.19 2.644 2.337 3.344l.811-1.12c-1.693-1.063-2.462-3.203-2.462-5.245v-2.21zm2.966 3.26h-1.86v1.174h1.86v6.449h1.356v-11.806h-1.356v4.182zm2.573-4.421v12.631h1.371v-12.631h-1.37zm8.113 2.448h2.812v-1.19h-7.078v1.19h2.812v1.203c0 2.168-1.301 4.518-3.26 5.427l.826 1.147c1.482-.713 2.616-2.21 3.175-3.972.588 1.636 1.72 3.007 3.19 3.65l.797-1.133c-1.973-.839-3.274-3.021-3.274-5.12v-1.202zm4.28-2.448v12.631h1.455v-12.631h-1.454zm11.68 4.588c-1.846.378-3.552.518-5.553.532v-4.393h-1.44v5.595h1.049c2.224 0 4.098-.153 6.113-.573l-.168-1.161zm-4.196 4.252h5.442v2.476h-5.442v-2.476zm-1.426 3.637h8.28v-4.784h-8.28v4.784zm6.826-12.477v7.12h1.454v-7.12h-1.454zm4.308 14.352c1.44-.546 2.294-1.679 2.294-3.148 0-1.077-.462-1.734-1.245-1.734-.615 0-1.119.405-1.119 1.035 0 .671.504 1.035 1.077 1.035.056 0 .098 0 .154-.014-.014.825-.574 1.525-1.525 1.916l.364.91zm-113.68 17.66c-1.917 0-2.924-.336-2.924-.98 0-.613.918-.934 2.668-.962l.256-.002c1.93 0 2.937.321 2.937.965 0 .643-1.007.979-2.937.979zm0-3.021c-2.77 0-4.393.713-4.393 2.042 0 1.329 1.623 2.056 4.393 2.056 2.783 0 4.406-.727 4.406-2.056 0-1.329-1.623-2.042-4.406-2.042zm.755-1.889v-1.007h3.819v-1.105h-7.386v-1.05h7.134v-3.16h-8.575v1.119H49.1v1.007h-7.12v3.19h3.54v1.006H40.51v1.147h11.457v-1.147H46.96zm8.28-4h3.358v-1.175h-4.784v8.21h.853c1.93 0 3.162-.07 4.588-.35l-.126-1.188c-1.245.266-2.322.336-3.888.35v-5.847zm4.98 2.07h-2.49v1.175h2.49v6.127h1.357v-11.764H60.22v4.462zm2.574-4.742v12.631h1.385v-12.631h-1.385zm12.408 0v12.673h1.454v-12.673h-1.454zm-5.274.937c-1.874 0-3.245 1.735-3.245 4.448 0 2.742 1.37 4.462 3.245 4.462 1.889 0 3.26-1.72 3.26-4.462 0-2.713-1.371-4.448-3.26-4.448zm0 1.301c1.105 0 1.875 1.189 1.875 3.147 0 1.987-.77 3.176-1.875 3.176-1.09 0-1.86-1.19-1.86-3.176 0-1.958.77-3.147 1.86-3.147zm16.45 3.133h-2.252v-3.329h2.252v3.33zm1.343-1.147h1.427v2.952h1.357v-6.91h-1.357v2.783H87.72v-2.112h-4.938v5.54h4.938v-2.253zm-1.735 4.798h5.582v2.322h-5.582v-2.322zm-1.412 3.47h8.406v-4.603h-8.406v4.602zm7.036-12.464v7.274h1.37v-7.274h-1.37zm8.518 8.379h-3.077v-3.092h3.077v3.092zm4.057-8.421v4.602h-2.644v-3.58h-1.413v3.174h-3.077v-3.189h-1.427v8.589h5.917v-3.833h2.644v6.924h1.455v-12.673l-1.455-.014zm11.512 5.357c-1.944-.601-3.077-2.126-3.077-3.762v-1.161h-1.47v1.16c0 1.693-1.146 3.33-3.133 3.987l.714 1.133a5.078 5.078 0 0 0 3.175-2.895c.574 1.23 1.637 2.196 3.105 2.671l.686-1.133zm1.3 5.987h-5.399v-1.427h5.4v1.427zm0-2.546h-5.399v-1.398h-1.426v5.105h8.253v-5.105h-1.427v1.398zm-.013-8.77v6.784h1.44v-6.784h-1.44zm14.477 1.063h-2.867v-1.175h-1.455v1.175h-2.895v1.05h7.217v-1.05zm-5.26 3.33c0-.574.644-.924 1.651-.924 1.008 0 1.651.35 1.651.923 0 .56-.643.895-1.65.895-1.008 0-1.651-.335-1.651-.895zm5.61 2.321c-1.021.154-2.126.224-3.217.28v-.783c1.399-.168 2.266-.826 2.266-1.819 0-1.175-1.19-1.888-3.008-1.888s-3.007.713-3.007 1.888c0 .993.867 1.665 2.294 1.819v.839l-1.139.02c-.742.008-1.444.008-2.078.008l.168 1.147.99-.007c2.057-.02 4.553-.09 6.843-.497l-.112-1.007zm-6.323 3.54h6.994v2.391h1.441v-3.539h-8.435v1.147zm10.17-6.52h-1.735v-3.72h-1.44v8.533h1.44v-3.623h1.735v-1.19zm11.652-3.734h-1.441v9.176h1.44v-9.176zm-8.757 4c0-1.16.826-1.916 1.945-1.916 1.105 0 1.944.755 1.944 1.916 0 1.147-.84 1.917-1.944 1.917-1.12 0-1.945-.77-1.945-1.917zm5.288 0c0-1.846-1.441-3.16-3.343-3.16-1.903 0-3.357 1.314-3.357 3.16 0 1.833 1.454 3.162 3.357 3.162 1.902 0 3.343-1.33 3.343-3.162zm-3.33 7.218v-2.965h-1.454v4.14h8.616v-1.175h-7.161zm14.142-4.756h2.574v-1.16h-5.077v-2.98h5.021v-1.175h-6.462v5.315h2.504v2.336c-1.19.028-2.336.042-3.385.042l.181 1.19h1.135c2.142-.009 4.6-.095 6.909-.462l-.112-1.063c-1.05.126-2.168.195-3.288.237v-2.28zm4.057-6.49v12.687h1.455V135.83h-1.455zm12.953 7.372h1.44v-7.358h-1.44v1.413h-2.294v1.16h2.294v1.26h-2.294v1.175h2.294v2.35zm-1.595-1.427c-1.902-.728-2.951-2.448-2.951-4.239v-1.23h-1.441v1.23c0 1.917-1.077 3.68-3.063 4.42l.797 1.134c1.427-.56 2.448-1.665 3.007-3.05.532 1.301 1.511 2.336 2.84 2.882l.811-1.147zm1.749 1.902h-1.413v.434c0 .979-.504 2.168-1.637 2.937-1.105-.7-1.594-1.846-1.594-2.937v-.434h-1.4v.434c0 1.245-.838 2.588-2.46 3.161l.712 1.063a4.255 4.255 0 0 0 2.42-2.266c.406 1.035 1.161 1.917 2.336 2.378 1.161-.49 1.903-1.399 2.308-2.406.434 1.021 1.26 1.86 2.476 2.294l.714-1.063c-1.65-.531-2.462-1.832-2.462-3.161v-.434zm14.505-4.042c-2.504-.322-4.364-1.707-4.364-3.162v-.49h-1.483v.49c0 1.47-1.832 2.84-4.364 3.162l.532 1.119c2.056-.28 3.762-1.231 4.574-2.546.825 1.315 2.532 2.266 4.588 2.546l.517-1.12zm-2.294 7.553h-5.693v-1.357h5.693v1.357zm0-2.462h-5.693v-1.287h-1.427v4.896h8.561v-4.896h-1.44v1.287zm-8.532-3.217v1.147h11.442v-1.147h-11.442zm15.05-4.42h-1.426v8.21h1.077c1.958 0 4-.153 6.169-.6l-.154-1.204c-1.986.406-3.875.56-5.665.574v-6.98zm6.827-1.231v12.631h1.44v-12.631h-1.44zm5.819 2.364h4.434v-1.175h-5.875v8.35h1.035c2.28 0 3.987-.07 5.903-.419l-.154-1.189c-1.762.308-3.3.392-5.343.406v-5.973zm9.805 2.49h-1.972v-4.868h-1.44v12.66h1.44V141.9h1.972v-1.19zm2.49 6.882c.602 0 1.077-.462 1.077-1.12 0-.657-.475-1.146-1.077-1.146-.601 0-1.077.49-1.077 1.147s.476 1.119 1.077 1.119zm-170.863 34.51h-2.252v-3.33h2.252v3.33zm1.343-1.148h1.426v2.952h1.357v-6.91h-1.357v2.783h-1.426v-2.112h-4.938v5.54h4.938v-2.253zm-1.735 4.798h5.581v2.322h-5.58v-2.322zm-1.413 3.47h8.407v-4.603H42.82v4.602zm7.036-12.464v7.274h1.371v-7.274h-1.37zm8.52 8.379h-3.078v-3.092h3.077v3.092zm4.056-8.421v4.602h-2.644v-3.58h-1.413v3.174h-3.077v-3.189H53.87v8.589h5.917v-3.833h2.644v6.924h1.454v-12.673l-1.454-.014zm11.512 5.357c-1.945-.601-3.078-2.126-3.078-3.762v-1.161h-1.468v1.16c0 1.693-1.147 3.33-3.134 3.987l.714 1.133a5.078 5.078 0 0 0 3.175-2.895c.573 1.23 1.637 2.196 3.105 2.671l.686-1.133zm1.3 5.987h-5.399v-1.427h5.4v1.427zm0-2.546h-5.399v-1.398h-1.427v5.105h8.253v-5.105h-1.426v1.398zm-.013-8.77v6.784h1.44v-6.784h-1.44zm7.763 1.329v1.175h4.504c-.252 2.91-1.818 5.133-5.134 6.728l.77 1.147c4.336-2.098 5.847-5.287 5.847-9.05h-5.987zm8.267-1.33v12.632h1.44v-12.631h-1.44zm4.378.966v1.175h4.406c-.251 2-2.042 3.637-4.937 4.518l.601 1.147c3.679-1.119 5.903-3.497 5.903-6.84h-5.973zm2.812 7.26h-1.455v4.168h8.505v-1.175h-7.05v-2.993zm6.546-4.532v-3.693h-1.44v9.148h1.44v-4.266h1.805v-1.19h-1.805zm8.729-2.14c1.846 0 3.007.517 3.007 1.398 0 .896-1.161 1.413-3.007 1.413-1.86 0-3.022-.517-3.022-1.413 0-.88 1.161-1.398 3.022-1.398zm0 3.972c2.727 0 4.504-.965 4.504-2.574 0-1.594-1.777-2.56-4.504-2.56-2.728 0-4.505.966-4.505 2.56 0 1.609 1.777 2.574 4.505 2.574zm-2.826 3.19h-1.455v3.678h8.715v-1.175h-7.26v-2.504zm-2.896-2.169v1.175h11.429v-1.175h-11.429zm-67.576 25.452h6.645v-1.37h-2.574c-.504 0-1.147.041-1.679.097l.512-.5c1.913-1.913 3.251-3.8 3.251-5.627 0-1.86-1.217-3.091-3.105-3.091-1.343 0-2.252.587-3.133 1.539l.909.895c.545-.63 1.217-1.147 2.028-1.147 1.147 0 1.749.77 1.749 1.888 0 1.693-1.567 3.693-4.603 6.379v.937zm11.345.182c2.014 0 3.329-1.79 3.329-5.372 0-3.553-1.315-5.301-3.33-5.301-2.028 0-3.328 1.735-3.328 5.301 0 3.581 1.3 5.372 3.329 5.372zm0-1.273c-1.05 0-1.79-1.12-1.79-4.099 0-2.951.74-4.028 1.79-4.028 1.049 0 1.79 1.077 1.79 4.028 0 2.98-.741 4.099-1.79 4.099zm5.19 1.091h5.874v-1.329h-2.014v-8.966h-1.217c-.587.364-1.273.601-2.238.783v1.021h1.846v7.162h-2.252v1.329zm10.532-5.036c-1.077 0-1.664-.755-1.664-2.07 0-1.343.7-2.14 1.58-2.14 1.12 0 1.889.923 2.043 2.951-.616.896-1.33 1.26-1.959 1.26zm-2.993 4.127c.601.615 1.44 1.09 2.63 1.09 1.986 0 3.832-1.622 3.832-5.678 0-3.4-1.594-4.994-3.567-4.994-1.664 0-3.063 1.343-3.063 3.385 0 2.154 1.161 3.231 2.881 3.231.784 0 1.665-.461 2.267-1.203-.098 2.938-1.175 3.945-2.42 3.945a2.295 2.295 0 0 1-1.693-.77l-.867.994zm16.94-1.315h1.44v-9.33h-1.44v1.539h-3.358v1.147h3.357v1.245h-3.357v1.147h3.357v4.252zm-1.959-3.385c-1.749.308-3.273.405-4.91.42v-5.498h-1.44v6.686h.979c1.874 0 3.553-.083 5.51-.433l-.139-1.175zm-3.357 5.273v-2.713h-1.44v3.888h8.518v-1.175h-7.078zm12.799.336h5.875v-1.329h-2.014v-8.966h-1.217c-.588.364-1.273.601-2.238.783v1.021h1.846v7.162h-2.252v1.329zm10.757.182c2.014 0 3.329-1.79 3.329-5.372 0-3.553-1.315-5.301-3.33-5.301-2.028 0-3.329 1.735-3.329 5.301 0 3.581 1.301 5.372 3.33 5.372zm0-1.273c-1.05 0-1.79-1.12-1.79-4.099 0-2.951.74-4.028 1.79-4.028 1.049 0 1.79 1.077 1.79 4.028 0 2.98-.741 4.099-1.79 4.099zm11.344-4.532v.895h2.378v.546h1.44v-7.372h-1.44v5.93h-2.378zm-2.616-4.742c1.077 0 1.777.336 1.777.923 0 .588-.7.923-1.777.923-1.09 0-1.79-.335-1.79-.923 0-.587.7-.923 1.79-.923zm0 2.811c1.875 0 3.133-.727 3.133-1.888 0-1.16-1.258-1.888-3.133-1.888-1.888 0-3.147.727-3.147 1.888s1.259 1.888 3.147 1.888zm-.797 3.414h1.455v-1.86a37.367 37.367 0 0 0 3.539-.323l-.098-.909c-2.672.28-5.721.294-8.155.294l.167 1.035 1.185-.003a59.773 59.773 0 0 0 1.907-.039v1.805zm.056 4.084v-.923h7.176v-2.756h-8.631v.993h7.204v.84h-7.176v2.867h8.966v-1.021h-7.54zm12.631.056h6.644v-1.37h-2.574c-.503 0-1.147.041-1.678.097l.512-.5c1.913-1.913 3.25-3.8 3.25-5.627 0-1.86-1.216-3.091-3.105-3.091-1.343 0-2.252.587-3.133 1.539l.91.895c.545-.63 1.216-1.147 2.028-1.147 1.147 0 1.748.77 1.748 1.888 0 1.693-1.567 3.693-4.602 6.379v.937zm18.478-11.568h-1.44v6.42h1.44v-6.42zm-8.77 3.273c0-1.007.81-1.664 1.902-1.664 1.105 0 1.93.657 1.93 1.664s-.825 1.665-1.93 1.665c-1.091 0-1.902-.658-1.902-1.665zm5.231 0c0-1.664-1.413-2.853-3.329-2.853-1.902 0-3.301 1.189-3.301 2.853 0 1.665 1.399 2.84 3.301 2.84 1.916 0 3.33-1.175 3.33-2.84zm-3.301 8.085v-1.119h6.84v-3.245h-8.28v1.133h6.853v1.05h-6.826v3.314h8.63v-1.133h-7.217zm17.093-3.749c.7 0 1.441-.433 2.085-1.468l-.882-.644c-.35.644-.727.937-1.175.937-.881 0-1.51-1.286-2.77-1.286-.713 0-1.454.42-2.084 1.482l.868.63c.35-.644.741-.938 1.189-.938.88 0 1.496 1.287 2.77 1.287zM40.427 229.188h6.645v-1.37h-2.574c-.504 0-1.147.041-1.679.097l.512-.5c1.913-1.913 3.251-3.8 3.251-5.627 0-1.86-1.217-3.091-3.105-3.091-1.343 0-2.252.587-3.133 1.539l.909.895c.545-.63 1.217-1.147 2.028-1.147 1.147 0 1.749.77 1.749 1.888 0 1.693-1.567 3.693-4.603 6.379v.937zm11.345.182c2.014 0 3.329-1.79 3.329-5.372 0-3.553-1.315-5.301-3.33-5.301-2.028 0-3.328 1.735-3.328 5.301 0 3.581 1.3 5.372 3.329 5.372zm0-1.273c-1.05 0-1.79-1.12-1.79-4.099 0-2.951.74-4.028 1.79-4.028 1.049 0 1.79 1.077 1.79 4.028 0 2.98-.741 4.099-1.79 4.099zm5.19 1.091h5.874v-1.329h-2.014v-8.966h-1.217c-.587.364-1.273.601-2.238.783v1.021h1.846v7.162h-2.252v1.329zm10.532-5.036c-1.077 0-1.664-.755-1.664-2.07 0-1.343.7-2.14 1.58-2.14 1.12 0 1.889.923 2.043 2.951-.616.896-1.33 1.26-1.959 1.26zm-2.993 4.127c.601.615 1.44 1.09 2.63 1.09 1.986 0 3.832-1.622 3.832-5.678 0-3.4-1.594-4.994-3.567-4.994-1.664 0-3.063 1.343-3.063 3.385 0 2.154 1.161 3.231 2.881 3.231.784 0 1.665-.461 2.267-1.203-.098 2.938-1.175 3.945-2.42 3.945a2.295 2.295 0 0 1-1.693-.77l-.867.994zm16.94-1.315h1.44v-9.33h-1.44v1.539h-3.358v1.147h3.357v1.245h-3.357v1.147h3.357v4.252zm-1.959-3.385c-1.749.308-3.273.405-4.91.42V218.5h-1.44v6.686h.979c1.874 0 3.553-.083 5.51-.433l-.139-1.175zm-3.357 5.273v-2.713h-1.44v3.888h8.518v-1.175h-7.078zm12.799.336h5.875v-1.329h-2.014v-8.966h-1.217c-.588.364-1.273.601-2.238.783v1.021h1.846v7.162h-2.252v1.329zm7.973 0h5.875v-1.329h-2.014v-8.966H99.54c-.588.364-1.273.601-2.238.783v1.021h1.846v7.162h-2.252v1.329zm14.128-5.623v.895h2.378v.546h1.44v-7.372h-1.44v5.93h-2.378zm-2.616-4.742c1.077 0 1.777.336 1.777.923 0 .588-.7.923-1.777.923-1.09 0-1.79-.335-1.79-.923 0-.587.7-.923 1.79-.923zm0 2.811c1.875 0 3.133-.727 3.133-1.888 0-1.16-1.258-1.888-3.133-1.888-1.888 0-3.147.727-3.147 1.888s1.259 1.888 3.147 1.888zm-.797 3.414h1.455v-1.86a37.367 37.367 0 0 0 3.539-.323l-.098-.909c-2.672.28-5.721.294-8.155.294l.167 1.035 1.185-.003a59.772 59.772 0 0 0 1.907-.039v1.805zm.056 4.084v-.923h7.176v-2.756h-8.631v.993h7.204v.84h-7.176v2.867h8.966v-1.021h-7.54zm12.631.056h6.644v-1.37h-2.574c-.503 0-1.147.041-1.678.097l.512-.5c1.913-1.913 3.25-3.8 3.25-5.627 0-1.86-1.216-3.091-3.105-3.091-1.343 0-2.252.587-3.133 1.539l.91.895c.545-.63 1.216-1.147 2.028-1.147 1.147 0 1.748.77 1.748 1.888 0 1.693-1.567 3.693-4.602 6.379v.937zm18.478-11.568h-1.44v6.42h1.44v-6.42zm-8.77 3.273c0-1.007.81-1.664 1.902-1.664 1.105 0 1.93.657 1.93 1.664s-.825 1.665-1.93 1.665c-1.091 0-1.902-.658-1.902-1.665zm5.231 0c0-1.664-1.413-2.853-3.329-2.853-1.902 0-3.301 1.189-3.301 2.853 0 1.665 1.399 2.84 3.301 2.84 1.916 0 3.33-1.175 3.33-2.84zm-3.301 8.085v-1.119h6.84v-3.245h-8.28v1.133h6.853v1.05h-6.826v3.314h8.63v-1.133h-7.217zm9.638-10.015v1.189h2.056c-.126 2.532-.741 4.63-2.546 6.546l1.147.797c2.252-2.447 2.756-5.287 2.756-8.532h-3.413zm3.846 0v1.189h1.679c-.098 2.727-.616 5.19-2.434 7.371l1.161.812c2.252-2.756 2.63-6.057 2.63-9.372h-3.036zm7.582 3.763h-1.79v-5.092h-1.441v12.617h1.44v-6.336h1.79v-1.19zm5.763-2.644h2.812v-1.19H154.5v1.19h2.811v1.203c0 2.168-1.3 4.518-3.259 5.427l.825 1.147c1.483-.713 2.616-2.21 3.176-3.972.587 1.636 1.72 3.007 3.189 3.65l.797-1.133c-1.972-.839-3.273-3.021-3.273-5.12v-1.202zm4.28-2.448v12.631h1.455v-12.631h-1.455zm12.897 0v6.784h1.441v-6.784h-1.44zm-6.812 7.372v5.105h8.253v-5.105h-1.427v1.398h-5.4v-1.398h-1.426zm1.427 2.517h5.4v1.427h-5.4v-1.427zm.014-9.316c-1.93 0-3.357 1.203-3.357 2.938 0 1.734 1.426 2.937 3.357 2.937 1.93 0 3.343-1.203 3.343-2.937 0-1.735-1.413-2.938-3.343-2.938zm0 1.19c1.133 0 1.944.699 1.944 1.748 0 1.063-.811 1.748-1.944 1.748-1.147 0-1.945-.685-1.945-1.748 0-1.05.798-1.749 1.945-1.749zm11.442-.532h-1.427v8.21h1.077c1.959 0 4-.153 6.169-.6l-.154-1.204c-1.986.406-3.875.56-5.665.574v-6.98zm6.826-1.231v12.631h1.44v-12.631h-1.44zm5.82 2.364h4.433v-1.175h-5.875v8.35h1.036c2.28 0 3.986-.07 5.902-.419l-.153-1.189c-1.763.308-3.302.392-5.344.406v-5.973zm9.805 2.49h-1.973v-4.868h-1.44v12.66h1.44v-6.603h1.973v-1.19zm2.49 6.882c-.602 0-1.077-.462-1.077-1.12 0-.657.475-1.146 1.077-1.146.601 0 1.077.49 1.077 1.147s-.476 1.119-1.077 1.119z"/>
            </g>
        </g>
    </g>
</svg>
