<svg xmlns="http://www.w3.org/2000/svg" width="73" height="30" viewBox="0 0 73 30">
    <g fill="none" fill-rule="evenodd">
        <path fill="#FFFBF4" d="M-1236-3630H684v4828h-1920z"/>
        <path d="M-876-142H324v502H-876z" opacity=".703"/>
        <path fill="#FFF9ED" d="M-1236-403H684v885h-1920z"/>
        <path fill="#FFF9ED" d="M-1236-403H684v885h-1920z"/>
        <path fill="#FFF9ED" d="M-43.098-142H324v503H-43.098z"/>
        <g stroke="#1C2633" opacity=".4" transform="translate(-45 -143)">
            <rect width="366.6" height="501.6" x="1.7" y="1.7" stroke-width="1.4" rx="4"/>
            <rect width="357.1" height="492.1" x="6.45" y="6.45" stroke-width=".9" opacity=".7" rx="3"/>
        </g>
        <text fill="#1C2633" font-family="AbrilFatface-Regular, Abril Fatface" font-size="20" font-weight="700" opacity=".4" transform="translate(0 29.5)">
            <tspan x="3.5" y="21">29,700</tspan>
        </text>
        <g>
            <rect width="73" height="30" fill="#E78333" rx="3"/>
            <path fill="#1C2633" fill-rule="nonzero" d="M16.37 8.3v14h-3.24V10.9h-2.8V8.3h6.04zm8.44 14.24c-1.16 0-2.193-.287-3.1-.86s-1.617-1.403-2.13-2.49c-.513-1.087-.77-2.383-.77-3.89 0-1.507.257-2.803.77-3.89.513-1.087 1.223-1.917 2.13-2.49.907-.573 1.94-.86 3.1-.86 1.16 0 2.193.287 3.1.86s1.617 1.403 2.13 2.49c.513 1.087.77 2.383.77 3.89 0 1.507-.257 2.803-.77 3.89-.513 1.087-1.223 1.917-2.13 2.49-.907.573-1.94.86-3.1.86zm0-2.74c.853 0 1.523-.367 2.01-1.1.487-.733.73-1.867.73-3.4s-.243-2.667-.73-3.4c-.487-.733-1.157-1.1-2.01-1.1-.84 0-1.503.367-1.99 1.1-.487.733-.73 1.867-.73 3.4s.243 2.667.73 3.4c.487.733 1.15 1.1 1.99 1.1zm10.82-3.94c-1.027 0-1.863-.35-2.51-1.05-.647-.7-.97-1.637-.97-2.81s.323-2.11.97-2.81c.647-.7 1.483-1.05 2.51-1.05 1.027 0 1.86.35 2.5 1.05.64.7.96 1.637.96 2.81s-.32 2.11-.96 2.81c-.64.7-1.473 1.05-2.5 1.05zm8.34-7.56h2.38l-9.56 14h-2.38l9.56-14zm-8.34 5.92c.453 0 .81-.187 1.07-.56.26-.373.39-.927.39-1.66 0-.733-.13-1.287-.39-1.66a1.235 1.235 0 0 0-1.07-.56c-.44 0-.793.19-1.06.57-.267.38-.4.93-.4 1.65 0 .72.133 1.27.4 1.65.267.38.62.57 1.06.57zm9.5 8.24c-.667 0-1.263-.157-1.79-.47a3.184 3.184 0 0 1-1.23-1.35c-.293-.587-.44-1.267-.44-2.04 0-.773.147-1.453.44-2.04a3.184 3.184 0 0 1 1.23-1.35c.527-.313 1.123-.47 1.79-.47 1.027 0 1.863.35 2.51 1.05.647.7.97 1.637.97 2.81s-.323 2.11-.97 2.81c-.647.7-1.483 1.05-2.51 1.05zm0-1.64c.453 0 .81-.19 1.07-.57.26-.38.39-.93.39-1.65 0-.72-.13-1.27-.39-1.65-.26-.38-.617-.57-1.07-.57-.44 0-.793.187-1.06.56-.267.373-.4.927-.4 1.66 0 .733.133 1.287.4 1.66s.62.56 1.06.56zm20.28-4.6v2.42l-4.48 3-4.5-3v-2.42l3.28 2V8.994h2.42v9.226l3.28-2z"/>
        </g>
    </g>
</svg>
