<svg xmlns="http://www.w3.org/2000/svg" width="157" height="42" viewBox="0 0 157 42">
    <path fill="#1C2633" fill-rule="evenodd" d="M121.69 13.981v1.707c0 .646.464.901 1.2.901.735 0 1.199-.255 1.199-.901v-1.707a.095.095 0 0 0-.096-.095h-2.208a.095.095 0 0 0-.094.095zm1.2 4.225c-1.939 0-3.65-.683-3.65-2.518V8.969h.001c0-.442.538-.8 1.205-.808h.043c.657.008 1.187.357 1.202.791v3.222c0 .053.042.095.094.095h2.208a.095.095 0 0 0 .096-.095V8.969h.002c0-.442.538-.8 1.205-.808h.043c.656.008 1.186.356 1.2.79v6.737c0 1.835-1.71 2.518-3.65 2.518zm7.236-4.225v1.707c0 .646.464.901 1.2.901.735 0 1.198-.255 1.198-.901v-1.707a.095.095 0 0 0-.094-.095h-2.21a.095.095 0 0 0-.094.095zm1.2 4.225c-1.94 0-3.651-.683-3.651-2.518v-6.72c.001-.442.538-.8 1.204-.807h.043c.667.008 1.204.366 1.204.809v3.204c0 .053.043.095.095.095h2.209a.095.095 0 0 0 .094-.095V8.97c0-.443.538-.801 1.205-.809h.042c.667.008 1.205.366 1.205.809v6.718c0 1.835-1.712 2.518-3.65 2.518zm10.09-5.734c.404 0 .777.314.842.711.082.506-.307.981-.798.981h-1.864a.095.095 0 0 0-.095.096v4.126a.187.187 0 0 1-.187.187h-2.321a.187.187 0 0 1-.188-.187V8.098c.001-.009.003-.012.003-.024 0-.49.604-.886 1.348-.886.734 0 1.328.386 1.345.866v4.323c0 .052.042.095.095.095h1.82zm-10.661 12.887c3.593 0 5.767-.838 5.767-2.164 0-1.374-2.174-2.212-5.767-2.212-3.564 0-5.68.861-5.68 2.212 0 1.326 2.116 2.164 5.68 2.164zm0-6.13c5.577 0 8.71 1.626 8.71 3.965 0 2.294-3.133 3.897-8.71 3.897-5.519 0-8.652-1.603-8.652-3.897 0-2.339 3.133-3.964 8.652-3.964zM110.324 7.19c.734 0 1.327.385 1.344.865v18.069a.185.185 0 0 1-.185.185H96.326a1.125 1.125 0 0 1-1.125-1.126v-4.5c0-.103.083-.186.186-.187.58-.003 2.325.003 2.325.003.102 0 .185.083.185.185v3.536c0 .26.21.471.47.471h10.42a.185.185 0 0 0 .185-.185v-8a.092.092 0 0 0-.092-.092h-1.867a.824.824 0 0 1-.808-.826c0-.448.449-.827.852-.827h1.823a.093.093 0 0 0 .092-.093v-2.179a.093.093 0 0 0-.092-.093h-1.867a.824.824 0 0 1-.808-.827c0-.448.449-.828.852-.828h1.823a.093.093 0 0 0 .092-.092v-2.55c.001-.009.004-.012.004-.024 0-.49.603-.886 1.348-.886zM15.564 19.53V19.1h-4.23v-.779h5.24V20c0 .357-.03.72-.117.984h-.99c.06-.205.082-.492.09-.749-.532.079-1.204.092-1.973.092h-2.146v-.737H13.6c.724 0 1.417 0 1.963-.059zm-1.225 1.062v.746h2.663v.778h-6.097v-.778h2.422v-.746h1.012zm-1.995 1.906v1.035h4.349v.791h-5.074a.285.285 0 0 1-.285-.285V22.5h1.01zm11.526-4.418c.294 0 .505.16.505.333v5.885h-1.01v-5.885c0-.184.213-.333.505-.333zm10.445 3.692v-.79h2.643v.79h-2.643zm-5.37 1.201c.221-.296.266-.962.266-1.859 0-.89-.045-1.555-.267-1.852a.616.616 0 0 0-.501-.224.602.602 0 0 0-.495.224c-.222.297-.273.962-.273 1.852 0 .897.051 1.563.273 1.86.11.144.287.223.495.223a.619.619 0 0 0 .501-.224zm2.757-4.893c.293 0 .505.16.505.333v5.885h-1.011v-2.94h-.982c-.014.943-.126 1.668-.509 2.11-.281.33-.73.507-1.262.507-.525 0-.975-.178-1.263-.507-.413-.482-.501-1.293-.501-2.354 0-1.054.088-1.865.501-2.346.288-.33.738-.514 1.263-.514.532 0 .98.183 1.262.514.34.395.465 1.015.502 1.806h.989v-2.161c0-.184.213-.333.506-.333zm11.946 0c.293 0 .505.16.505.333v5.885h-1.01v-5.885c0-.184.212-.333.505-.333zm-22.607 2.384c.718.567 1.295 1.83 1.501 3.518h-.938c-.225-1.2-.48-1.988-.887-2.25-.416 1.267-.983 2.25-.983 2.25h-1.069s1.471-2.634 1.471-4.6v-.896c0-.184.214-.333.507-.333.293 0 .505.16.505.333v.895c0 .357-.042.722-.107 1.083zm17.548-1.72c0-.227.125-.392.259-.392h3.483v.785h-1.44v.23c0 .357-.042.721-.107 1.082.718.567 1.294 1.83 1.5 3.519h-.938c-.224-1.201-.48-1.989-.887-2.25-.415 1.267-.982 2.25-.982 2.25h-1.069s1.472-2.635 1.472-4.602v-.229h-1.032c-.143 0-.259-.165-.259-.393zm-14.567 9.302c.293 0 .505.16.505.332v5.9h-1.01v-5.9c0-.183.213-.332.505-.332zm-2.617 4.967v-1.761a.078.078 0 0 0-.078-.079h-1.172a.078.078 0 0 0-.08.079v1.761c0 .044.036.078.08.078h1.172a.078.078 0 0 0 .078-.078zm.503-4.86c.29 0 .5.16.5.331V33.8a.079.079 0 0 1-.078.078h-2.97a.287.287 0 0 1-.288-.286v-5.106h-.007c0-.184.213-.333.506-.333.294 0 .505.16.505.333v1.827c0 .043.035.078.079.078h1.172a.078.078 0 0 0 .078-.078v-1.827c0-.182.211-.33.503-.33zm4.555 5.862v-.784h6.024v.784h-6.024zm-10.41-5.97c.294 0 .506.16.506.333v5.9h-1.01V30.96h-1.17c-.144 0-.26-.161-.26-.39s.125-.394.26-.394h1.17v-1.798c0-.183.213-.332.505-.332zm-2.863 2.385c.718.566 1.294 1.83 1.5 3.518h-.938c-.224-1.201-.48-1.99-.887-2.25-.416 1.267-.982 2.25-.982 2.25h-1.07s1.472-2.635 1.472-4.601v-.896c0-.184.213-.333.506-.333.294 0 .505.16.505.333v.896c0 .357-.041.721-.106 1.083zm16.132.052a10.184 10.184 0 0 1-1.662 2.16h-1.197c2.012-2.133 2.435-3.61 2.602-4.234.058-.213.341-.311.599-.226.258.086.458.266.402.501-.045.183-.137.51-.312.932.995.462 2.007 1.538 2.58 3.028h-.94c-.626-1.02-1.205-1.847-2.072-2.16zM16.44 8.248V9.52h.937v.79h-.937v1.583h-1.012V8.248c0-.183.213-.332.506-.332.293 0 .505.16.505.332zm-4.415 2.267h1.396V8.926h-1.396v1.59zm2.385-2.36v3.131H11.32a.285.285 0 0 1-.284-.285V8.155h3.373zm6.078 5.273h3.086v-.451h-3.086v.451zm3.592-5.512c.293 0 .505.16.505.332V14.2h-4.822a.285.285 0 0 1-.285-.284v-2.2h1.01v.6h3.086V8.247c0-.183.213-.332.506-.332zm-4.36 3.436h-1.049c.965-1.063 1.379-1.917 1.558-2.426h-.997c-.14 0-.254-.163-.254-.386s.122-.385.254-.385h3.404v.77h-1.411a5.864 5.864 0 0 1-.169.413c.678.258 1.466.901 1.89 2.014h-.913c-.25-.56-.8-1.064-1.37-1.278a8.78 8.78 0 0 1-.943 1.278zm-5.467.958c1.059.205 2.003.981 2.535 1.89h-1.024c-.675-.762-1.304-1.055-2.126-1.192-.676.64-1.356 1.192-1.356 1.192h-1.16s1.422-1.225 2.367-2.495c.12-.161.4-.222.61-.148.24.084.403.274.313.469a2.6 2.6 0 0 1-.159.284zm89.46 6.36H93.63a1.125 1.125 0 0 1-1.124-1.111V9.998c.001-.01.003-.013.003-.025 0-.488.603-.885 1.348-.885.734 0 1.328.385 1.345.865v6.635a.47.47 0 0 0 .47.464h5.347a.185.185 0 0 0 .185-.185v-5.682c0-.004-.003-.005-.003-.009a.472.472 0 0 0-.471-.471h-3.764c-.388 0-.716-.364-.716-.81 0-.443.3-.807.708-.807h6.095c.645 0 .842.48.844 1.125 0 .004.003.005.003.008v8.263a.185.185 0 0 1-.186.186zm-36.496-3.378c0 .676.428.9 1.08.9h5.624a.186.186 0 0 0 .185-.185V13.98a.093.093 0 0 0-.092-.093H67.31a.093.093 0 0 0-.093.093v1.313zm9.402 2.542h-9.077c-2.09 0-3.021-.891-3.021-2.702V9.047c0-.489.604-.886 1.348-.886.744 0 1.348.397 1.348.886v3.13c0 .05.041.092.093.092h6.704a.093.093 0 0 0 .092-.093v-3.13c0-.488.604-.885 1.348-.885.745 0 1.348.397 1.348.886v8.604a.183.183 0 0 1-.183.183zm3.493 6.958v-1.139a.093.093 0 0 0-.093-.093H69.906a.093.093 0 0 0-.093.093v.854c0 .26.211.47.471.47h9.642a.185.185 0 0 0 .186-.185zm4.612-12.319a.87.87 0 0 1 .84.71c.083.506-.306.984-.797.984h-1.866a.093.093 0 0 0-.093.092v12.192a.183.183 0 0 1-.183.184H68.243c-.62 0-1.124-.503-1.125-1.123v-5.628c0-.101.082-.184.184-.184h2.327c.102 0 .184.083.184.184v2.101c0 .052.042.093.093.093h10.113a.093.093 0 0 0 .093-.093V8.075c0-.489.619-.887 1.363-.887.693 0 1.257.345 1.333.786v4.407c0 .05.042.092.093.092h1.823zm-9.852 21.354c.32 0 .624-.163.624-.521 0-.353-.304-.521-.624-.521h-.459v1.042h.459zm-.459-2.337v.795h.32c.249 0 .47-.116.47-.395 0-.284-.221-.4-.47-.4h-.32zm1.133.942c.32.095.63.437.63.869 0 .673-.57 1.031-1.177 1.031h-1.228v-3.358h1.073c.509 0 1.012.316 1.012.884 0 .222-.11.48-.31.574zm3.468 1.4c.581 0 1.179-.442 1.179-1.174 0-.726-.592-1.168-1.179-1.168-.591 0-1.177.437-1.177 1.168 0 .727.586 1.175 1.177 1.175zm0-2.93c.957 0 1.886.667 1.886 1.746 0 1.084-.93 1.753-1.886 1.753-.956 0-1.885-.669-1.885-1.753 0-1.079.929-1.747 1.885-1.747zm4.06 2.925c.32 0 .625-.163.625-.521 0-.353-.304-.521-.625-.521h-.458v1.042h.458zm-.458-2.337v.795h.32c.249 0 .47-.116.47-.395 0-.284-.221-.4-.47-.4h-.32zm1.133.942c.32.095.63.437.63.869 0 .673-.57 1.031-1.177 1.031h-1.228v-3.358h1.073c.508 0 1.012.316 1.012.884 0 .222-.111.48-.31.574zm8.539-1.458h.498l.315 3.358h-.675l-.127-1.379c-.017-.205-.039-.457-.045-.69h-.01a8.7 8.7 0 0 1-.349.706l-.74 1.385h-.271l-.753-1.385c-.11-.205-.237-.468-.342-.7h-.01c-.007.237-.028.495-.046.684l-.126 1.38h-.636l.304-3.359h.52l.856 1.569c.128.232.294.547.398.79h.012a10.1 10.1 0 0 1 .386-.79l.841-1.569zm3.662.88l.642-.88h.701l-1.332 1.832v1.527h-.68v-1.516l-1.332-1.843h.752l.646.88c.094.126.205.294.293.436h.011c.089-.142.21-.321.299-.436zm2.993 1.073v.852h1.454v.554h-2.145v-3.359h1.968v.553h-1.277v.842h1.062v.558h-1.062zm4.125.906c.58 0 1.178-.443 1.178-1.175 0-.726-.592-1.168-1.178-1.168-.591 0-1.178.437-1.178 1.168 0 .727.587 1.175 1.178 1.175zm0-2.932c.956 0 1.886.668 1.886 1.747 0 1.084-.93 1.753-1.886 1.753-.956 0-1.885-.669-1.885-1.753 0-1.079.929-1.747 1.885-1.747zm5.52 1.5v-1.427h.68v3.411h-.298l-1.52-1.579c-.25-.258-.52-.563-.741-.81l-.011.005c.01.273.01.542.01.773v1.558h-.68v-3.358h.537l1.36 1.416c.188.195.475.5.663.727l.011-.005c-.01-.233-.01-.485-.01-.711zm6.605 1.426c.32 0 .624-.163.624-.521 0-.353-.304-.521-.624-.521h-.459v1.042h.459zm-.459-2.337v.795h.32c.249 0 .47-.116.47-.395 0-.284-.221-.4-.47-.4h-.32zm1.133.942c.32.095.63.437.63.869 0 .673-.569 1.031-1.177 1.031h-1.228v-3.358h1.073c.509 0 1.012.316 1.012.884 0 .222-.11.48-.31.574zm2.804 1.395c.32 0 .625-.163.625-.521 0-.353-.304-.521-.625-.521h-.458v1.042h.458zm-.458-2.337v.795h.32c.249 0 .47-.116.47-.395 0-.284-.221-.4-.47-.4h-.32zm1.133.942c.32.095.63.437.63.869 0 .673-.57 1.031-1.177 1.031h-1.228v-3.358h1.073c.508 0 1.012.316 1.012.884 0 .222-.111.48-.31.574zm2.589.569h.851l-.293-.721a6.062 6.062 0 0 1-.127-.364h-.01c-.034.127-.09.263-.128.364l-.293.72zm.248-2.064h.393l1.444 3.396h-.697l-.338-.81h-1.244l-.337.81h-.669l1.448-3.396zm5.354 1.464v-1.427h.68v3.411h-.298l-1.521-1.579c-.249-.258-.52-.563-.74-.81l-.012.005c.011.273.011.542.011.773v1.558h-.68v-3.358h.537l1.36 1.416c.187.195.475.5.663.727l.011-.005c-.011-.233-.011-.485-.011-.711zm3.64.668v-.521h1.36v1.5c-.315.243-.746.353-1.3.353-.961 0-1.945-.605-1.945-1.747 0-1.159 1.011-1.753 1.918-1.753.487 0 .896.115 1.145.268l-.128.563a1.848 1.848 0 0 0-.94-.253c-.669 0-1.299.422-1.299 1.195 0 .748.603 1.17 1.283 1.17.265 0 .47-.048.614-.137v-.638h-.708zm24.565 5.965V2.52c0-1.08-.88-1.96-1.96-1.96H2.52C1.44.56.56 1.44.56 2.52v36.514c0 1.081.88 1.96 1.96 1.96h151.262c1.08 0 1.96-.879 1.96-1.96zM153.782 0c1.389 0 2.52 1.13 2.52 2.52v36.514c0 1.39-1.131 2.52-2.52 2.52H2.52c-1.39 0-2.52-1.13-2.52-2.52V2.52C0 1.13 1.13 0 2.52 0h151.262zM53.096 35.56V6.4h.28v29.16h-.28z"/>
</svg>
