<svg xmlns="http://www.w3.org/2000/svg" width="27" height="27" viewBox="0 0 27 27">
    <g fill="#FFF9ED" fill-rule="evenodd" opacity=".8">
        <path fill-rule="nonzero" d="M7.2 0H18c3.976 0 7.2 3.224 7.2 7.2V18c0 3.976-3.224 7.2-7.2 7.2H7.2C3.224 25.2 0 21.976 0 18V7.2C0 3.224 3.224 0 7.2 0zm0 .9C3.72.9.9 3.72.9 7.2V18c0 3.48 2.82 6.3 6.3 6.3H18c3.48 0 6.3-2.82 6.3-6.3V7.2c0-3.48-2.82-6.3-6.3-6.3H7.2z" opacity=".5" transform="translate(.9 .9)"/>
        <path d="M12.6 4.8c-4.416 0-7.997 3.581-7.997 7.998 0 3.533 2.291 6.53 5.47 7.588.4.073.545-.174.545-.386 0-.19-.007-.692-.01-1.36-2.225.483-2.694-1.072-2.694-1.072-.364-.924-.888-1.17-.888-1.17-.726-.496.055-.486.055-.486.802.057 1.225.824 1.225.824.713 1.223 1.87.87 2.327.665.073-.517.279-.87.508-1.07-1.776-.201-3.643-.887-3.643-3.952 0-.872.312-1.586.823-2.145-.082-.203-.357-1.016.078-2.116 0 0 .672-.216 2.2.82.637-.178 1.322-.267 2.001-.27.68.003 1.364.092 2.002.27 1.527-1.036 2.197-.82 2.197-.82.437 1.1.162 1.913.08 2.116.512.559.822 1.273.822 2.145 0 3.072-1.87 3.748-3.651 3.947.287.246.543.735.543 1.48 0 1.07-.01 1.932-.01 2.194 0 .214.144.463.55.385 3.174-1.06 5.464-4.055 5.464-7.587 0-4.417-3.58-7.997-7.997-7.997" transform="translate(.9 .9)"/>
    </g>
</svg>
