<svg xmlns="http://www.w3.org/2000/svg" xmlns:xlink="http://www.w3.org/1999/xlink" width="327" height="362" viewBox="0 0 327 362">
    <defs>
        <path id="b" d="M61 155v-3a4 4 0 0 1 4-4h195a4 4 0 0 1 4 4v73a4 4 0 0 1-4 4H65a4 4 0 0 1-4-4v-62.023l-6.153-4.343A2 2 0 0 1 56 155h5z"/>
        <filter id="a" width="103.3%" height="108.6%" x="-1.7%" y="-3.1%" filterUnits="objectBoundingBox">
            <feOffset dy="1" in="SourceAlpha" result="shadowOffsetOuter1"/>
            <feGaussianBlur in="shadowOffsetOuter1" result="shadowBlurOuter1" stdDeviation="1"/>
            <feColorMatrix in="shadowBlurOuter1" values="0 0 0 0 0.712921304 0 0 0 0 0.756056398 0 0 0 0 0.81213202 0 0 0 1 0"/>
        </filter>
        <path id="c" d="M27 46c7.91 0 19-11.09 19-19S34.91 8 27 8 8 19.09 8 27s11.09 19 19 19z"/>
        <path id="f" d="M241 8h5.449a2 2 0 0 1 1.153 3.634L241 16.294V77a4 4 0 0 1-4 4H50a4 4 0 0 1-4-4V4a4 4 0 0 1 4-4h187a4 4 0 0 1 4 4v4z"/>
        <filter id="e" width="103.5%" height="108.6%" x="-1.7%" y="-3.1%" filterUnits="objectBoundingBox">
            <feOffset dy="1" in="SourceAlpha" result="shadowOffsetOuter1"/>
            <feGaussianBlur in="shadowOffsetOuter1" result="shadowBlurOuter1" stdDeviation="1"/>
            <feColorMatrix in="shadowBlurOuter1" values="0 0 0 0 0.712921304 0 0 0 0 0.756056398 0 0 0 0 0.81213202 0 0 0 1 0"/>
        </filter>
        <path id="h" d="M251 8h5.449a2 2 0 0 1 1.153 3.634L251 16.294V96a4 4 0 0 1-4 4H50a4 4 0 0 1-4-4V4a4 4 0 0 1 4-4h197a4 4 0 0 1 4 4v4z"/>
        <filter id="g" width="103.3%" height="107%" x="-1.6%" y="-2.5%" filterUnits="objectBoundingBox">
            <feOffset dy="1" in="SourceAlpha" result="shadowOffsetOuter1"/>
            <feGaussianBlur in="shadowOffsetOuter1" result="shadowBlurOuter1" stdDeviation="1"/>
            <feColorMatrix in="shadowBlurOuter1" values="0 0 0 0 0.712921304 0 0 0 0 0.756056398 0 0 0 0 0.81213202 0 0 0 1 0"/>
        </filter>
    </defs>
    <g fill="none" fill-rule="evenodd">
        <g>
            <use fill="#000" filter="url(#a)" xlink:href="#b"/>
            <use fill="#FFF9ED" xlink:href="#b"/>
        </g>
        <path d="M0 0h327v362H0z"/>
        <path fill="#1C2633" fill-rule="nonzero" d="M77.95 167.993c0 1.144.858 1.95 2.002 1.95 1.144 0 2.002-.806 2.002-1.95s-.858-1.95-2.002-1.95c-1.144 0-2.002.806-2.002 1.95zm5.044 0c0 1.69-1.3 2.873-3.042 2.873-1.742 0-3.042-1.183-3.042-2.873 0-1.69 1.3-2.873 3.042-2.873 1.742 0 3.042 1.183 3.042 2.873zm-3.445 4.017v2.821h6.708v.871h-7.774v-3.692h1.066zm6.188-4.16h1.729v.884h-1.729v4.147h-1.066v-8.58h1.066v3.549zm11.14 3.614v-2.899h-3.276v-.832h3.276v-1.222h-3.276v-.832h3.276v-1.378h1.079v7.163h-1.079zm-1.859-2.106l.13.871c-1.664.338-3.12.429-5.213.429h-.884v-5.655h1.053v4.771c1.963 0 3.354-.091 4.914-.416zm-.91 5.759c1.755 0 2.821-.507 2.821-1.352 0-.858-1.066-1.365-2.821-1.365-1.755 0-2.821.507-2.821 1.365 0 .845 1.066 1.352 2.821 1.352zm0-3.549c2.392 0 3.887.793 3.887 2.197 0 1.391-1.495 2.197-3.887 2.197s-3.887-.806-3.887-2.197c0-1.404 1.495-2.197 3.887-2.197zm9.32.91c1.066 0 1.833-.754 1.833-1.794 0-1.053-.767-1.807-1.833-1.807-1.053 0-1.82.754-1.82 1.807 0 1.04.767 1.794 1.82 1.794zm0-4.485c1.664 0 2.847 1.118 2.847 2.691 0 1.586-1.183 2.678-2.847 2.678-1.638 0-2.821-1.092-2.821-2.678 0-1.573 1.183-2.691 2.821-2.691zm.52-3.549v1.729h2.873v.858h-6.877v-.858h2.938v-1.729h1.066zm6.955 4.654v.897h-1.911v5.967h-1.066v-11.648h1.066v4.784h1.911zm4.224-3.692v2.184c0 1.872.871 3.848 2.405 4.784l-.611.832c-1.105-.676-1.885-1.911-2.301-3.328-.416 1.547-1.261 2.873-2.418 3.588l-.663-.806c1.599-.936 2.561-3.029 2.561-5.031v-2.223h1.027zm3.068 3.081v-3.926h1.001v10.829h-1.001v-6.019h-1.924v-.884h1.924zm2.366-4.186h1.014v11.661h-1.014v-11.661zm6.421 6.539v2.743h3.25v-2.743a7.181 7.181 0 0 1-1.638.182 6.951 6.951 0 0 1-1.612-.182zm1.612-4.966c-1.872 0-3.211.858-3.211 2.158 0 1.3 1.339 2.158 3.211 2.158 1.872 0 3.224-.858 3.224-2.158 0-1.3-1.352-2.158-3.224-2.158zm2.704 7.709h2.613v.884h-10.595v-.884h2.6v-3.146c-.975-.507-1.56-1.352-1.56-2.405 0-1.82 1.768-2.99 4.238-2.99 2.483 0 4.238 1.17 4.238 2.99 0 1.053-.572 1.885-1.534 2.392v3.159zm4.692-1.456l-.156-5.512-.039-1.352h1.209l-.039 1.352-.156 5.512h-.819zm.403 3.042c-.468 0-.858-.364-.858-.897s.39-.923.858-.923c.481 0 .858.39.858.923s-.377.897-.858.897zm11.138-8.632v1.053c0 2.028.871 4.056 2.483 4.966l-.65.78c-1.131-.676-1.937-1.924-2.34-3.406-.403 1.599-1.248 2.964-2.405 3.692l-.65-.793c1.625-.975 2.535-3.094 2.535-5.239v-1.053h-2.21v-.871h5.317v.871h-2.08zm3.12 1.95v-3.926h1.014v10.79h-1.014v-5.993h-1.924v-.871h1.924zm2.34-4.199h1.027v11.661h-1.027v-11.661zm11.257.013h1.066v11.687h-1.066v-11.687zm-5.083.897c1.729 0 2.964 1.586 2.964 4.069 0 2.483-1.235 4.069-2.964 4.069-1.729 0-2.964-1.586-2.964-4.069 0-2.483 1.235-4.069 2.964-4.069zm0 .962c-1.144 0-1.95 1.222-1.95 3.107 0 1.898.806 3.12 1.95 3.12 1.131 0 1.937-1.222 1.937-3.12 0-1.885-.806-3.107-1.937-3.107zm18.16 2.353l-.416.845c-1.755-.325-3.471-1.326-4.199-2.704-.715 1.391-2.431 2.379-4.212 2.704l-.429-.845c2.067-.325 4.095-1.729 4.095-3.315v-.572h1.092v.572c0 1.56 2.054 2.99 4.069 3.315zm-7.475 3.848v2.47h6.968v.871h-8.034v-3.341h1.066zm-2.431-1.989h10.556v.858h-10.556v-.858zm18.901-1.768l.143.884c-1.937.39-3.692.533-5.707.533h-.949v-5.044h1.066v4.147c1.911 0 3.614-.143 5.447-.52zm-4.173 3.705v2.626h5.46v-2.626h-5.46zm-1.04 3.484v-4.329h7.54v4.329h-7.54zm6.474-11.505h1.066v6.617h-1.066v-6.617zm4.172 7.839l-.156-5.512-.039-1.352h1.209l-.039 1.352-.156 5.512h-.819zm.403 3.042c-.468 0-.858-.364-.858-.897s.39-.923.858-.923c.481 0 .858.39.858.923s-.377.897-.858.897zm-112.36 16.218c1.118 0 1.911-1.222 1.911-3.12 0-1.885-.793-3.107-1.911-3.107-1.131 0-1.924 1.222-1.924 3.107 0 1.898.793 3.12 1.924 3.12zm0-7.189c1.716 0 2.925 1.586 2.925 4.069 0 2.483-1.209 4.069-2.925 4.069-1.716 0-2.938-1.586-2.938-4.069 0-2.483 1.222-4.069 2.938-4.069zm7.787 3.757v.897h-1.924v6.11h-1.066v-11.648h1.066v4.641h1.924zm2.183.715v2.613c1.326-.013 2.548-.065 4.03-.325l.078.884c-1.612.273-2.925.325-4.368.325h-.767v-4.368h3.302v-2.353H88.7v-.871h4.381v4.095h-3.315zm7.462-5.369h1.027v11.648h-1.027v-6.175h-1.651v5.59h-1.001v-10.803h1.001v4.342h1.651v-4.602zm11.62 3.029h2.301v-3.016h1.079v6.942h-1.079v-3.055h-2.301v-.871zm.65 2.652l-.533.832a4.79 4.79 0 0 1-2.808-2.626 5.047 5.047 0 0 1-2.938 2.964l-.559-.845c1.742-.637 2.938-2.21 2.938-3.887v-.403h-2.6v-.858h6.227v.858h-2.561v.403c0 1.495 1.144 2.964 2.834 3.562zm-1.118 5.148c1.755 0 2.821-.494 2.821-1.339s-1.066-1.352-2.821-1.352c-1.755 0-2.821.507-2.821 1.352 0 .845 1.066 1.339 2.821 1.339zm0-3.51c2.392 0 3.874.793 3.874 2.171 0 1.378-1.482 2.171-3.874 2.171-2.392 0-3.887-.793-3.887-2.171 0-1.378 1.495-2.171 3.887-2.171zm8.202-3.536v2.145h5.954v-2.145h-5.954zm3.51 5.512h4.758v.871h-10.569v-.871h4.732v-2.509h-3.484v-5.954h1.053v2.08h5.954v-2.08h1.04v5.954h-3.484v2.509zm15.144-6.227v.858h-7.891v-3.536h7.774v.858h-6.708v1.82h6.825zm-6.955 6.422v1.196h7.202v.832h-8.242v-2.821h6.838v-1.118h-6.877v-.832h7.93v2.743h-6.851zm-2.34-4.628h10.556v.871h-10.556v-.871zm16.925-3.861c-1.911 0-3.003.442-3.003 1.222s1.092 1.222 3.003 1.222 3.003-.442 3.003-1.222-1.092-1.222-3.003-1.222zm0 3.237c-2.561 0-4.095-.702-4.095-2.015 0-1.313 1.534-2.028 4.095-2.028s4.095.715 4.095 2.028c0 1.313-1.534 2.015-4.095 2.015zm-2.925 5.278V194h7.202v.832h-8.242v-2.795h6.838v-1.04h-6.877v-.806h7.93v2.626h-6.851zm-2.353-4.485h10.556v.858h-10.556v-.858zm19.095.546v-3.705h-3.224v3.705h3.224zm1.04-1.456v2.314h-5.317v-5.408h5.317v2.223h2.678v-3.237h1.079v8.502h-1.079v-4.394h-2.678zm-2.626 6.409h6.708v.871h-7.787v-3.666h1.079v2.795zm12.466-8.463v1.352c0 1.937 1.365 4.056 3.055 4.862l-.637.832c-1.3-.663-2.418-2.054-2.951-3.666-.507 1.716-1.638 3.211-2.964 3.913l-.624-.845c1.664-.819 3.055-3.029 3.055-5.096v-1.352h-2.639v-.871h6.357v.871h-2.652zm4.511-2.067h1.066v11.674h-1.066v-6.565h-2.522v-.871h2.522v-4.238zm12.504 5.707l-.546.832c-1.3-.455-2.301-1.404-2.808-2.6-.494 1.3-1.547 2.327-2.912 2.834l-.559-.845c1.755-.611 2.925-2.119 2.925-3.783v-.468h-2.613v-.858h6.253v.858h-2.574v.455c0 1.547 1.118 2.99 2.834 3.575zm-5.317 2.808v-.858h7.592v4.017h-1.066v-3.159h-6.526zm9.321-5.447v.884h-1.729v3.081h-1.066v-7.02h1.066v3.055h1.729zm9.411 3.835v-3.549h-2.535v-.871h2.535v-2.47h1.079v6.89h-1.079zm-1.69-1.378l-.572.832c-1.274-.481-2.262-1.404-2.769-2.613-.494 1.378-1.547 2.431-2.951 2.964l-.559-.871c1.794-.637 2.951-2.197 2.951-3.978v-1.196h1.066v1.157c0 1.664 1.131 3.107 2.834 3.705zm-1.079 5.278c1.755 0 2.821-.507 2.821-1.352 0-.858-1.066-1.365-2.821-1.365-1.755 0-2.821.507-2.821 1.365 0 .845 1.066 1.352 2.821 1.352zm0-3.549c2.392 0 3.874.793 3.874 2.197 0 1.391-1.482 2.197-3.874 2.197-2.392 0-3.887-.806-3.887-2.197 0-1.404 1.495-2.197 3.887-2.197zm8.787.819c.897 0 1.547-.741 1.547-1.781 0-1.014-.65-1.755-1.547-1.755-.91 0-1.547.741-1.547 1.755 0 1.04.637 1.781 1.547 1.781zm0-4.433c1.443 0 2.496 1.092 2.496 2.652 0 1.586-1.053 2.665-2.496 2.665s-2.496-1.079-2.496-2.665c0-1.56 1.053-2.652 2.496-2.652zm.52-3.302v1.651h2.366v.871h-5.785v-.871h2.366v-1.651h1.053zm5.447-.351h1.027v11.661h-1.027v-5.863h-1.495v5.304h-1.001v-10.829h1.001v4.654h1.495v-4.927zm3.847 5.681l-.403-.845c2.028-.299 4.043-1.638 4.043-3.172v-.065h-3.679v-.858h8.515v.858h-3.653v.065c0 1.534 2.015 2.873 4.069 3.172l-.416.845c-1.807-.312-3.536-1.287-4.238-2.665-.715 1.378-2.431 2.353-4.238 2.665zm9.503.975l.013.871h-4.771v4.147h-1.066v-4.147h-4.706v-.871h10.53zm4.575-5.538v2.184c0 1.872.871 3.848 2.405 4.784l-.611.832c-1.105-.676-1.885-1.911-2.301-3.328-.416 1.547-1.261 2.873-2.418 3.588l-.663-.806c1.599-.936 2.561-3.029 2.561-5.031v-2.223h1.027zm3.068 3.081v-3.926h1.001v10.829h-1.001v-6.019h-1.924v-.884h1.924zm2.366-4.186h1.014v11.661h-1.014v-11.661zm6.421 6.539v2.743h3.25v-2.743a7.181 7.181 0 0 1-1.638.182 6.951 6.951 0 0 1-1.612-.182zm1.612-4.966c-1.872 0-3.211.858-3.211 2.158 0 1.3 1.339 2.158 3.211 2.158 1.872 0 3.224-.858 3.224-2.158 0-1.3-1.352-2.158-3.224-2.158zm2.704 7.709h2.613v.884h-10.595v-.884h2.6v-3.146c-.975-.507-1.56-1.352-1.56-2.405 0-1.82 1.768-2.99 4.238-2.99 2.483 0 4.238 1.17 4.238 2.99 0 1.053-.572 1.885-1.534 2.392v3.159zm4.692-1.456l-.156-5.512-.039-1.352h1.209l-.039 1.352-.156 5.512h-.819zm.403 3.042c-.468 0-.858-.364-.858-.897s.39-.923.858-.923c.481 0 .858.39.858.923s-.377.897-.858.897zm-168.658 9.562c-1.144 0-1.95.611-1.95 1.521 0 .91.806 1.521 1.95 1.521 1.131 0 1.937-.611 1.937-1.521 0-.91-.806-1.521-1.937-1.521zm0 3.913c-1.742 0-2.977-.975-2.977-2.392 0-1.43 1.235-2.405 2.977-2.405 1.729 0 2.964.975 2.964 2.405 0 1.417-1.235 2.392-2.964 2.392zm3.835.572l.091.793a29.232 29.232 0 0 1-3.341.39v4.199H80.03v-4.134a71.982 71.982 0 0 1-3.224.065l-.143-.897c2.171 0 5.122-.026 7.683-.416zm.845-5.902h1.066v11.661h-1.066v-11.661zm7.448 2.86v.897c0 1.95 1.326 3.848 3.068 4.602l-.598.832c-1.339-.611-2.444-1.872-2.977-3.406-.52 1.625-1.625 2.951-2.964 3.601l-.598-.806c1.729-.819 3.016-2.782 3.016-4.823v-.897h-2.704v-.858h2.691v-1.807h1.079v1.807h2.652v.858h-2.665zm4.186-2.886h1.079v11.661h-1.079v-11.661zm5.25 13.039l3.9-12.636h.858l-3.887 12.636h-.871zm8.578-11.778h5.33c0 3.315-1.521 6.318-5.291 8.203l-.585-.832c2.977-1.495 4.576-3.731 4.823-6.487h-4.277v-.884zm10.218 3.484v.884h-1.872v6.045h-1.066v-11.661h1.066v4.732h1.872zm2.625 3.601v-.858h7.8v4.16h-1.079v-3.302h-6.721zm6.721-8.333h1.079v6.955h-1.079v-1.534h-3.016v-.871h3.016v-1.599h-2.847c-.78 1.833-2.587 3.159-5.083 3.861l-.429-.858c2.821-.767 4.589-2.314 4.797-4.303h-4.186v-.871h5.33c0 .442-.052.884-.156 1.3h2.574v-2.08zm4.601 2.288v5.616c1.56-.013 2.665-.078 3.939-.351l.091.884c-1.391.299-2.574.351-4.316.351h-.767v-7.371h4.342v.871h-3.289zm7.41-2.288h1.027v11.661h-1.027v-6.11h-1.651v5.525h-1.001v-10.816h1.001v4.42h1.651v-4.68zm4.847 13.026l3.9-12.636h.858l-3.887 12.636h-.871zm8.929-8.307l-.39-.845c2.054-.208 3.913-1.196 4.004-2.483h-3.614v-.858h8.619v.858h-3.627c.091 1.287 1.963 2.275 4.004 2.483l-.377.845c-1.924-.221-3.666-1.066-4.316-2.34-.65 1.274-2.392 2.119-4.303 2.34zm4.29 6.11c1.833 0 2.912-.429 2.912-1.196 0-.754-1.079-1.183-2.912-1.183-1.846 0-2.912.429-2.912 1.183 0 .767 1.066 1.196 2.912 1.196zm0-3.198c2.496 0 3.991.715 3.991 2.002 0 1.3-1.495 2.015-3.991 2.015s-3.991-.715-3.991-2.015c0-1.287 1.495-2.002 3.991-2.002zm.533-1.82h4.745v.858h-10.543v-.858h4.732v-1.677h1.066v1.677zm14.078-3.159v-1.339h-6.968v-.858h8.047v3.003h-6.942v1.43h7.202v.858h-8.268v-3.094h6.929zm2.353 4.303v.858h-2.756v3.861h-1.066v-3.861h-2.938v3.861h-1.066v-3.861h-2.756v-.858h10.582zm3.157 6.071l3.9-12.636h.858l-3.887 12.636h-.871zm17.262-8.801v.832h-7.93v-4.745h7.865v.832h-6.799v1.105h6.487v.806h-6.487v1.17h6.864zm-8.138 4.771v-.845h8.008v3.523h-1.066v-2.678h-6.942zm-1.183-2.834h10.556v.858h-10.556v-.858zm20.149-6.162h1.066v11.687h-1.066v-11.687zm-5.083.897c1.729 0 2.964 1.586 2.964 4.069 0 2.483-1.235 4.069-2.964 4.069-1.729 0-2.964-1.586-2.964-4.069 0-2.483 1.235-4.069 2.964-4.069zm0 .962c-1.144 0-1.95 1.222-1.95 3.107 0 1.898.806 3.12 1.95 3.12 1.131 0 1.937-1.222 1.937-3.12 0-1.885-.806-3.107-1.937-3.107zm12.18-.845v2.093c0 2.054 1.326 4.173 2.964 4.992l-.663.845c-1.235-.663-2.288-2.028-2.821-3.627-.507 1.703-1.586 3.159-2.899 3.861l-.637-.858c1.677-.858 3.003-3.094 3.003-5.213v-2.093h1.053zm6.981 3.718v.884h-1.924v6.045h-1.066v-11.648h1.066v4.719h1.924zm7.682-3.419v.858h-6.877v-.858h2.899v-1.417h1.066v1.417h2.912zm-5.213 3.497c0 .767.715 1.261 1.768 1.261 1.066 0 1.781-.494 1.781-1.261 0-.754-.715-1.248-1.781-1.248-1.053 0-1.768.494-1.768 1.248zm4.563 0c0 1.261-1.131 2.067-2.795 2.067s-2.782-.806-2.782-2.067c0-1.248 1.118-2.054 2.782-2.054s2.795.806 2.795 2.054zm-.871 6.019c1.703 0 2.743-.442 2.743-1.196s-1.04-1.196-2.743-1.196c-1.703 0-2.743.442-2.743 1.196s1.04 1.196 2.743 1.196zm0-3.211c2.34 0 3.796.728 3.796 2.015 0 1.274-1.456 2.015-3.796 2.015-2.353 0-3.796-.741-3.796-2.015 0-1.287 1.443-2.015 3.796-2.015zm3.653-4.381h1.729v.884h-1.729v3.38h-1.066v-7.501h1.066v3.237z" opacity=".9"/>
        <path fill="#FFF9ED" d="M14.435 155.305c5.593 5.594 21.277 5.594 26.87 0 5.594-5.593 5.594-21.277 0-26.87-5.593-5.593-21.277-5.593-26.87 0s-5.593 21.277 0 26.87z"/>
        <g transform="translate(.87 114.87)">
            <mask id="d" fill="#fff">
                <use xlink:href="#c"/>
            </mask>
            <use fill="#FFF9ED" transform="rotate(45 27 27)" xlink:href="#c"/>
            <g mask="url(#d)">
                <path fill="#1C2633" d="M33.416 24.867v.627c0 .237.163.33.422.33s.422-.093.422-.33v-.627a.034.034 0 0 0-.033-.035h-.778a.034.034 0 0 0-.033.035zm.422 1.552c-.682 0-1.285-.251-1.285-.925v-2.468c0-.163.19-.294.425-.297h.015c.231.002.418.13.423.29v1.184c0 .019.015.035.033.035h.778a.034.034 0 0 0 .033-.035v-1.177c0-.163.19-.294.425-.297h.015c.231.002.418.13.423.29v2.475c0 .674-.603.925-1.285.925zm2.547-1.552v.627c0 .237.164.33.422.33.26 0 .422-.093.422-.33v-.627a.034.034 0 0 0-.033-.035h-.777a.034.034 0 0 0-.034.035zm.422 1.552c-.682 0-1.285-.251-1.285-.925v-2.469c0-.162.19-.293.424-.296h.015c.235.003.424.134.424.297v1.177c0 .019.015.035.034.035h.777a.034.034 0 0 0 .033-.035v-1.177c0-.163.19-.294.425-.297h.014c.235.003.424.134.424.297v2.468c0 .674-.602.925-1.285.925zm3.553-2.107a.31.31 0 0 1 .296.262c.029.186-.108.36-.281.36h-.656a.034.034 0 0 0-.034.035v1.516c0 .038-.03.069-.066.069h-.817a.067.067 0 0 1-.066-.069v-3.779l.001-.01c0-.179.213-.325.475-.325.258 0 .467.142.473.318v1.589c0 .019.015.034.034.034h.64zm-3.753 4.735c1.264 0 2.03-.308 2.03-.795 0-.505-.766-.813-2.03-.813-1.255 0-2 .317-2 .813 0 .487.745.795 2 .795zm0-2.252c1.963 0 3.066.597 3.066 1.456 0 .843-1.103 1.432-3.066 1.432-1.943 0-3.046-.589-3.046-1.432 0-.859 1.103-1.456 3.046-1.456zm-7.192-4.424c.258 0 .467.142.473.318v6.638c0 .038-.03.068-.065.068h-5.336a.405.405 0 0 1-.396-.413v-1.653c0-.038.03-.069.066-.07l.818.002c.036 0 .065.03.065.068v1.299a.17.17 0 0 0 .166.173h3.668c.036 0 .065-.03.065-.068v-2.939a.033.033 0 0 0-.032-.034h-.658c-.156 0-.284-.14-.284-.304a.32.32 0 0 1 .3-.303h.642a.033.033 0 0 0 .032-.034v-.8a.033.033 0 0 0-.032-.035h-.658c-.157 0-.284-.14-.284-.304 0-.164.158-.304.3-.304h.642a.033.033 0 0 0 .032-.034v-.936l.001-.01c0-.179.213-.325.475-.325zm-2.327 4.218h-3.55a.404.404 0 0 1-.396-.408v-2.778l.001-.008c0-.18.213-.326.475-.326.258 0 .468.142.473.318v2.437a.17.17 0 0 0 .166.171h1.882c.036 0 .065-.03.065-.068V23.84l-.001-.004a.17.17 0 0 0-.166-.173h-1.325c-.136 0-.252-.134-.252-.298 0-.162.106-.296.25-.296h2.145c.227 0 .296.177.297.413l.001.004v3.035c0 .038-.03.068-.065.068zM14.24 25.35c0 .248.15.33.38.33h1.98c.036 0 .065-.03.065-.068v-.745a.033.033 0 0 0-.033-.034h-2.36a.033.033 0 0 0-.032.034v.482zm3.31.933h-3.196c-.735 0-1.063-.327-1.063-.992v-2.236c0-.18.212-.325.474-.325s.475.145.475.325v1.15c0 .018.014.034.032.034h2.36a.033.033 0 0 0 .033-.034v-1.15c0-.18.212-.325.474-.325s.475.145.475.325v3.161a.066.066 0 0 1-.065.067zm1.229 2.557v-.419a.033.033 0 0 0-.033-.034h-3.56a.033.033 0 0 0-.032.034v.314a.17.17 0 0 0 .165.173h3.395c.036 0 .065-.03.065-.068zm1.623-4.526a.31.31 0 0 1 .296.26c.03.187-.108.362-.28.362h-.658a.034.034 0 0 0-.032.034v4.48a.066.066 0 0 1-.065.066h-5.062a.405.405 0 0 1-.396-.412v-2.067c0-.038.029-.068.065-.068h.819c.036 0 .065.03.065.068v.771c0 .019.014.034.032.034h3.56a.033.033 0 0 0 .033-.034v-5.11c0-.18.218-.326.48-.326.243 0 .442.127.469.29v1.618c0 .019.015.034.032.034h.642zm-3.398 7.98c.134 0 .26-.06.26-.192 0-.13-.126-.191-.26-.191h-.19v.383h.19zm-.19-.859v.292h.133c.103 0 .195-.042.195-.145 0-.104-.092-.147-.195-.147h-.133zm.47.346c.134.035.263.16.263.32 0 .247-.237.378-.49.378h-.51v-1.233h.446c.211 0 .42.116.42.324 0 .082-.045.176-.128.211zm1.108.515a.42.42 0 0 0 .415-.432.415.415 0 0 0-.83 0c0 .267.207.432.415.432zm0-1.077c.337 0 .664.245.664.642 0 .398-.327.644-.664.644-.336 0-.663-.246-.663-.644 0-.397.327-.642.663-.642zm1.5 1.075c.133 0 .26-.06.26-.192 0-.13-.127-.191-.26-.191h-.19v.383h.19zm-.19-.859v.292h.132c.104 0 .196-.042.196-.145 0-.104-.092-.147-.196-.147h-.133zm.47.346c.133.035.262.16.262.32 0 .247-.237.378-.49.378h-.51v-1.233h.446c.212 0 .421.116.421.324 0 .082-.046.176-.129.211zm2.893-.535h.175l.11 1.233h-.236l-.045-.506c-.006-.076-.014-.168-.016-.254h-.004a3.255 3.255 0 0 1-.122.26l-.261.508h-.095l-.265-.508a4.707 4.707 0 0 1-.12-.258h-.005a4.04 4.04 0 0 1-.015.252l-.045.506h-.224l.107-1.233h.183l.302.576c.045.085.103.201.14.29h.004c.035-.087.09-.2.136-.29l.296-.576zm1.289.323l.226-.323h.247l-.47.673v.56h-.238v-.556l-.47-.677h.265l.228.323c.033.046.072.108.103.16h.004c.031-.052.074-.118.105-.16zm1.054.394v.313h.511v.203h-.755v-1.233h.693v.203h-.45v.31h.374v.204h-.373zm1.452.333a.42.42 0 0 0 .414-.432.415.415 0 0 0-.83 0c.001.267.207.432.416.432zm0-1.077c.336 0 .663.245.663.642 0 .398-.327.644-.663.644-.337 0-.664-.246-.664-.644 0-.397.327-.642.664-.642zm1.943.55v-.523h.239v1.253h-.105l-.535-.58c-.088-.095-.183-.207-.26-.298l-.005.002c.004.1.004.199.004.284v.572h-.24v-1.233h.19l.478.52c.066.071.167.184.234.267l.004-.002c-.004-.086-.004-.178-.004-.261zm2.395.525c.133 0 .26-.06.26-.192 0-.13-.127-.191-.26-.191h-.19v.383h.19zm-.19-.859v.292h.132c.104 0 .196-.042.196-.145 0-.104-.092-.147-.196-.147h-.133zm.47.346c.133.035.262.16.262.32 0 .247-.237.378-.49.378h-.51v-1.233h.446c.212 0 .421.116.421.324 0 .082-.046.176-.129.211zm.944.513c.133 0 .26-.06.26-.192 0-.13-.127-.191-.26-.191h-.19v.383h.19zm-.19-.859v.292h.133c.103 0 .195-.042.195-.145 0-.104-.092-.147-.195-.147h-.133zm.47.346c.134.035.263.16.263.32 0 .247-.237.378-.49.378h-.51v-1.233h.446c.211 0 .42.116.42.324 0 .082-.046.176-.128.211zm.799.21h.3l-.104-.266a2.293 2.293 0 0 1-.044-.133h-.004c-.012.046-.031.096-.045.133l-.103.265zm.087-.759h.139l.508 1.247h-.246l-.118-.297h-.438l-.119.297h-.235l.51-1.247zm1.885.538v-.524h.24v1.253h-.106l-.535-.58c-.088-.095-.183-.207-.26-.298l-.005.002c.004.1.004.199.004.284v.572h-.24v-1.233h.19l.478.52c.066.071.168.184.234.267l.004-.002c-.004-.086-.004-.178-.004-.261zm1.281.245v-.191h.479v.55c-.111.09-.263.13-.458.13-.338 0-.684-.222-.684-.641 0-.426.356-.644.675-.644.171 0 .315.042.403.098l-.045.207a.63.63 0 0 0-.331-.093c-.235 0-.457.155-.457.44 0 .274.212.429.451.429a.397.397 0 0 0 .216-.05v-.235h-.249z"/>
            </g>
        </g>
        <path fill="#1C2633" fill-rule="nonzero" d="M61.95 131.91v-2.044h-3.556v2.044h3.556zm1.12-4.802v5.712h-5.81v-5.712h1.134v1.862h3.556v-1.862h1.12zm2.282 10.836v-1.582H59.71v1.582h5.642zm0-2.492v-1.484h1.134v4.9h-7.91v-4.9h1.134v1.484h5.642zm2.996-6.09v.966h-1.862v3.052h-1.148v-6.902h1.148v2.884h1.862zm6.154 3.164v-4.032H71.03v4.032h3.472zm4.004-2.898h-2.884v1.75h2.884v-1.75zm-2.884 2.688v1.12h-5.726v-5.852h5.726v1.106h2.884v-2.198h1.162v9.156h-1.162v-3.332h-2.884zm-2.884 5.502h7.224v.938H71.59v-3.92h1.148v2.982zm16.024-5.572v-2.002h-1.414v2.002h1.414zm.98-4.844v5.768h-3.36v-5.768h.966v1.946h1.414v-1.946h.98zm-5.096 4.844v-2.002h-1.442v2.002h1.442zm.952-4.844v5.768h-3.36v-5.768h.966v1.946h1.442v-1.946h.952zm2.268 10.724c1.904 0 3.052-.532 3.052-1.414 0-.882-1.148-1.4-3.052-1.4-1.904 0-3.066.518-3.066 1.4 0 .882 1.162 1.414 3.066 1.414zm0-3.71c2.604 0 4.2.84 4.2 2.296 0 1.47-1.596 2.31-4.2 2.31-2.618 0-4.214-.84-4.214-2.31 0-1.456 1.596-2.296 4.214-2.296zm4.102-4.704h1.554v.952h-1.554v3.514h-1.12v-7.686h1.12v3.22z"/>
        <path fill="#1C2633" fill-rule="nonzero" d="M270.321 219.181c0 1.133 1.155 1.87 2.728 1.87 1.573 0 2.717-.737 2.717-1.87s-1.144-1.87-2.717-1.87c-1.573 0-2.728.737-2.728 1.87zm3.179 4.62h4.037v.748h-8.965v-.748h4.015v-2.057c-1.837-.132-3.135-1.111-3.135-2.563 0-1.573 1.507-2.585 3.597-2.585 2.079 0 3.575 1.012 3.575 2.585 0 1.452-1.287 2.431-3.124 2.563v2.057zm13.296-6.721v.726h-7.931v-.726h3.542v-1.188h.913v1.188h3.476zm-1.672 2.937c0-.605-.814-.957-2.255-.957-1.441 0-2.277.352-2.277.957s.836.957 2.277.957c1.441 0 2.255-.352 2.255-.957zm-5.467 0c0-1.056 1.199-1.65 3.212-1.65 1.991 0 3.19.594 3.19 1.65s-1.199 1.639-3.19 1.639c-2.013 0-3.212-.583-3.212-1.639zm7.689 2.332v.737h-4.026v2.739h-.913v-2.739h-4.004v-.737h8.943zm3.426 2.651v-.836h1.793v-6.017h-1.43v-.638c.715-.132 1.232-.319 1.672-.572h.77v7.227h1.617V225h-4.422zm5.321 0v-.594c2.53-2.211 3.696-3.817 3.696-5.203 0-.924-.484-1.595-1.485-1.595-.66 0-1.232.407-1.672.935l-.583-.572c.66-.715 1.353-1.188 2.376-1.188 1.441 0 2.343.946 2.343 2.387 0 1.606-1.265 3.245-3.157 5.038.418-.033.913-.077 1.32-.077h2.233V225h-5.071zm6.85-4.29c-.396 0-.726-.319-.726-.759 0-.462.33-.781.726-.781.396 0 .726.319.726.781 0 .44-.33.759-.726.759zm0 4.433c-.396 0-.726-.308-.726-.759s.33-.781.726-.781c.396 0 .726.33.726.781s-.33.759-.726.759zm2.494-3.168h2.464V219.5c0-.396.044-1.045.066-1.463h-.044c-.198.396-.418.792-.649 1.188l-1.837 2.75zm4.488 0v.803h-1.067V225h-.957v-2.222h-3.509v-.66l3.355-5.181h1.111v5.038h1.067zm2.923 3.168c-1.254 0-2.024-.528-2.563-1.067l.495-.66c.462.462 1.045.891 1.98.891.946 0 1.716-.726 1.716-1.903 0-1.155-.66-1.837-1.672-1.837-.539 0-.88.165-1.342.473l-.539-.33.253-3.773h3.927v.858h-3.047l-.198 2.332a2.315 2.315 0 0 1 1.199-.319c1.342 0 2.431.792 2.431 2.563 0 1.771-1.276 2.772-2.64 2.772z" opacity=".7"/>
        <g>
            <g transform="translate(69 13)">
                <use fill="#000" filter="url(#e)" xlink:href="#f"/>
                <use fill="#D77628" xlink:href="#f"/>
            </g>
            <path fill="#FFF" fill-rule="nonzero" stroke="#FFF" stroke-width=".1" d="M133.719 31.368v1.352c0 1.937 1.365 4.056 3.055 4.862l-.637.832c-1.3-.663-2.418-2.054-2.951-3.666-.507 1.716-1.638 3.211-2.964 3.913l-.624-.845c1.664-.819 3.055-3.029 3.055-5.096v-1.352h-2.639v-.871h6.357v.871h-2.652zm4.511-2.067h1.066v11.674h-1.066V34.41h-2.522v-.871h2.522v-4.238zm7.369 1.417v6.292a20.272 20.272 0 0 0 3.744-.364l.104.923c-1.573.299-2.912.364-4.173.364h-.741v-7.215h1.066zm7.228-1.417h1.027v11.648h-1.027V34.93h-1.651v5.434h-1.001V29.561h1.001v4.485h1.651v-4.745zm12.362 0v5.98h-1.066v-5.98h1.066zm-8.268 3.016c0 1.001.845 1.716 1.976 1.716 1.144 0 1.976-.715 1.976-1.716 0-1.014-.832-1.729-1.976-1.729-1.131 0-1.976.715-1.976 1.729zm4.992 0c0 1.534-1.274 2.574-3.016 2.574s-3.003-1.04-3.003-2.574c0-1.547 1.261-2.6 3.003-2.6 1.742 0 3.016 1.053 3.016 2.6zm-3.198 7.644h6.864v.845h-7.917v-2.925h6.474v-1.183h-6.5v-.845h7.553v2.821h-6.474v1.287zm17.067-4.368h2.652v-2.808h-2.691c.104.455.169.949.169 1.482 0 .481-.052.923-.13 1.326zm-2.769 1.794c1.105 0 1.898-1.222 1.898-3.12 0-1.885-.793-3.107-1.898-3.107-1.118 0-1.898 1.222-1.898 3.107 0 1.898.78 3.12 1.898 3.12zm5.421-8.086h1.066v11.687h-1.066v-4.524h-2.912c-.481 1.183-1.391 1.872-2.509 1.872-1.703 0-2.912-1.586-2.912-4.069 0-2.483 1.209-4.069 2.912-4.069 1.079 0 1.937.624 2.431 1.716h2.99v-2.613zm7.045 2.08v1.482c0 1.859 1.326 3.926 3.016 4.719l-.611.858c-1.3-.65-2.392-2.015-2.925-3.575-.533 1.703-1.664 3.185-2.977 3.861l-.624-.845c1.664-.832 3.068-3.042 3.068-5.018v-1.482h-2.665v-.884h6.305v.884h-2.587zm6.968 2.626v.897h-1.924v6.058h-1.066V29.314h1.066v4.693h1.924zm10.334-4.693v8.606h-1.066v-8.606h1.066zm-2.392 6.149l-.507.832c-1.352-.429-2.418-1.352-2.951-2.548-.507 1.287-1.573 2.301-2.951 2.769l-.52-.832c1.742-.572 2.925-2.041 2.925-3.666v-.299h-2.652v-.858h2.652v-1.495h1.066v1.495h2.626v.858h-2.639v.299c0 1.534 1.222 2.912 2.951 3.445zm-4.043 4.368h6.786v.871h-7.852v-3.575h1.066v2.704zm19.083-4.758v.871h-4.758v5.031h-1.079v-5.031h-4.706v-.871h7.735c.364-1.677.364-2.912.364-4.004v-.156h-6.786v-.858h7.826v1.014c0 1.092 0 2.327-.325 4.004h1.729zm7.968-.65l.104.871c-1.846.312-3.38.377-5.538.377h-.923v-3.302h4.173V30.9h-4.199v-.871h5.252v3.159h-4.173V34.8c2.041 0 3.536-.065 5.304-.377zm-1.534 5.707c1.742 0 2.782-.481 2.782-1.3 0-.819-1.04-1.3-2.782-1.3s-2.795.481-2.795 1.3c0 .819 1.053 1.3 2.795 1.3zm0-3.432c2.366 0 3.835.78 3.835 2.132s-1.469 2.119-3.835 2.119c-2.379 0-3.835-.767-3.835-2.119 0-1.352 1.456-2.132 3.835-2.132zm3.718-4.472h1.729v.884h-1.729v3.224h-1.066v-7.02h1.066v2.912zM231.26 40v-.988h2.119v-7.111h-1.69v-.754c.845-.156 1.456-.377 1.976-.676h.91v8.541h1.911V40h-5.226zm9.385.169c-1.82 0-2.977-1.651-2.977-4.966 0-3.315 1.157-4.914 2.977-4.914 1.807 0 2.964 1.612 2.964 4.914 0 3.315-1.157 4.966-2.964 4.966zm0-.949c1.079 0 1.807-1.209 1.807-4.017 0-2.782-.728-3.952-1.807-3.952-1.092 0-1.82 1.17-1.82 3.952 0 2.808.728 4.017 1.82 4.017zm6.915.949c-1.82 0-2.977-1.651-2.977-4.966 0-3.315 1.157-4.914 2.977-4.914 1.807 0 2.964 1.612 2.964 4.914 0 3.315-1.157 4.966-2.964 4.966zm0-.949c1.079 0 1.807-1.209 1.807-4.017 0-2.782-.728-3.952-1.807-3.952-1.092 0-1.82 1.17-1.82 3.952 0 2.808.728 4.017 1.82 4.017zm6.915.949c-1.82 0-2.977-1.651-2.977-4.966 0-3.315 1.157-4.914 2.977-4.914 1.807 0 2.964 1.612 2.964 4.914 0 3.315-1.157 4.966-2.964 4.966zm0-.949c1.079 0 1.807-1.209 1.807-4.017 0-2.782-.728-3.952-1.807-3.952-1.092 0-1.82 1.17-1.82 3.952 0 2.808.728 4.017 1.82 4.017zm13.558-9.919v5.98h-1.066v-5.98h1.066zm-8.268 3.016c0 1.001.845 1.716 1.976 1.716 1.144 0 1.976-.715 1.976-1.716 0-1.014-.832-1.729-1.976-1.729-1.131 0-1.976.715-1.976 1.729zm4.992 0c0 1.534-1.274 2.574-3.016 2.574s-3.003-1.04-3.003-2.574c0-1.547 1.261-2.6 3.003-2.6 1.742 0 3.016 1.053 3.016 2.6zm-3.198 7.644h6.864v.845h-7.917v-2.925h6.474v-1.183h-6.5v-.845h7.553v2.821h-6.474v1.287zm18.134-10.647v8.515h-1.066v-8.515h1.066zm-8.255 3.666c0 1.157.858 1.963 1.989 1.963 1.157 0 2.015-.806 2.015-1.963 0-1.131-.858-1.937-2.015-1.937-1.131 0-1.989.806-1.989 1.937zm5.044 0c0 1.69-1.313 2.886-3.055 2.886-1.729 0-3.029-1.196-3.029-2.886 0-1.677 1.3-2.86 3.029-2.86 1.742 0 3.055 1.183 3.055 2.86zm-3.224 6.851h6.786v.871h-7.852v-3.744h1.066v2.873zM131.171 50.589v5.681c1.651-.013 2.691-.065 3.913-.325l.104.871c-1.326.286-2.457.338-4.316.338h-.754v-7.423h4.381v.858h-3.328zm5.057 2.158v-4.16h1.001v10.79h-1.001v-5.746h-2.509v-.884h2.509zm2.34-4.446h1.014v11.661h-1.014V48.301zm10.073 5.2v-3.458h-3.159v3.458h3.159zm1.053-4.303v5.161h-5.252v-5.161h5.252zm.325 6.279v.364c0 1.651 1.807 2.886 3.887 3.237l-.429.832c-1.729-.325-3.289-1.196-3.978-2.522-.702 1.326-2.275 2.197-4.004 2.522l-.429-.832c2.08-.351 3.9-1.586 3.9-3.237v-.364h1.053zm2.99-3.991h1.729v.884h-1.729v3.679h-1.066v-7.748h1.066v3.185zm9.749 2.132l-.52.819c-1.339-.429-2.418-1.365-2.951-2.574-.507 1.287-1.586 2.301-2.977 2.782l-.546-.845c1.768-.559 2.964-2.015 2.964-3.614v-.26h-2.665v-.871h6.396v.871h-2.639v.26c0 1.534 1.222 2.899 2.938 3.432zm1.378 5.317v-1.508h-5.408v1.508h5.408zm0-2.34v-1.417h1.053v4.628h-7.514v-4.628h1.053v1.417h5.408zm-.013-8.294h1.066v6.318h-1.066v-6.318zm6.823 6.162l-.39-.858c2.106-.286 4.069-1.56 4.069-3.003h-3.705v-.858h3.718v-1.43h1.066v1.43h3.718v.858h-3.718c0 1.43 1.976 2.717 4.056 3.003l-.377.858c-1.807-.273-3.471-1.17-4.212-2.431-.741 1.261-2.418 2.158-4.225 2.431zm9.503.884v.871h-4.745v3.757h-1.066v-3.757h-4.732v-.871h10.543zm7.279-3.458h2.353v-3.575h1.079v8.697h-1.079v-4.238h-2.353v-.884zm.715 2.639l-.52.845c-1.339-.442-2.379-1.365-2.912-2.548-.494 1.287-1.534 2.275-2.899 2.756l-.533-.832c1.729-.585 2.886-2.041 2.886-3.666v-.364h-2.587v-.858h2.587v-1.482h1.066v1.482h2.574v.858h-2.574v.364c0 1.547 1.183 2.899 2.912 3.445zm-3.666 4.303h6.708v.871h-7.787v-3.471h1.079v2.6zm11.322-2.457c.897 0 1.547-.741 1.547-1.781 0-1.014-.65-1.755-1.547-1.755-.91 0-1.547.741-1.547 1.755 0 1.04.637 1.781 1.547 1.781zm0-4.433c1.443 0 2.496 1.092 2.496 2.652 0 1.586-1.053 2.665-2.496 2.665s-2.496-1.079-2.496-2.665c0-1.56 1.053-2.652 2.496-2.652zm.52-3.302v1.651h2.366v.871H193.2v-.871h2.366v-1.651h1.053zm5.447-.351h1.027v11.661h-1.027v-5.863h-1.495v5.304h-1.001V48.561h1.001v4.654h1.495v-4.927zm3.847 5.681l-.403-.845c2.028-.299 4.043-1.638 4.043-3.172v-.065h-3.679v-.858h8.515v.858h-3.653v.065c0 1.534 2.015 2.873 4.069 3.172l-.416.845c-1.807-.312-3.536-1.287-4.238-2.665-.715 1.378-2.431 2.353-4.238 2.665zm9.503.975l.013.871h-4.771v4.147h-1.066v-4.147h-4.706v-.871h10.53zm4.575-5.538v2.184c0 1.872.871 3.848 2.405 4.784l-.611.832c-1.105-.676-1.885-1.911-2.301-3.328-.416 1.547-1.261 2.873-2.418 3.588l-.663-.806c1.599-.936 2.561-3.029 2.561-5.031v-2.223h1.027zm3.068 3.081v-3.926h1.001V59.39h-1.001v-6.019h-1.924v-.884h1.924zm2.366-4.186h1.014v11.661h-1.014V48.301zm6.421 6.539v2.743h3.25V54.84a7.181 7.181 0 0 1-1.638.182 6.951 6.951 0 0 1-1.612-.182zm1.612-4.966c-1.872 0-3.211.858-3.211 2.158 0 1.3 1.339 2.158 3.211 2.158 1.872 0 3.224-.858 3.224-2.158 0-1.3-1.352-2.158-3.224-2.158zm2.704 7.709h2.613v.884H228.18v-.884h2.6v-3.146c-.975-.507-1.56-1.352-1.56-2.405 0-1.82 1.768-2.99 4.238-2.99 2.483 0 4.238 1.17 4.238 2.99 0 1.053-.572 1.885-1.534 2.392v3.159zm4.692-1.456l-.156-5.512-.039-1.352h1.209l-.039 1.352-.156 5.512h-.819zm.403 3.042c-.468 0-.858-.364-.858-.897s.39-.923.858-.923c.481 0 .858.39.858.923s-.377.897-.858.897zm3.496-3.042l-.156-5.512-.039-1.352h1.209l-.039 1.352-.156 5.512h-.819zm.403 3.042c-.468 0-.858-.364-.858-.897s.39-.923.858-.923c.481 0 .858.39.858.923s-.377.897-.858.897zm12.14-5.382l-.533.845c-1.339-.481-2.392-1.482-2.912-2.769a5.034 5.034 0 0 1-2.938 2.977l-.546-.845c1.755-.637 2.938-2.262 2.938-4.004v-1.144h1.066v1.144c0 1.677 1.196 3.198 2.925 3.796zm-5.265 2.99v-.858h7.8v4.056h-1.066v-3.198h-6.734zm6.734-8.463h1.066v7.007h-1.066v-7.007zm9.918 4.719l.117.871c-1.599.325-2.99.403-5.447.403h-.91v-5.109h5.148v.858h-4.095v3.38c2.314 0 3.653-.078 5.187-.403zm-1.417 6.058c1.716 0 2.782-.52 2.782-1.378 0-.858-1.066-1.378-2.782-1.378-1.729 0-2.795.52-2.795 1.378 0 .858 1.066 1.378 2.795 1.378zm0-3.614c2.353 0 3.835.832 3.835 2.236 0 1.404-1.482 2.236-3.835 2.236-2.366 0-3.848-.832-3.848-2.236 0-1.404 1.482-2.236 3.848-2.236zm3.718-4.147h1.716v.884h-1.716v3.029h-1.079v-6.942h1.079v3.029zM134.707 73.671h1.586v-2.678h-1.586c.065.416.104.845.104 1.339s-.039.923-.104 1.339zm-2.392 1.742c.936 0 1.521-1.183 1.521-3.081 0-1.885-.585-3.068-1.521-3.068-.923 0-1.521 1.183-1.521 3.068 0 1.898.598 3.081 1.521 3.081zm3.978-5.291v-2.561h1.014V78.39h-1.014v-3.835h-1.807c-.416 1.17-1.157 1.846-2.171 1.846-1.508 0-2.483-1.56-2.483-4.069 0-2.496.975-4.056 2.483-4.056 1.014 0 1.768.676 2.171 1.846h1.807zm2.288-2.821h1.014v11.661h-1.014V67.301zm4.029 3.458c0 1.092.832 1.859 2.002 1.859 1.157 0 2.002-.767 2.002-1.859 0-1.105-.845-1.859-2.002-1.859-1.17 0-2.002.754-2.002 1.859zm5.044 0c0 1.625-1.287 2.756-3.042 2.756-1.768 0-3.042-1.131-3.042-2.756 0-1.638 1.274-2.756 3.042-2.756 1.755 0 3.042 1.118 3.042 2.756zm-4.836 4.888v-.871h7.579v4.186h-1.066v-3.315h-6.513zm9.282-5.681h-1.703v1.612h1.703v.871h-1.703v1.781h-1.066v-6.916h1.066v1.768h1.703v.884zm6.174-1.664c-1.911 0-3.003.442-3.003 1.222s1.092 1.222 3.003 1.222 3.003-.442 3.003-1.222-1.092-1.222-3.003-1.222zm0 3.237c-2.561 0-4.095-.702-4.095-2.015 0-1.313 1.534-2.028 4.095-2.028s4.095.715 4.095 2.028c0 1.313-1.534 2.015-4.095 2.015zm-2.925 5.278V78h7.202v.832h-8.242v-2.795h6.838v-1.04h-6.877v-.806h7.93v2.626h-6.851zm-2.353-4.485h10.556v.858h-10.556v-.858zm18.406 1.651l-.78-.611c1.56-1.209 2.197-2.626 2.34-4.433h-1.781v-.871h2.795c0 2.379-.637 4.329-2.574 5.915zm-3.757-5.915h3.094c0 2.327-.754 3.978-2.704 5.343l-.689-.676c1.495-.988 2.21-2.119 2.366-3.796h-2.067v-.871zm2.405 7.384v2.496h5.226v-2.496h-5.226zm-1.04 3.354v-4.199h7.319v4.199h-7.319zm9.048-8.645v.884h-1.729v3.003h-1.066v-6.747h1.066v2.86h1.729zm7.253 2.561v-1.963h-1.313v1.963h1.313zm.91-4.706v5.564h-3.12v-5.564h.897v1.911h1.313v-1.911h.91zm-4.732 4.706v-1.963h-1.339v1.963h1.339zm.884-4.706v5.564h-3.12v-5.564h.897v1.911h1.339v-1.911h.884zm-2.067 7.696v-.871h7.982v4.134h-1.066v-3.263h-6.916zm9.425-5.421v.884h-1.443v3.068h-1.04v-6.942h1.04v2.99h1.443zm8.215 1.092v2.964h-1.001v-6.851h1.001v3.016h1.469v-3.198h1.027v7.215h-1.027v-3.146h-1.469zm-1.482-2.743v.845h-5.928v-.845h2.444v-1.274h1.053v1.274h2.431zm-2.951 2.223c-.923 0-1.534.481-1.534 1.209 0 .728.611 1.196 1.534 1.196.91 0 1.534-.468 1.534-1.196s-.624-1.209-1.534-1.209zm0 3.198c-1.469 0-2.496-.793-2.496-1.989 0-1.209 1.027-2.002 2.496-2.002s2.483.793 2.483 2.002c0 1.196-1.014 1.989-2.483 1.989zm5.499.806v.403c0 1.144.871 2.288 2.34 2.756l-.494.793c-1.17-.403-1.989-1.17-2.379-2.119-.351.923-1.053 1.781-2.132 2.223-1.118-.416-1.807-1.235-2.158-2.184-.429.91-1.235 1.677-2.353 2.08l-.494-.793c1.456-.494 2.34-1.69 2.34-2.756v-.403h1.027v.403c0 .988.533 2.028 1.612 2.626 1.092-.65 1.638-1.768 1.638-2.626v-.403h1.053zm6.369.52c1.105 0 1.885-1.222 1.885-3.12 0-1.885-.78-3.107-1.885-3.107-1.118 0-1.898 1.222-1.898 3.107 0 1.898.78 3.12 1.898 3.12zm5.421-8.086h1.066v11.687h-1.066v-6.37h-2.535c-.104 2.288-1.261 3.718-2.886 3.718-1.703 0-2.912-1.586-2.912-4.069 0-2.483 1.209-4.069 2.912-4.069 1.573 0 2.717 1.365 2.886 3.549h2.535v-4.446zm6.772 6.539v2.743h3.25V73.84a7.181 7.181 0 0 1-1.638.182 6.951 6.951 0 0 1-1.612-.182zm1.612-4.966c-1.872 0-3.211.858-3.211 2.158 0 1.3 1.339 2.158 3.211 2.158 1.872 0 3.224-.858 3.224-2.158 0-1.3-1.352-2.158-3.224-2.158zm2.704 7.709h2.613v.884h-10.595v-.884h2.6v-3.146c-.975-.507-1.56-1.352-1.56-2.405 0-1.82 1.768-2.99 4.238-2.99 2.483 0 4.238 1.17 4.238 2.99 0 1.053-.572 1.885-1.534 2.392v3.159zm4.809 1.586c-.468 0-.858-.364-.858-.897s.39-.923.858-.923c.468 0 .858.39.858.923s-.39.897-.858.897z"/>
            <path fill="#1C2633" fill-rule="nonzero" d="M71.344 84.181c0 1.133 1.155 1.87 2.728 1.87 1.573 0 2.717-.737 2.717-1.87s-1.144-1.87-2.717-1.87c-1.573 0-2.728.737-2.728 1.87zm3.179 4.62h4.037v.748h-8.965v-.748h4.015v-2.057c-1.837-.132-3.135-1.111-3.135-2.563 0-1.573 1.507-2.585 3.597-2.585 2.079 0 3.575 1.012 3.575 2.585 0 1.452-1.287 2.431-3.124 2.563v2.057zm13.296-6.721v.726h-7.931v-.726h3.542v-1.188h.913v1.188h3.476zm-1.672 2.937c0-.605-.814-.957-2.255-.957-1.441 0-2.277.352-2.277.957s.836.957 2.277.957c1.441 0 2.255-.352 2.255-.957zm-5.467 0c0-1.056 1.199-1.65 3.212-1.65 1.991 0 3.19.594 3.19 1.65s-1.199 1.639-3.19 1.639c-2.013 0-3.212-.583-3.212-1.639zm7.689 2.332v.737h-4.026v2.739h-.913v-2.739h-4.004v-.737h8.943zM91.311 90v-.594c2.53-2.211 3.696-3.817 3.696-5.203 0-.924-.484-1.595-1.485-1.595-.66 0-1.232.407-1.672.935l-.583-.572c.66-.715 1.353-1.188 2.376-1.188 1.441 0 2.343.946 2.343 2.387 0 1.606-1.265 3.245-3.157 5.038.418-.033.913-.077 1.32-.077h2.233V90h-5.071zm6.85-4.29c-.396 0-.726-.319-.726-.759 0-.462.33-.781.726-.781.396 0 .726.319.726.781 0 .44-.33.759-.726.759zm0 4.433c-.396 0-.726-.308-.726-.759s.33-.781.726-.781c.396 0 .726.33.726.781s-.33.759-.726.759zm4.287 0c-1.54 0-2.519-1.397-2.519-4.202 0-2.805.979-4.158 2.519-4.158 1.529 0 2.508 1.364 2.508 4.158 0 2.805-.979 4.202-2.508 4.202zm0-.803c.913 0 1.529-1.023 1.529-3.399 0-2.354-.616-3.344-1.529-3.344-.924 0-1.54.99-1.54 3.344 0 2.376.616 3.399 1.54 3.399zm5.805.803c-1.54 0-2.519-1.397-2.519-4.202 0-2.805.979-4.158 2.519-4.158 1.529 0 2.508 1.364 2.508 4.158 0 2.805-.979 4.202-2.508 4.202zm0-.803c.913 0 1.529-1.023 1.529-3.399 0-2.354-.616-3.344-1.529-3.344-.924 0-1.54.99-1.54 3.344 0 2.376.616 3.399 1.54 3.399z" opacity=".7"/>
        </g>
        <g>
            <g transform="translate(59 249)">
                <use fill="#000" filter="url(#g)" xlink:href="#h"/>
                <use fill="#D77628" xlink:href="#h"/>
            </g>
            <path fill="#FFF" fill-rule="nonzero" stroke="#FFF" stroke-width=".1" d="M127.918 267.628v-.286h-7.111v-.871h8.177v1.157c0 1.443 0 3.042-.442 5.395l-1.066-.117c.442-2.236.442-3.874.442-5.278zm-3.055 6.825h5.382v.871h-10.543v-.871h4.095v-4.173h1.066v4.173zm14.637 1.495v-1.599h-5.733v1.599h5.733zm0-2.431v-1.534h1.053v4.823h-7.839v-4.823h1.053v1.534h5.733zm.754-3.458h1.677v.871h-10.595v-.871h7.852c.325-1.43.325-2.47.325-3.354h-6.825v-.871h7.878v.845c0 .897 0 1.937-.312 3.38zm12.804 1.105l-.481.884c-1.768-.403-3.588-1.651-4.329-3.367-.741 1.703-2.561 2.951-4.316 3.367l-.481-.884c2.041-.403 4.238-2.158 4.238-4.147v-.897h1.118v.897c0 1.989 2.21 3.757 4.251 4.147zm-10.049 3.354h10.569v.884h-10.569v-.884zm13.142-4.056v2.821c1.989 0 3.406-.078 5.083-.377l.104.884c-1.755.312-3.237.377-5.343.377h-.897v-4.563h4.147v-2.353h-4.173v-.871h5.213v4.082h-4.134zm7.046-5.174h1.066v11.687h-1.066v-6.318h-2.223v-.871h2.223v-4.498zm8.397 1.17c-1.781 0-2.964.559-2.964 1.482 0 .91 1.183 1.469 2.964 1.469 1.794 0 2.964-.559 2.964-1.469 0-.923-1.17-1.482-2.964-1.482zm0 3.822c-2.47 0-4.082-.897-4.082-2.34 0-1.443 1.612-2.34 4.082-2.34 2.47 0 4.082.897 4.082 2.34 0 1.443-1.612 2.34-4.082 2.34zm-2.86 3.016v2.522h6.994v.884h-8.06v-3.406h1.066zm-2.418-2.08h10.569v.871h-4.654v2.353h-1.079v-2.353h-4.836v-.871zm15.702-.585v2.574c1.326 0 2.587-.052 4.082-.312l.091.871c-1.625.273-2.951.338-4.433.338h-.767v-4.316h3.12v-2.327h-3.159v-.871h4.186v4.043h-3.12zm5.109-1.144v-3.9h1.001v10.764h-1.001v-5.98h-1.443v-.884h1.443zm2.353-4.186h1.027v11.661h-1.027v-11.661zm12.83 5.863l-.481.884c-1.768-.403-3.588-1.651-4.329-3.367-.741 1.703-2.561 2.951-4.316 3.367l-.481-.884c2.041-.403 4.238-2.158 4.238-4.147v-.897h1.118v.897c0 1.989 2.21 3.757 4.251 4.147zm-10.049 3.354h10.569v.884h-10.569v-.884zm17.471.117h4.771v.884h-10.595v-.884h4.758v-2.405h-3.393v-5.98h7.904v.871h-6.825v1.638h6.565v.845h-6.565v1.755h6.942v.871h-3.562v2.405zm12.713-4.212l.104.871c-1.846.312-3.38.377-5.538.377h-.923v-3.302h4.173V266.9h-4.199v-.871h5.252v3.159h-4.173v1.612c2.041 0 3.536-.065 5.304-.377zm-1.534 5.707c1.742 0 2.782-.481 2.782-1.3 0-.819-1.04-1.3-2.782-1.3s-2.795.481-2.795 1.3c0 .819 1.053 1.3 2.795 1.3zm0-3.432c2.366 0 3.835.78 3.835 2.132s-1.469 2.119-3.835 2.119c-2.379 0-3.835-.767-3.835-2.119 0-1.352 1.456-2.132 3.835-2.132zm3.718-4.472h1.729v.884h-1.729v3.224h-1.066v-7.02h1.066v2.912zm14.584 2.353v.871h-8.073v-5.122h1.066v4.251h7.007zm-9.373 3.9h10.582v.884H229.84v-.884zm15.989-2.548l-.767-.611c1.508-1.209 2.158-2.587 2.301-4.381h-1.898v-.871h2.899c0 2.353-.611 4.277-2.535 5.863zm-3.887-5.863h3.081c0 2.327-.728 3.965-2.691 5.33l-.689-.676c1.495-1.001 2.197-2.119 2.353-3.783h-2.054v-.871zm2.561 7.384v2.496h5.512v-2.496h-5.512zm-1.04 3.354v-4.199h7.605v4.199h-7.605zm6.539-11.505h1.066v6.747h-1.066v-6.747zm11.647 0h1.066v11.687h-1.066v-11.687zm-5.083.897c1.729 0 2.964 1.586 2.964 4.069 0 2.483-1.235 4.069-2.964 4.069-1.729 0-2.964-1.586-2.964-4.069 0-2.483 1.235-4.069 2.964-4.069zm0 .962c-1.144 0-1.95 1.222-1.95 3.107 0 1.898.806 3.12 1.95 3.12 1.131 0 1.937-1.222 1.937-3.12 0-1.885-.806-3.107-1.937-3.107zm12.427.221v1.482c0 1.976 1.404 3.991 3.12 4.719l-.598.858c-1.352-.624-2.496-1.963-3.055-3.562-.533 1.703-1.677 3.172-3.003 3.848l-.624-.858c1.677-.793 3.094-2.99 3.094-5.005v-1.482h-2.704v-.884h6.513v.884h-2.743zm4.316-2.067h1.066v11.648h-1.066v-11.648zm7.981 5.577v-3.692h-3.276v3.692h3.276zm1.04-4.55v5.395h-5.356v-5.395h5.356zm-2.977 6.695v2.795h6.708v.871h-7.774v-3.666h1.066zm6.188-4.186h1.729v.897h-1.729v4.082h-1.066v-8.541h1.066v3.562zm-165.228 16.699h5.33c0 3.315-1.521 6.318-5.291 8.203l-.585-.832c2.977-1.495 4.576-3.731 4.823-6.487h-4.277v-.884zm10.218 3.484v.884h-1.872v6.045h-1.066v-11.661h1.066v4.732h1.872zm2.625 3.601v-.858h7.8v4.16h-1.079v-3.302h-6.721zm6.721-8.333h1.079v6.955h-1.079v-1.534h-3.016v-.871h3.016v-1.599h-2.847c-.78 1.833-2.587 3.159-5.083 3.861l-.429-.858c2.821-.767 4.589-2.314 4.797-4.303h-4.186v-.871h5.33c0 .442-.052.884-.156 1.3h2.574v-2.08zm8.397 1.261c-1.833 0-3.003.546-3.003 1.469s1.17 1.456 3.003 1.456c1.833 0 3.003-.533 3.003-1.456 0-.923-1.17-1.469-3.003-1.469zm0 3.783c-2.496 0-4.095-.858-4.095-2.314s1.599-2.327 4.095-2.327c2.496 0 4.095.871 4.095 2.327s-1.599 2.314-4.095 2.314zm-2.847 2.977v2.509h6.955v.871h-8.021v-3.38h1.066zm-2.431-1.885h10.543v.858h-10.543v-.858zm21.708-1.547v3.926h-1.001v-8.294h1.001v3.497h1.378v-3.705h1.027v8.84h-1.027v-4.264h-1.378zm-2.314.338l-1.001-.104c.247-1.3.26-2.262.26-3.042h-3.848v-.858h4.849v.754c0 .832 0 1.885-.26 3.25zm.754.78l.078.78c-1.898.325-4.342.377-5.928.377l-.13-.871c.585 0 1.274-.013 2.028-.026v-2.405h.988v2.366a38.994 38.994 0 0 0 2.964-.221zm-2.821 4.823h7.111v.871h-8.19v-3.471h1.079v2.6zm15.482-5.551l-.442.806c-1.352-.325-2.405-1.066-2.951-2.054-.507 1.157-1.599 2.015-3.016 2.418l-.468-.819c1.729-.468 2.925-1.664 2.925-3.068v-.208h-2.574v-.858h2.574v-1.248h1.066v1.248h2.574v.858h-2.574v.208c0 1.235 1.209 2.301 2.886 2.717zm-4.602 2.132v3.406c.676-.026 1.534-.13 2.34-.403l.169.858c-1.105.364-2.197.429-2.99.429h-.559v-4.29h1.04zm5.018 3.796c.689 0 1.196-.325 1.196-.832 0-.494-.507-.819-1.196-.819-.702 0-1.196.325-1.196.819 0 .507.494.832 1.196.832zm0-2.405c1.261 0 2.158.624 2.158 1.573 0 .975-.897 1.586-2.158 1.586s-2.158-.611-2.158-1.586c0-.949.897-1.573 2.158-1.573zm.52-2.249v1.027h2.405v.806h-5.863v-.806h2.418v-1.027h1.04zm1.248-3.614h1.729v.884h-1.729v2.496h-1.066v-6.019h1.066v2.639zm7.877-1.378c-1.833 0-3.003.546-3.003 1.469s1.17 1.456 3.003 1.456c1.833 0 3.003-.533 3.003-1.456 0-.923-1.17-1.469-3.003-1.469zm0 3.783c-2.496 0-4.095-.858-4.095-2.314s1.599-2.327 4.095-2.327c2.496 0 4.095.871 4.095 2.327s-1.599 2.314-4.095 2.314zm-2.847 2.977v2.509h6.955v.871h-8.021v-3.38h1.066zm-2.431-1.885h10.543v.858h-10.543v-.858zm23.19-1.482l-1.04-.117c.286-1.313.286-2.275.286-3.12h-6.89v-.858h7.943v.819c0 .871 0 1.924-.299 3.276zm-3.133 2.587v.52c0 1.534 1.794 2.717 3.926 3.016l-.403.832c-1.781-.299-3.367-1.118-4.056-2.379-.715 1.261-2.301 2.08-4.082 2.379l-.403-.832c2.145-.299 3.939-1.482 3.939-3.016v-.52h1.079zm-.377-1.781h5.135v.858h-10.504v-.858h4.303v-2.34h1.066v2.34zm13.258 5.213v-1.573h-2.054v1.573h2.054zm0-2.366v-1.469h.988v4.667h-4.043v-4.667h1.001v1.469h2.054zm-1.196-3.302c1.157 0 1.989-.754 1.989-1.807s-.832-1.794-1.989-1.794-1.989.741-1.989 1.794.832 1.807 1.989 1.807zm5.343-1.391h-2.379c-.195 1.365-1.365 2.275-2.964 2.275-1.742 0-3.003-1.092-3.003-2.691 0-1.599 1.261-2.678 3.003-2.678 1.573 0 2.743.884 2.964 2.223h2.379v-2.73h1.079v6.162h-1.079v-2.561zm.143 3.146v.988c0 1.235.728 2.509 2.119 3.055l-.533.806a3.723 3.723 0 0 1-2.106-2.197c-.377.949-1.079 1.755-2.093 2.197l-.546-.806c1.391-.598 2.119-1.859 2.119-3.055v-.988h1.04zm8.254-5.759c-1.911 0-3.003.442-3.003 1.222s1.092 1.222 3.003 1.222 3.003-.442 3.003-1.222-1.092-1.222-3.003-1.222zm0 3.237c-2.561 0-4.095-.702-4.095-2.015 0-1.313 1.534-2.028 4.095-2.028s4.095.715 4.095 2.028c0 1.313-1.534 2.015-4.095 2.015zm-2.925 5.278V295h7.202v.832h-8.242v-2.795h6.838v-1.04h-6.877v-.806h7.93v2.626h-6.851zm-2.353-4.485h10.556v.858h-10.556v-.858zm12.011-3.77h3.159c0 2.808-.585 5.538-2.704 7.774l-.832-.598c1.729-1.794 2.405-3.952 2.522-6.292h-2.145v-.884zm3.549 0h2.795c0 2.808-.403 6.019-2.548 8.554l-.858-.585c1.794-2.067 2.314-4.615 2.405-7.085h-1.794v-.884zm7.007 3.549v.884h-1.729v5.967h-1.066v-11.661h1.066v4.81h1.729zm4.419 1.729v2.743h3.25v-2.743a7.181 7.181 0 0 1-1.638.182 6.951 6.951 0 0 1-1.612-.182zm1.612-4.966c-1.872 0-3.211.858-3.211 2.158 0 1.3 1.339 2.158 3.211 2.158 1.872 0 3.224-.858 3.224-2.158 0-1.3-1.352-2.158-3.224-2.158zm2.704 7.709h2.613v.884h-10.595v-.884h2.6v-3.146c-.975-.507-1.56-1.352-1.56-2.405 0-1.82 1.768-2.99 4.238-2.99 2.483 0 4.238 1.17 4.238 2.99 0 1.053-.572 1.885-1.534 2.392v3.159zm5.316-1.456c-.299-2.262 2.002-3.094 2.002-4.641 0-.78-.481-1.404-1.404-1.404-.65 0-1.222.312-1.677.832l-.676-.624c.598-.689 1.43-1.196 2.483-1.196 1.469 0 2.431.897 2.431 2.314 0 1.911-2.34 2.678-2.106 4.719h-1.053zm.559 3.042c-.468 0-.858-.364-.858-.897s.39-.923.858-.923c.481 0 .871.39.871.923s-.39.897-.871.897zm-128.712 8.132v8.554h-1.066v-8.554h1.066zm-2.548 5.811l-.559.845c-1.326-.507-2.353-1.56-2.873-2.886a5.231 5.231 0 0 1-2.912 3.12l-.559-.871c1.755-.676 2.925-2.366 2.925-4.186v-1.183h1.066v1.183c0 1.755 1.183 3.341 2.912 3.978zm-3.887 4.719h6.786v.871h-7.852v-3.64h1.066v2.769zm12.44-9.516v2.093c0 2.054 1.326 4.173 2.964 4.992l-.663.845c-1.235-.663-2.288-2.028-2.821-3.627-.507 1.703-1.586 3.159-2.899 3.861l-.637-.858c1.677-.858 3.003-3.094 3.003-5.213v-2.093h1.053zm6.981 3.718v.884h-1.924v6.045h-1.066v-11.648h1.066v4.719h1.924zm6.044 6.097c1.82 0 2.899-.455 2.899-1.274s-1.079-1.274-2.899-1.274c-1.846 0-2.925.455-2.925 1.274s1.079 1.274 2.925 1.274zm0-3.38c2.47 0 3.978.754 3.978 2.106 0 1.352-1.508 2.106-3.978 2.106-2.496 0-4.004-.754-4.004-2.106 0-1.352 1.508-2.106 4.004-2.106zm.533-1.69h4.745v.858h-10.556v-.858h4.745v-1.352h-3.419v-3.874h7.917v.858h-6.851v2.158h6.929v.858h-3.51v1.352zm16.625-1.118v-1.716h-5.785v1.716h5.785zm1.066-4.173v5.044h-7.904v-5.044h1.053v1.599h5.785v-1.599h1.066zm1.339 6.448v.858h-4.784v3.9H162v-3.9h-4.732v-.858h10.582zm3.535.624v2.977h7.111v.871h-8.164v-3.848h1.053zm6.474-2.171h1.664v.858h-10.595v-.858h7.852c.325-1.612.325-2.756.325-3.77v-.039h-6.825v-.871h7.878v.91c0 1.001 0 2.184-.299 3.77zm3.028 7.8l-.286-.702c.806-.351 1.287-.975 1.3-1.768-.052.013-.091.013-.143.013-.455 0-.871-.286-.871-.832 0-.507.416-.832.897-.832.624 0 1.001.533 1.001 1.404 0 1.248-.728 2.223-1.898 2.717zm12.556-11.739v.858h-6.877v-.858h2.899v-1.417h1.066v1.417h2.912zm-5.213 3.666c0 .819.702 1.339 1.768 1.339 1.053 0 1.781-.52 1.781-1.339 0-.806-.728-1.326-1.781-1.326-1.066 0-1.768.52-1.768 1.326zm4.563 0c0 1.313-1.144 2.171-2.795 2.171s-2.782-.858-2.782-2.171c0-1.3 1.131-2.158 2.782-2.158s2.795.858 2.795 2.158zm-3.406 2.964v2.47h6.708v.871h-7.774v-3.341h1.066zm6.188-4.212h1.729v.897h-1.729v4.004h-1.066v-8.736h1.066v3.835zm6.525-2.834v2.093c0 2.054 1.326 4.173 2.964 4.992l-.663.845c-1.235-.663-2.288-2.028-2.821-3.627-.507 1.703-1.586 3.159-2.899 3.861l-.637-.858c1.677-.858 3.003-3.094 3.003-5.213v-2.093h1.053zm6.981 3.718v.884h-1.924v6.045h-1.066v-11.648h1.066v4.719h1.924zm7.63.364l.104.871c-1.846.312-3.393.377-5.538.377h-.923v-3.341h4.173v-1.495h-4.199v-.871h5.252v3.185h-4.173v1.651c2.041 0 3.536-.065 5.304-.377zm-4.121 3.276v2.275h5.265v-2.275h-5.265zm-1.04 3.133v-3.978h7.345v3.978h-7.345zm9.074-8.515v.884h-1.729v3.081h-1.066v-6.942h1.066v2.977h1.729zm7.643 1.742l.117.871c-1.599.325-2.99.403-5.447.403h-.91v-5.109h5.148v.858h-4.095v3.38c2.314 0 3.653-.078 5.187-.403zm-1.417 6.058c1.716 0 2.782-.52 2.782-1.378 0-.858-1.066-1.378-2.782-1.378-1.729 0-2.795.52-2.795 1.378 0 .858 1.066 1.378 2.795 1.378zm0-3.614c2.353 0 3.835.832 3.835 2.236 0 1.404-1.482 2.236-3.835 2.236-2.366 0-3.848-.832-3.848-2.236 0-1.404 1.482-2.236 3.848-2.236zm3.718-4.147h1.716v.884h-1.716v3.029h-1.079v-6.942h1.079v3.029zm7.915 7.839c-1.482 0-2.392-.624-3.029-1.261l.585-.78c.546.546 1.235 1.053 2.34 1.053 1.118 0 2.028-.858 2.028-2.249 0-1.365-.78-2.171-1.976-2.171-.637 0-1.04.195-1.586.559l-.637-.39.299-4.459h4.641v1.014h-3.601l-.234 2.756a2.736 2.736 0 0 1 1.417-.377c1.586 0 2.873.936 2.873 3.029s-1.508 3.276-3.12 3.276zm9.008-5.278v-3.692h-3.276v3.692h3.276zm1.04-4.55v5.395h-5.356v-5.395h5.356zm-2.977 6.695v2.795h6.708v.871h-7.774v-3.666h1.066zm6.188-4.186h1.729v.897h-1.729v4.082h-1.066v-8.541h1.066v3.562zm8.722 3.341h2.366v-6.89h1.066v8.879h-1.066v-1.196h-2.366v-.793zm-2.379-5.629c-1.105 0-1.859.494-1.859 1.235 0 .754.754 1.248 1.859 1.248s1.859-.494 1.859-1.248c0-.741-.754-1.235-1.859-1.235zm0 3.276c-1.703 0-2.873-.793-2.873-2.041 0-1.222 1.17-2.028 2.873-2.028 1.703 0 2.873.806 2.873 2.028 0 1.248-1.17 2.041-2.873 2.041zm-.416 3.926v-2.249a72.54 72.54 0 0 1-3.237.065l-.143-.884c2.158 0 5.044-.026 7.514-.338l.091.767a36.098 36.098 0 0 1-3.159.338v2.301h-1.066zm-.65 2.067h7.176v.871h-8.242v-3.393h1.066v2.522zm20.083-10.53h1.066v11.687h-1.066v-11.687zm-5.083.897c1.729 0 2.964 1.586 2.964 4.069 0 2.483-1.235 4.069-2.964 4.069-1.729 0-2.964-1.586-2.964-4.069 0-2.483 1.235-4.069 2.964-4.069zm0 .962c-1.144 0-1.95 1.222-1.95 3.107 0 1.898.806 3.12 1.95 3.12 1.131 0 1.937-1.222 1.937-3.12 0-1.885-.806-3.107-1.937-3.107zm9.905-.442v6.292a20.272 20.272 0 0 0 3.744-.364l.104.923c-1.573.299-2.912.364-4.173.364h-.741v-7.215h1.066zm7.228-1.417h1.027v11.648h-1.027v-6.019h-1.651v5.434H286.5v-10.803h1.001v4.485h1.651v-4.745zm3.08 13.169l-.286-.702c.806-.351 1.287-.975 1.3-1.768-.052.013-.091.013-.143.013-.455 0-.871-.286-.871-.832 0-.507.416-.832.897-.832.624 0 1.001.533 1.001 1.404 0 1.248-.728 2.223-1.898 2.717zm-165.627 7.261v.858h-6.877v-.858h2.899v-1.417h1.066v1.417h2.912zm-5.213 3.666c0 .819.702 1.339 1.768 1.339 1.053 0 1.781-.52 1.781-1.339 0-.806-.728-1.326-1.781-1.326-1.066 0-1.768.52-1.768 1.326zm4.563 0c0 1.313-1.144 2.171-2.795 2.171s-2.782-.858-2.782-2.171c0-1.3 1.131-2.158 2.782-2.158s2.795.858 2.795 2.158zm-3.406 2.964v2.47h6.708v.871h-7.774v-3.341h1.066zm6.188-4.212h1.729v.897h-1.729v4.004h-1.066v-8.736h1.066v3.835zm9.645 1.638l-.533.845c-1.339-.481-2.392-1.482-2.912-2.769a5.034 5.034 0 0 1-2.938 2.977l-.546-.845c1.755-.637 2.938-2.262 2.938-4.004v-1.144h1.066v1.144c0 1.677 1.196 3.198 2.925 3.796zm-5.265 2.99v-.858h7.8v4.056h-1.066v-3.198h-6.734zm6.734-8.463h1.066v7.007h-1.066v-7.007zm6.577 2.223v1.053c0 2.028.871 4.056 2.483 4.966l-.65.78c-1.131-.676-1.937-1.924-2.34-3.406-.403 1.599-1.248 2.964-2.405 3.692l-.65-.793c1.625-.975 2.535-3.094 2.535-5.239v-1.053h-2.21v-.871h5.317v.871h-2.08zm3.12 1.95v-3.926h1.014v10.79h-1.014v-5.993h-1.924v-.871h1.924zm2.34-4.199h1.027v11.661h-1.027v-11.661zm4.484 3.497c0 1.092.871 1.846 2.067 1.846 1.222 0 2.093-.754 2.093-1.846 0-1.079-.871-1.82-2.093-1.82-1.196 0-2.067.741-2.067 1.82zm2.6 2.717v1.976c1.131-.065 2.288-.156 3.367-.325l.091.793c-2.626.494-5.447.507-7.553.507l-.13-.897c.936 0 2.015 0 3.159-.039v-2.015c-1.508-.195-2.574-1.248-2.574-2.717 0-1.625 1.313-2.73 3.107-2.73 1.833 0 3.133 1.105 3.133 2.73 0 1.469-1.053 2.535-2.6 2.717zm4.134-6.214h1.066v11.7h-1.066v-11.7zm4.224 7.839l-.156-5.512-.039-1.352h1.209l-.039 1.352-.156 5.512h-.819zm.403 3.042c-.468 0-.858-.364-.858-.897s.39-.923.858-.923c.481 0 .858.39.858.923s-.377.897-.858.897z"/>
            <path fill="#1C2633" fill-rule="nonzero" d="M61.344 339.181c0 1.133 1.155 1.87 2.728 1.87 1.573 0 2.717-.737 2.717-1.87s-1.144-1.87-2.717-1.87c-1.573 0-2.728.737-2.728 1.87zm3.179 4.62h4.037v.748h-8.965v-.748h4.015v-2.057c-1.837-.132-3.135-1.111-3.135-2.563 0-1.573 1.507-2.585 3.597-2.585 2.079 0 3.575 1.012 3.575 2.585 0 1.452-1.287 2.431-3.124 2.563v2.057zm13.296-6.721v.726h-7.931v-.726h3.542v-1.188h.913v1.188h3.476zm-1.672 2.937c0-.605-.814-.957-2.255-.957-1.441 0-2.277.352-2.277.957s.836.957 2.277.957c1.441 0 2.255-.352 2.255-.957zm-5.467 0c0-1.056 1.199-1.65 3.212-1.65 1.991 0 3.19.594 3.19 1.65s-1.199 1.639-3.19 1.639c-2.013 0-3.212-.583-3.212-1.639zm7.689 2.332v.737h-4.026v2.739h-.913v-2.739h-4.004v-.737h8.943zM81.311 345v-.594c2.53-2.211 3.696-3.817 3.696-5.203 0-.924-.484-1.595-1.485-1.595-.66 0-1.232.407-1.672.935l-.583-.572c.66-.715 1.353-1.188 2.376-1.188 1.441 0 2.343.946 2.343 2.387 0 1.606-1.265 3.245-3.157 5.038.418-.033.913-.077 1.32-.077h2.233V345h-5.071zm6.85-4.29c-.396 0-.726-.319-.726-.759 0-.462.33-.781.726-.781.396 0 .726.319.726.781 0 .44-.33.759-.726.759zm0 4.433c-.396 0-.726-.308-.726-.759s.33-.781.726-.781c.396 0 .726.33.726.781s-.33.759-.726.759zm4.287 0c-1.54 0-2.519-1.397-2.519-4.202 0-2.805.979-4.158 2.519-4.158 1.529 0 2.508 1.364 2.508 4.158 0 2.805-.979 4.202-2.508 4.202zm0-.803c.913 0 1.529-1.023 1.529-3.399 0-2.354-.616-3.344-1.529-3.344-.924 0-1.54.99-1.54 3.344 0 2.376.616 3.399 1.54 3.399zm5.805.803c-1.54 0-2.519-1.397-2.519-4.202 0-2.805.979-4.158 2.519-4.158 1.529 0 2.508 1.364 2.508 4.158 0 2.805-.979 4.202-2.508 4.202zm0-.803c.913 0 1.529-1.023 1.529-3.399 0-2.354-.616-3.344-1.529-3.344-.924 0-1.54.99-1.54 3.344 0 2.376.616 3.399 1.54 3.399z" opacity=".7"/>
        </g>
    </g>
</svg>
