<svg xmlns="http://www.w3.org/2000/svg" width="400" height="272" viewBox="0 0 400 272">
    <g fill="#F7F0E0" fill-rule="evenodd">
        <path d="M67.809 41.576c.17.099.253.255.227.369l-.018.046-2.283 3.952-3.392-1.958.953-1.651.672.388-.23.398 2.048 1.183 1.56-2.7c.07-.122.268-.139.463-.027zm-8.487-1.544c.132-.081.35.005.462.135.127.148.162.337.028.432a1.842 1.842 0 0 1-.214.128c.625.542.953 1.419.96 2.227l-.682-.393c-.156-.765-.418-1.181-.911-1.588-.41.122-.893.21-1.4.253l-.771-.445c1.272-.25 2.069-.467 2.528-.75zm11.611 7.26l-.396.688 2.887 1.667-.304.526-3.559-2.055.7-1.213.672.387zM100.62 60.52c.17.099.253.254.226.369l-.018.046-2.262 3.918-.672-.388 1.272-2.204-.776-.448c-.095-.055-.11-.206-.023-.358.075-.13.194-.195.282-.178l.042.015.776.448.69-1.193c.07-.122.268-.14.463-.027zm5.292 3.056c.17.098.253.254.227.368l-.018.046-2.263 3.919-.672-.388 2.263-3.919c.07-.121.269-.139.463-.026zM93.418 56.36c.17.099.252.255.226.369l-.018.046-2.257 3.908-.672-.388 2.257-3.908c.07-.122.269-.139.464-.027zm-13.136-7.583c.17.098.253.254.226.368l-.018.046-2.256 3.909-.672-.389 2.256-3.908c.07-.122.27-.139.464-.026zm5.202 3.003c.17.098.252.254.226.368l-.018.046-2.257 3.908-.672-.387 1.127-1.952-.651-.377c-.371.62-.723 1.06-1.148 1.206-.312.11-.68.057-1.033-.147-.347-.201-.578-.493-.643-.82-.09-.48.162-1.052.569-1.757.404-.7.774-1.205 1.233-1.366.318-.109.688-.058 1.035.143.354.204.581.498.642.825.065.35-.049.751-.271 1.216l-.088.177.656.379.829-1.436c.07-.122.27-.138.464-.026zm24.061 18.483l-.3.52-4.001-2.309.3-.521 4.001 2.31zm-11.12-10.947c.17.098.251.254.225.368l-.018.046-.343.595a4.74 4.74 0 0 1-.486.678c.242.609.17 1.573-.256 2.674l-.096.238-.624-.36c.311-.883.444-1.505.274-1.834a10.28 10.28 0 0 1-1.508 1.113l-.007.004-.71-.41s1.837-1.095 2.649-2.341l.092-.15.343-.595c.07-.122.27-.139.464-.026zM78.11 47.588c.17.098.252.254.225.369l-.018.046-.343.595a4.738 4.738 0 0 1-.485.678c.242.609.17 1.572-.256 2.674l-.097.238-.623-.36c.311-.883.443-1.505.274-1.835a10.25 10.25 0 0 1-1.508 1.113l-.008.005-.71-.41s1.837-1.096 2.65-2.341l.091-.15.344-.595c.07-.122.27-.14.464-.027zm14.328 8.448l-.302.522-.956-.552-.088.152a4.732 4.732 0 0 1-.485.678c.241.609.169 1.573-.257 2.674l-.096.238-.623-.36c.311-.883.442-1.504.274-1.834a10.335 10.335 0 0 1-1.508 1.113l-.008.005-.71-.41s1.837-1.096 2.65-2.342l.091-.15.088-.152-.685-.395c-.094-.055-.108-.21-.02-.36.074-.13.192-.194.28-.177l.042.015 2.313 1.335zm10.476 5.902c.17.099.252.254.225.369l-.018.046-.7 1.213a.06.06 0 0 0 0 .06l.022.023.778.449a.06.06 0 0 0 .06 0l.023-.022.7-1.214c.07-.12.267-.138.46-.026.17.097.25.252.225.365l-.018.046-2.038 3.53a.06.06 0 0 1-.052.03l-.03-.008-1.918-1.108a.284.284 0 0 1-.13-.327l.026-.06 1.926-3.336c.065-.125.264-.142.459-.03zM65.532 44.743l-2.049-1.183-.173.3 2.05 1.183.172-.3zm17.42 6.423a.464.464 0 0 0-.415-.04c-.26.113-.55.535-.891 1.125-.344.596-.565 1.057-.532 1.34a.465.465 0 0 0 .243.338c.137.08.29.098.419.044.261-.113.546-.537.89-1.133.34-.59.566-1.05.533-1.332a.473.473 0 0 0-.247-.342zm19.97 13.453l-.779-.45a.06.06 0 0 0-.06 0l-.022.021-.675 1.17a.06.06 0 0 0 0 .06l.022.023.778.45a.06.06 0 0 0 .06 0l.023-.023.675-1.17a.06.06 0 0 0-.023-.081zm6.684 1.21c.138.155.202.352.074.486-.1.105-.286.288-.564.5.45.64.705 1.636.587 2.743l-.034.257-.625-.36c-.024-.918-.092-1.689-.547-2.23a7.664 7.664 0 0 1-1.634.712l-.299.086-.795-.459c2.155-.646 3.002-1.465 3.352-1.815.12-.12.347-.076.485.08zM72.99 46.79l-.287.496 1.769 1.02-.299.518-4.05-2.338.3-.517 1.608.929.286-.496.673.388zm-10.591-8.339c.17.099.252.255.226.369l-.018.046-.487.845.623.36-.303.524-.623-.36-.607 1.052-.672-.388 1.397-2.42c.07-.123.27-.14.464-.028zm25.462 17.27l-.303.526-1.755-1.014.303-.524 1.755 1.013zM66.76 41.183l-.296.511-.937-.541a4.576 4.576 0 0 1-.27.21c.324.397.585 1.05.508 1.857l-.026.205-.606-.35a1.967 1.967 0 0 0-.42-1.375 6.726 6.726 0 0 1-.857.395l-.259.093-.697-.403c.968-.31 1.556-.682 1.888-.95l.077-.064-.662-.382c-.093-.054-.106-.205-.02-.354.073-.127.189-.19.275-.173l.04.015 2.262 1.305zm-5.464-3.155l-1.2 2.08-2.241-1.294 1.2-2.08 2.241 1.294zm14.05 8.112l-.645 1.116a2.999 2.999 0 0 1-.359.512l-.096.095-.657-.38c.118-.112.243-.294.346-.462a9.209 9.209 0 0 1-1.094-.552l-.25-.143-1.426-.823.283-.49 1.436.829c.384.222.756.437 1.087.601l.24.113.165-.287-2.81-1.622.3-.517 3.48 2.01zm-15.003-7.98l-.926-.534-.61 1.055.927.535.61-1.055zm49.423 15.305c3.979 2.298 5.546 4.75 4.582 6.418-.945 1.638-3.843 1.49-7.822-.807-3.938-2.274-5.514-4.708-4.568-6.346.964-1.67 3.87-1.539 7.808.735zM80.672 25.21c.453.262.709.686.65 1.022l-.023.089-1.815 3.144a.077.077 0 0 0 .004.085l.023.02 1.301.751a.715.715 0 0 1 .308.852c-.138.365-.553.547-.891.414l-.083-.04-1.333-.77a.076.076 0 0 0-.083.006l-.02.023-5.023 8.7a.15.15 0 0 1-.162.072l-.045-.017-10.263-5.925a.927.927 0 0 1-.39-1.168l.05-.096 2.318-4.016a.153.153 0 0 1 .162-.074l.045.017 1.662.96c.057.033.085.1.072.162l-.017.046-.866 1.498a.076.076 0 0 0 .006.084l.022.02 7.218 4.167c.027.016.06.013.084-.005l.02-.023 5.73-9.926c.202-.348.808-.378 1.339-.072zm19.974 11.533c.486.28.75.75.636 1.094l-.033.077-7.445 12.895a.152.152 0 0 1-.163.072l-.045-.017-10.816-6.245a.927.927 0 0 1-.388-1.17l.048-.096 1.854-3.211a.155.155 0 0 1 .21-.058l.629.363.85.493.179.104c.058.034.086.1.073.164l-.017.045-1.457 2.524a.389.389 0 0 0 .077.484l.064.046 7.435 4.293c.059.034.13.024.179-.019l.03-.038 3.297-5.708a.076.076 0 0 0-.005-.084l-.023-.02-1.332-.77a.68.68 0 0 1-.236-.922c.168-.292.583-.39.872-.275l.076.036 1.3.751c.028.016.061.013.085-.005l.02-.023.898-1.555a.076.076 0 0 0-.006-.084l-.022-.02-1.333-.769a.68.68 0 0 1-.235-.923c.17-.294.584-.39.873-.276l.076.036 1.3.751c.028.016.061.012.085-.006l.02-.023 1.05-1.82c.005-.004.008-.006.013-.014.202-.35.796-.384 1.327-.077zm8.396 17.973c-2.544-1.469-4.408-1.725-4.964-.762-.547.947.617 2.416 3.161 3.885 2.564 1.48 4.46 1.778 5.007.831.566-.98-.64-2.474-3.204-3.954zM72.888 36.295l-7.218-4.167a.076.076 0 0 0-.084.005l-.02.022-.352.61a.387.387 0 0 0 .079.483l.063.046 6.882 3.973c.058.034.13.025.177-.017l.03-.038.47-.814a.076.076 0 0 0-.027-.103zm21.785-1.193c.46.266.403.69.14 1.15l-.002.004v.004l-3.405 5.897a.152.152 0 0 1-.163.073l-.045-.017L84 38.058a.927.927 0 0 1-.39-1.16l.047-.097 3.115-5.395.012-.016c.187-.324.712-.376 1.211-.137l.115.06c.486.282.75.75.636 1.095l-.033.077-2.733 4.735a.388.388 0 0 0 .08.479l.064.045 3.816 2.204c.059.034.13.025.177-.018l.03-.038 2.342-4.055c0-.003 0-.005.002-.008a.389.389 0 0 0-.143-.53l-1.295-.747-1.176-.679-.215-.124c-.276-.16-.362-.555-.177-.875.166-.287.482-.424.757-.32l.081.038 4.349 2.51zm25.335 12.82c.486.28.75.748.636 1.094l-.033.077-1.781 3.085a.079.079 0 0 0 .004.087l.024.02 1.298.75a.718.718 0 0 1 .308.854.698.698 0 0 1-.89.411l-.084-.04-1.33-.767a.077.077 0 0 0-.085.005l-.02.023-1.701 2.946a.153.153 0 0 1-.165.072l-.046-.017-1.656-.957a.153.153 0 0 1-.075-.163l.018-.046 4.238-7.341c.004-.008.009-.009.013-.017.202-.349.795-.384 1.327-.077zM107 41.335c.43.255.663.673.563.985l-.032.075-1.327 2.3a.078.078 0 0 0 .005.086l.023.02 1.577.91a.079.079 0 0 0 .086-.005l.02-.023 1.32-2.287c.171-.291.636-.343 1.084-.137l.112.057.03.017c.43.255.662.672.563.984l-.031.075-2.776 4.808c-.756 1.31-2.26 1.093-3.644.294-1.331-.77-2.252-1.905-1.644-3.157l.077-.145 2.768-4.795.003.003c.169-.293.633-.345 1.081-.14l.111.057.031.018zm6.018 3.474c.436.26.671.686.56 1l-.034.075-1.32 2.286a.078.078 0 0 0 .005.086l.023.02 1.577.911a.078.078 0 0 0 .086-.005l.02-.024 1.32-2.286c.17-.293.634-.344 1.082-.139l.111.057.03.017c.436.26.672.686.561.999l-.035.076-2.767 4.794c-.756 1.309-2.26 1.092-3.644.293-1.332-.769-2.253-1.904-1.644-3.157l.077-.145 2.768-4.794c.17-.292.634-.343 1.082-.138l.111.057.03.017zM75.974 23.424l.11.069c.421.29.638.722.522 1.04l-.036.078-3.544 6.14a.151.151 0 0 1-.162.073l-.045-.017-6.477-3.74c-1.432-.826-1.763-1.8-1.127-3.018l.084-.154 2.508-4.343c.186-.324.712-.377 1.212-.138l.115.06.11.07c.421.289.639.722.523 1.041l-.036.077-1.29 2.233a.076.076 0 0 0 .005.085l.023.02 4.784 2.762c.027.016.06.013.085-.005l.02-.023 1.29-2.233c.2-.348.795-.383 1.326-.077zm31.168 23.442l-1.577-.91a.078.078 0 0 0-.086.005l-.02.023-.704 1.22c-.266.46-.04.834.484 1.136.488.282.899.31 1.168-.057l.06-.092.703-1.218a.079.079 0 0 0-.028-.107zm6.02 3.476l-1.577-.91a.078.078 0 0 0-.086.005l-.02.023-.704 1.219c-.266.46-.04.834.484 1.137.487.281.899.31 1.168-.057l.06-.092.703-1.219a.078.078 0 0 0-.028-.106zM72.587 26.916l-4.784-2.762a.076.076 0 0 0-.084.005l-.02.023-.542.938c-.258.447-.093.77.305 1.028l.096.059 4.013 2.317c.058.033.13.025.177-.018l.031-.038.836-1.448a.077.077 0 0 0-.028-.104zM241.85 41.576c.17.099.253.255.226.369l-.018.046-2.282 3.952-3.392-1.958.953-1.651.672.388-.23.398 2.048 1.183 1.56-2.7c.07-.122.268-.139.463-.027zm-8.487-1.544c.132-.081.35.005.462.135.127.148.162.337.028.432a1.842 1.842 0 0 1-.214.128c.624.542.953 1.419.959 2.227l-.681-.393c-.156-.765-.418-1.181-.912-1.588-.409.122-.892.21-1.4.253l-.77-.445c1.272-.25 2.068-.467 2.528-.75zm11.611 7.26l-.397.688 2.888 1.667-.304.526-3.559-2.055.7-1.213.672.387zM274.66 60.52c.17.099.253.254.226.369l-.018.046-2.262 3.918-.672-.388 1.272-2.204-.776-.448c-.096-.055-.11-.206-.023-.358.075-.13.194-.195.282-.178l.041.015.777.448.689-1.193c.07-.122.27-.14.464-.027zm5.292 3.056c.17.098.253.254.226.368l-.018.046-2.262 3.919-.672-.388 2.262-3.919c.07-.121.27-.139.464-.026zm-12.494-7.214c.17.099.253.255.227.369l-.018.046-2.257 3.908-.672-.388 2.256-3.908c.071-.122.27-.139.464-.027zm-13.135-7.583c.17.098.253.254.226.368l-.018.046-2.256 3.909-.672-.389 2.256-3.908c.07-.122.27-.139.464-.026zm5.201 3.003c.17.098.253.254.226.368l-.018.046-2.256 3.908-.672-.387 1.127-1.952-.651-.377c-.372.62-.723 1.06-1.148 1.206-.313.11-.68.057-1.033-.147-.348-.201-.579-.493-.643-.82-.09-.48.162-1.052.569-1.757.404-.7.773-1.205 1.233-1.366.317-.109.687-.058 1.035.143.353.204.581.498.642.825.065.35-.05.751-.271 1.216l-.089.177.657.379.829-1.436c.07-.122.27-.138.463-.026zm24.062 18.483l-.3.52-4.002-2.309.301-.521 4.001 2.31zm-11.121-10.947c.17.098.252.254.226.368l-.018.046-.344.595a4.74 4.74 0 0 1-.485.678c.241.609.17 1.573-.256 2.674l-.097.238-.623-.36c.311-.883.443-1.505.273-1.834a10.28 10.28 0 0 1-1.507 1.113l-.008.004-.71-.41s1.838-1.095 2.65-2.341l.092-.15.343-.595c.07-.122.27-.139.464-.026zm-20.313-11.729c.17.098.252.254.225.369l-.018.046-.343.595a4.738 4.738 0 0 1-.486.678c.242.609.17 1.572-.255 2.674l-.097.238-.623-.36c.31-.883.443-1.505.273-1.835a10.25 10.25 0 0 1-1.507 1.113l-.008.005-.71-.41s1.837-1.096 2.649-2.341l.092-.15.343-.595c.07-.122.27-.14.465-.027zm14.327 8.448l-.3.522-.957-.552-.088.152a4.732 4.732 0 0 1-.486.678c.242.609.17 1.573-.256 2.674l-.097.238-.623-.36c.312-.883.443-1.504.274-1.834a10.335 10.335 0 0 1-1.508 1.113l-.007.005-.71-.41s1.837-1.096 2.649-2.342l.092-.15.088-.152-.685-.395c-.095-.055-.108-.21-.02-.36.074-.13.192-.194.28-.177l.041.015 2.313 1.335zm10.476 5.902c.17.099.253.254.226.369l-.018.046-.7 1.213a.06.06 0 0 0 0 .06l.022.023.778.449a.06.06 0 0 0 .06 0l.022-.022.7-1.214c.07-.12.267-.138.461-.026.169.097.25.252.224.365l-.018.046-2.037 3.53a.06.06 0 0 1-.052.03l-.03-.008-1.918-1.108a.284.284 0 0 1-.13-.327l.025-.06 1.926-3.336c.066-.125.265-.142.46-.03zm-37.382-17.195l-2.05-1.183-.172.3 2.049 1.183.173-.3zm17.42 6.423a.464.464 0 0 0-.416-.04c-.26.113-.55.535-.89 1.125-.344.596-.565 1.057-.532 1.34a.465.465 0 0 0 .242.338c.138.08.291.098.42.044.26-.113.545-.537.89-1.133.34-.59.566-1.05.533-1.332a.473.473 0 0 0-.248-.342zm19.969 13.453l-.778-.45a.06.06 0 0 0-.06 0l-.022.021-.676 1.17a.06.06 0 0 0 0 .06l.022.023.779.45a.06.06 0 0 0 .06 0l.022-.023.676-1.17a.06.06 0 0 0-.023-.081zm6.684 1.21c.139.155.203.352.075.486-.1.105-.286.288-.564.5.45.64.705 1.636.586 2.743l-.034.257-.624-.36c-.024-.918-.093-1.689-.548-2.23a7.664 7.664 0 0 1-1.634.712l-.298.086-.795-.459c2.155-.646 3.002-1.465 3.352-1.815.12-.12.346-.076.484.08zM247.03 46.79l-.286.496 1.769 1.02-.299.518-4.05-2.338.299-.517 1.609.929.286-.496.672.388zm-10.59-8.339c.17.099.252.255.226.369l-.018.046-.487.845.623.36-.303.524-.623-.36-.607 1.052-.672-.388 1.397-2.42c.07-.123.27-.14.463-.028zm25.462 17.27l-.303.526-1.755-1.014.303-.524 1.755 1.013zM240.8 41.183l-.296.511-.938-.541a4.576 4.576 0 0 1-.27.21c.324.397.586 1.05.509 1.857l-.026.205-.607-.35a1.967 1.967 0 0 0-.42-1.375 6.726 6.726 0 0 1-.856.395l-.26.093-.696-.403c.968-.31 1.556-.682 1.887-.95l.078-.064-.662-.382c-.093-.054-.106-.205-.02-.354.073-.127.188-.19.275-.173l.04.015 2.262 1.305zm-5.464-3.155l-1.2 2.08-2.241-1.294 1.2-2.08 2.24 1.294zm14.05 8.112l-.645 1.116a2.999 2.999 0 0 1-.36.512l-.095.095-.657-.38c.118-.112.242-.294.346-.462a9.209 9.209 0 0 1-1.094-.552l-.25-.143-1.426-.823.282-.49 1.437.829c.384.222.756.437 1.086.601l.24.113.166-.287-2.81-1.622.299-.517 3.48 2.01zm-15.003-7.98l-.926-.534-.61 1.055.927.535.61-1.055zm49.422 15.305c3.98 2.298 5.547 4.75 4.583 6.418-.946 1.638-3.843 1.49-7.822-.807-3.939-2.274-5.514-4.708-4.568-6.346.963-1.67 3.869-1.539 7.807.735zM254.713 25.21c.452.262.708.686.65 1.022l-.023.089-1.816 3.144a.077.077 0 0 0 .005.085l.023.02 1.3.751a.715.715 0 0 1 .309.852c-.138.365-.553.547-.892.414l-.082-.04-1.333-.77a.076.076 0 0 0-.084.006l-.02.023-5.023 8.7a.15.15 0 0 1-.161.072l-.045-.017-10.263-5.925a.927.927 0 0 1-.39-1.168l.049-.096 2.318-4.016a.153.153 0 0 1 .163-.074l.045.017 1.661.96c.058.033.085.1.073.162l-.018.046-.865 1.498a.076.076 0 0 0 .005.084l.023.02 7.218 4.167c.027.016.06.013.083-.005l.02-.023 5.731-9.926c.201-.348.807-.378 1.339-.072zm19.974 11.533c.486.28.75.75.635 1.094l-.033.077-7.444 12.895a.152.152 0 0 1-.163.072l-.046-.017-10.816-6.245a.927.927 0 0 1-.388-1.17l.049-.096 1.854-3.211a.155.155 0 0 1 .21-.058l.629.363.849.493.18.104c.058.034.085.1.073.164l-.018.045-1.457 2.524a.389.389 0 0 0 .078.484l.064.046 7.435 4.293c.058.034.13.024.179-.019l.03-.038 3.296-5.708a.076.076 0 0 0-.005-.084l-.022-.02-1.333-.77a.68.68 0 0 1-.236-.922c.17-.292.583-.39.873-.275l.075.036 1.302.751c.027.016.06.013.083-.005l.02-.023.898-1.555a.076.076 0 0 0-.005-.084l-.022-.02-1.333-.769a.68.68 0 0 1-.235-.923c.17-.294.583-.39.873-.276l.075.036 1.302.751c.027.016.06.012.084-.006l.02-.023 1.05-1.82c.005-.004.008-.006.012-.014.202-.35.796-.384 1.328-.077zm8.396 17.973c-2.544-1.469-4.408-1.725-4.965-.762-.546.947.618 2.416 3.162 3.885 2.564 1.48 4.46 1.778 5.007.831.566-.98-.64-2.474-3.204-3.954zm-36.155-18.421l-7.217-4.167a.076.076 0 0 0-.084.005l-.02.022-.352.61a.387.387 0 0 0 .078.483l.064.046 6.881 3.973c.059.034.13.025.178-.017l.03-.038.47-.814a.076.076 0 0 0-.028-.103zm21.786-1.193c.46.266.403.69.139 1.15l-.001.004-.001.004-3.405 5.897a.152.152 0 0 1-.162.073l-.046-.017-7.196-4.155a.927.927 0 0 1-.39-1.16l.046-.097 3.115-5.395c.005-.006.008-.008.013-.016.187-.324.711-.376 1.21-.137l.115.06c.487.282.751.75.637 1.095l-.033.077-2.733 4.735a.388.388 0 0 0 .08.479l.063.045 3.817 2.204c.058.034.13.025.177-.018l.03-.038 2.342-4.055c0-.003 0-.005.002-.008a.389.389 0 0 0-.143-.53l-1.296-.747-1.175-.679-.215-.124c-.276-.16-.362-.555-.177-.875.165-.287.482-.424.757-.32l.08.038 4.35 2.51zm25.335 12.82c.486.28.749.748.635 1.094l-.033.077-1.78 3.085a.079.079 0 0 0 .004.087l.023.02 1.299.75a.718.718 0 0 1 .308.854.698.698 0 0 1-.89.411l-.084-.04-1.33-.767a.077.077 0 0 0-.086.005l-.02.023-1.7 2.946a.153.153 0 0 1-.165.072l-.046-.017-1.657-.957a.153.153 0 0 1-.074-.163l.017-.046 4.239-7.341c.004-.008.008-.009.013-.017.201-.349.795-.384 1.327-.077zm-13.009-6.586c.43.255.662.673.563.985l-.032.075-1.328 2.3a.078.078 0 0 0 .006.086l.023.02 1.577.91a.079.079 0 0 0 .086-.005l.02-.023 1.32-2.287c.17-.291.636-.343 1.084-.137l.112.057.03.017c.43.255.661.672.563.984l-.032.075-2.776 4.808c-.756 1.31-2.259 1.093-3.643.294-1.332-.77-2.253-1.905-1.644-3.157l.077-.145 2.768-4.795.002.003c.17-.293.634-.345 1.082-.14l.111.057.031.018zm6.017 3.474c.437.26.672.686.561 1l-.035.075-1.32 2.286a.078.078 0 0 0 .006.086l.023.02 1.577.911a.078.078 0 0 0 .086-.005l.02-.024 1.32-2.286c.169-.293.634-.344 1.081-.139l.112.057.03.017c.436.26.671.686.56.999l-.034.076-2.768 4.794c-.756 1.309-2.259 1.092-3.643.293-1.333-.769-2.253-1.904-1.644-3.157l.077-.145 2.768-4.794c.17-.292.634-.343 1.082-.138l.111.057.03.017zm-37.042-21.386l.11.069c.421.29.638.722.522 1.04l-.036.078-3.545 6.14a.151.151 0 0 1-.16.073l-.046-.017-6.477-3.74c-1.432-.826-1.763-1.8-1.128-3.018l.085-.154 2.508-4.343c.186-.324.712-.377 1.212-.138l.115.06.11.07c.42.289.638.722.522 1.041l-.036.077-1.289 2.233a.076.076 0 0 0 .005.085l.023.02 4.784 2.762c.027.016.06.013.084-.005l.02-.023 1.29-2.233c.2-.348.795-.383 1.327-.077zm31.167 23.442l-1.576-.91a.078.078 0 0 0-.086.005l-.02.023-.704 1.22c-.266.46-.04.834.484 1.136.487.282.898.31 1.168-.057l.06-.092.703-1.218a.079.079 0 0 0-.029-.107zm6.02 3.476l-1.576-.91a.078.078 0 0 0-.086.005l-.02.023-.704 1.219c-.266.46-.04.834.484 1.137.487.281.898.31 1.168-.057l.06-.092.703-1.219a.078.078 0 0 0-.029-.106zm-40.575-23.426l-4.784-2.762a.076.076 0 0 0-.083.005l-.02.023-.542.938c-.258.447-.093.77.305 1.028l.095.059 4.013 2.317c.059.033.13.025.178-.018l.031-.038.836-1.448a.077.077 0 0 0-.029-.104zM-.232 131.87c.17.1.253.255.227.369l-.018.046-2.282 3.953-3.392-1.959.953-1.65.671.387-.23.399 2.049 1.183 1.559-2.701c.07-.122.269-.139.463-.026zm-8.486-1.544c.131-.08.35.006.461.136.127.147.163.337.029.431a1.842 1.842 0 0 1-.215.128c.625.542.954 1.42.96 2.227l-.682-.393c-.155-.764-.418-1.18-.911-1.587-.41.121-.892.21-1.4.252l-.77-.444c1.271-.25 2.068-.467 2.528-.75zm11.61 7.26l-.396.688 2.887 1.667-.303.526-3.56-2.055.701-1.213.672.388zm29.686 13.228c.17.098.253.254.227.368l-.018.046-2.263 3.919-.672-.388 1.273-2.204-.777-.448c-.095-.055-.11-.207-.023-.359.076-.13.194-.194.283-.178l.041.016.776.448.69-1.194c.07-.121.269-.139.463-.026zm5.293 3.055c.17.099.252.254.226.369l-.018.046-2.262 3.918-.672-.388 2.262-3.918c.07-.122.269-.14.464-.027zm-12.494-7.213c.17.098.253.254.226.368l-.018.047-2.256 3.908-.672-.388 2.256-3.908c.07-.123.27-.14.464-.027zm-13.136-7.584c.17.098.253.254.227.369l-.018.046-2.257 3.908-.672-.388 2.256-3.908c.071-.122.27-.14.464-.027zm5.202 3.003c.17.099.252.254.226.368l-.018.046-2.257 3.909-.671-.388 1.127-1.952-.652-.376c-.371.62-.723 1.059-1.147 1.206-.313.11-.68.056-1.034-.148-.347-.2-.578-.492-.643-.82-.09-.479.162-1.051.57-1.756.403-.7.773-1.205 1.232-1.366.318-.11.688-.058 1.035.142.354.204.582.499.642.826.066.349-.049.75-.27 1.215l-.09.177.657.38.83-1.437c.07-.121.269-.138.463-.026zm24.062 18.483l-.301.521-4.001-2.31.3-.52 4.002 2.31zm-11.122-10.947c.17.098.253.254.226.368l-.018.046-.343.595a4.74 4.74 0 0 1-.486.679c.242.608.17 1.572-.256 2.674l-.096.238-.624-.36c.312-.883.444-1.505.274-1.835a10.28 10.28 0 0 1-1.508 1.113l-.007.005-.71-.41s1.837-1.096 2.649-2.342l.092-.15.344-.594c.07-.122.269-.14.463-.027zM10.07 137.882c.17.099.253.254.226.369l-.018.046-.344.595a4.738 4.738 0 0 1-.485.678c.242.61.17 1.573-.256 2.674l-.096.238-.624-.36c.311-.883.443-1.504.274-1.834a10.25 10.25 0 0 1-1.508 1.113l-.007.004-.71-.41s1.837-1.095 2.648-2.34l.093-.15.343-.595c.07-.122.27-.14.464-.028zm14.328 8.449l-.301.521-.957-.552-.088.152a4.732 4.732 0 0 1-.485.679c.241.608.169 1.572-.257 2.674l-.096.238-.623-.36c.311-.883.442-1.505.274-1.835a10.335 10.335 0 0 1-1.508 1.114l-.008.004-.71-.41s1.838-1.096 2.65-2.341l.092-.15.088-.153-.685-.395c-.095-.055-.109-.209-.021-.36.074-.13.192-.194.28-.177l.042.016 2.313 1.335zm10.476 5.902c.17.098.252.254.226.368l-.018.046-.7 1.213a.06.06 0 0 0-.001.06l.022.023.778.45a.06.06 0 0 0 .06 0l.023-.023.7-1.213c.07-.121.267-.138.46-.027.17.098.251.253.225.366l-.018.046-2.038 3.53a.06.06 0 0 1-.051.029l-.03-.008-1.919-1.107a.284.284 0 0 1-.13-.328l.026-.06 1.926-3.336c.066-.125.264-.142.459-.03zm-37.382-17.195l-2.05-1.183-.173.3 2.05 1.182.173-.3zm17.419 6.423a.464.464 0 0 0-.415-.04c-.26.112-.55.534-.89 1.125-.345.596-.566 1.057-.533 1.339a.465.465 0 0 0 .243.338c.138.08.29.098.42.044.26-.112.545-.537.889-1.133.34-.59.566-1.049.533-1.331a.473.473 0 0 0-.247-.342zm19.97 13.452l-.778-.45a.06.06 0 0 0-.06 0l-.023.022-.675 1.17a.06.06 0 0 0 0 .06l.022.023.778.449a.06.06 0 0 0 .06 0l.023-.022.675-1.17a.06.06 0 0 0-.022-.082zm6.684 1.21c.138.156.203.352.075.486-.1.106-.286.288-.564.5.449.64.705 1.636.586 2.743l-.034.258-.625-.36c-.024-.919-.092-1.69-.547-2.23a7.664 7.664 0 0 1-1.634.711l-.298.086-.795-.458c2.154-.646 3.002-1.466 3.352-1.816.12-.12.346-.075.484.08zM4.949 137.085l-.286.496 1.768 1.021-.298.517-4.05-2.338.298-.517 1.61.929.286-.496.672.388zm-10.591-8.338c.17.098.253.254.226.368l-.018.046-.487.845.623.36-.303.525-.623-.36-.607 1.051-.672-.388 1.398-2.42c.07-.122.269-.14.463-.027zm25.462 17.27l-.303.525-1.755-1.013.303-.525 1.755 1.013zm-21.102-14.541l-.295.512-.938-.542a4.576 4.576 0 0 1-.27.21c.324.397.585 1.05.509 1.857l-.027.205-.606-.35a1.967 1.967 0 0 0-.42-1.374 6.726 6.726 0 0 1-.857.395l-.259.092-.697-.402c.968-.31 1.556-.683 1.888-.95l.078-.065-.662-.382c-.094-.054-.107-.205-.021-.353.073-.127.189-.19.276-.174l.04.015 2.261 1.306zm-5.464-3.155l-1.2 2.08-2.24-1.293 1.2-2.08 2.24 1.293zm14.05 8.112l-.644 1.117a2.999 2.999 0 0 1-.36.512l-.096.095-.657-.38c.119-.113.243-.295.346-.463a9.209 9.209 0 0 1-1.094-.551l-.25-.144-1.426-.823.283-.49 1.436.83c.384.221.756.436 1.087.6l.24.114.166-.288-2.81-1.622.298-.516 3.481 2.01zm-15.002-7.98l-.927-.534-.61 1.056.927.535.61-1.056zm49.422 15.306c3.98 2.297 5.546 4.749 4.582 6.418-.945 1.638-3.842 1.49-7.822-.807-3.938-2.274-5.513-4.709-4.568-6.347.964-1.669 3.87-1.538 7.808.736zM12.63 115.505c.453.261.709.686.651 1.021l-.024.09-1.815 3.144a.077.077 0 0 0 .005.084l.022.02 1.301.752a.715.715 0 0 1 .308.851c-.138.366-.553.548-.891.415l-.083-.04-1.332-.77a.076.076 0 0 0-.084.005l-.02.023-5.023 8.7a.15.15 0 0 1-.161.073l-.046-.018-10.263-5.925a.927.927 0 0 1-.389-1.167l.048-.097 2.319-4.016a.153.153 0 0 1 .162-.073l.046.017 1.66.959c.058.033.086.1.073.162l-.017.046-.865 1.499a.076.076 0 0 0 .005.083l.022.02 7.218 4.167c.028.016.06.013.084-.005l.02-.022 5.73-9.926c.202-.349.808-.379 1.34-.072zm19.974 11.532c.487.281.75.75.636 1.094l-.033.078-7.445 12.894a.152.152 0 0 1-.162.073l-.046-.018-10.816-6.244a.927.927 0 0 1-.388-1.17l.049-.097 1.853-3.211a.155.155 0 0 1 .21-.058l.63.363.849.494.179.104c.058.034.086.1.073.163l-.017.046-1.457 2.523a.389.389 0 0 0 .077.485l.064.046 7.436 4.292c.058.034.13.024.178-.018l.031-.038 3.296-5.71a.076.076 0 0 0-.005-.083l-.023-.02-1.332-.769a.68.68 0 0 1-.236-.923c.169-.292.583-.389.872-.275l.076.036 1.301.752c.028.015.06.012.084-.005l.02-.023.898-1.555a.076.076 0 0 0-.005-.084l-.023-.02-1.332-.77a.68.68 0 0 1-.236-.923c.17-.294.584-.39.873-.276l.076.036 1.301.752c.027.015.06.012.084-.006l.02-.023 1.051-1.82c.004-.005.007-.007.012-.015.202-.35.796-.383 1.327-.077zm8.396 17.973c-2.544-1.468-4.408-1.725-4.964-.761-.547.947.617 2.416 3.161 3.884 2.565 1.48 4.46 1.779 5.007.832.566-.981-.64-2.474-3.204-3.955zM4.847 126.59l-7.218-4.168a.076.076 0 0 0-.084.005l-.02.023-.352.61a.387.387 0 0 0 .079.483l.064.046 6.88 3.973c.06.033.13.024.178-.018l.031-.037.47-.814a.076.076 0 0 0-.028-.104zm21.785-1.193c.46.266.404.69.14 1.15l-.002.004v.003l-3.405 5.897a.152.152 0 0 1-.162.074l-.046-.018-7.197-4.154a.927.927 0 0 1-.39-1.161l.047-.097 3.115-5.395c.004-.006.008-.007.012-.015.187-.324.712-.377 1.211-.137l.115.06c.487.281.75.75.637 1.095l-.033.077-2.734 4.734a.388.388 0 0 0 .08.48l.064.045 3.817 2.203c.058.034.129.025.176-.017l.031-.038 2.342-4.056.001-.007a.389.389 0 0 0-.142-.53l-1.296-.748-1.175-.678-.215-.125c-.277-.16-.362-.555-.178-.874.166-.287.482-.425.757-.321l.081.038 4.35 2.51zm25.336 12.819c.485.28.748.749.635 1.094l-.033.078-1.781 3.085a.079.079 0 0 0 .004.086l.024.021 1.299.75a.718.718 0 0 1 .307.854.698.698 0 0 1-.89.41l-.083-.04-1.33-.767a.077.077 0 0 0-.086.005l-.02.024-1.701 2.945a.153.153 0 0 1-.164.073l-.047-.018-1.656-.956a.153.153 0 0 1-.074-.164l.017-.046 4.239-7.341c.004-.007.008-.008.012-.016.202-.35.796-.384 1.328-.077zm-13.01-6.585c.43.254.663.672.564.984l-.032.075-1.328 2.3a.078.078 0 0 0 .005.086l.024.02 1.576.91a.079.079 0 0 0 .086-.005l.02-.023 1.321-2.287c.17-.29.635-.342 1.084-.137l.111.057.03.018c.43.254.662.671.563.983l-.031.076-2.776 4.808c-.756 1.309-2.26 1.092-3.643.293-1.332-.769-2.253-1.904-1.645-3.157l.077-.145 2.769-4.794.002.002c.169-.293.633-.344 1.081-.139l.112.057.03.018zm6.018 3.474c.436.26.671.685.56.998l-.034.076-1.32 2.287a.078.078 0 0 0 .005.086l.023.02 1.577.91a.078.078 0 0 0 .086-.005l.02-.023 1.32-2.286c.17-.293.634-.345 1.082-.14l.111.057.03.018c.437.26.672.685.561.998l-.034.076-2.768 4.794c-.756 1.31-2.26 1.093-3.643.294-1.333-.77-2.253-1.905-1.645-3.157l.077-.145 2.769-4.795c.169-.291.634-.343 1.081-.137l.112.056.03.018zM7.934 113.718l.11.07c.42.289.637.721.521 1.04l-.036.078-3.544 6.14a.151.151 0 0 1-.161.072l-.046-.017-6.477-3.74c-1.431-.826-1.763-1.799-1.127-3.018l.084-.154 2.508-4.343c.187-.323.713-.376 1.212-.137l.115.06.11.07c.421.288.639.721.523 1.04l-.036.078L.4 113.19a.076.076 0 0 0 .005.084l.023.02 4.784 2.762c.027.016.06.013.085-.005l.02-.023 1.29-2.233c.2-.348.795-.383 1.327-.077zM39.1 137.161l-1.577-.91a.078.078 0 0 0-.086.005l-.02.023-.704 1.219c-.266.46-.04.834.484 1.137.488.281.899.309 1.168-.058l.06-.091.704-1.219a.079.079 0 0 0-.029-.106zm6.02 3.475l-1.577-.91a.078.078 0 0 0-.086.005l-.02.024-.704 1.218c-.266.461-.04.835.484 1.137.488.282.899.31 1.168-.057l.06-.092.703-1.218a.078.078 0 0 0-.028-.107zM4.546 117.21l-4.784-2.762a.076.076 0 0 0-.084.005l-.02.023-.541.938c-.259.448-.094.77.304 1.029l.096.058 4.013 2.317c.058.034.13.025.178-.018l.03-.038.837-1.448a.077.077 0 0 0-.029-.104zM173.809 131.87c.17.1.253.255.227.369l-.018.046-2.283 3.953-3.392-1.959.953-1.65.672.387-.23.399 2.048 1.183 1.56-2.701c.07-.122.268-.139.463-.026zm-8.487-1.544c.132-.08.35.006.462.136.127.147.162.337.028.431a1.842 1.842 0 0 1-.214.128c.625.542.953 1.42.96 2.227l-.682-.393c-.156-.764-.418-1.18-.911-1.587-.41.121-.893.21-1.4.252l-.771-.444c1.272-.25 2.069-.467 2.528-.75zm11.611 7.26l-.396.688 2.887 1.667-.304.526-3.559-2.055.7-1.213.672.388zm29.686 13.228c.17.098.253.254.226.368l-.018.046-2.262 3.919-.672-.388 1.272-2.204-.776-.448c-.095-.055-.11-.207-.023-.359.075-.13.194-.194.282-.178l.042.016.776.448.69-1.194c.07-.121.268-.139.463-.026zm5.292 3.055c.17.099.253.254.227.369l-.018.046-2.263 3.918-.672-.388 2.263-3.918c.07-.122.269-.14.463-.027zm-12.493-7.213c.17.098.252.254.226.368l-.018.047-2.257 3.908-.672-.388 2.257-3.908c.07-.123.269-.14.464-.027zm-13.136-7.584c.17.098.253.254.226.369l-.018.046-2.256 3.908-.672-.388 2.256-3.908c.07-.122.27-.14.464-.027zm5.202 3.003c.17.099.252.254.226.368l-.018.046-2.257 3.909-.672-.388 1.127-1.952-.651-.376c-.371.62-.723 1.059-1.148 1.206-.312.11-.68.056-1.033-.148-.347-.2-.578-.492-.643-.82-.09-.479.162-1.051.569-1.756.404-.7.774-1.205 1.233-1.366.318-.11.688-.058 1.035.142.354.204.581.499.642.826.065.349-.049.75-.271 1.215l-.088.177.656.38.829-1.437c.07-.121.27-.138.464-.026zm24.061 18.483l-.3.521-4.001-2.31.3-.52 4.001 2.31zm-11.12-10.947c.17.098.251.254.225.368l-.018.046-.343.595a4.74 4.74 0 0 1-.486.679c.242.608.17 1.572-.256 2.674l-.096.238-.624-.36c.311-.883.444-1.505.274-1.835a10.28 10.28 0 0 1-1.508 1.113l-.007.005-.71-.41s1.837-1.096 2.649-2.342l.092-.15.343-.594c.07-.122.27-.14.464-.027zm-20.314-11.729c.17.099.252.254.225.369l-.018.046-.343.595a4.738 4.738 0 0 1-.485.678c.242.61.17 1.573-.256 2.674l-.097.238-.623-.36c.311-.883.443-1.504.274-1.834a10.25 10.25 0 0 1-1.508 1.113l-.008.004-.71-.41s1.837-1.095 2.65-2.34l.091-.15.344-.595c.07-.122.27-.14.464-.028zm14.328 8.449l-.302.521-.956-.552-.088.152a4.732 4.732 0 0 1-.485.679c.241.608.169 1.572-.257 2.674l-.096.238-.623-.36c.311-.883.442-1.505.274-1.835a10.335 10.335 0 0 1-1.508 1.114l-.008.004-.71-.41s1.837-1.096 2.65-2.341l.091-.15.088-.153-.685-.395c-.094-.055-.108-.209-.02-.36.074-.13.192-.194.28-.177l.042.016 2.313 1.335zm10.476 5.902c.17.098.252.254.225.368l-.018.046-.7 1.213a.06.06 0 0 0 0 .06l.022.023.778.45a.06.06 0 0 0 .06 0l.023-.023.7-1.213c.07-.121.267-.138.46-.027.17.098.25.253.225.366l-.018.046-2.038 3.53a.06.06 0 0 1-.052.029l-.03-.008-1.918-1.107a.284.284 0 0 1-.13-.328l.026-.06 1.926-3.336c.065-.125.264-.142.459-.03zm-37.383-17.195l-2.049-1.183-.173.3 2.05 1.182.172-.3zm17.42 6.423a.464.464 0 0 0-.415-.04c-.26.112-.55.534-.891 1.125-.344.596-.565 1.057-.532 1.339a.465.465 0 0 0 .243.338c.137.08.29.098.419.044.261-.112.546-.537.89-1.133.34-.59.566-1.049.533-1.331a.473.473 0 0 0-.247-.342zm19.97 13.452l-.779-.45a.06.06 0 0 0-.06 0l-.022.022-.675 1.17a.06.06 0 0 0 0 .06l.022.023.778.449a.06.06 0 0 0 .06 0l.023-.022.675-1.17a.06.06 0 0 0-.023-.082zm6.684 1.21c.138.156.202.352.074.486-.1.106-.286.288-.564.5.45.64.705 1.636.587 2.743l-.034.258-.625-.36c-.024-.919-.092-1.69-.547-2.23a7.664 7.664 0 0 1-1.634.711l-.299.086-.795-.458c2.155-.646 3.002-1.466 3.352-1.816.12-.12.347-.075.485.08zm-36.616-19.038l-.287.496 1.769 1.021-.299.517-4.05-2.338.3-.517 1.608.929.286-.496.673.388zm-10.591-8.338c.17.098.252.254.226.368l-.018.046-.487.845.623.36-.303.525-.623-.36-.607 1.051-.672-.388 1.397-2.42c.07-.122.27-.14.464-.027zm25.462 17.27l-.303.525-1.755-1.013.303-.525 1.755 1.013zm-21.102-14.541l-.296.512-.937-.542a4.576 4.576 0 0 1-.27.21c.324.397.585 1.05.508 1.857l-.026.205-.606-.35a1.967 1.967 0 0 0-.42-1.374 6.726 6.726 0 0 1-.857.395l-.259.092-.697-.402c.968-.31 1.556-.683 1.888-.95l.077-.065-.662-.382c-.093-.054-.106-.205-.02-.353.073-.127.189-.19.275-.174l.04.015 2.262 1.306zm-5.464-3.155l-1.2 2.08-2.241-1.293 1.2-2.08 2.241 1.293zm14.05 8.112l-.645 1.117a2.999 2.999 0 0 1-.359.512l-.096.095-.657-.38c.118-.113.243-.295.346-.463a9.209 9.209 0 0 1-1.094-.551l-.25-.144-1.426-.823.283-.49 1.436.83c.384.221.756.436 1.087.6l.24.114.165-.288-2.81-1.622.3-.516 3.48 2.01zm-15.003-7.98l-.926-.534-.61 1.056.927.535.61-1.056zm49.423 15.306c3.979 2.297 5.546 4.749 4.582 6.418-.945 1.638-3.843 1.49-7.822-.807-3.938-2.274-5.514-4.709-4.568-6.347.964-1.669 3.87-1.538 7.808.736zm-29.093-28.254c.453.261.709.686.65 1.021l-.023.09-1.815 3.144a.077.077 0 0 0 .004.084l.023.02 1.301.752a.715.715 0 0 1 .308.851c-.138.366-.553.548-.891.415l-.083-.04-1.333-.77a.076.076 0 0 0-.083.005l-.02.023-5.023 8.7a.15.15 0 0 1-.162.073l-.045-.018-10.263-5.925a.927.927 0 0 1-.39-1.167l.05-.097 2.318-4.016a.153.153 0 0 1 .162-.073l.045.017 1.662.959c.057.033.085.1.072.162l-.017.046-.866 1.499a.076.076 0 0 0 .006.083l.022.02 7.218 4.167c.027.016.06.013.084-.005l.02-.022 5.73-9.926c.202-.349.808-.379 1.339-.072zm19.974 11.532c.486.281.75.75.636 1.094l-.033.078-7.445 12.894a.152.152 0 0 1-.163.073l-.045-.018-10.816-6.244a.927.927 0 0 1-.388-1.17l.048-.097 1.854-3.211a.155.155 0 0 1 .21-.058l.629.363.85.494.179.104c.058.034.086.1.073.163l-.017.046-1.457 2.523a.389.389 0 0 0 .077.485l.064.046 7.435 4.292c.059.034.13.024.179-.018l.03-.038 3.297-5.71a.076.076 0 0 0-.005-.083l-.023-.02-1.332-.769a.68.68 0 0 1-.236-.923c.168-.292.583-.389.872-.275l.076.036 1.3.752c.028.015.061.012.085-.005l.02-.023.898-1.555a.076.076 0 0 0-.006-.084l-.022-.02-1.333-.77a.68.68 0 0 1-.235-.923c.17-.294.584-.39.873-.276l.076.036 1.3.752c.028.015.061.012.085-.006l.02-.023 1.05-1.82c.005-.005.008-.007.013-.015.202-.35.796-.383 1.327-.077zm8.396 17.973c-2.544-1.468-4.408-1.725-4.964-.761-.547.947.617 2.416 3.161 3.884 2.564 1.48 4.46 1.779 5.007.832.566-.981-.64-2.474-3.204-3.955zm-36.154-18.42l-7.218-4.168a.076.076 0 0 0-.084.005l-.02.023-.352.61a.387.387 0 0 0 .079.483l.063.046 6.882 3.973c.058.033.13.024.177-.018l.03-.037.47-.814a.076.076 0 0 0-.027-.104zm21.785-1.193c.46.266.403.69.14 1.15l-.002.004v.003l-3.405 5.897a.152.152 0 0 1-.163.074l-.045-.018-7.197-4.154a.927.927 0 0 1-.39-1.161l.047-.097 3.115-5.395c.004-.006.007-.007.012-.015.187-.324.712-.377 1.211-.137l.115.06c.486.281.75.75.636 1.095l-.033.077-2.733 4.734a.388.388 0 0 0 .08.48l.064.045 3.816 2.203c.059.034.13.025.177-.017l.03-.038 2.342-4.056c0-.003 0-.004.002-.007a.389.389 0 0 0-.143-.53l-1.295-.748-1.176-.678-.215-.125c-.276-.16-.362-.555-.177-.874.166-.287.482-.425.757-.321l.081.038 4.349 2.51zm25.335 12.819c.486.28.75.749.636 1.094l-.033.078-1.781 3.085a.079.079 0 0 0 .004.086l.024.021 1.298.75a.718.718 0 0 1 .308.854.698.698 0 0 1-.89.41l-.084-.04-1.33-.767a.077.077 0 0 0-.085.005l-.02.024-1.701 2.945a.153.153 0 0 1-.165.073l-.046-.018-1.656-.956a.153.153 0 0 1-.075-.164l.018-.046 4.238-7.341c.004-.007.009-.008.013-.016.202-.35.795-.384 1.327-.077zM213 131.63c.43.254.663.672.563.984l-.032.075-1.327 2.3a.078.078 0 0 0 .005.086l.023.02 1.577.91a.079.079 0 0 0 .086-.005l.02-.023 1.32-2.287c.171-.29.636-.342 1.084-.137l.112.057.03.018c.43.254.662.671.563.983l-.031.076-2.776 4.808c-.756 1.309-2.26 1.092-3.644.293-1.331-.769-2.252-1.904-1.644-3.157l.077-.145 2.768-4.794.003.002c.169-.293.633-.344 1.081-.139l.111.057.031.018zm6.018 3.474c.436.26.671.685.56.998l-.034.076-1.32 2.287a.078.078 0 0 0 .005.086l.023.02 1.577.91a.078.078 0 0 0 .086-.005l.02-.023 1.32-2.286c.17-.293.634-.345 1.082-.14l.111.057.03.018c.436.26.672.685.561.998l-.035.076-2.767 4.794c-.756 1.31-2.26 1.093-3.644.294-1.332-.77-2.253-1.905-1.644-3.157l.077-.145 2.768-4.795c.17-.291.634-.343 1.082-.137l.111.056.03.018zm-37.043-21.387l.11.07c.421.289.638.721.522 1.04l-.036.078-3.544 6.14a.151.151 0 0 1-.162.072l-.045-.017-6.477-3.74c-1.432-.826-1.763-1.799-1.127-3.018l.084-.154 2.508-4.343c.186-.323.712-.376 1.212-.137l.115.06.11.07c.421.288.639.721.523 1.04l-.036.078-1.29 2.233a.076.076 0 0 0 .005.084l.023.02 4.784 2.762c.027.016.06.013.085-.005l.02-.023 1.29-2.233c.2-.348.795-.383 1.326-.077zm31.168 23.443l-1.577-.91a.078.078 0 0 0-.086.005l-.02.023-.704 1.219c-.266.46-.04.834.484 1.137.488.281.899.309 1.168-.058l.06-.091.703-1.219a.079.079 0 0 0-.028-.106zm6.02 3.475l-1.577-.91a.078.078 0 0 0-.086.005l-.02.024-.704 1.218c-.266.461-.04.835.484 1.137.487.282.899.31 1.168-.057l.06-.092.703-1.218a.078.078 0 0 0-.028-.107zm-40.575-23.426l-4.784-2.762a.076.076 0 0 0-.084.005l-.02.023-.542.938c-.258.448-.093.77.305 1.029l.096.058 4.013 2.317c.058.034.13.025.177-.018l.031-.038.836-1.448a.077.077 0 0 0-.028-.104zM114.82 222.165c.17.099.252.254.226.368l-.018.046-2.282 3.953-3.393-1.958.954-1.651.671.387-.23.4 2.048 1.182 1.56-2.7c.07-.122.269-.14.463-.027zm-8.487-1.545c.131-.08.35.006.461.136.127.148.163.337.029.431a1.842 1.842 0 0 1-.215.129c.625.542.954 1.419.96 2.227l-.682-.393c-.155-.765-.418-1.181-.911-1.588-.41.122-.892.21-1.4.253l-.77-.445c1.271-.25 2.068-.467 2.528-.75zm11.61 7.261l-.396.687 2.887 1.668-.303.526-3.56-2.055.701-1.213.672.387zm29.686 13.227c.17.098.253.254.227.369l-.019.046-2.262 3.918-.672-.388 1.273-2.204-.777-.448c-.095-.055-.11-.207-.023-.358.076-.13.194-.195.282-.178l.042.015.776.448.69-1.193c.07-.122.269-.14.463-.027zm5.293 3.056c.17.098.252.254.226.368l-.018.046-2.262 3.919-.672-.389 2.262-3.918c.07-.121.269-.139.464-.026zm-12.494-7.214c.17.099.253.254.226.369l-.018.046-2.256 3.908-.672-.388 2.256-3.908c.07-.122.27-.139.464-.027zm-13.136-7.583c.17.098.253.254.227.368l-.019.046-2.256 3.908-.672-.388 2.256-3.908c.07-.122.27-.139.464-.026zm5.202 3.003c.17.098.252.254.226.368l-.018.046-2.257 3.908-.671-.387 1.127-1.953-.652-.376c-.371.62-.723 1.06-1.147 1.206-.313.11-.68.057-1.034-.147-.347-.201-.578-.493-.643-.821-.09-.478.162-1.051.57-1.756.403-.7.773-1.205 1.232-1.366.318-.109.688-.058 1.035.143.354.204.582.498.642.825.065.35-.049.751-.27 1.215l-.09.178.657.379.83-1.436c.07-.122.269-.138.463-.026zm24.061 18.483l-.3.52-4.001-2.31.3-.52 4.001 2.31zm-11.12-10.948c.17.099.252.254.225.369l-.018.046-.343.594a4.74 4.74 0 0 1-.486.68c.242.607.17 1.571-.256 2.673l-.096.238-.624-.36c.311-.883.444-1.505.274-1.834a10.28 10.28 0 0 1-1.508 1.113l-.007.004-.71-.41s1.837-1.096 2.649-2.341l.092-.15.343-.595c.071-.122.27-.139.464-.027zm-20.314-11.728c.17.098.252.254.226.368l-.019.047-.343.594a4.738 4.738 0 0 1-.485.679c.242.609.17 1.572-.256 2.674l-.096.238-.624-.36c.311-.883.443-1.505.274-1.835a10.25 10.25 0 0 1-1.508 1.113l-.008.005-.71-.41s1.838-1.096 2.65-2.341l.092-.15.343-.595c.07-.122.27-.14.464-.027zm14.328 8.448l-.301.522-.957-.552-.088.152a4.732 4.732 0 0 1-.485.678c.241.609.169 1.573-.257 2.674l-.096.238-.623-.36c.311-.883.442-1.504.274-1.834a10.335 10.335 0 0 1-1.508 1.113l-.008.005-.71-.41s1.838-1.096 2.65-2.342l.092-.15.088-.152-.685-.396c-.095-.054-.109-.209-.021-.36.074-.13.192-.193.28-.176l.042.015 2.313 1.335zm10.476 5.902c.17.099.252.254.226.368l-.019.047-.7 1.213a.06.06 0 0 0 0 .06l.022.022.778.45a.06.06 0 0 0 .06 0l.023-.023.7-1.213c.07-.12.267-.138.46-.026.17.097.251.252.225.365l-.018.046-2.038 3.53a.06.06 0 0 1-.051.03l-.03-.009-1.919-1.107a.284.284 0 0 1-.13-.327l.026-.06 1.926-3.336c.065-.125.264-.142.459-.03zm-37.383-17.195l-2.049-1.183-.173.3 2.05 1.183.172-.3zm17.42 6.423a.464.464 0 0 0-.415-.04c-.26.113-.55.535-.89 1.125-.345.596-.566 1.057-.533 1.34a.465.465 0 0 0 .243.337c.138.08.29.098.419.045.261-.113.546-.537.89-1.133.34-.59.566-1.05.533-1.332a.473.473 0 0 0-.247-.342zm19.97 13.453l-.779-.45a.06.06 0 0 0-.06 0l-.022.021-.675 1.17a.06.06 0 0 0 0 .06l.022.023.778.45a.06.06 0 0 0 .06 0l.023-.023.675-1.17a.06.06 0 0 0-.023-.081zm6.684 1.21c.138.155.203.352.074.486-.1.105-.285.288-.563.5.449.64.704 1.636.586 2.743l-.034.257-.625-.36c-.024-.919-.092-1.689-.547-2.23a7.664 7.664 0 0 1-1.634.711l-.299.087-.794-.459c2.154-.646 3.002-1.465 3.351-1.815.12-.12.347-.076.485.08zM120 227.38l-.287.496 1.769 1.02-.298.518-4.05-2.339.298-.517 1.61.93.286-.496.672.388zm-10.591-8.339c.17.099.253.255.226.369l-.018.046-.487.845.623.36-.303.524-.623-.36-.607 1.052-.672-.388 1.398-2.42c.07-.123.269-.14.463-.028zm25.462 17.27l-.303.526-1.755-1.014.303-.525 1.755 1.014zM113.77 221.77l-.295.512-.938-.541a4.576 4.576 0 0 1-.27.21c.324.397.585 1.05.508 1.856l-.026.205-.606-.35a1.967 1.967 0 0 0-.42-1.374 6.726 6.726 0 0 1-.857.395l-.259.093-.697-.403c.968-.31 1.556-.682 1.888-.95l.077-.064-.662-.382c-.093-.054-.106-.205-.02-.354.073-.127.189-.19.275-.173l.041.015 2.261 1.305zm-5.464-3.154l-1.2 2.08-2.24-1.294 1.2-2.08 2.24 1.294zm14.05 8.112l-.645 1.116a2.999 2.999 0 0 1-.359.512l-.096.095-.657-.38c.119-.113.243-.294.346-.462a9.209 9.209 0 0 1-1.094-.552l-.25-.143-1.426-.824.283-.49 1.436.83c.384.222.756.437 1.087.601l.24.113.165-.287-2.809-1.622.298-.517 3.481 2.01zm-15.002-7.98l-.927-.534-.61 1.055.927.535.61-1.056zm49.422 15.305c3.98 2.298 5.546 4.749 4.582 6.418-.945 1.638-3.842 1.49-7.822-.807-3.938-2.274-5.513-4.708-4.568-6.346.964-1.67 3.87-1.539 7.808.735zM127.682 205.8c.453.262.709.686.65 1.022l-.023.089-1.815 3.144a.077.077 0 0 0 .004.085l.023.02 1.301.751a.715.715 0 0 1 .308.852c-.138.365-.553.547-.891.414l-.083-.04-1.332-.77a.076.076 0 0 0-.084.006l-.02.023-5.023 8.7a.15.15 0 0 1-.162.072l-.045-.017-10.263-5.926a.927.927 0 0 1-.389-1.167l.048-.097 2.319-4.015a.153.153 0 0 1 .162-.074l.046.017 1.66.96c.058.033.086.1.073.162l-.017.046-.865 1.498a.076.076 0 0 0 .005.084l.022.02 7.218 4.167c.028.016.06.013.084-.005l.02-.023 5.73-9.926c.202-.348.808-.378 1.339-.072zm19.974 11.533c.487.28.75.75.636 1.094l-.033.077-7.445 12.895a.152.152 0 0 1-.162.072l-.046-.017-10.816-6.245a.927.927 0 0 1-.388-1.17l.048-.097 1.854-3.21a.155.155 0 0 1 .21-.058l.63.363.848.493.18.104c.058.034.086.1.073.163l-.017.046-1.457 2.524a.389.389 0 0 0 .077.484l.064.046 7.436 4.293c.058.034.13.024.178-.019l.03-.038 3.297-5.709a.076.076 0 0 0-.005-.083l-.023-.02-1.332-.77a.68.68 0 0 1-.236-.922c.169-.292.583-.39.872-.275l.076.036 1.301.751c.027.016.06.013.084-.005l.02-.023.898-1.555a.076.076 0 0 0-.005-.084l-.023-.02-1.332-.769a.68.68 0 0 1-.236-.923c.17-.294.584-.39.873-.277l.076.037 1.301.751c.027.016.06.012.084-.006l.02-.023 1.051-1.82c.004-.005.007-.006.012-.014.202-.35.796-.384 1.327-.077zm8.396 17.973c-2.544-1.469-4.408-1.726-4.964-.762-.547.947.617 2.416 3.161 3.885 2.564 1.48 4.46 1.778 5.007.831.566-.98-.64-2.474-3.204-3.954zm-36.154-18.421l-7.218-4.168a.076.076 0 0 0-.084.006l-.02.022-.352.61a.387.387 0 0 0 .079.483l.064.046 6.88 3.973c.059.034.13.025.178-.017l.031-.038.47-.814a.076.076 0 0 0-.028-.103zm21.785-1.193c.46.266.404.69.14 1.15l-.002.004v.003l-3.405 5.897a.152.152 0 0 1-.163.074l-.045-.017-7.197-4.155a.927.927 0 0 1-.39-1.16l.047-.097 3.115-5.395.012-.016c.187-.324.712-.377 1.211-.137l.115.06c.486.282.75.75.637 1.095l-.033.077-2.734 4.735a.388.388 0 0 0 .08.479l.064.045 3.817 2.204c.058.034.129.024.176-.018l.03-.038 2.342-4.055c.001-.004 0-.005.002-.008a.389.389 0 0 0-.143-.53l-1.295-.747-1.176-.679-.215-.125c-.276-.159-.361-.554-.177-.874.166-.287.482-.425.757-.32l.081.038 4.35 2.51zm25.335 12.82c.486.28.75.748.636 1.094l-.033.077-1.781 3.085a.079.079 0 0 0 .004.087l.024.02 1.298.75a.718.718 0 0 1 .308.854.698.698 0 0 1-.89.411l-.083-.04-1.33-.767a.077.077 0 0 0-.086.005l-.02.023-1.701 2.946a.153.153 0 0 1-.165.072l-.046-.018-1.656-.956a.153.153 0 0 1-.075-.163l.018-.046 4.238-7.342c.005-.007.009-.008.013-.016.202-.349.795-.384 1.327-.077zm-13.008-6.586c.43.255.662.673.562.984l-.031.076-1.328 2.3a.078.078 0 0 0 .005.086l.023.02 1.577.91a.079.079 0 0 0 .086-.005l.02-.023 1.321-2.287c.17-.291.635-.343 1.083-.137l.112.057.03.017c.43.255.662.672.563.983l-.031.076-2.776 4.808c-.756 1.31-2.26 1.093-3.643.294-1.332-.77-2.253-1.905-1.645-3.157l.077-.145 2.769-4.795s0 .002.002.002c.169-.292.633-.344 1.081-.139l.112.057.03.018zm6.017 3.474c.436.26.671.686.56.999l-.034.076-1.32 2.286a.078.078 0 0 0 .005.086l.023.02 1.577.91a.078.078 0 0 0 .086-.004l.02-.024 1.32-2.286c.17-.293.634-.344 1.082-.139l.111.057.03.017c.437.26.672.685.561.999l-.035.076-2.767 4.794c-.756 1.309-2.26 1.092-3.643.293-1.333-.77-2.253-1.905-1.645-3.157l.077-.145 2.769-4.794c.169-.292.633-.343 1.081-.138l.112.057.03.017zm-37.043-21.386l.11.069c.422.29.638.722.522 1.04l-.036.078-3.544 6.14a.151.151 0 0 1-.161.073l-.046-.017-6.477-3.74c-1.431-.827-1.763-1.8-1.127-3.018l.084-.154 2.508-4.344c.187-.323.713-.376 1.212-.137l.115.06.11.07c.421.289.639.722.523 1.04l-.036.078-1.29 2.233a.076.076 0 0 0 .005.085l.023.02 4.784 2.762c.027.016.06.013.085-.005l.02-.023 1.29-2.233c.2-.348.795-.383 1.326-.077zm31.168 23.442l-1.577-.91a.078.078 0 0 0-.086.005l-.02.023-.704 1.219c-.266.461-.04.834.484 1.137.488.281.899.31 1.168-.057l.06-.092.703-1.218a.079.079 0 0 0-.028-.107zm6.02 3.476l-1.577-.91a.078.078 0 0 0-.086.005l-.02.023-.704 1.219c-.266.46-.04.834.484 1.137.488.281.899.309 1.168-.058l.06-.091.703-1.219a.078.078 0 0 0-.028-.106zm-40.575-23.426l-4.784-2.762a.076.076 0 0 0-.084.005l-.02.022-.541.938c-.259.448-.094.77.304 1.03l.096.058 4.013 2.317c.058.033.13.025.178-.018l.03-.038.837-1.448a.077.077 0 0 0-.03-.104zM347.85 131.87c.171.1.253.255.227.369l-.018.046-2.282 3.953-3.392-1.959.953-1.65.672.387-.23.399 2.048 1.183 1.56-2.701c.07-.122.268-.139.463-.026zm-8.486-1.544c.132-.08.35.006.462.136.127.147.162.337.028.431a1.842 1.842 0 0 1-.214.128c.624.542.953 1.42.959 2.227l-.681-.393c-.156-.764-.418-1.18-.912-1.587-.409.121-.892.21-1.4.252l-.77-.444c1.272-.25 2.068-.467 2.528-.75zm11.611 7.26l-.397.688 2.888 1.667-.304.526-3.559-2.055.7-1.213.672.388zm29.686 13.228c.17.098.253.254.226.368l-.018.046-2.262 3.919-.672-.388 1.272-2.204-.776-.448c-.096-.055-.11-.207-.023-.359.075-.13.193-.194.282-.178l.041.016.777.448.689-1.194c.07-.121.27-.139.464-.026zm5.292 3.055c.17.099.253.254.226.369l-.018.046-2.262 3.918-.672-.388 2.262-3.918c.07-.122.27-.14.464-.027zm-12.494-7.213c.17.098.253.254.227.368l-.018.047-2.257 3.908-.672-.388 2.256-3.908c.071-.123.27-.14.464-.027zm-13.135-7.584c.17.098.253.254.226.369l-.018.046-2.256 3.908-.672-.388 2.256-3.908c.07-.122.27-.14.464-.027zm5.201 3.003c.17.099.253.254.226.368l-.018.046-2.256 3.909-.672-.388 1.127-1.952-.651-.376c-.372.62-.723 1.059-1.148 1.206-.313.11-.68.056-1.033-.148-.348-.2-.579-.492-.643-.82-.09-.479.162-1.051.569-1.756.404-.7.773-1.205 1.233-1.366.317-.11.687-.058 1.035.142.353.204.581.499.641.826.066.349-.048.75-.27 1.215l-.089.177.657.38.829-1.437c.07-.121.27-.138.463-.026zm24.062 18.483l-.3.521-4.002-2.31.301-.52 4 2.31zm-11.121-10.947c.17.098.252.254.226.368l-.019.046-.343.595a4.74 4.74 0 0 1-.485.679c.241.608.17 1.572-.256 2.674l-.097.238-.623-.36c.311-.883.443-1.505.273-1.835a10.28 10.28 0 0 1-1.507 1.113l-.008.005-.71-.41s1.838-1.096 2.65-2.342l.092-.15.343-.594c.07-.122.27-.14.464-.027zm-20.313-11.729c.17.099.252.254.225.369l-.018.046-.343.595a4.738 4.738 0 0 1-.486.678c.242.61.17 1.573-.255 2.674l-.097.238-.623-.36c.31-.883.443-1.504.273-1.834a10.25 10.25 0 0 1-1.507 1.113l-.008.004-.71-.41s1.837-1.095 2.649-2.34l.092-.15.343-.595c.07-.122.27-.14.465-.028zm14.327 8.449l-.3.521-.957-.552-.088.152a4.732 4.732 0 0 1-.486.679c.242.608.17 1.572-.256 2.674l-.097.238-.623-.36c.312-.883.443-1.505.274-1.835a10.335 10.335 0 0 1-1.508 1.114l-.007.004-.71-.41s1.837-1.096 2.649-2.341l.092-.15.088-.153-.685-.395c-.095-.055-.108-.209-.02-.36.074-.13.192-.194.28-.177l.041.016 2.313 1.335zm10.476 5.902c.17.098.253.254.226.368l-.018.046-.7 1.213a.06.06 0 0 0 0 .06l.022.023.778.45a.06.06 0 0 0 .06 0l.022-.023.7-1.213c.07-.121.267-.138.46-.027.17.098.251.253.225.366l-.018.046-2.037 3.53a.06.06 0 0 1-.052.029l-.03-.008-1.918-1.107a.284.284 0 0 1-.13-.328l.025-.06 1.926-3.336c.066-.125.265-.142.46-.03zm-37.382-17.195l-2.05-1.183-.172.3 2.049 1.182.173-.3zm17.42 6.423a.464.464 0 0 0-.416-.04c-.26.112-.55.534-.89 1.125-.344.596-.565 1.057-.533 1.339a.465.465 0 0 0 .243.338c.138.08.291.098.42.044.26-.112.545-.537.89-1.133.34-.59.566-1.049.532-1.331a.473.473 0 0 0-.247-.342zm19.969 13.452l-.778-.45a.06.06 0 0 0-.06 0l-.022.022-.676 1.17a.06.06 0 0 0 0 .06l.022.023.779.449a.06.06 0 0 0 .06 0l.022-.022.676-1.17a.06.06 0 0 0-.023-.082zm6.684 1.21c.139.156.203.352.075.486-.1.106-.286.288-.564.5.45.64.705 1.636.586 2.743l-.034.258-.624-.36c-.024-.919-.093-1.69-.548-2.23a7.664 7.664 0 0 1-1.634.711l-.298.086-.795-.458c2.155-.646 3.002-1.466 3.352-1.816.12-.12.346-.075.484.08zm-36.616-19.038l-.286.496 1.769 1.021-.299.517-4.05-2.338.299-.517 1.609.929.286-.496.672.388zm-10.59-8.338c.17.098.252.254.226.368l-.018.046-.487.845.623.36-.303.525-.623-.36-.607 1.051-.672-.388 1.397-2.42c.07-.122.27-.14.463-.027zm25.462 17.27l-.303.525-1.755-1.013.303-.525 1.755 1.013zM346.8 131.476l-.296.512-.938-.542a4.576 4.576 0 0 1-.27.21c.324.397.585 1.05.509 1.857l-.026.205-.607-.35a1.967 1.967 0 0 0-.42-1.374 6.726 6.726 0 0 1-.856.395l-.26.092-.696-.402c.968-.31 1.556-.683 1.887-.95l.078-.065-.662-.382c-.093-.054-.106-.205-.02-.353.073-.127.188-.19.275-.174l.04.015 2.262 1.306zm-5.464-3.155l-1.201 2.08-2.24-1.293 1.2-2.08 2.24 1.293zm14.05 8.112l-.645 1.117a2.999 2.999 0 0 1-.36.512l-.095.095-.657-.38c.118-.113.242-.295.346-.463a9.209 9.209 0 0 1-1.094-.551l-.25-.144-1.426-.823.282-.49 1.437.83c.384.221.756.436 1.086.6l.24.114.166-.288-2.81-1.622.299-.516 3.48 2.01zm-15.003-7.98l-.926-.534-.61 1.056.927.535.61-1.056zm49.422 15.306c3.98 2.297 5.546 4.749 4.583 6.418-.946 1.638-3.843 1.49-7.822-.807-3.939-2.274-5.514-4.709-4.568-6.347.963-1.669 3.869-1.538 7.807.736zm-29.092-28.254c.452.261.708.686.65 1.021l-.023.09-1.816 3.144a.077.077 0 0 0 .005.084l.023.02 1.3.752a.715.715 0 0 1 .309.851c-.138.366-.553.548-.892.415l-.083-.04-1.332-.77a.076.076 0 0 0-.084.005l-.02.023-5.023 8.7a.15.15 0 0 1-.161.073l-.046-.018-10.262-5.925a.927.927 0 0 1-.39-1.167l.049-.097 2.318-4.016a.153.153 0 0 1 .163-.073l.045.017 1.661.959c.058.033.085.1.073.162l-.018.046-.865 1.499a.076.076 0 0 0 .005.083l.023.02 7.218 4.167c.027.016.06.013.083-.005l.02-.022 5.731-9.926c.201-.349.807-.379 1.339-.072zm19.973 11.532c.487.281.75.75.636 1.094l-.033.078-7.444 12.894a.152.152 0 0 1-.163.073l-.046-.018-10.816-6.244a.927.927 0 0 1-.388-1.17l.049-.097 1.854-3.211a.155.155 0 0 1 .21-.058l.629.363c.313.182.65.377.849.494l.18.104c.058.034.085.1.073.163l-.018.046-1.457 2.523a.389.389 0 0 0 .078.485l.064.046 7.435 4.292c.058.034.13.024.178-.018l.031-.038 3.296-5.71a.076.076 0 0 0-.005-.083l-.022-.02-1.333-.769a.68.68 0 0 1-.236-.923c.169-.292.583-.389.873-.275l.075.036 1.302.752c.027.015.06.012.083-.005l.02-.023.898-1.555a.076.076 0 0 0-.005-.084l-.023-.02-1.332-.77a.68.68 0 0 1-.235-.923c.17-.294.583-.39.873-.276l.075.036 1.302.752c.027.015.06.012.084-.006l.02-.023 1.05-1.82c.004-.005.008-.007.012-.015.202-.35.796-.383 1.327-.077zm8.397 17.973c-2.544-1.468-4.408-1.725-4.965-.761-.546.947.618 2.416 3.162 3.884 2.564 1.48 4.46 1.779 5.007.832.566-.981-.64-2.474-3.204-3.955zm-36.155-18.42l-7.217-4.168a.076.076 0 0 0-.084.005l-.02.023-.352.61a.387.387 0 0 0 .078.483l.064.046 6.881 3.973c.058.033.13.024.178-.018l.03-.037.47-.814a.076.076 0 0 0-.028-.104zm21.786-1.193c.46.266.403.69.139 1.15l-.001.004-.001.003-3.405 5.897a.152.152 0 0 1-.162.074l-.046-.018-7.196-4.154a.927.927 0 0 1-.39-1.161l.046-.097 3.115-5.395c.005-.006.008-.007.013-.015.187-.324.711-.377 1.21-.137l.115.06c.487.281.751.75.637 1.095l-.033.077-2.733 4.734a.388.388 0 0 0 .08.48l.063.045 3.817 2.203c.058.034.13.025.177-.017l.03-.038 2.342-4.056c0-.003 0-.004.002-.007a.389.389 0 0 0-.143-.53l-1.296-.748-1.175-.678-.215-.125c-.276-.16-.362-.555-.177-.874.165-.287.482-.425.757-.321l.08.038 4.35 2.51zm25.335 12.819c.486.28.749.749.635 1.094l-.033.078-1.78 3.085a.079.079 0 0 0 .004.086l.023.021 1.299.75a.718.718 0 0 1 .308.854.698.698 0 0 1-.891.41l-.083-.04-1.33-.767a.077.077 0 0 0-.086.005l-.02.024-1.7 2.945a.153.153 0 0 1-.165.073l-.046-.018-1.657-.956a.153.153 0 0 1-.074-.164l.017-.046 4.239-7.341c.004-.007.008-.008.013-.016.201-.35.795-.384 1.327-.077zm-13.009-6.585c.43.254.662.672.563.984l-.032.075-1.328 2.3a.078.078 0 0 0 .006.086l.023.02 1.577.91a.079.079 0 0 0 .085-.005l.021-.023 1.32-2.287c.17-.29.635-.342 1.084-.137l.112.057.03.018c.43.254.661.671.563.983l-.032.076-2.776 4.808c-.756 1.309-2.259 1.092-3.643.293-1.332-.769-2.253-1.904-1.644-3.157l.077-.145 2.768-4.794.002.002c.17-.293.634-.344 1.082-.139l.111.057.031.018zm6.017 3.474c.437.26.672.685.561.998l-.035.076-1.32 2.287a.078.078 0 0 0 .006.086l.023.02 1.576.91a.078.078 0 0 0 .086-.005l.021-.023 1.32-2.286c.169-.293.634-.345 1.081-.14l.112.057.03.018c.436.26.671.685.56.998l-.034.076-2.768 4.794c-.756 1.31-2.26 1.093-3.643.294-1.333-.77-2.253-1.905-1.644-3.157l.077-.145 2.768-4.795c.17-.291.634-.343 1.082-.137l.111.056.03.018zm-37.042-21.387l.11.07c.421.289.638.721.522 1.04l-.036.078-3.545 6.14a.151.151 0 0 1-.16.072l-.046-.017-6.477-3.74c-1.432-.826-1.763-1.799-1.128-3.018l.085-.154 2.508-4.343c.186-.323.712-.376 1.212-.137l.115.06.11.07c.42.288.638.721.522 1.04l-.036.078-1.289 2.233a.076.076 0 0 0 .005.084l.022.02 4.785 2.762c.027.016.06.013.084-.005l.02-.023 1.29-2.233c.2-.348.795-.383 1.327-.077zm31.167 23.443l-1.576-.91a.078.078 0 0 0-.086.005l-.02.023-.704 1.219c-.266.46-.04.834.484 1.137.487.281.898.309 1.168-.058l.06-.091.703-1.219a.079.079 0 0 0-.029-.106zm6.02 3.475l-1.576-.91a.078.078 0 0 0-.086.005l-.02.024-.704 1.218c-.267.461-.04.835.484 1.137.487.282.898.31 1.168-.057l.06-.092.703-1.218a.078.078 0 0 0-.029-.107zm-40.575-23.426l-4.784-2.762a.076.076 0 0 0-.083.005l-.02.023-.542.938c-.259.448-.093.77.305 1.029l.095.058 4.013 2.317c.059.034.13.025.178-.018l.031-.038.836-1.448a.077.077 0 0 0-.029-.104zM288.86 222.165c.171.099.254.254.227.368l-.018.046-2.282 3.953-3.392-1.958.953-1.651.672.387-.23.4 2.048 1.182 1.56-2.7c.07-.122.268-.14.463-.027zm-8.486-1.545c.132-.08.35.006.462.136.127.148.162.337.028.431a1.842 1.842 0 0 1-.214.129c.624.542.953 1.419.959 2.227l-.681-.393c-.156-.765-.418-1.181-.911-1.588-.41.122-.893.21-1.4.253l-.771-.445c1.272-.25 2.068-.467 2.528-.75zm11.611 7.261l-.396.687 2.887 1.668-.304.526-3.559-2.055.7-1.213.672.387zm29.686 13.227c.17.098.253.254.226.369l-.018.046-2.262 3.918-.672-.388 1.272-2.204-.776-.448c-.096-.055-.11-.207-.023-.358.075-.13.194-.195.282-.178l.042.015.776.448.69-1.193c.07-.122.268-.14.463-.027zm5.292 3.056c.17.098.253.254.227.368l-.019.046-2.262 3.919-.672-.389 2.262-3.918c.07-.121.27-.139.464-.026zm-12.494-7.214c.17.099.253.254.227.369l-.018.046-2.257 3.908-.672-.388 2.257-3.908c.07-.122.269-.139.463-.027zm-13.135-7.583c.17.098.253.254.226.368l-.018.046-2.256 3.908-.672-.388 2.256-3.908c.07-.122.27-.139.464-.026zm5.201 3.003c.17.098.253.254.226.368l-.018.046-2.256 3.908-.672-.387 1.127-1.953-.651-.376c-.372.62-.723 1.06-1.148 1.206-.312.11-.68.057-1.033-.147-.347-.201-.578-.493-.643-.821-.09-.478.162-1.051.569-1.756.404-.7.774-1.205 1.233-1.366.317-.109.687-.058 1.035.143.353.204.581.498.642.825.065.35-.049.751-.271 1.215l-.088.178.656.379.829-1.436c.07-.122.27-.138.463-.026zm24.062 18.483l-.3.52-4.001-2.31.3-.52 4.001 2.31zm-11.121-10.948c.17.099.252.254.226.369l-.018.046-.344.594a4.74 4.74 0 0 1-.485.68c.241.607.17 1.571-.256 2.673l-.097.238-.623-.36c.311-.883.443-1.505.274-1.834a10.28 10.28 0 0 1-1.508 1.113l-.008.004-.71-.41s1.838-1.096 2.65-2.341l.092-.15.343-.595c.07-.122.27-.139.464-.027zm-20.313-11.728c.17.098.252.254.225.368l-.018.047-.343.594a4.738 4.738 0 0 1-.486.679c.242.609.17 1.572-.255 2.674l-.097.238-.623-.36c.31-.883.443-1.505.273-1.835a10.25 10.25 0 0 1-1.507 1.113l-.008.005-.71-.41s1.837-1.096 2.649-2.341l.092-.15.344-.595c.07-.122.27-.14.464-.027zm14.327 8.448l-.3.522-.957-.552-.088.152a4.732 4.732 0 0 1-.486.678c.242.609.17 1.573-.256 2.674l-.097.238-.623-.36c.312-.883.443-1.504.274-1.834a10.335 10.335 0 0 1-1.507 1.113l-.008.005-.71-.41s1.837-1.096 2.649-2.342l.092-.15.088-.152-.685-.396c-.094-.054-.108-.209-.02-.36.074-.13.192-.193.28-.176l.041.015 2.313 1.335zm10.476 5.902c.17.099.253.254.226.368l-.018.047-.7 1.213a.06.06 0 0 0 0 .06l.022.022.778.45a.06.06 0 0 0 .06 0l.023-.023.7-1.213c.07-.12.267-.138.46-.026.169.097.25.252.224.365l-.017.046-2.038 3.53a.06.06 0 0 1-.052.03l-.03-.009-1.918-1.107a.284.284 0 0 1-.13-.327l.026-.06 1.926-3.336c.065-.125.264-.142.458-.03zm-37.382-17.195l-2.05-1.183-.172.3 2.05 1.183.172-.3zm17.42 6.423a.464.464 0 0 0-.415-.04c-.261.113-.55.535-.891 1.125-.344.596-.565 1.057-.532 1.34a.465.465 0 0 0 .242.337c.138.08.291.098.42.045.26-.113.546-.537.89-1.133.34-.59.566-1.05.533-1.332a.473.473 0 0 0-.248-.342zm19.97 13.453l-.779-.45a.06.06 0 0 0-.06 0l-.022.021-.676 1.17a.06.06 0 0 0 0 .06l.023.023.778.45a.06.06 0 0 0 .06 0l.022-.023.676-1.17a.06.06 0 0 0-.023-.081zm6.683 1.21c.139.155.203.352.075.486-.1.105-.286.288-.564.5.45.64.705 1.636.587 2.743l-.034.257-.625-.36c-.024-.919-.092-1.689-.548-2.23a7.664 7.664 0 0 1-1.634.711l-.298.087-.795-.459c2.155-.646 3.002-1.465 3.352-1.815.12-.12.347-.076.484.08zm-36.616-19.038l-.286.496 1.769 1.02-.299.518-4.05-2.339.299-.517 1.609.93.286-.496.672.388zm-10.59-8.339c.17.099.252.255.226.369l-.018.046-.487.845.623.36-.303.524-.623-.36-.607 1.052-.672-.388 1.397-2.42c.07-.123.27-.14.464-.028zm25.462 17.27l-.303.526-1.755-1.014.303-.525 1.755 1.014zm-21.102-14.541l-.296.512-.937-.541a4.576 4.576 0 0 1-.27.21c.324.397.585 1.05.508 1.856l-.026.205-.606-.35a1.967 1.967 0 0 0-.42-1.374 6.726 6.726 0 0 1-.857.395l-.259.093-.697-.403c.968-.31 1.556-.682 1.887-.95l.078-.064-.662-.382c-.093-.054-.106-.205-.02-.354.073-.127.188-.19.275-.173l.04.015 2.262 1.305zm-5.464-3.154l-1.2 2.08-2.241-1.294 1.2-2.08 2.241 1.294zm14.05 8.112l-.645 1.116a2.999 2.999 0 0 1-.36.512l-.095.095-.657-.38c.118-.113.243-.294.346-.462a9.209 9.209 0 0 1-1.094-.552l-.25-.143-1.426-.824.283-.49 1.436.83c.384.222.756.437 1.086.601l.24.113.166-.287-2.81-1.622.299-.517 3.48 2.01zm-15.003-7.98l-.926-.534-.61 1.055.927.535.61-1.056zm49.422 15.305c3.98 2.298 5.547 4.749 4.583 6.418-.946 1.638-3.843 1.49-7.822-.807-3.939-2.274-5.514-4.708-4.568-6.346.964-1.67 3.869-1.539 7.807.735zM301.724 205.8c.452.262.708.686.65 1.022l-.023.089-1.816 3.144a.077.077 0 0 0 .005.085l.023.02 1.301.751a.715.715 0 0 1 .308.852c-.138.365-.553.547-.892.414l-.082-.04-1.333-.77a.076.076 0 0 0-.083.006l-.02.023-5.024 8.7a.15.15 0 0 1-.16.072l-.046-.017-10.263-5.926a.927.927 0 0 1-.39-1.167l.049-.097 2.318-4.015a.153.153 0 0 1 .163-.074l.045.017 1.661.96c.058.033.086.1.073.162l-.018.046-.865 1.498a.076.076 0 0 0 .005.084l.023.02 7.218 4.167c.027.016.06.013.084-.005l.02-.023 5.73-9.926c.201-.348.808-.378 1.339-.072zm19.974 11.533c.486.28.75.75.636 1.094l-.033.077-7.445 12.895a.152.152 0 0 1-.163.072l-.045-.017-10.817-6.245a.927.927 0 0 1-.388-1.17l.05-.097 1.853-3.21a.155.155 0 0 1 .21-.058l.629.363.85.493.178.104c.059.034.086.1.074.163l-.018.046-1.457 2.524a.389.389 0 0 0 .078.484l.064.046 7.435 4.293c.059.034.13.024.179-.019l.03-.038 3.297-5.709a.076.076 0 0 0-.006-.083l-.022-.02-1.333-.77a.68.68 0 0 1-.236-.922c.17-.292.583-.39.873-.275l.076.036 1.3.751c.028.016.06.013.085-.005l.02-.023.897-1.555a.076.076 0 0 0-.005-.084l-.022-.02-1.333-.769a.68.68 0 0 1-.235-.923c.17-.294.583-.39.873-.277l.075.037 1.302.751c.027.016.06.012.084-.006l.02-.023 1.05-1.82c.005-.005.008-.006.013-.014.202-.35.795-.384 1.327-.077zm8.396 17.973c-2.544-1.469-4.408-1.726-4.964-.762-.547.947.617 2.416 3.16 3.885 2.565 1.48 4.461 1.778 5.008.831.566-.98-.64-2.474-3.204-3.954zm-36.154-18.421l-7.218-4.168a.076.076 0 0 0-.084.006l-.02.022-.352.61a.387.387 0 0 0 .078.483l.064.046 6.881 3.973c.059.034.13.025.178-.017l.03-.038.47-.814a.076.076 0 0 0-.027-.103zm21.785-1.193c.46.266.403.69.139 1.15l-.001.004v.003l-3.406 5.897a.152.152 0 0 1-.162.074l-.045-.017-7.197-4.155a.927.927 0 0 1-.39-1.16l.046-.097 3.115-5.395c.005-.006.008-.008.013-.016.187-.324.712-.377 1.21-.137l.115.06c.487.282.751.75.637 1.095l-.033.077-2.733 4.735a.388.388 0 0 0 .08.479l.063.045 3.817 2.204c.058.034.13.024.177-.018l.03-.038 2.342-4.055c0-.004 0-.005.002-.008a.389.389 0 0 0-.143-.53l-1.296-.747-1.175-.679-.215-.125c-.276-.159-.362-.554-.177-.874.165-.287.482-.425.757-.32l.081.038 4.349 2.51zm25.335 12.82c.486.28.749.748.635 1.094l-.032.077-1.782 3.085a.079.079 0 0 0 .005.087l.024.02 1.298.75a.718.718 0 0 1 .308.854.698.698 0 0 1-.89.411l-.084-.04-1.33-.767a.077.077 0 0 0-.086.005l-.02.023-1.7 2.946a.153.153 0 0 1-.165.072l-.046-.018-1.657-.956a.153.153 0 0 1-.074-.163l.018-.046 4.238-7.342c.004-.007.008-.008.013-.016.202-.349.795-.384 1.327-.077zm-13.009-6.586c.43.255.662.673.563.984l-.032.076-1.327 2.3a.078.078 0 0 0 .005.086l.023.02 1.577.91a.079.079 0 0 0 .086-.005l.02-.023 1.32-2.287c.171-.291.636-.343 1.084-.137l.112.057.03.017c.43.255.662.672.563.983l-.032.076-2.775 4.808c-.756 1.31-2.26 1.093-3.644.294-1.331-.77-2.253-1.905-1.644-3.157l.077-.145 2.768-4.795.002.002c.17-.292.634-.344 1.082-.139l.111.057.031.018zm6.018 3.474c.436.26.67.686.56.999l-.034.076-1.32 2.286a.078.078 0 0 0 .005.086l.023.02 1.577.91a.078.078 0 0 0 .086-.004l.02-.024 1.32-2.286c.17-.293.634-.344 1.082-.139l.11.057.031.017c.436.26.671.685.561.999l-.035.076-2.768 4.794c-.756 1.309-2.259 1.092-3.643.293-1.332-.77-2.253-1.905-1.644-3.157l.077-.145 2.768-4.794c.17-.292.634-.343 1.082-.138l.111.057.03.017zm-37.043-21.386l.11.069c.421.29.638.722.522 1.04l-.036.078-3.545 6.14a.151.151 0 0 1-.16.073l-.046-.017-6.477-3.74c-1.432-.827-1.763-1.8-1.127-3.018l.084-.154 2.508-4.344c.186-.323.712-.376 1.212-.137l.115.06.11.07c.421.289.638.722.523 1.04l-.036.078-1.29 2.233a.076.076 0 0 0 .005.085l.023.02 4.784 2.762c.027.016.06.013.084-.005l.02-.023 1.29-2.233c.201-.348.795-.383 1.327-.077zm31.168 23.442l-1.577-.91a.078.078 0 0 0-.086.005l-.02.023-.704 1.219c-.266.461-.04.834.484 1.137.487.281.899.31 1.168-.057l.06-.092.703-1.218a.079.079 0 0 0-.028-.107zm6.02 3.476l-1.577-.91a.078.078 0 0 0-.086.005l-.02.023-.704 1.219c-.266.46-.04.834.484 1.137.487.281.898.309 1.168-.058l.06-.091.703-1.219a.078.078 0 0 0-.028-.106zm-40.575-23.426l-4.785-2.762a.076.076 0 0 0-.083.005l-.02.022-.542.938c-.258.448-.093.77.305 1.03l.095.058 4.014 2.317c.058.033.13.025.177-.018l.031-.038.836-1.448a.077.077 0 0 0-.028-.104z"/>
    </g>
</svg>
