<svg xmlns="http://www.w3.org/2000/svg" width="27" height="27" viewBox="0 0 27 27">
    <g fill="#FFF9ED" fill-rule="evenodd" opacity=".8">
        <path fill-rule="nonzero" d="M7.2 0H18c3.976 0 7.2 3.224 7.2 7.2V18c0 3.976-3.224 7.2-7.2 7.2H7.2C3.224 25.2 0 21.976 0 18V7.2C0 3.224 3.224 0 7.2 0zm0 .9C3.72.9.9 3.72.9 7.2V18c0 3.48 2.82 6.3 6.3 6.3H18c3.48 0 6.3-2.82 6.3-6.3V7.2c0-3.48-2.82-6.3-6.3-6.3H7.2z" opacity=".5" transform="translate(.9 .9)"/>
        <path d="M13.208 11.052l.024.002c.319-.3.649-.591.953-.906.26-.268.253-.379.036-.763l-1.013 1.667m1.177-1.833c1.09-.753 1.993-1.657 2.414-2.952-.905.902-1.707 1.887-2.414 2.952m-4.856 8.51c.017.022.035.042.053.063.833-.074 1.641-.259 2.416-.575 1.205-.49 2.195-1.25 2.827-2.409.157-.29.252-.626.313-.953.081-.43-.145-.655-.578-.58-.257.044-.513.148-.746.27-1.162.603-2.101 1.48-2.939 2.468-.47.554-.899 1.143-1.346 1.717m1.643-2.679c.36-.331.706-.667 1.07-.983.567-.49 1.166-.939 1.88-1.19.278-.097.577-.17.87-.181.875-.034 1.321.491 1.196 1.36-.1.692-.45 1.25-.923 1.739-1.095 1.132-2.452 1.787-3.968 2.13-.557.125-1.128.195-1.695.272-.411.056-.531.143-.639.55-.123.468-.807.965-1.39.96l.973-1.7-.55-.385.136-.249.605.308c.289-.496.566-.969.84-1.443 1.285-2.23 2.554-4.471 3.86-6.689.607-1.027 1.274-2.024 2.116-2.879.361-.366.794-.661 1.198-.984.066-.053.15-.083.23-.118.17-.073.343-.13.51.005.168.135.149.325.108.5-.159.677-.49 1.273-.91 1.819-.446.579-1 1.038-1.632 1.405-.067.038-.133.079-.208.124.18.292.115.573-.052.824-.156.233-.332.46-.531.656-1.174 1.162-2.172 2.458-2.997 3.887-.04.068-.074.138-.108.209-.005.01.005.028.01.053" transform="translate(.9 .9)"/>
    </g>
</svg>
