<svg xmlns="http://www.w3.org/2000/svg" width="27" height="27" viewBox="0 0 27 27">
    <g fill="#FFF9ED" opacity=".8">
        <path d="M8.1.9h10.8c3.976 0 7.2 3.224 7.2 7.2v10.8c0 3.976-3.224 7.2-7.2 7.2H8.1c-3.976 0-7.2-3.224-7.2-7.2V8.1C.9 4.124 4.124.9 8.1.9zm0 .9c-3.48 0-6.3 2.82-6.3 6.3v10.8c0 3.48 2.82 6.3 6.3 6.3h10.8c3.48 0 6.3-2.82 6.3-6.3V8.1c0-3.48-2.82-6.3-6.3-6.3H8.1z" opacity=".5"/>
        <path d="M8.306 16.281c1.053 0 1.668-.77 1.668-2.09 0-1.344-.632-2.122-1.668-2.122-.584 0-.997.3-1.223.753v-2.39H5.706V16.2h1.206l.04-.859c.22.56.69.94 1.354.94zm-.478-1.012c-.462 0-.745-.357-.745-1.053v-.082c0-.672.267-1.053.745-1.053.47 0 .761.333.761 1.094 0 .761-.291 1.093-.761 1.093zm4.039 1.012c.3 0 .648-.081.842-.203l.09-.85c-.147.049-.252.073-.414.073-.283 0-.372-.146-.372-.502v-4.366h-1.377V15c0 .9.364 1.28 1.23 1.28zm3.237 0c1.352 0 2.138-.778 2.138-2.106 0-1.328-.786-2.106-2.138-2.106-1.353 0-2.139.778-2.139 2.106 0 1.328.786 2.106 2.139 2.106zm0-.98c-.51 0-.762-.332-.762-1.126 0-.794.252-1.126.762-1.126s.761.332.761 1.126c0 .794-.25 1.126-.761 1.126zm4.5 2.64c1.37 0 2.277-.485 2.277-1.425 0-.81-.543-1.215-1.475-1.215h-1.385c-.267 0-.42-.097-.42-.276 0-.145.072-.234.258-.283.227.049.486.073.778.073 1.255 0 1.976-.494 1.976-1.369 0-.502-.235-.883-.68-1.118.121-.25.437-.421.948-.348l-.154-.915c-.794-.065-1.175.461-1.28 1.085-.235-.049-.51-.081-.81-.081-1.256 0-1.977.502-1.977 1.377 0 .502.227.875.657 1.11-.39.137-.657.437-.657.826 0 .421.268.688.616.842-.526.122-.745.43-.745.762 0 .583.607.956 2.073.956zm.033-3.912c-.357 0-.6-.227-.6-.583s.243-.591.6-.591c.356 0 .6.235.6.591s-.244.583-.6.583zm.065 3.021c-.786 0-1.126-.137-1.126-.372 0-.195.17-.284.615-.284h1.11c.373 0 .494.098.494.26 0 .226-.348.396-1.093.396z"/>
    </g>
</svg>
