<svg xmlns="http://www.w3.org/2000/svg" width="27" height="27" viewBox="0 0 27 27">
    <g fill="#FFF9ED" fill-rule="evenodd" opacity=".8">
        <path fill-rule="nonzero" d="M7.2 0H18c3.976 0 7.2 3.224 7.2 7.2V18c0 3.976-3.224 7.2-7.2 7.2H7.2C3.224 25.2 0 21.976 0 18V7.2C0 3.224 3.224 0 7.2 0zm0 .9C3.72.9.9 3.72.9 7.2V18c0 3.48 2.82 6.3 6.3 6.3H18c3.48 0 6.3-2.82 6.3-6.3V7.2c0-3.48-2.82-6.3-6.3-6.3H7.2z" opacity=".5" transform="translate(.9 .9)"/>
        <path d="M11.22 14.607v-4.014l3.528 2.007-3.529 2.007zm7.848-5.277c-.155-.585-.613-1.045-1.194-1.202-1.052-.284-5.274-.284-5.274-.284s-4.222 0-5.274.284c-.581.157-1.039.617-1.194 1.202-.282 1.06-.282 3.27-.282 3.27s0 2.21.282 3.27c.155.585.613 1.045 1.194 1.202 1.052.284 5.274.284 5.274.284s4.222 0 5.274-.284c.581-.157 1.039-.617 1.194-1.202.282-1.06.282-3.27.282-3.27s0-2.21-.282-3.27z" transform="translate(.9 .9)"/>
    </g>
</svg>
