<?xml version="1.0" encoding="UTF-8"?>
<svg width="84px" height="82px" viewBox="0 0 84 82" version="1.1" xmlns="http://www.w3.org/2000/svg" xmlns:xlink="http://www.w3.org/1999/xlink">
    <!-- Generator: Sketch 55.2 (78181) - https://sketchapp.com -->
    <title>bubble_2</title>
    <desc>Created with Sketch.</desc>
    <defs>
        <path d="M19.6160639,69.4196725 L9.32447344,73.2214202 C8.97035083,73.3522343 8.58643562,73.3801518 8.21711345,73.3019452 C7.1365061,73.0731187 6.44600126,72.0116129 6.67482771,70.9310056 L8.70116023,61.3618767 C3.03492373,55.0657078 0,46.7154221 0,37 C0,15 15.5621571,0 42,0 C68.4378429,0 84,15 84,37 C84,59 68.4378429,74 42,74 C33.3074588,74 25.790622,72.3784411 19.6160639,69.4196725 Z" id="path-1"></path>
        <filter x="-3.0%" y="-3.4%" width="108.3%" height="109.5%" filterUnits="objectBoundingBox" id="filter-2">
            <feOffset dx="1" dy="1" in="SourceAlpha" result="shadowOffsetOuter1"></feOffset>
            <feGaussianBlur stdDeviation="1" in="shadowOffsetOuter1" result="shadowBlurOuter1"></feGaussianBlur>
            <feColorMatrix values="0 0 0 0 0.0581833161   0 0 0 0 0.079960596   0 0 0 0 0.10827106  0 0 0 0.151387675 0" type="matrix" in="shadowBlurOuter1"></feColorMatrix>
        </filter>
    </defs>
    <g id="bubble_2" stroke="none" stroke-width="1" fill="none" fill-rule="evenodd">
        <g id="-g-img_bubble_2">
            <g id="Combined-Shape">
                <use fill="black" fill-opacity="1" filter="url(#filter-2)" xlink:href="#path-1"></use>
                <use fill="#D77628" fill-rule="evenodd" xlink:href="#path-1"></use>
            </g>
        </g>
        <path d="M35.008,49.288 C37.432,49.288 39.028,50.692 39.028,52.972 C39.028,55.864 36.976,58.216 34.168,58.216 C31.672,58.216 30.076,56.812 30.076,54.532 C30.076,51.64 32.2,49.288 35.008,49.288 Z M34.168,56.92 C36.304,56.92 37.504,55.024 37.504,53.104 C37.504,51.712 36.592,50.56 34.936,50.56 C32.884,50.56 31.6,52.456 31.6,54.376 C31.6,55.768 32.512,56.92 34.168,56.92 Z M46.6885,50.8 L42.9085,50.8 L42.4885,53.152 L46.0405,53.152 L45.8245,54.4 L42.2725,54.4 L41.6365,58 L40.1605,58 L41.6605,49.504 L46.9165,49.504 L46.6885,50.8 Z M53.773,50.8 L49.993,50.8 L49.573,53.152 L53.125,53.152 L52.909,54.4 L49.357,54.4 L48.721,58 L47.245,58 L48.745,49.504 L54.001,49.504 L53.773,50.8 Z" id="OFF" fill="#FFF9ED" fill-rule="nonzero"></path>
        <path d="M34.24,35.5836364 L33.6,36.3563636 L33.36,37.1745455 L32.52,37.6290909 L32.52,37.9927273 L31.8,38.1290909 L31.36,38.7654545 C30.9066644,38.9472736 30.213338,39.1745441 29.28,39.4472727 C28.9333316,39.72 28.5066692,39.8866664 28,39.9472727 C27.4933308,40.2503045 26.8533372,40.4927264 26.08,40.6745455 L25.6,40.5381818 L23.84,41.0836364 L22.96,41.0381818 L22.24,40.8563636 C22.0266656,40.91697 21.8400008,40.9775755 21.68,41.0381818 L20.64,41.1745455 L20,41.0836364 L19.6,41.22 C19.5466664,41.22 19.3733348,41.1593945 19.08,41.0381818 L18.96,40.9927273 C18.8533328,41.0533336 18.7066676,41.1139391 18.52,41.1745455 C18.3066656,41.1745455 18.0800012,41.1290914 17.84,41.0381818 L17.48,41.1290909 C17.3199992,41.1290909 17.2000004,41.1139395 17.12,41.0836364 C17.0666664,41.1139395 16.9866672,41.1290909 16.88,41.1290909 C16.6933324,41.1290909 16.4800012,41.0684855 16.24,40.9472727 L15.56,41.22 L15.12,40.72 L14.84,40.9018182 L14.36,40.6745455 C14.1199988,40.8563645 13.9066676,40.9472727 13.72,40.9472727 C13.5066656,40.9472727 13.3066676,40.7957591 13.12,40.4927273 C12.3733296,40.3715145 12,39.5684923 12,38.0836364 C12,37.0836314 12.399996,36.5381823 13.2,36.4472727 C13.4933348,36.2654536 13.8266648,36.1745455 14.2,36.1745455 L14.48,36.1745455 L15.64,36.0381818 C16.5466712,36.3715168 17,36.8109064 17,37.3563636 C17,37.5987891 16.8800012,37.8412109 16.64,38.0836364 C16.8000008,38.0836364 16.9733324,38.1290905 17.16,38.22 L17.92,38.0381818 C18.2666684,38.0381818 18.573332,38.1745441 18.84,38.4472727 C19.2666688,38.2957568 19.746664,38.22 20.28,38.22 L21.04,38.22 C21.3333348,38.0078777 21.546666,37.9018182 21.68,37.9018182 C21.8666676,37.9018182 22.0666656,37.977575 22.28,38.1290909 C22.546668,37.9169686 22.813332,37.7957577 23.08,37.7654545 L23.84,38.2654545 L23.92,38.1290909 C24.1333344,38.0987877 24.4266648,38.0381823 24.8,37.9472727 L25.28,37.9472727 L26.04,37.3563636 C26.5200024,37.41697 26.7999996,37.4472727 26.88,37.4472727 C27.0400008,37.4472727 27.3466644,37.2957591 27.8,36.9927273 L28.2,36.9927273 L28.32,36.7654545 L29.2,35.9927273 L29.76,36.0836364 C30.5333372,35.6593918 31.0133324,35.3260618 31.2,35.0836364 C31.2533336,34.9018173 31.28,34.6896982 31.28,34.4472727 C31.28,34.2654536 31.0666688,34.1290914 30.64,34.0381818 L29.92,33.4472727 L29.08,33.2654545 L27.88,33.5381818 L27.56,33.0836364 L27.24,33.1745455 L26.76,32.6745455 L26.6,32.8109091 C26.199998,32.72 25.9600004,32.6745455 25.88,32.6745455 C25.5599984,32.7351518 25.3066676,32.7957573 25.12,32.8563636 C25.0133328,32.7957573 24.8666676,32.659395 24.68,32.4472727 L24.48,32.5381818 C24.079998,32.6593945 23.613336,32.7503027 23.08,32.8109091 L22.8,32.4927273 L21.88,32.4018182 L21.12,32.0381818 L20.24,32.0836364 L19.36,31.5836364 L18.64,30.9018182 L18.36,29.9018182 L18.76,28.8563636 L19.68,28.5381818 C20.2933364,28.1745455 20.866664,27.9321218 21.4,27.8109091 L22.36,27.4018182 L24.6,26.9472727 L25,26.6290909 L25.72,26.6290909 L26.08,26.1290909 C26.1600004,26.1593941 26.2533328,26.22 26.36,26.3109091 C26.893336,25.7351486 27.4799968,25.4472727 28.12,25.4472727 C28.1466668,25.4169695 28.2666656,25.3412127 28.48,25.22 L28.56,25.1290909 C28.8000012,24.9169686 29.1466644,24.6745468 29.6,24.4018182 L29.6,24.1290909 C29.3866656,23.7654527 28.6400064,23.4321227 27.36,23.1290909 L26.36,23.22 C25.8799976,23.0987873 25.5200012,23.0381818 25.28,23.0381818 C24.9866652,23.0381818 24.6933348,23.0836359 24.4,23.1745455 L23.96,23.1745455 L23.2,23.4018182 L22.52,23.1745455 L22.2,23.5836364 L20.64,23.72 L19.68,24.0836364 C19.4399988,24.356365 19.186668,24.4927273 18.92,24.4927273 C18.7599992,24.4927273 18.546668,24.4169705 18.28,24.2654545 C18.2266664,24.4775768 18.1600004,24.6290905 18.08,24.72 L17.84,24.72 C17.4666648,24.72 17.080002,25.0836327 16.68,25.8109091 C16.4933324,25.8109091 16.3600004,25.7957577 16.28,25.7654545 L16,26.5381818 L14.48,25.7654545 L14.08,25.2654545 L14.24,24.9472727 L13.96,24.9927273 C13.7999992,24.72 13.72,24.4775768 13.72,24.2654545 C13.72,24.1139386 13.7333332,24.0078791 13.76,23.9472727 L14,23.0381818 L14.24,22.8109091 C14.4533344,22.5684836 14.7199984,22.4472727 15.04,22.4472727 L15.16,22.4472727 L15.48,21.9927273 L16.12,22.1290909 C16.4666684,21.8260591 16.839998,21.6745455 17.24,21.6745455 L17.44,21.6745455 C17.44,21.4927264 17.5199992,21.31091 17.68,21.1290909 L18.48,21.1290909 L18.84,20.9018182 L19.48,20.8109091 L20.04,21.3109091 L20,20.9018182 L20.6,20.9018182 L21.16,20.72 C21.3733344,20.6593936 21.8266632,20.5533341 22.52,20.4018182 L23,20.4472727 C23.4800024,20.2957568 24.0399968,20.22 24.68,20.22 L25.2,20.22 L25.04,20.3563636 L25.24,20.3563636 C25.4533344,20.3563636 25.6533324,20.4169691 25.84,20.5381818 L26.28,20.3563636 L27.12,20.4472727 C27.3066676,20.4472727 27.5733316,20.4321214 27.92,20.4018182 L28.64,20.4018182 L28.64,20.7654545 L29.56,21.1290909 L30.68,21.3563636 L31.2,22.22 L31.96,22.8563636 L32.32,23.8563636 L32.12,24.8563636 L32.12,24.9472727 C32.0666664,25.1290918 31.9200012,25.4472705 31.68,25.9018182 C31.3333316,26.5684882 30.8133368,27.0381818 30.12,27.3109091 L29.8,27.7654545 L28.76,28.3109091 L27.84,28.4927273 L27.28,28.9472727 L26.4,29.22 L25.76,29.5381818 L24.96,29.4018182 L24,29.7654545 L25,30.1290909 L26.08,30.1290909 L26.64,30.0836364 L27.08,30.0836364 C27.480002,30.0836364 27.7866656,30.1896959 28,30.4018182 C28.4800024,30.5836373 29.0399968,30.6745455 29.68,30.6745455 C29.7600004,30.765455 29.8533328,30.8563632 29.96,30.9472727 C29.9866668,30.9472727 30.0133332,30.9321214 30.04,30.9018182 C30.0666668,30.9018182 30.213332,30.9321209 30.48,30.9927273 L31.4,31.0836364 L32,31.5836364 L32.48,31.5836364 L33.44,32.6745455 L33.68,33.7654545 L34.24,34.4018182 L34.08,34.9472727 L34.24,35.5836364 Z M35.96,35.1287082 C35.7326182,35.423261 35.5992857,35.5803571 35.56,35.6 C35.6666672,35.466666 35.7999992,35.3066676 35.96,35.12 L35.96,35.1287082 L35.96,35.1287082 Z M35.54,34.2581602 C35.6213077,34.1389223 35.714641,33.9997872 35.82,33.8407547 C36.1666684,33.5992441 36.473332,33.4784906 36.74,33.4784906 C37.540004,33.4784906 37.94,34.0520697 37.94,35.1992453 C37.94,35.5313224 37.9266668,35.8633946 37.9,36.1954717 L38.18,36.6935849 L38.38,36.92 L39.1,37.1916981 L39.42,37.7350943 L40.02,37.8256604 L40.74,38.2784906 L41.3,38.2784906 L41.7,38.5501887 C42.1266688,38.6407552 42.3933328,38.7313203 42.5,38.8218868 L43.82,38.9124528 L44.74,38.8671698 L45.22,38.9577358 C45.7800028,38.746414 46.0999996,38.6407547 46.18,38.6407547 C46.2333336,38.6407547 46.4199984,38.6860373 46.74,38.7766038 C46.8466672,38.7162261 46.9933324,38.6407552 47.18,38.5501887 L47.98,38.5501887 L48.22,38.5049057 L48.5,38.2784906 C48.766668,38.0671688 49.1933304,37.8860385 49.78,37.7350943 L49.94,37.1464151 L51.06,37.1464151 C51.1666672,37.0558486 51.3133324,36.9501893 51.5,36.829434 C51.6066672,36.3464127 51.9399972,36.0596231 52.5,35.9690566 L52.62,35.9237736 C52.7000004,35.8030183 52.7933328,35.5916996 52.9,35.2898113 L53.5,33.9766038 L53.82,34.0671698 C54.0333344,33.7652815 54.14,33.5388687 54.14,33.3879245 C54.14,33.2671692 54.0600008,33.0256622 53.9,32.6633962 L54.22,32.4822642 L54.18,32.12 L54.22,31.9388679 L54.1,31.7577358 L54.1,31.0332075 L54.06,30.8973585 L52.82,30.1728302 L52.62,29.9916981 C52.4333324,29.9011316 52.3133336,29.8558491 52.26,29.8558491 L51.7,29.9464151 L51.38,29.765283 L50.94,29.9916981 L50.38,29.5388679 L50.1,29.5841509 L48.9,29.4030189 L47.98,29.4030189 L47.62,29.2671698 L46.7,29.5841509 L46.14,29.3124528 L46.02,29.2671698 L45.46,29.4935849 L44.66,29.4935849 L43.22,29.810566 L42.86,29.629434 L41.86,29.9464151 L41.62,29.8558491 L41.42,30.0369811 L41.06,30.4898113 L39.98,30.7162264 L39.02,30.1728302 C38.8599992,29.8105642 38.78,29.553963 38.78,29.4030189 L38.78,29.3577358 L38.9,28.9049057 L38.9,27.5916981 L39.22,27.32 L39.22,26.7313208 L40.06,26.4596226 C40.326668,26.1577343 40.5133328,25.9313215 40.62,25.7803774 C40.886668,25.5992444 41.02,25.4633967 41.02,25.3728302 C41.02,25.2822637 40.9800004,25.2218869 40.9,25.1916981 C41.1933348,24.4067885 41.5933308,23.8633977 42.1,23.5615094 L42.22,23.1992453 L42.5,22.52 L42.06,22.2030189 L41.7,21.2067925 L40.82,20.5728302 L41.78,19.0784906 L43.94,18.6256604 L44.14,18.3992453 L45.02,18.5350943 C45.3400016,18.3841502 45.6733316,18.3086792 46.02,18.3086792 C46.6066696,18.3086792 47.3533288,18.3539618 48.26,18.4445283 L48.34,18.3539623 L49.98,18.2633962 L50.58,18.5350943 L53.58,18.1728302 C54.4600044,18.4445297 55.1799972,18.5803774 55.74,18.5803774 C56.1933356,18.5803774 56.553332,18.474718 56.82,18.2633962 L58.82,18.1728302 L60.06,18.0369811 L61.1,17.9464151 L61.62,17.72 C62.6600052,18.082266 63.18,18.5049032 63.18,18.9879245 C63.18,19.5011346 62.7666708,19.8935835 61.94,20.165283 L60.9,20.210566 L59.82,20.6633962 L59.06,20.4822642 L58.42,20.6633962 L57.42,20.8898113 C57.2333324,20.8294337 57.073334,20.7841511 56.94,20.7539623 L56.5,20.8898113 L55.5,20.7539623 C54.9133304,20.9652841 53.753342,21.1916969 52.02,21.4332075 L50.78,21.3879245 L50.22,21.6143396 L49.94,21.4332075 L48.5,21.6596226 L47.7,21.4332075 L46.98,21.6596226 L46.62,21.5690566 L46.3,21.8860377 L45.94,21.9313208 L45.42,23.2445283 L45.42,24.0596226 L44.82,24.3313208 L44.62,24.7841509 C44.62,24.9954728 44.553334,25.2067914 44.42,25.4181132 L43.74,25.7350943 L43.74,26.0973585 C43.74,26.2181138 43.5666684,26.4445266 43.22,26.7766038 C44.1266712,26.565282 44.713332,26.4596226 44.98,26.4596226 C45.1933344,26.4596226 45.3799992,26.489811 45.54,26.5501887 L45.78,26.4596226 C45.8866672,26.399245 46.073332,26.3690566 46.34,26.3690566 C46.5266676,26.3690566 46.7666652,26.4294334 47.06,26.5501887 L47.78,26.4143396 L50.22,26.5049057 L50.62,26.6860377 C50.6733336,26.6860377 50.7399996,26.6709435 50.82,26.6407547 L50.98,26.6407547 C51.246668,26.6407547 51.4866656,26.7011315 51.7,26.8218868 L52.74,26.8671698 L53.62,27.0935849 L55.06,27.7275472 L55.7,28.6784906 L56.54,29.2218868 L56.94,30.8067925 L57.3,31.2596226 L57.18,32.074717 L57.26,33.4332075 C57.0466656,33.5539629 56.9133336,33.9313176 56.86,34.565283 L56.5,34.8369811 C56.1533316,35.9539678 55.7000028,36.6181122 55.14,36.829434 L54.7,37.3275472 C54.4866656,37.5690578 54.38,37.8860358 54.38,38.2784906 L54.38,38.4596226 C54.1666656,38.4898115 53.9000016,38.5501882 53.58,38.6407547 L53.66,38.6407547 C53.3133316,39.1841537 52.8200032,39.5011316 52.18,39.5916981 C52.0733328,39.6520758 51.7933356,39.8483002 51.34,40.1803774 C51.073332,40.421888 50.7933348,40.5426415 50.5,40.5426415 C50.4733332,40.5426415 50.4200004,40.5275473 50.34,40.4973585 L50.18,40.4973585 L48.94,41.2218868 L47.74,41.3124528 L47.66,41.3124528 C47.6066664,41.282264 47.5666668,41.2671698 47.54,41.2671698 C47.3266656,41.2671698 47.020002,41.4181117 46.62,41.72 L45.86,41.4483019 L45.22,41.72 L44.38,41.5841509 L44.14,41.674717 C43.7666648,41.674717 43.4733344,41.5539635 43.26,41.3124528 C42.7799976,41.2520752 42.5133336,41.2218868 42.46,41.2218868 C42.4333332,41.2218868 42.3466674,41.236981 42.2,41.2671698 C42.0533326,41.2973586 41.913334,41.3124528 41.78,41.3124528 L41.58,41.3124528 L41.06,40.9049057 C40.39333,40.7539615 39.9400012,40.5728312 39.7,40.3615094 L38.98,40.3615094 L38.22,39.6369811 L36.74,39.0030189 L36.34,38.1426415 L35.82,37.4633962 L35.3,35.7879245 C35.3,35.7275469 35.2866668,35.6671701 35.26,35.6067925 L35.26,35.4256604 C35.26,35.2143386 35.2999996,35.0030199 35.38,34.7916981 L35.54,34.565283 L35.54,34.2581602 L35.54,34.2581602 Z" id="35" fill="#FFF9ED" fill-rule="nonzero"></path>
        <path d="M70.2484549,36.5555561 C70.2484549,36.6859708 70.2212855,36.8000821 70.166946,36.8978931 C70.1995497,36.9957042 70.2158513,37.0880799 70.2158513,37.1750231 C70.2158513,37.2293626 70.1778143,37.3163045 70.101739,37.4358513 L70.101739,37.4684549 C70.101739,37.6749449 69.97676,37.9140351 69.7267984,38.1857325 L69.5963843,38.4302589 C69.4877053,38.4628626 69.4224989,38.5063336 69.4007631,38.5606731 C69.31382,38.7454273 69.1779733,38.8704062 68.993219,38.9356136 L68.8791067,39.049726 L68.5367696,39.2290454 L68.1944326,39.4735718 C68.0314141,39.5931187 67.8575304,39.6528912 67.6727762,39.6528912 L67.5586638,39.6202877 L67.2326285,39.7017965 L66.5968597,39.6365895 L65.9121856,39.1964418 L65.7165645,38.495466 L65.7165645,38.1368272 L65.6350557,37.8433954 L65.7002627,37.7129813 L65.6676592,37.5173602 C65.7980739,37.1804553 65.9284868,36.7837831 66.0589015,36.3273314 L66.2382209,36.2458226 L66.2382209,36.213219 C66.2382209,36.1914832 66.2436548,36.161597 66.2545227,36.1235593 C66.2653906,36.0855217 66.2708245,36.0610693 66.2708245,36.0502014 L66.2708245,36.0338996 C66.2816923,35.990428 66.3414649,35.8382798 66.4501439,35.5774502 C66.6566339,35.1970738 66.8250838,34.9797192 66.9554985,34.9253797 L66.9554985,34.5667409 L67.4119479,34.5178356 L67.754285,34.3222144 L68.2596397,34.3222144 L68.6834855,34.4526285 L69.1888402,34.4852321 L69.3029526,34.762362 C69.3246883,34.7732299 69.3627254,34.7840977 69.4170649,34.7949656 C69.5800834,34.8710408 69.7213639,35.0123214 69.8409108,35.2188114 L70.2321531,35.8871838 L70.2158513,36.3436331 C70.2375871,36.3871047 70.2484549,36.457745 70.2484549,36.5555561 Z M70.2647566,28.3883723 L70.101739,28.7307094 C70.0582674,28.8176525 70.0093623,28.9534992 69.9550231,29.1382535 L69.5637808,29.2523658 L69.0910296,29.6273064 L68.6671838,29.8881346 L68.4715626,30.1652646 C68.3846194,30.3608867 68.2650743,30.5021673 68.1129238,30.5891105 L67.9988114,30.9966546 L67.819492,30.9966546 L67.7868885,31.0781634 L67.6727762,31.1596722 L67.6401726,31.2574828 L67.3956462,31.5672163 L67.3956462,31.6487251 C67.3956462,31.768272 67.3358736,31.8878171 67.2163268,32.0073639 L67.0533091,32.1703816 L67.1185162,32.349701 L66.8413862,32.5290204 L66.8413862,32.692038 L66.5479544,33.0506768 L66.5479544,33.2299962 L66.0425998,33.7679544 L66.0099962,33.9798774 L65.6676592,34.4689303 L65.4557363,35.0068885 L65.0644939,35.6263555 L64.9992869,35.5611485 L65.0318904,35.870882 L64.8362692,36.0502014 L64.8036657,36.2784261 C64.5863078,36.6696704 64.4341595,37.0174379 64.3472163,37.321739 L64.2657075,37.3706443 L64.233104,37.5173602 L63.9233704,38.2509395 L63.9233704,38.5117678 L63.7114475,38.7236907 L63.7277493,38.8704066 L63.401714,39.5550807 L63.401714,39.8322106 L63.2876016,39.9952283 L63.2549981,40.1093406 L63.1897911,40.223453 L63.2223946,40.3864706 C63.1680551,40.5386212 63.1354519,40.6636001 63.124584,40.7614112 C63.2115272,40.9026939 63.3039034,41.3001976 63.124584,41.512016 C62.9452646,41.7238344 62.5036198,41.8036672 62.227987,41.6091029 C62.0432337,41.4786888 61.9834605,41.2069927 62.0486676,40.7940147 C62.0921392,40.5331852 62.1519117,40.1908516 62.227987,39.7670036 C62.3584017,39.5822493 62.4236082,39.3757624 62.4236082,39.1475366 C62.4236082,39.1910081 62.5051162,38.9899551 62.6681346,38.5443713 L63.0430752,37.7781884 L63.0430752,37.7129813 C63.0322073,37.6803776 63.0267734,37.6586422 63.0267734,37.6477743 C63.0267734,37.5390953 63.0648105,37.4086825 63.1408858,37.2565319 L63.1734893,37.2565319 C63.1843572,37.2673998 63.1952249,37.2728337 63.2060928,37.2728337 C63.2713002,37.2728337 63.3039034,37.1967596 63.3039034,37.044609 C63.3039034,36.9250621 63.2984695,36.8218187 63.2876016,36.7348755 L63.466921,36.5392543 L63.4343175,36.425142 L63.744051,35.9523908 L63.9396722,35.5448467 L64.0048793,35.5122432 L64.298311,34.974285 L64.5591392,34.3874215 C64.6243466,34.3222141 64.689553,34.2678754 64.7547604,34.2244038 C64.8199678,34.1809322 64.852571,34.1537629 64.852571,34.142895 L64.852571,34.1265932 L65.0155886,33.5723333 L65.1460027,33.3930139 L65.1623045,33.1973927 L65.5046415,32.8387539 L65.6676592,32.2844939 L65.7817715,32.1703816 L65.8632804,32.1214763 C65.9284877,32.0997405 66.0045619,31.9856293 66.091505,31.7791392 C66.2110519,31.4965739 66.3523325,31.2574838 66.5153509,31.0618616 L66.4827474,31.0292581 L66.6946703,30.5728087 L66.645765,30.6054122 L66.6783686,30.5402052 L66.4501439,30.4097911 L66.303428,30.4586963 C66.1730132,30.5565074 66.0480343,30.6054122 65.9284874,30.6054122 C65.8415442,30.6054122 65.7817717,30.5999784 65.749168,30.5891105 C65.5861495,30.6434499 65.4231335,30.6706193 65.2601151,30.6706193 L64.8851745,30.6054122 L65.1460027,30.8010334 L65.0970974,30.9803528 C65.1731727,31.1107676 65.2112098,31.2248788 65.2112098,31.3226898 C65.2112098,31.3770293 65.2057759,31.4205003 65.194908,31.453104 C65.2383796,31.5291792 65.2601151,31.621555 65.2601151,31.7302339 C65.2601151,31.9258561 65.1949087,32.2029833 65.0644939,32.5616239 L64.7058551,32.8224521 L64.4613286,33.1484874 L64.3146128,33.1973927 L64.2005004,33.4582209 L63.6462404,33.6049368 L63.4832228,33.7842562 L61.950857,33.9146703 L61.5270111,33.7842562 L60.9890529,33.3767121 L60.842337,33.1484874 L60.5326035,32.8224521 L60.5815088,32.5453221 C60.5271693,32.3605679 60.5,32.2192873 60.5,32.1214763 C60.5434716,31.9910615 60.6032441,31.849781 60.6793194,31.6976304 L60.7119229,31.6487251 L60.7119229,31.4041987 C60.7227908,31.4150666 60.7445263,31.4205004 60.77713,31.4205004 C60.8314695,31.4205004 60.8640727,31.4041988 60.8749406,31.3715951 C60.8749406,31.3498593 60.8423374,31.3063884 60.77713,31.241181 C60.8640732,30.9912194 60.9075441,30.7792986 60.9075441,30.6054122 C60.918412,30.5619406 60.9347136,30.4586972 60.9564494,30.2956787 L60.9890529,30.2956787 C60.9890529,30.3065466 60.9944868,30.3119805 61.0053547,30.3119805 C61.0162226,30.3119805 61.0325242,30.3065466 61.05426,30.2956787 C61.0759958,30.2848108 61.0922974,30.2793769 61.1031653,30.2793769 L61.119467,30.2956787 C61.2824855,30.1761318 61.385729,30.0837561 61.4292005,30.0185487 C61.4509363,30.0076808 61.5107089,29.9153051 61.60852,29.7414187 C61.6845952,29.611004 61.7552355,29.5240621 61.8204429,29.4805905 L61.8693482,29.4316852 C62.0541024,29.0187051 62.3366635,28.8122182 62.7170399,28.8122182 C62.8691905,28.8122182 63.2441273,28.9534987 63.8418616,29.2360641 C63.8962011,29.3664788 63.9342382,29.4751562 63.955974,29.5620993 L63.955974,29.5294958 L64.1678969,29.4316852 L64.6895533,29.5294958 L65.2601151,29.5294958 L65.6187539,29.6273064 L66.026298,29.5457976 L66.4012386,29.4968923 C66.7707471,29.312138 67.0098372,29.2197623 67.1185162,29.2197623 C67.1185162,29.2414981 67.12395,29.2577997 67.1348179,29.2686676 C67.1674216,29.2686676 67.2108926,29.1925934 67.2652321,29.0404429 L67.6075691,29.1056499 C67.6727765,29.0839141 67.7434168,29.0513109 67.819492,29.0078394 C67.8629636,28.942632 67.9173023,28.8828594 67.9825097,28.82852 L67.9173026,28.7470111 C67.98251,28.6818037 68.1400921,28.5731264 68.3900538,28.4209759 C68.6400154,28.2688253 68.8410685,28.1112432 68.993219,27.9482247 C69.1127659,27.7960741 69.2649142,27.72 69.4496684,27.72 C69.5909511,27.72 69.7539671,27.7797725 69.9387213,27.8993194 L70.2647566,28.3883723 Z M64.2005004,31.3878969 L64.1189916,31.0781634 L64.0048793,31.2085775 C63.9722756,31.1216343 63.8962014,31.0238247 63.7766546,30.9151457 C63.733183,30.7412594 63.6734104,30.6380159 63.5973352,30.6054122 C63.4995241,30.6054122 63.3636774,30.5456397 63.1897911,30.4260928 C63.0159047,30.4586965 62.8691903,30.4749981 62.7496434,30.4749981 C62.6518324,30.4749981 62.5594566,30.4532626 62.4725134,30.4097911 C62.4616455,30.4641305 62.4562117,30.5347708 62.4562117,30.621714 L62.2605905,30.7032228 L62.1464782,30.9151457 L62.1138746,31.1922757 L61.9182535,31.453104 L61.8041411,31.6487251 L61.8856499,31.7791392 L61.6900288,32.1051745 L61.7226323,32.2681922 L61.6900288,32.4638133 C61.7878398,32.7572465 61.9182527,32.9039609 62.0812711,32.9039609 L62.1301764,32.9039609 L62.7170399,32.8876592 L62.9615664,32.9528662 C63.0267737,32.876791 63.178922,32.7463782 63.4180158,32.5616239 L63.6951457,32.5616239 C63.7168815,32.5290202 63.7875218,32.4203429 63.9070687,32.2355886 C64.0592192,32.1051739 64.1352934,31.9747611 64.1352934,31.8443463 L64.1352934,31.7302339 L64.1515951,31.6161216 L64.2005004,31.3878969 Z M69.205142,36.4088402 L69.0910296,35.9686926 L68.9443137,35.7567696 L68.7486926,35.6589591 C68.7269568,35.6263554 68.6943536,35.5883183 68.650882,35.5448467 L68.4226573,35.5774502 L68.2270361,35.5122432 L68.1618291,35.7730714 C67.9770748,35.7730714 67.8412282,35.7241666 67.754285,35.6263555 L67.6727762,36.0012961 L67.5586638,36.0828049 L67.5260603,36.2784261 L67.1674215,36.6207631 L67.1022144,36.9631002 L66.9718003,37.0609108 C66.9500645,37.2130613 66.9065936,37.3706435 66.8413862,37.5336619 L66.8413862,37.6151707 C66.8413862,37.691246 66.8250846,37.772754 66.7924809,37.8596972 C66.8033488,38.087923 66.8196504,38.250939 66.8413862,38.3487501 C66.8957257,38.5552402 66.9935353,38.6747852 67.1348179,38.7073889 C67.2000253,38.696521 67.2978349,38.6747856 67.4282497,38.6421819 C67.4934571,38.5987103 67.6238699,38.5552393 67.819492,38.5117678 L67.9662079,38.4139572 L68.5856749,37.9738095 C68.6291465,37.8651306 68.6997868,37.7781887 68.7975979,37.7129813 C68.884541,37.6803776 68.9334458,37.6532083 68.9443137,37.6314725 C68.9443137,37.6206046 68.9443137,37.6151707 68.9443137,37.6151707 C68.9334458,37.6151707 68.928012,37.6097369 68.928012,37.598869 C68.9823515,37.5227937 69.0203885,37.4521534 69.0421243,37.386946 L69.1562367,36.8163843 L69.1562367,36.6859702 L69.205142,36.4088402 Z" id="%" fill="#FFF9ED" fill-rule="nonzero"></path>
    </g>
</svg>