<svg xmlns="http://www.w3.org/2000/svg" width="24" height="24" viewBox="0 0 24 24">
    <path fill="#D77628" fill-rule="evenodd" d="M12 24C5.373 24 0 18.627 0 12S5.373 0 12 0s12 5.373 12 12-5.373 12-12 12zm-.824-18.213a2 2 0 0 0-2 2v9.507a1.412 1.412 0 1 0 2.824 0v-2.823h2.333c2.33 0 4.204-1.413 4.204-4.358 0-2.944-2.034-4.326-4.204-4.326h-3.157zM12 8.47h2.04c.825 0 1.487.856 1.487 1.764 0 .909-.612 1.765-1.488 1.765h.132H12V8.47zM5.824 12a1.235 1.235 0 1 0 0 2.47h2.44V12h-2.44z" opacity=".7"/>
</svg>
