<svg xmlns="http://www.w3.org/2000/svg" width="164" height="21" viewBox="0 0 164 21">
    <g fill="none" fill-rule="evenodd">
        <path fill="#FFFBF4" d="M-878-3562h1920v4828H-878z"/>
        <path d="M-518-74H682v502H-518z" opacity=".703"/>
        <path fill="#FFF9ED" d="M-878-335h1920v885H-878z"/>
        <path fill="#FFF9ED" d="M-878-335h1920v885H-878z"/>
        <path fill="#FFF9ED" d="M-101.098-74H266v503h-367.098z"/>
        <g stroke="#1C2633" opacity=".4" transform="translate(-103 -75)">
            <rect width="366.6" height="501.6" x="1.7" y="1.7" stroke-width="1.4" rx="4"/>
            <rect width="357.1" height="492.1" x="6.45" y="6.45" stroke-width=".9" opacity=".7" rx="3"/>
        </g>
        <g fill="#1C2633">
            <path d="M153.382 9.727l4.19-4.19 4.192 4.19-4.191 4.192zM2.236 9.727l4.191-4.19 4.191 4.19-4.19 4.192z"/>
            <path fill-rule="nonzero" d="M28.245 6.976h11.228v1.92h-5.72v.801h6.728v1.974H24.463V9.697h6.652v-.8h-5.527V4.38H36.7v-.764H25.588V1.677h13.768v4.606H28.245v.693zm-2.967 8.376c0-1.067.698-1.779 1.861-2.223 1.3-.516 3.2-.694 5.353-.694 2.152 0 4.053.178 5.352.694 1.163.444 1.861 1.156 1.861 2.223s-.698 1.76-1.861 2.222c-1.3.516-3.2.694-5.352.694-2.153 0-4.053-.178-5.353-.694-1.163-.462-1.861-1.155-1.861-2.222zm2.656 0c0 .249.194.444.563.569.737.284 2.172.355 3.995.355 1.822 0 3.257-.07 4.014-.355.349-.125.543-.32.543-.57 0-.248-.194-.444-.543-.568-.757-.285-2.192-.356-4.014-.356-1.823 0-3.258.071-3.995.356-.369.124-.563.32-.563.569zm20.4 1.369h-4.692V1.766h6.496v2.116H46.24v10.723h2.23c.854 0 1.688-.036 2.366-.178v1.992c-.678.23-1.59.302-2.501.302zm7.409 1.085V1.482h2.579v16.324h-2.58zm-3.607-.196v-7.7h-3.239V7.794h3.239V1.571h2.56V17.61h-2.56zM71.45 9.217c0 2.863-.252 5.05-1.338 6.348-.737.89-1.92 1.37-3.316 1.37-1.377 0-2.56-.48-3.316-1.37-1.086-1.298-1.319-3.485-1.319-6.348 0-2.845.233-5.032 1.319-6.33.756-.89 1.94-1.387 3.316-1.387 1.396 0 2.58.497 3.316 1.387 1.086 1.298 1.338 3.485 1.338 6.33zm-6.67 0c0 2.418.135 4.214.717 5.014.29.392.756.605 1.299.605.543 0 1.028-.213 1.319-.605.581-.8.698-2.596.698-5.014 0-2.4-.117-4.197-.698-4.997-.291-.391-.776-.604-1.319-.604-.543 0-1.008.213-1.3.604-.581.8-.717 2.596-.717 4.997zm11.906 8.589h-2.657V1.482h2.657v16.324zm15.94-13.888v-2.24h2.599v8.25h-8.863v-8.25h2.599v2.24h3.665zm0 2.08h-3.665v1.85h3.665v-1.85zm7.931-1.12h2.463v2.134h-2.463v3.307h-2.656V1.482h2.656v3.396zm-2.656 6.082h2.656v7.023H87.313V10.96h2.656v1.618h7.932V10.96zm-7.932 3.68v1.263h7.932V14.64h-7.932zm15.223-12.963h8.746v1.37h3.044V1.482h2.657v11.451h-2.657V9.057h-3.044v1.636h-8.746V1.677zm8.746 3.45V6.96h3.044V5.127h-3.044zm-6.147-1.37v4.855h3.568V3.758h-3.568zm-1.571 14.12v-5.78h2.656v3.664h11.073v2.116h-13.73zM131.43 4.29V1.677h2.385v8.82h-10.433v-8.82h2.443v2.614h1.61V1.677h2.365v2.614h1.63zm-3.995 2.045h-1.61V8.47h1.61V6.336zM129.8 8.47h1.63V6.336h-1.63V8.47zm10.666-3.272v2.116H138.1v3.734h-2.657V1.482h2.657v3.716h2.366zm-16.115 9.513c0-1.155.582-1.973 1.532-2.507 1.28-.711 3.297-.96 5.488-.96 2.21 0 4.228.249 5.507.96.95.534 1.532 1.352 1.532 2.507 0 1.139-.581 1.956-1.532 2.49-1.28.711-3.296.96-5.507.96-2.191 0-4.208-.249-5.488-.96-.95-.534-1.532-1.351-1.532-2.49zm2.657 0c0 .356.174.64.562.854.718.409 2.095.533 3.801.533 1.726 0 3.103-.124 3.82-.533.388-.213.563-.498.563-.854 0-.373-.175-.657-.563-.87-.717-.41-2.094-.534-3.82-.534-1.706 0-3.083.124-3.8.533-.389.214-.563.498-.563.871z"/>
        </g>
    </g>
</svg>
