<?xml version="1.0" encoding="UTF-8"?>
<svg width="182px" height="20px" viewBox="0 0 182 20" version="1.1" xmlns="http://www.w3.org/2000/svg" xmlns:xlink="http://www.w3.org/1999/xlink">
    <!-- Generator: sketchtool 60.1 (101010) - https://sketch.com -->
    <title>41EA8A9E-C5CF-47D5-9581-EDB2FD2BB54C</title>
    <desc>Created with sketchtool.</desc>
    <g id="main" stroke="none" stroke-width="1" fill="none" fill-rule="evenodd">
        <g id="desktop_main" transform="translate(-1285.000000, -3561.000000)">
            <rect fill="#FFFBF4" x="0" y="0" width="1920" height="4828"></rect>
            <rect id="Rectangle-Copy-32" opacity="0.703357515" x="360" y="3488" width="1200" height="502"></rect>
            <rect id="background_4" fill="#FFF9ED" x="0" y="3227" width="1920" height="885"></rect>
            <rect id="background_4-copy-4" fill="#FFF9ED" x="0" y="3227" width="1920" height="885"></rect>
            <rect id="background_4-copy-3" fill="#FFF9ED" x="1192.90196" y="3488" width="367.098039" height="503"></rect>
            <g id="Group-29" transform="translate(1191.000000, 3487.000000)">
                <g id="fram_membership" opacity="0.400000006" stroke="#1C2633">
                    <rect id="Rectangle" stroke-width="1.4" x="1.7" y="1.7" width="366.6" height="501.6" rx="4"></rect>
                    <rect id="Rectangle" stroke-width="0.9" opacity="0.699999988" x="6.45" y="6.45" width="357.1" height="492.1" rx="3"></rect>
                </g>
                <g id="img-/-membership-title-/-longlong" transform="translate(94.259259, 74.000000)" fill="#1C2633">
                    <g id="-g-title_longlong" transform="translate(1.481481, 1.481481)">
                        <polygon id="Rectangle-Copy-22" transform="translate(4.444444, 8.243596) rotate(-45.000000) translate(-4.444444, -8.243596) " points="1.48148148 5.28063278 7.40740741 5.28063278 7.40740741 11.2065587 1.48148148 11.2065587"></polygon>
                        <path d="M44.6502583,5.49333333 L55.8756471,5.49333333 L55.8756471,7.41333333 L50.1563212,7.41333333 L50.1563212,8.21333333 L56.8837994,8.21333333 L56.8837994,10.1866667 L40.8696869,10.1866667 L40.8696869,8.21333333 L47.519615,8.21333333 L47.519615,7.41333333 L41.9941646,7.41333333 L41.9941646,2.89777778 L53.1032281,2.89777778 L53.1032281,2.13333333 L41.9941646,2.13333333 L41.9941646,0.195555556 L55.7593218,0.195555556 L55.7593218,4.8 L44.6502583,4.8 L44.6502583,5.49333333 Z M26.2437194,5.49333333 L37.4691082,5.49333333 L37.4691082,7.41333333 L31.7497823,7.41333333 L31.7497823,8.21333333 L38.4772605,8.21333333 L38.4772605,10.1866667 L22.4631481,10.1866667 L22.4631481,8.21333333 L29.1130761,8.21333333 L29.1130761,7.41333333 L23.5876257,7.41333333 L23.5876257,2.89777778 L34.6966892,2.89777778 L34.6966892,2.13333333 L23.5876257,2.13333333 L23.5876257,0.195555556 L37.3527829,0.195555556 L37.3527829,4.8 L26.2437194,4.8 L26.2437194,5.49333333 Z M41.6839639,13.8666667 C41.6839639,12.8 42.3819155,12.0888889 43.5451682,11.6444444 C44.8441337,11.1288889 46.7441132,10.9511111 48.8961307,10.9511111 C51.0481483,10.9511111 52.9481277,11.1288889 54.2470932,11.6444444 C55.410346,12.0888889 56.1082976,12.8 56.1082976,13.8666667 C56.1082976,14.9333333 55.410346,15.6266667 54.2470932,16.0888889 C52.9481277,16.6044444 51.0481483,16.7822222 48.8961307,16.7822222 C46.7441132,16.7822222 44.8441337,16.6044444 43.5451682,16.0888889 C42.3819155,15.6266667 41.6839639,14.9333333 41.6839639,13.8666667 Z M23.277425,13.8666667 C23.277425,12.8 23.9753766,12.0888889 25.1386293,11.6444444 C26.4375949,11.1288889 28.3375743,10.9511111 30.4895918,10.9511111 C32.6416094,10.9511111 34.5415888,11.1288889 35.8405544,11.6444444 C37.0038071,12.0888889 37.7017587,12.8 37.7017587,13.8666667 C37.7017587,14.9333333 37.0038071,15.6266667 35.8405544,16.0888889 C34.5415888,16.6044444 32.6416094,16.7822222 30.4895918,16.7822222 C28.3375743,16.7822222 26.4375949,16.6044444 25.1386293,16.0888889 C23.9753766,15.6266667 23.277425,14.9333333 23.277425,13.8666667 Z M44.3400576,13.8666667 C44.3400576,14.1155556 44.533933,14.3111111 44.9022964,14.4355556 C45.6390231,14.72 47.0737015,14.7911111 48.8961307,14.7911111 C50.71856,14.7911111 52.1532383,14.72 52.9093526,14.4355556 C53.2583284,14.3111111 53.4522039,14.1155556 53.4522039,13.8666667 C53.4522039,13.6177778 53.2583284,13.4222222 52.9093526,13.2977778 C52.1532383,13.0133333 50.71856,12.9422222 48.8961307,12.9422222 C47.0737015,12.9422222 45.6390231,13.0133333 44.9022964,13.2977778 C44.533933,13.4222222 44.3400576,13.6177778 44.3400576,13.8666667 Z M25.9335187,13.8666667 C25.9335187,14.1155556 26.1273941,14.3111111 26.4957575,14.4355556 C27.2324842,14.72 28.6671626,14.7911111 30.4895918,14.7911111 C32.3120211,14.7911111 33.7466995,14.72 34.5028137,14.4355556 C34.8517895,14.3111111 35.045665,14.1155556 35.045665,13.8666667 C35.045665,13.6177778 34.8517895,13.4222222 34.5028137,13.2977778 C33.7466995,13.0133333 32.3120211,12.9422222 30.4895918,12.9422222 C28.6671626,12.9422222 27.2324842,13.0133333 26.4957575,13.2977778 C26.1273941,13.4222222 25.9335187,13.6177778 25.9335187,13.8666667 Z M64.7357553,15.2355556 L60.0439693,15.2355556 L60.0439693,0.284444444 L66.538797,0.284444444 L66.538797,2.4 L62.6419004,2.4 L62.6419004,13.12 L64.8714681,13.12 C65.7245201,13.12 66.5581845,13.0844444 67.2367486,12.9422222 L67.2367486,14.9333333 C66.5581845,15.1644444 65.6469699,15.2355556 64.7357553,15.2355556 Z M72.1417976,16.32 L72.1417976,3.55271368e-15 L74.7203411,3.55271368e-15 L74.7203411,16.32 L72.1417976,16.32 Z M68.5357142,16.1244444 L68.5357142,8.42666667 L65.2979941,8.42666667 L65.2979941,6.31111111 L68.5357142,6.31111111 L68.5357142,0.0888888889 L71.0948702,0.0888888889 L71.0948702,16.1244444 L68.5357142,16.1244444 Z M87.8457093,7.73333333 C87.8457093,10.5955556 87.5936712,12.7822222 86.5079687,14.08 C85.771242,14.9688889 84.5886017,15.4488889 83.1926985,15.4488889 C81.8161827,15.4488889 80.6335425,14.9688889 79.8774282,14.08 C78.7917257,12.7822222 78.5590751,10.5955556 78.5590751,7.73333333 C78.5590751,4.88888889 78.7917257,2.70222222 79.8774282,1.40444444 C80.6335425,0.515555556 81.8161827,0.0177777778 83.1926985,0.0177777778 C84.5886017,0.0177777778 85.771242,0.515555556 86.5079687,1.40444444 C87.5936712,2.70222222 87.8457093,4.88888889 87.8457093,7.73333333 Z M81.1763937,7.73333333 C81.1763937,10.1511111 81.3121066,11.9466667 81.8937329,12.7466667 C82.1845461,13.1377778 82.6498472,13.3511111 83.1926985,13.3511111 C83.7355497,13.3511111 84.2202384,13.1377778 84.5110515,12.7466667 C85.0926779,11.9466667 85.2090032,10.1511111 85.2090032,7.73333333 C85.2090032,5.33333333 85.0926779,3.53777778 84.5110515,2.73777778 C84.2202384,2.34666667 83.7355497,2.13333333 83.1926985,2.13333333 C82.6498472,2.13333333 82.1845461,2.34666667 81.8937329,2.73777778 C81.3121066,3.53777778 81.1763937,5.33333333 81.1763937,7.73333333 Z M93.0803466,16.32 L90.4242529,16.32 L90.4242529,3.55271368e-15 L93.0803466,3.55271368e-15 L93.0803466,16.32 Z M109.016909,2.43555556 L109.016909,0.195555556 L111.61484,0.195555556 L111.61484,8.44444444 L102.754732,8.44444444 L102.754732,0.195555556 L105.352663,0.195555556 L105.352663,2.43555556 L109.016909,2.43555556 Z M109.016909,4.51555556 L105.352663,4.51555556 L105.352663,6.36444444 L109.016909,6.36444444 L109.016909,4.51555556 Z M116.946415,3.39555556 L119.408633,3.39555556 L119.408633,5.52888889 L116.946415,5.52888889 L116.946415,8.83555556 L114.290321,8.83555556 L114.290321,8.8817842e-16 L116.946415,8.8817842e-16 L116.946415,3.39555556 Z M114.290321,9.47555556 L116.946415,9.47555556 L116.946415,16.4977778 L103.704721,16.4977778 L103.704721,9.47555556 L106.360815,9.47555556 L106.360815,11.0933333 L114.290321,11.0933333 L114.290321,9.47555556 Z M106.360815,13.1555556 L106.360815,14.4177778 L114.290321,14.4177778 L114.290321,13.1555556 L106.360815,13.1555556 Z M121.580038,0.195555556 L130.323821,0.195555556 L130.323821,1.56444444 L133.367666,1.56444444 L133.367666,2.66453526e-15 L136.02376,2.66453526e-15 L136.02376,11.4488889 L133.367666,11.4488889 L133.367666,7.57333333 L130.323821,7.57333333 L130.323821,9.20888889 L121.580038,9.20888889 L121.580038,0.195555556 Z M130.323821,3.64444444 L130.323821,5.47555556 L133.367666,5.47555556 L133.367666,3.64444444 L130.323821,3.64444444 Z M124.177969,2.27555556 L124.177969,7.12888889 L127.745278,7.12888889 L127.745278,2.27555556 L124.177969,2.27555556 Z M122.607578,16.3911111 L122.607578,10.6133333 L125.263672,10.6133333 L125.263672,14.2755556 L136.33396,14.2755556 L136.33396,16.3911111 L122.607578,16.3911111 Z M147.743963,2.80888889 L147.743963,0.195555556 L150.128631,0.195555556 L150.128631,9.01333333 L139.698132,9.01333333 L139.698132,0.195555556 L142.140962,0.195555556 L142.140962,2.80888889 L143.750129,2.80888889 L143.750129,0.195555556 L146.115409,0.195555556 L146.115409,2.80888889 L147.743963,2.80888889 Z M143.817553,4.85333333 L142.208387,4.85333333 L142.208387,6.98666667 L143.817553,6.98666667 L143.817553,4.85333333 Z M146.182833,6.98666667 L147.811387,6.98666667 L147.811387,4.85333333 L146.182833,4.85333333 L146.182833,6.98666667 Z M156.845983,3.71555556 L156.845983,5.83111111 L154.480703,5.83111111 L154.480703,9.56444444 L151.824609,9.56444444 L151.824609,2.66453526e-15 L154.480703,2.66453526e-15 L154.480703,3.71555556 L156.845983,3.71555556 Z M140.734933,13.2266667 C140.734933,12.0711111 141.316559,11.2533333 142.266549,10.72 C143.546127,10.0088889 145.562432,9.76 147.753224,9.76 C149.963405,9.76 151.979709,10.0088889 153.259287,10.72 C154.209277,11.2533333 154.790903,12.0711111 154.790903,13.2266667 C154.790903,14.3644444 154.209277,15.1822222 153.259287,15.7155556 C151.979709,16.4266667 149.963405,16.6755556 147.753224,16.6755556 C145.562432,16.6755556 143.546127,16.4266667 142.266549,15.7155556 C141.316559,15.1822222 140.734933,14.3644444 140.734933,13.2266667 Z M143.391027,13.2266667 C143.391027,13.5822222 143.565515,13.8666667 143.953266,14.08 C144.670605,14.4888889 146.04712,14.6133333 147.753224,14.6133333 C149.478716,14.6133333 150.855232,14.4888889 151.572571,14.08 C151.960322,13.8666667 152.13481,13.5822222 152.13481,13.2266667 C152.13481,12.8533333 151.960322,12.5688889 151.572571,12.3555556 C150.855232,11.9466667 149.478716,11.8222222 147.753224,11.8222222 C146.04712,11.8222222 144.670605,11.9466667 143.953266,12.3555556 C143.565515,12.5688889 143.391027,12.8533333 143.391027,13.2266667 Z" id="롱데이밥면빵-copy" fill-rule="nonzero"></path>
                        <polygon id="Rectangle-Copy" transform="translate(173.952370, 8.195700) rotate(-45.000000) translate(-173.952370, -8.195700) " points="170.989407 5.2327373 176.915333 5.2327373 176.915333 11.1586632 170.989407 11.1586632"></polygon>
                    </g>
                </g>
            </g>
        </g>
    </g>
</svg>