<svg xmlns="http://www.w3.org/2000/svg" width="164" height="21" viewBox="0 0 164 21">
    <g fill="none" fill-rule="evenodd">
        <path fill="#FFFBF4" d="M-462-3562h1920v4828H-462z"/>
        <path d="M-102-74h1200v502H-102z" opacity=".703"/>
        <path fill="#FFF9ED" d="M-462-335h1920v885H-462z"/>
        <path fill="#FFF9ED" d="M-462-335h1920v885H-462z"/>
        <path fill="#FFF9ED" d="M-102-74h367.098v503H-102z"/>
        <g stroke="#1C2633" opacity=".4" transform="translate(-103 -74)">
            <rect width="366.6" height="501.6" x="1.7" y="1.7" stroke-width="1.4" rx="4"/>
            <rect width="357.1" height="492.1" x="6.45" y="6.45" stroke-width=".9" opacity=".7" rx="3"/>
        </g>
        <path fill="#1C2633" fill-rule="nonzero" d="M131.153 11.333c2.21 0 4.227.249 5.507.96.95.534 1.532 1.352 1.532 2.507 0 1.138-.582 1.956-1.532 2.49-1.28.711-3.297.96-5.507.96-2.191 0-4.208-.249-5.488-.96-.95-.534-1.532-1.352-1.532-2.49 0-1.155.582-1.973 1.532-2.507 1.28-.711 3.297-.96 5.488-.96zm-41.4-.285v1.619h7.93v-1.619h2.657v7.024H87.095v-7.024h2.657zm-61.258 2.223v2.685h11.072v2.116H25.838v-4.8h2.657zm80.164-1.085v3.664h11.072v2.116h-13.729v-5.78h2.657zM76.469 1.571v16.323h-2.657V1.571h2.657zm-18.364 0v16.323h-2.579V1.571h2.58zm-3.626.089v16.039h-2.56v-7.7h-3.238V7.883h3.238V1.66h2.56zm12.1-.071c1.397 0 2.58.497 3.316 1.386 1.086 1.299 1.338 3.486 1.338 6.33 0 2.864-.252 5.05-1.338 6.349-.737.889-1.92 1.37-3.316 1.37-1.376 0-2.56-.481-3.316-1.37-1.086-1.298-1.318-3.485-1.318-6.348 0-2.845.232-5.032 1.318-6.33.757-.89 1.94-1.387 3.316-1.387zm-16.657.266v2.116h-3.898v10.723h2.23c.854 0 1.687-.036 2.366-.178v1.991c-.679.232-1.59.303-2.501.303h-4.693V1.855h6.496zm81.23 11.54c-1.706 0-3.082.125-3.8.534-.388.213-.562.498-.562.871 0 .356.174.64.562.854.718.409 2.094.533 3.8.533 1.727 0 3.103-.124 3.82-.533.389-.213.563-.498.563-.854 0-.373-.174-.658-.562-.87-.718-.41-2.094-.534-3.82-.534zM97.684 14.73h-7.93v1.263h7.93v-1.263zM66.58 3.705c-.543 0-1.008.213-1.299.604-.582.8-.717 2.596-.717 4.997 0 2.418.135 4.214.717 5.014.291.391.756.605 1.3.605.542 0 1.027-.214 1.318-.605.582-.8.698-2.596.698-5.014 0-2.4-.116-4.197-.698-4.997-.29-.391-.776-.604-1.319-.604zM6.173 5.625l4.191 4.191-4.191 4.191-4.191-4.19 4.191-4.192zm151.145 0l4.192 4.191-4.192 4.191-4.19-4.19 4.19-4.192zM39.257 1.571v12.358H36.6V12.88h-3.704v-1.903H36.6V1.571h2.657zm80.164 0v11.451h-2.657V9.146h-3.044v1.636h-8.746V1.766h8.746v1.37h3.044V1.57h2.657zM35.825 8.168v1.902c-.815.232-1.707.303-2.715.303h-2.715v2.471h-2.657v-2.471H24.21v-2.01h9.036c.97 0 1.765-.017 2.58-.195zM137.882 1.57v3.716h2.365v2.116h-2.365v3.734h-2.657V1.571h2.657zm-12.275.195V4.38h1.61V1.766h2.365V4.38h1.629V1.766h2.385v8.82h-10.433v-8.82h2.444zm-25.267-.195v3.396h2.462v2.134h-2.462v3.307h-2.657V1.571h2.657zm-11.596.195v2.24h3.665v-2.24h2.598v8.251h-8.862v-8.25h2.599zm22.397 2.08h-3.568v4.855h3.568V3.847zm16.075 2.58h-1.61v2.133h1.61V6.425zm3.995 0h-1.629v2.133h1.629V6.425zm-38.802-.339h-3.665v1.85h3.665v-1.85zM29.813 1.482c1.532 0 2.967.302 3.898.996.66.497 1.086 1.227 1.086 2.151 0 .943-.427 1.654-1.086 2.152-.93.711-2.366 1.013-3.898 1.013s-2.967-.302-3.897-1.013c-.68-.498-1.086-1.21-1.086-2.152 0-.924.407-1.654 1.086-2.151.93-.694 2.365-.996 3.897-.996zm86.951 3.734h-3.044v1.832h3.044V5.216zm-86.95-1.832c-.893 0-1.63.143-2.037.445-.271.196-.427.462-.427.8s.156.605.427.8c.407.303 1.144.463 2.036.463.892 0 1.61-.16 2.036-.463a.934.934 0 0 0 .408-.8.934.934 0 0 0-.408-.8c-.426-.302-1.144-.445-2.036-.445z"/>
    </g>
</svg>
